<svg width="378" height="50" viewBox="0 0 378 50" fill="none" xmlns="http://www.w3.org/2000/svg">
<path d="M6.32792 40.8773C5.98658 40.92 5.34658 40.8773 4.87725 40.792C4.45058 40.7067 3.93858 40.4933 3.68258 40.28C3.42658 40.024 3.04258 39.5547 2.87192 39.128C2.65858 38.6587 2.53058 38.0613 2.48792 37.2507C2.44525 36.44 2.48792 35.928 2.65858 35.3733C2.74392 34.9893 2.99992 34.4773 3.25592 34.264C3.46925 34.0507 3.85325 33.752 4.10925 33.6667C4.36525 33.5813 4.83458 33.496 5.17592 33.496C5.51725 33.496 6.02925 33.5387 6.32792 33.624C6.58392 33.6667 7.09592 34.008 7.39458 34.264C7.77858 34.52 8.24792 35.0747 8.58925 35.4587C8.88792 35.8853 9.27192 36.2267 9.39992 36.2693C9.61325 36.312 9.82658 36.2693 9.91192 36.184C10.0399 36.0987 10.1252 35.8853 10.1252 35.7147C10.1252 35.5013 9.86925 34.8187 9.57058 34.1787C9.27192 33.5387 8.93058 32.6427 8.80258 32.2587C8.63192 31.6187 8.63192 30.5947 8.67458 25.9867C8.75992 22.9147 8.80258 18.7333 8.80258 16.5573C8.80258 13.7413 8.84525 12.5467 8.97325 12.0773C9.10125 11.7787 9.35725 11.096 9.65592 10.6267C9.91192 10.072 10.1252 9.51733 10.1252 9.34667C10.1252 9.176 10.0399 9.00533 9.95458 8.92C9.86925 8.74933 9.69858 8.70667 9.57058 8.70667C9.39992 8.70667 8.97325 9.00533 8.58925 9.304C8.07725 9.73067 7.56525 9.98667 7.13858 10.072C6.79725 10.1573 5.51725 10.2427 4.36525 10.2427C2.44525 10.2853 2.14658 10.2427 1.59192 9.98667C1.12258 9.816 0.78125 9.47467 0.52525 9.13333C0.14125 8.62133 0.0985833 8.36533 0.0559167 7.42667C0.01325 6.488 0.0559167 6.18933 0.26925 5.67733C0.439917 5.37867 0.78125 4.99467 0.951917 4.86667C1.12258 4.73867 1.71992 4.568 2.18925 4.44C2.70125 4.35467 3.21325 4.09867 3.34125 4.01333C3.46925 3.88533 3.72525 3.37333 3.85325 2.904C4.10925 2.264 4.32258 1.83733 4.57858 1.58133C4.79192 1.368 5.21858 1.15467 5.47458 1.06933C5.73058 0.984001 6.37058 0.898666 6.96792 0.898666C7.60792 0.898666 8.11992 0.984001 8.50392 1.112C8.84525 1.24 9.22925 1.53867 9.39992 1.79467C9.57058 2.008 9.78392 2.47733 9.86925 2.86133C9.95458 3.33067 9.95458 3.672 9.82658 4.14133C9.69858 4.73867 9.52792 4.99467 8.71725 5.76267C7.90658 6.488 7.73592 6.744 7.73592 7.08533C7.73592 7.29867 7.82125 7.55467 7.94925 7.64C8.03458 7.72533 8.29058 7.768 8.46125 7.72533C8.67458 7.68267 9.10125 7.55467 9.48525 7.42667C10.0399 7.21333 10.1679 7.21333 11.3626 7.42667C12.0879 7.55467 12.6853 7.59733 12.8559 7.512C13.0693 7.46933 13.2826 7.34133 13.3679 7.21333C13.4532 7.128 13.5813 6.78667 13.6666 6.488C13.7519 6.18933 13.9653 5.848 14.0506 5.72C14.1359 5.592 14.3492 5.464 14.5199 5.37867C14.6906 5.29333 15.0746 5.16533 15.3733 5.16533C15.6719 5.16533 16.3119 5.336 16.8239 5.50667C17.2506 5.67733 17.8906 5.76267 18.2746 5.76267C18.6586 5.76267 19.2559 5.63467 19.6826 5.464C20.1092 5.336 20.7919 5.08 21.1759 4.99467C21.6453 4.86667 22.7119 4.78133 24.5466 4.78133C26.9786 4.78133 27.3199 4.824 28.3439 5.12267C28.9412 5.336 29.7946 5.50667 30.2639 5.592C30.6906 5.67733 31.3306 5.848 31.5866 5.976C31.9279 6.14667 32.8239 6.40267 33.6772 6.53067C34.4453 6.70133 35.3839 6.95733 35.7253 7.128C36.0666 7.256 36.5359 7.55467 36.7066 7.768C36.9199 8.06667 37.2612 8.49333 37.4319 8.92C37.6452 9.26133 38.0719 10.2853 38.4559 11.1387C38.7546 11.992 39.1812 13.0587 39.3092 13.5707C39.3946 14.04 39.4799 14.9787 39.4799 15.6187C39.4799 16.2587 39.3946 17.1547 39.3519 17.624C39.2666 18.136 39.0532 18.9467 38.8826 19.4587C38.6693 20.1413 38.4559 20.5253 37.9866 20.952C37.6026 21.3787 37.0906 21.6347 36.4506 21.848C35.6399 22.104 35.3413 22.3173 35.0853 22.6587C34.8719 22.9573 34.7866 23.3413 34.7866 23.8107C34.7866 24.1947 34.6586 24.7493 34.4879 25.0907C34.3172 25.4747 34.0612 25.688 33.5066 25.9867C33.1652 26.2 32.6959 26.456 32.5252 26.6267C32.3546 26.7973 32.1413 27.224 32.0133 27.6933C31.8853 28.0773 31.6292 28.5893 31.5012 28.8027C31.3306 28.9733 30.9039 29.2293 30.5199 29.3573C30.1786 29.528 29.3679 29.8267 28.7279 30.1253C28.0879 30.424 27.3199 30.68 27.0639 30.7227C26.8079 30.7653 26.2959 30.7227 25.9972 30.68C25.6986 30.5947 25.0159 30.2533 24.5466 29.9547C24.0772 29.656 23.3092 29.272 22.8399 29.1013C22.4132 28.9307 21.5599 28.5467 20.9626 28.2053C20.4079 27.9067 19.7253 27.4373 19.4692 27.224C19.1706 27.0107 18.7866 26.456 18.5306 25.9867C18.1466 25.304 18.0613 24.8773 18.0186 23.9813C17.9333 22.9573 17.9759 22.7867 18.3172 21.976C18.5732 21.5067 18.7439 20.8667 18.7866 20.6107C18.8293 20.2693 18.7439 19.8427 18.5732 19.3307C18.3599 18.9467 18.2319 18.3067 18.2319 18.008C18.2319 17.624 18.3599 17.2827 18.6159 16.984C18.7439 16.6853 19.1279 16.3867 19.4266 16.2587C19.8106 16.088 20.1092 16.0453 21.2612 16.088C22.1572 16.1307 22.9679 16.088 23.6079 15.9173C24.1626 15.832 25.1012 15.7467 25.7839 15.7467C26.3813 15.704 27.1493 15.7893 27.4906 15.8747C27.7892 16.0027 28.2159 16.1733 28.5146 16.344C28.7706 16.5147 29.1973 16.9413 29.3679 17.3253C29.6666 17.9227 29.7092 18.1787 29.7092 19.288C29.7092 20.4827 29.6666 20.6533 29.3253 21.2507C29.0693 21.6773 28.6852 22.104 28.3866 22.3173C28.0879 22.488 27.6612 22.7013 27.4053 22.7867C27.1066 22.872 26.4239 22.9147 25.8692 22.9147C25.2292 22.9147 24.5466 22.8293 24.2479 22.744C23.9919 22.616 23.6079 22.4027 23.3946 22.1893C23.2239 22.0613 23.0106 21.8053 22.9252 21.6347C22.7972 21.5067 22.7119 20.6107 22.6693 19.672C22.6266 18.0933 22.5839 17.9227 22.2852 17.624C22.0719 17.4107 21.7733 17.3253 21.0479 17.2827C20.2799 17.24 20.0666 17.2827 19.8533 17.496C19.6826 17.6667 19.5546 17.9227 19.5546 18.0507C19.5546 18.1787 19.7253 18.7333 19.8959 19.2027C20.1519 19.928 20.2799 20.312 20.2372 20.7387C20.1519 21.0373 19.9386 21.6347 19.7253 22.0187C19.4692 22.5733 19.3412 22.9147 19.3412 23.5547C19.3412 23.9813 19.4266 24.6213 19.5546 25.0053C19.6399 25.3467 19.8959 25.8587 20.1519 26.1573C20.4506 26.456 21.1759 26.9253 21.9012 27.3093C22.6693 27.6933 23.3946 27.9493 23.6506 27.9493C23.9492 27.9493 24.5466 27.7787 25.1012 27.5227C25.7839 27.2667 26.2959 27.1387 26.8079 27.1387C27.1919 27.1387 27.7466 27.224 27.9599 27.352C28.2159 27.48 28.6426 27.736 28.8559 27.9067C29.1119 28.0773 29.4959 28.2053 29.7519 28.2053C29.9653 28.2053 30.3066 28.12 30.3919 27.992C30.5199 27.864 30.6906 27.3947 30.8186 27.0107C30.9893 26.5413 31.2452 26.1147 31.4586 25.9013C31.6719 25.688 32.1413 25.3893 32.4399 25.176C32.8239 25.0053 33.1652 24.664 33.2933 24.4933C33.4639 24.2373 33.4639 23.9813 33.4212 23.64C33.3786 23.384 33.1226 22.8293 32.8666 22.4453C32.5679 22.0187 32.2692 21.5067 32.1413 21.208C32.0559 20.952 31.7999 20.3547 31.6719 19.9707C31.5866 19.5013 31.4159 18.1787 31.3732 16.5573C31.2879 14.68 31.1599 13.5707 30.9039 12.6747C30.7332 11.9493 30.6052 10.9253 30.6052 10.4133C30.6052 9.90133 30.7332 9.176 30.8186 8.74933C30.9893 8.408 31.0746 7.98133 31.0746 7.72533C31.0746 7.512 30.9893 7.256 30.8186 7.128C30.6479 6.95733 30.2639 6.82933 29.7946 6.78667C29.3679 6.744 28.5999 6.57333 28.1306 6.40267C27.4053 6.14667 27.0212 6.06133 24.4613 6.06133L21.6026 6.14667L20.2372 6.616C19.3412 6.91467 18.5732 7.128 18.1466 7.128C17.7626 7.128 17.1226 6.91467 16.6532 6.744C16.1412 6.57333 15.6292 6.44534 15.5013 6.44534C15.3733 6.44534 15.1599 6.57333 15.0746 6.744C14.9039 6.95733 14.9039 7.17067 14.9893 7.384C15.0319 7.55467 15.3306 8.06667 15.5866 8.49333C15.8853 8.96267 16.2266 9.73067 16.3546 10.2427C16.5252 11.096 16.5679 12.4187 16.5679 21.592C16.5679 31.2773 16.5679 31.96 16.3119 32.6853C16.1839 33.112 15.9279 33.7947 15.6719 34.2213C15.4586 34.648 15.2879 35.2027 15.2452 35.3733C15.1599 35.6293 15.2026 35.8853 15.3733 36.056C15.5866 36.312 15.7572 36.3547 16.0132 36.2693C16.2266 36.2267 16.4826 36.056 16.6532 35.8427L17.3359 35.032C17.7199 34.648 17.8906 34.52 18.4452 34.4773C18.9999 34.392 19.2559 34.4773 20.3652 34.9467C21.4319 35.416 21.8586 35.5013 23.4799 35.7573C25.0159 35.928 25.4853 35.928 25.9119 35.8C26.2106 35.7147 27.0639 35.2453 27.8319 34.8187C28.5999 34.3493 29.4959 33.9653 29.8799 33.7947C30.3066 33.6667 30.8186 33.624 31.4159 33.624C32.0986 33.6667 32.4826 33.7947 32.9092 34.0933C33.2506 34.264 33.5919 34.6907 33.8052 35.032C34.0186 35.416 34.1466 35.928 34.1893 36.696C34.2319 37.4213 34.1466 38.0187 34.0186 38.5733C33.8479 39.0853 33.5919 39.512 33.1652 39.896C32.8239 40.28 32.3546 40.5787 32.0133 40.664C31.6719 40.7067 31.1173 40.792 30.7332 40.792C30.3919 40.792 29.8372 40.7067 29.5386 40.5787C29.2826 40.4933 28.8559 40.28 28.6852 40.0667C28.5146 39.896 28.0879 39.4693 27.7892 39C27.5332 38.616 27.0212 38.104 26.7652 37.8907C26.4239 37.72 25.9972 37.4213 25.7412 37.336C25.3999 37.2507 24.7599 37.1227 24.1626 37.08C23.6079 37.0373 22.6693 36.952 22.0719 36.8667C21.1332 36.7387 20.7919 36.7387 20.0666 36.952C19.5972 37.0373 18.5732 37.208 17.8479 37.2933C17.0799 37.3787 16.2266 37.5067 15.9706 37.5493C15.5866 37.5493 15.1599 37.5067 14.4773 37.208C13.6666 36.9093 13.3679 36.8667 12.5146 36.9093C11.7466 36.952 11.3199 37.0373 10.6799 37.336C10.2106 37.592 9.61325 37.976 9.31458 38.2747C9.05858 38.616 8.63192 39.128 8.37592 39.512C8.11992 39.8533 7.73592 40.3227 7.43725 40.4933C7.18125 40.664 6.66925 40.8347 6.32792 40.8773ZM69.0259 40.92C68.6846 40.92 68.1726 40.8347 67.8739 40.7067C67.5753 40.6213 67.2339 40.408 67.0632 40.1947C66.8926 40.0667 66.5086 39.5973 66.3379 39.1707C66.1246 38.7867 65.6979 38.2747 65.3993 38.0187C64.9726 37.6773 64.8446 37.592 64.3752 37.6773C64.0339 37.72 63.4366 37.8053 63.0099 37.8907C62.3699 38.0187 62.0286 38.0187 61.0472 37.8907C60.1512 37.7627 59.8099 37.7627 59.4259 37.8907C59.2126 37.9333 58.7006 38.0187 58.4019 38.0187C58.0179 38.0187 57.6766 37.9333 57.2499 37.592C56.7379 37.2507 56.5246 37.1653 55.7566 37.1227C54.9459 37.08 54.6899 37.1227 53.8366 37.464C53.2819 37.72 52.7273 37.8907 52.5566 37.8907C52.3433 37.8907 52.0019 37.7627 51.7886 37.592C51.4899 37.464 51.0206 37.208 50.7219 37.08C50.1246 36.824 50.0392 36.824 48.7592 36.9947C48.0339 37.1227 47.3086 37.2933 47.0099 37.464C46.6686 37.72 46.4126 38.0613 45.9432 39C45.4739 39.9387 45.2179 40.28 44.8339 40.536C44.5352 40.7067 44.0233 40.8347 43.5539 40.8773C43.0419 40.92 42.4446 40.8773 42.0606 40.792C41.6339 40.664 41.2072 40.408 40.7806 40.0667C40.3966 39.6827 40.1832 39.2987 40.0552 38.8293C39.8846 38.4027 39.7993 37.592 39.7993 37.0373C39.7993 36.184 39.8419 35.8 40.1406 35.288C40.3112 34.904 40.6099 34.52 40.8659 34.3493C41.0366 34.2213 41.4632 33.9653 41.8046 33.88C42.1033 33.8373 42.7006 33.7947 43.1272 33.8373C43.5539 33.88 44.2366 34.008 44.7486 34.2213C45.1753 34.392 45.9859 34.776 46.5833 35.1173L47.5646 35.672H51.0206L51.6606 36.1413C51.9592 36.3547 52.3859 36.568 52.6419 36.568C52.8552 36.568 53.0259 36.44 53.1112 36.312C53.1966 36.1413 53.1966 35.8853 53.1966 35.672C53.1112 35.4587 52.9406 34.9893 52.7273 34.5627C52.5139 34.2213 52.2153 33.5387 52.0872 33.112C51.8739 32.5147 51.8313 32.0027 51.8313 29.3573C51.8313 26.4133 51.8313 26.328 52.2153 25.2187C52.5566 24.3227 52.5992 23.9813 52.4286 23.768C52.3433 23.5973 52.1726 23.512 51.9166 23.512C51.5326 23.512 51.4046 23.64 51.0206 24.2373C50.7219 24.6213 50.2952 24.9627 50.0392 25.1333C49.7406 25.2613 49.3139 25.3893 49.0579 25.432C48.7166 25.4747 48.1619 25.432 47.7779 25.3467C47.3939 25.2613 46.8819 25.0053 46.6686 24.8347C46.4552 24.664 46.1139 24.3227 45.9432 23.9813C45.6873 23.5547 45.6446 23.2133 45.6446 22.0613C45.6446 21.0373 45.7299 20.4827 45.9006 20.056C46.0286 19.672 46.3699 19.2453 46.6686 18.9893C47.0099 18.648 47.4366 18.4773 47.9059 18.392C48.3326 18.3067 48.8446 18.264 49.1432 18.3067C49.3993 18.3493 49.8686 18.52 50.1246 18.648C50.4233 18.776 50.8073 19.1173 51.0206 19.4587C51.2339 19.8427 51.4899 20.1413 51.7032 20.1413C51.8739 20.184 52.1299 20.2267 52.2153 20.1413C52.3433 20.1413 52.5139 20.0133 52.5566 19.8853C52.5992 19.8 52.4286 19.16 52.2579 18.52C52.0446 17.88 51.8313 16.8133 51.7459 16.216C51.6606 15.4907 51.6606 14.3813 51.6606 13.5707C51.7459 12.76 51.8313 11.736 51.9592 11.2667C52.0872 10.7973 52.4286 9.90133 52.7273 9.26133C53.0259 8.62133 53.2393 7.93867 53.2393 7.768C53.2393 7.59733 53.1966 7.42667 53.1112 7.34133C53.0259 7.256 52.8126 7.128 52.6419 7.128C52.5139 7.128 52.0872 7.34133 51.8313 7.55467C51.4899 7.768 51.1059 8.024 50.9353 8.19467C50.7219 8.28 50.2952 8.36533 49.9966 8.36533C49.6979 8.36533 49.1006 8.19467 48.6312 7.98133C48.1619 7.81067 47.5646 7.68267 47.3512 7.68267C47.0099 7.68267 46.5833 7.85333 46.0286 8.19467C45.6019 8.45067 44.7912 8.87733 44.1939 9.21867C43.6819 9.51733 42.8712 9.816 42.4019 9.944C41.8472 10.072 41.5059 10.072 40.9939 9.944C40.5673 9.816 40.0979 9.64533 39.8419 9.51733C39.6712 9.34667 39.4153 9.00533 39.2446 8.70667C38.9886 8.32267 38.9033 7.81067 38.8606 7C38.8179 6.14667 38.8606 5.67733 39.0739 5.08C39.2446 4.568 39.5006 4.14133 39.8846 3.8C40.2259 3.45867 40.6526 3.16 40.9512 3.07467C41.1646 3.032 41.7619 2.94667 42.2313 2.94667C42.8712 2.94667 43.2126 3.032 43.6819 3.24533C44.1086 3.45867 44.3646 3.75733 44.7059 4.26933C44.9619 4.696 45.2606 5.16533 45.5166 5.42133C45.7299 5.67733 46.0286 5.93333 46.2846 6.01867C46.4979 6.14667 47.0526 6.36 47.6073 6.44534C48.1193 6.53067 48.7592 6.70133 49.0579 6.82933C49.3139 6.91467 49.7406 7 50.0392 7C50.3379 7 50.7219 6.872 51.1912 6.488C51.6179 6.18933 52.1299 5.93333 52.3859 5.89067C52.7699 5.80533 53.0686 5.89067 53.8792 6.31733C54.8179 6.744 54.9886 6.78667 55.8419 6.744C56.4392 6.70133 56.9939 6.616 57.3352 6.40267C57.6766 6.232 58.1459 6.06133 58.3592 6.01867C58.6579 5.976 59.4259 6.06133 60.5779 6.36C61.5166 6.57333 62.5833 6.744 62.9246 6.744C63.3086 6.744 63.7353 6.70133 63.9486 6.57333C64.2046 6.488 64.4606 6.232 64.6313 6.06133C64.8019 5.93333 65.1006 5.464 65.2286 5.03733C65.3993 4.65334 65.6126 4.14133 65.7406 3.928C65.8686 3.71467 66.2952 3.37333 66.5939 3.20267C67.0632 3.032 67.4899 2.94667 68.1299 2.94667C68.7699 2.94667 69.1966 3.032 69.7086 3.24533C70.0499 3.416 70.5192 3.672 70.6046 3.8C70.7752 3.97067 70.9886 4.35467 71.1166 4.73867C71.4152 5.208 71.4579 5.63467 71.4579 6.488C71.4579 7.21333 71.3726 7.81067 71.2019 8.23733C71.0739 8.536 70.7752 9.00533 70.5619 9.26133C70.2633 9.51733 69.8366 9.73067 69.3673 9.90133C68.8979 10.0293 68.4286 10.072 68.0019 9.98667C67.6179 9.944 67.1059 9.77333 66.7219 9.688C66.3806 9.60267 65.5699 9.176 64.8872 8.792C63.9059 8.23733 63.5219 8.10933 63.0526 8.10933C62.7539 8.10933 62.1992 8.19467 61.8579 8.36533C61.5166 8.49333 61.0046 8.62133 60.7913 8.62133C60.4926 8.62133 60.1939 8.57867 60.0659 8.49333C59.9379 8.408 59.6819 8.152 59.5112 7.85333C59.3832 7.59733 59.1273 7.384 58.9566 7.34133C58.7859 7.29867 58.5299 7.29867 58.4019 7.34133C58.2312 7.34133 58.1459 7.512 58.1033 7.81067C58.1033 8.19467 58.1886 8.62133 58.4872 9.304C58.7859 9.816 59.0846 10.6267 59.2126 11.1813C59.3406 11.6933 59.5112 12.7173 59.5539 13.4853C59.5539 14.2533 59.5539 15.448 59.4686 16.088C59.3832 16.8133 59.1699 17.88 58.9566 18.52C58.6579 19.416 58.6152 19.7573 58.7859 19.9707C58.8713 20.1413 59.0419 20.2267 59.2979 20.2267C59.6819 20.2267 59.8099 20.0987 60.1939 19.5013C60.4926 19.1173 60.9193 18.6907 61.1752 18.5627C61.4739 18.4773 61.9006 18.3067 62.1566 18.3067C62.4979 18.2213 63.0526 18.264 63.4366 18.3493C63.8206 18.4347 64.3326 18.648 64.5459 18.8613C64.7593 19.032 65.1006 19.416 65.2712 19.7573C65.5273 20.184 65.5699 20.4827 65.5699 21.6773C65.5699 22.7013 65.4846 23.1707 65.3139 23.6827C65.1859 23.9813 64.8446 24.4933 64.5459 24.7493C64.2046 25.048 63.7779 25.2613 63.3086 25.3467C62.8819 25.432 62.3699 25.432 62.0712 25.432C61.8153 25.3467 61.3459 25.2187 61.0899 25.048C60.7913 24.92 60.4072 24.6213 60.1939 24.2373C59.9806 23.8533 59.7246 23.5973 59.5112 23.5547C59.3406 23.512 59.0846 23.512 58.9993 23.5547C58.8713 23.5973 58.7006 23.7253 58.6579 23.8533C58.6152 23.9387 58.7859 24.5787 58.9566 25.2187C59.1699 25.816 59.3832 26.84 59.4259 27.5227C59.5112 28.1627 59.5539 29.144 59.5539 29.6987C59.5539 30.2533 59.5112 31.1067 59.4259 31.6187C59.3832 32.088 59.2126 32.8133 59.0846 33.1973C58.9993 33.5387 58.6579 34.3067 58.4019 34.8613C58.1459 35.4587 57.9753 36.056 57.9753 36.2693C58.0179 36.44 58.1459 36.6533 58.2312 36.7813C58.4019 36.8667 58.5726 36.8667 58.8713 36.7813C59.0846 36.6533 59.3832 36.3973 59.5112 36.184C59.7246 35.928 60.0233 35.5013 60.1939 35.288C60.4072 35.032 60.7913 34.776 61.0899 34.6907C61.3886 34.648 61.9006 34.6053 62.1139 34.648C62.4552 34.6907 62.9672 35.032 63.4366 35.3307C63.9059 35.7147 64.3326 35.9707 64.5459 35.9707C64.8019 35.9707 65.3566 35.672 65.9966 35.2453C66.5513 34.8613 67.3193 34.4347 67.7459 34.264C68.1299 34.0933 68.7699 33.88 69.1112 33.8373C69.5379 33.7947 69.9646 33.8373 70.4766 33.9653C70.9032 34.0933 71.3726 34.3493 71.5006 34.4773C71.6712 34.648 71.8846 35.032 72.0126 35.2453C72.2259 35.544 72.3112 36.0987 72.3539 36.8667C72.3966 37.6773 72.3539 38.1893 72.1406 38.744C71.9699 39.2987 71.7566 39.6827 71.3726 40.0667C71.0312 40.408 70.5619 40.664 70.2206 40.7493C69.9219 40.8347 69.3673 40.92 69.0259 40.92ZM75.9416 40.8347C75.2589 40.8347 74.7896 40.7493 74.3629 40.5787C73.9362 40.3653 73.5949 40.0667 73.3389 39.7253C73.1256 39.384 72.8696 38.8293 72.7842 38.4453C72.6562 38.104 72.5709 37.336 72.5709 36.824C72.5709 36.2693 72.6562 35.6293 72.7842 35.3307C72.8696 35.032 73.0829 34.648 73.2536 34.52C73.4243 34.3493 73.7656 34.0933 73.9789 34.008C74.2349 33.88 74.7469 33.7947 75.1736 33.7947C75.6429 33.7947 76.1976 33.88 76.6242 34.0507C77.0509 34.264 77.4349 34.52 77.7762 34.9893C78.0322 35.3307 78.3736 35.672 78.5016 35.7147C78.6296 35.7573 78.8429 35.7573 78.9709 35.7147C79.0989 35.672 79.2696 35.544 79.3123 35.4587C79.3549 35.3307 79.1842 34.8187 78.9282 34.3067C78.6296 33.624 78.5016 33.1547 78.4589 32.472C78.4162 31.832 78.4589 31.2773 78.6296 30.808C78.7576 30.3813 78.9709 29.9973 79.3123 29.6987C79.6109 29.4427 80.2936 29.016 80.8482 28.76C81.4882 28.4613 81.9576 28.1627 82.1709 27.9067C82.3416 27.6933 82.5122 27.224 82.5549 26.8827C82.5976 26.5413 82.7256 26.072 82.8536 25.9013C82.9816 25.688 83.3229 25.304 83.7069 25.048C84.0056 24.792 84.4323 24.3653 84.5603 24.1093L85.0296 23.0853C85.2002 22.7867 85.5416 22.4453 85.7976 22.2747C86.1816 22.0613 86.4376 22.0187 87.3336 22.0613C88.2723 22.104 88.4429 22.0613 88.6562 21.848C88.7843 21.6347 88.8269 21.3787 88.7843 20.9093C88.7416 20.5253 88.6136 20.056 88.4856 19.8427C88.3576 19.5867 87.9309 19.2453 87.5896 18.9893C87.2483 18.776 86.7789 18.4347 86.5229 18.264C86.3096 18.0933 85.8829 17.496 85.5416 16.9413C85.2429 16.344 84.5603 15.2773 84.0056 14.552C83.4509 13.7413 82.7256 12.9307 82.1709 12.504C81.6589 12.0773 81.1042 11.48 80.9336 11.1813C80.7203 10.7973 80.6776 10.4133 80.6776 9.432C80.6776 8.49333 80.5922 8.19467 80.4216 7.98133C80.2936 7.85333 80.0376 7.768 79.8669 7.768C79.7389 7.768 79.0136 8.152 78.3309 8.664C77.6483 9.13333 76.8376 9.64533 76.4962 9.77333C76.1976 9.90133 75.6003 10.0293 75.2162 10.072C74.7042 10.1147 74.2776 10.072 73.8509 9.90133C73.5096 9.77333 73.0403 9.51733 72.8696 9.304C72.6562 9.09067 72.4003 8.57867 72.2722 8.19467C72.1016 7.68267 72.0589 7.17067 72.1443 6.488C72.1443 5.93333 72.2722 5.25067 72.3576 4.99467C72.4429 4.696 72.7842 4.22667 73.0829 3.928C73.4243 3.62933 73.8509 3.33067 74.1069 3.24533C74.3629 3.16 74.7042 3.07467 74.8749 3.07467C75.0882 3.032 75.4722 3.032 75.7283 3.07467V3.032C75.9843 3.07467 76.4109 3.16 76.6669 3.24533C76.9229 3.288 77.2642 3.544 77.5202 3.75733C77.7762 4.01333 78.1176 4.44 78.2456 4.73867C78.4162 5.08 78.8003 5.54934 79.0563 5.80533C79.3976 6.14667 79.7389 6.36 80.0376 6.40267C80.3362 6.44534 81.4456 6.40267 82.5122 6.36C83.6216 6.27467 85.0722 6.14667 85.7549 6.06133C86.5656 5.976 87.1629 5.976 87.5042 6.06133C87.8029 6.14667 88.2723 6.40267 88.6136 6.70133C88.9123 7 89.3816 7.29867 89.6376 7.384C89.9789 7.46933 90.3629 7.46933 91.0456 7.384C91.6003 7.29867 93.6056 7.256 95.5683 7.256H99.0669L100.006 6.65867C100.518 6.31733 101.158 6.01867 101.414 5.976C101.67 5.93333 102.267 6.01867 102.907 6.18933C103.419 6.36 104.4 6.53067 105.083 6.57333C106.022 6.616 106.32 6.57333 106.619 6.40267C106.832 6.27467 107.046 5.93333 107.259 5.336C107.472 4.65334 107.728 4.312 108.155 3.928C108.582 3.544 108.966 3.33067 109.478 3.20267C109.947 3.11733 110.502 3.07467 110.928 3.16C111.312 3.20267 111.91 3.33067 112.166 3.45867C112.464 3.62933 112.891 3.928 113.104 4.184C113.275 4.44 113.531 4.90933 113.659 5.208L113.958 6.57333C114 7 113.958 7.64 113.872 8.06667C113.787 8.49333 113.531 8.96267 113.318 9.176C113.147 9.38933 112.806 9.688 112.55 9.816C112.294 9.90133 111.782 9.98667 111.27 9.98667C110.8 9.98667 110.203 9.90133 109.904 9.816C109.606 9.688 109.136 9.38933 108.838 9.09067C108.496 8.792 108.112 8.536 107.984 8.536C107.856 8.536 107.643 8.62133 107.558 8.70667C107.472 8.792 107.387 8.96267 107.387 9.09067C107.387 9.176 107.558 9.60267 107.728 9.98667C108.027 10.4987 108.07 10.8827 108.07 11.5653C108.07 12.0347 108.027 12.5893 107.942 12.76C107.856 12.9733 107.6 13.3573 107.344 13.5707C107.046 13.8267 106.576 14.0827 105.936 14.296C105.382 14.424 104.784 14.7227 104.571 14.8933C104.358 15.1067 104.102 15.576 103.974 16.0453C103.803 16.6427 103.547 17.0267 103.035 17.5387C102.48 18.0933 102.31 18.392 102.182 18.9467C102.096 19.3733 101.883 19.8853 101.712 20.0987C101.542 20.3547 101.2 20.6533 100.944 20.824C100.603 21.0373 100.262 21.1227 99.8776 21.1227C99.5362 21.1227 98.9816 21.0373 98.6402 20.9093C98.0002 20.7387 97.9149 20.7387 97.6162 20.9093C97.3176 21.08 97.2749 21.208 97.2749 21.7627C97.2749 22.0613 97.4029 22.6587 97.5309 23C97.7016 23.512 97.9149 23.7253 98.3843 24.0667C98.7256 24.28 99.2376 24.664 99.4936 24.8347C99.7922 25.0907 100.176 25.6027 100.518 26.328C100.859 26.9253 101.414 27.7787 101.755 28.248C102.096 28.7173 102.736 29.528 103.078 30.04C103.462 30.552 103.803 30.9787 103.846 30.9787C103.888 30.9787 104.272 31.2347 104.699 31.576C105.126 31.9173 105.552 32.4293 105.723 32.728C105.894 33.112 105.979 33.5813 105.979 34.4773C105.979 35.544 106.022 35.7573 106.278 35.9707C106.448 36.1413 106.662 36.184 106.918 36.0987C107.131 36.056 107.771 35.672 108.368 35.2453C109.008 34.8187 109.691 34.3493 109.947 34.2213C110.203 34.0933 110.715 33.9227 111.056 33.8373C111.568 33.752 111.952 33.752 112.464 33.8373C112.976 33.9653 113.36 34.136 113.744 34.4347C114.128 34.776 114.342 35.1173 114.512 35.6293C114.683 36.1413 114.726 36.6533 114.64 37.3787C114.598 37.976 114.512 38.6587 114.384 38.9147C114.256 39.1707 113.958 39.5973 113.702 39.8533C113.488 40.1093 113.019 40.408 112.678 40.536C112.251 40.664 111.782 40.7067 111.142 40.664C110.63 40.664 110.032 40.536 109.691 40.3653C109.35 40.1947 108.838 39.7253 108.198 38.9573C107.515 38.0613 107.131 37.72 106.704 37.5493C106.107 37.336 106.022 37.336 103.334 37.592C101.243 37.8053 100.347 37.848 99.7922 37.72C99.3656 37.6773 98.6829 37.5067 98.2989 37.336C97.7442 37.1227 97.4882 37.1227 97.1042 37.208C96.8482 37.2507 96.3789 37.5067 95.9949 37.72C95.6536 37.9333 95.0562 38.232 94.6722 38.4027C94.2029 38.5733 93.6909 38.6587 93.0936 38.6587C92.5389 38.6587 92.0269 38.5733 91.5576 38.4027C91.1736 38.232 90.2776 37.7627 89.5949 37.336C88.6136 36.7387 88.1869 36.568 87.8029 36.568C87.3763 36.568 87.1202 36.6533 86.6082 37.1227C86.2242 37.4213 85.7976 37.7627 85.6269 37.848C85.4563 37.9333 85.1149 37.976 84.9016 37.976C84.6882 37.976 84.1336 37.848 83.6642 37.72C83.1949 37.5493 82.2989 37.4213 81.4882 37.3787C80.2083 37.2933 80.1656 37.2933 79.7389 37.6347C79.4829 37.848 79.2269 38.232 79.0563 38.6587C78.9282 39.0853 78.5869 39.5973 78.3736 39.8533C78.1602 40.1093 77.7336 40.4507 77.3923 40.5787C77.0509 40.7493 76.5816 40.8347 75.9416 40.8347ZM83.8776 26.84C83.8776 27.0533 84.1336 27.48 84.3896 27.8213C84.6882 28.1627 85.0722 28.8027 85.3282 29.272C85.6269 29.8267 85.7549 30.296 85.8403 31.0213C85.8829 31.704 85.8403 32.1733 85.6696 32.728C85.5416 33.1547 85.1576 33.9227 84.9016 34.4773C84.6029 34.9893 84.3042 35.6293 84.2616 35.8853C84.1762 36.184 84.2189 36.3547 84.4323 36.5253C84.6029 36.696 84.8162 36.824 84.9016 36.824C84.9443 36.824 85.3282 36.568 85.7122 36.2267C86.0962 35.928 86.6082 35.5867 86.9069 35.4587C87.1629 35.3307 87.5896 35.2453 87.8029 35.2453C88.0162 35.2453 88.4429 35.16 88.7843 34.9893C89.0829 34.8613 89.7656 34.52 90.2349 34.2213C90.7043 33.9227 91.4722 33.5387 91.8989 33.4107C92.4963 33.24 92.9229 33.1547 93.5203 33.24C93.9896 33.24 94.6296 33.4107 94.9709 33.5387C95.2696 33.7093 96.1229 34.3067 96.8909 34.904C97.6162 35.5013 98.4696 36.0987 98.7256 36.2267C99.0243 36.3547 99.3656 36.3973 99.5362 36.3547C99.6642 36.312 99.8776 36.1413 99.9629 35.928C100.048 35.7147 100.006 35.416 99.8776 34.9467C99.7496 34.5627 99.5789 34.136 99.4509 34.008C99.3229 33.8373 98.8536 33.5387 98.3416 33.2827C97.8722 33.0267 97.3176 32.6427 97.1042 32.4293C96.8909 32.2587 96.4643 31.576 96.1656 30.9787C95.8669 30.3387 95.1416 29.272 94.6296 28.5467C94.1176 27.864 93.2642 26.9253 92.7949 26.4133C92.1549 25.7733 91.8562 25.3893 91.6856 24.8347C91.5576 24.3653 91.3442 24.024 91.1309 23.8533C90.8749 23.6827 90.5336 23.5973 90.0642 23.5973C89.7229 23.5973 88.9123 23.512 88.3149 23.384C87.6749 23.2987 87.1202 23.2133 86.9922 23.2133C86.8643 23.2133 86.6509 23.256 86.5229 23.3413C86.3949 23.4267 86.0962 23.8533 85.8829 24.28C85.6269 24.792 85.2002 25.3467 84.6882 25.816C84.1336 26.2853 83.8776 26.6267 83.8776 26.84ZM86.4802 8.23733C86.5229 8.57867 86.6936 9.048 86.8216 9.38933C87.0349 9.816 87.2909 10.0293 87.8456 10.328C88.2296 10.4987 88.7843 10.84 89.0829 11.0107C89.5096 11.3093 89.8083 11.6507 90.2776 12.5893C90.6189 13.272 91.2162 14.296 91.5576 14.8507C91.9842 15.4907 92.5816 16.216 93.2642 16.7707C94.2029 17.624 94.2882 17.752 94.4589 18.4347C94.5869 18.9467 94.7576 19.2453 95.0136 19.4587C95.3123 19.672 95.4829 19.7147 96.7629 19.6293C97.8722 19.544 98.3416 19.5867 98.9816 19.7573C99.4082 19.8427 99.8776 19.928 100.006 19.8853C100.176 19.8427 100.39 19.672 100.518 19.5867C100.646 19.5013 100.816 19.0747 100.944 18.648C101.03 18.264 101.158 17.8373 101.243 17.6667C101.328 17.5387 101.627 17.1547 101.968 16.8133C102.395 16.3867 102.608 16.088 102.608 15.832C102.608 15.6187 102.352 15.1493 101.883 14.5947C101.499 14.0827 101.115 13.3573 100.987 12.9733C100.816 12.4613 100.774 12.0347 100.816 11.48C100.902 10.8827 101.072 10.328 101.542 9.51733C101.883 8.87733 102.224 8.19467 102.267 8.06667C102.31 7.896 102.267 7.64 102.182 7.512C102.096 7.34133 101.883 7.256 101.627 7.256C101.414 7.256 100.944 7.42667 100.518 7.72533C100.134 8.024 99.5789 8.32267 99.3229 8.36533C99.0669 8.45067 96.7202 8.536 94.0749 8.57867C89.5522 8.62133 89.2109 8.62133 88.8269 8.36533C88.5709 8.23733 88.1442 7.93867 87.8882 7.68267C87.6322 7.46933 87.2909 7.256 87.1202 7.256C86.9922 7.256 86.7789 7.34133 86.6509 7.46933C86.4376 7.64 86.3949 7.81067 86.4802 8.23733ZM148.347 40.28C147.835 40.28 146.981 40.152 146.427 40.024C145.403 39.8107 145.189 39.768 143.739 39.9387C142.885 40.0667 141.819 40.0667 141.477 40.024C141.179 39.9813 140.624 39.8107 140.368 39.64C140.069 39.512 139.771 39.2133 139.643 39.0427C139.557 38.872 139.429 38.1467 139.387 37.464C139.301 36.5253 139.173 36.1413 139.003 35.928C138.875 35.7573 138.576 35.6293 138.363 35.6293C138.064 35.6293 137.893 35.7147 137.765 35.9707C137.68 36.1413 137.68 36.5253 137.723 37.0373C137.765 37.72 137.765 37.976 137.552 38.36C137.381 38.6587 137.083 39 136.827 39.128C136.4 39.3413 135.931 39.384 131.963 39.4693C128.379 39.5547 127.44 39.512 126.8 39.2987C126.288 39.1707 125.563 38.9147 125.093 38.7013C124.624 38.4453 123.813 38.104 123.301 37.976C122.747 37.8053 121.979 37.4213 121.552 37.1653C120.955 36.7813 120.571 36.568 119.632 36.3973C118.949 36.312 118.181 36.1413 117.925 36.056C117.627 35.9707 117.2 35.672 116.944 35.4587C116.56 35.16 116.133 34.392 115.536 33.112C115.067 32.088 114.341 30.7227 113.957 30.04C113.616 29.3573 113.189 28.2907 113.019 27.6507C112.891 27.0533 112.677 25.816 112.592 24.9627C112.464 23.768 112.464 22.9147 112.592 21.1227C112.677 19.928 112.848 18.52 112.933 18.0933C113.019 17.624 113.317 16.984 113.445 16.728C113.659 16.472 113.957 16.088 114.256 15.96C114.469 15.832 115.109 15.704 115.664 15.6187C116.219 15.576 116.773 15.4907 116.944 15.448C117.072 15.4053 117.2 15.192 117.285 15.0213C117.328 14.8507 117.371 14.2107 117.371 13.6133C117.413 12.6747 117.456 12.4613 117.797 12.0773C117.968 11.864 118.395 11.3093 118.736 10.9253C119.077 10.456 119.419 9.77333 119.632 9.21867C119.845 8.57867 120.101 8.10933 120.528 7.68267C120.912 7.29867 121.509 6.91467 122.107 6.65867C122.661 6.44534 123.6 5.93333 124.155 5.592C124.667 5.208 125.349 4.824 125.605 4.73867C125.947 4.65334 127.269 4.568 129.189 4.568C132.176 4.568 132.347 4.61067 133.371 4.952C133.968 5.12267 134.949 5.42133 135.547 5.50667C136.443 5.67733 136.912 5.848 137.552 6.31733C138.021 6.616 138.661 6.872 138.917 6.95733C139.173 7 139.856 7.128 140.368 7.256C140.88 7.34133 141.392 7.384 141.563 7.29867C141.733 7.256 141.947 7.04267 142.032 6.91467C142.075 6.78667 142.032 6.36 141.947 5.93333C141.819 5.29333 141.819 5.08 142.032 4.65334C142.117 4.35467 142.416 4.01333 142.672 3.84267C143.013 3.672 143.397 3.544 143.867 3.544H143.909C144.251 3.544 145.061 3.71467 145.616 3.84267C146.512 4.09867 146.939 4.14133 149.371 4.09867C152.144 4.056 152.187 4.056 152.912 4.39734C153.296 4.65334 153.723 4.99467 153.893 5.25067C154.021 5.54934 154.192 6.01867 154.235 6.40267C154.32 6.78667 154.32 7.29867 154.235 7.68267C154.149 8.10933 153.936 8.57867 153.723 8.792C153.467 9.048 153.125 9.34667 152.869 9.47467C152.571 9.64533 152.272 9.98667 152.187 10.2C152.059 10.4133 151.931 11.0533 151.845 11.608C151.717 12.1627 151.547 12.888 151.419 13.144C151.248 13.4853 150.992 13.8693 150.779 13.9973C150.608 14.168 150.224 14.4667 149.925 14.5947C149.584 14.7653 149.157 14.8507 148.133 14.8507C147.195 14.8507 146.768 14.7653 146.427 14.5947C146.128 14.4667 145.829 14.1253 145.659 13.8693C145.531 13.656 145.36 13.144 145.275 12.76C145.232 12.376 145.275 11.736 145.36 11.2667C145.445 10.7973 145.787 9.816 146.085 9.176C146.427 8.45067 146.725 7.59733 146.811 7.21333C146.853 6.82933 146.853 6.31733 146.768 6.06133C146.725 5.80533 146.555 5.54934 146.341 5.464C146.171 5.336 145.616 5.208 145.147 5.08C144.677 4.952 144.123 4.86667 143.909 4.86667C143.739 4.86667 143.483 4.90933 143.397 5.03733C143.312 5.12267 143.227 5.336 143.227 5.592C143.227 5.80533 143.44 6.232 143.739 6.616C143.995 6.95733 144.293 7.512 144.421 7.72533C144.635 8.10933 144.677 8.45067 144.635 9.176C144.549 9.64533 144.421 12.76 144.336 16.0027C144.208 20.9093 144.208 22.36 144.379 24.7067C144.507 26.2427 144.549 28.8453 144.549 30.424C144.549 33.24 144.635 33.4533 144.933 34.2213C145.147 34.7333 145.275 35.4587 145.36 36.4827C145.445 37.72 145.573 38.0187 145.787 38.2747C146 38.488 146.427 38.7013 146.896 38.7867C147.365 38.872 147.963 38.9573 148.304 38.9573C148.645 38.9573 148.944 38.872 149.157 38.7013C149.328 38.5733 149.371 38.2747 149.371 37.8907C149.371 37.5493 149.243 36.952 149.029 36.5253C148.859 36.184 148.56 35.672 148.347 35.544C148.091 35.3733 147.621 35.16 147.237 35.0747C146.768 34.9893 146.427 34.7333 146.171 34.4773C145.957 34.264 145.744 33.7947 145.659 33.496C145.616 33.24 145.531 32.3867 145.531 31.704C145.531 30.68 145.616 30.2533 145.787 29.912C145.957 29.6133 146.256 29.272 146.597 29.1013C146.896 28.9733 147.408 28.8453 147.92 28.8453C148.389 28.8453 148.987 28.9733 149.328 29.1013C149.627 29.1867 150.224 29.528 150.565 29.8693C150.992 30.168 151.717 30.7227 152.229 31.064C152.912 31.5333 153.253 31.8747 153.467 32.344C153.808 32.856 153.851 33.112 153.808 33.9227C153.765 34.6907 153.68 34.9893 153.339 35.3733C153.125 35.672 152.613 36.056 152.059 36.312C151.547 36.568 151.077 36.9093 150.992 37.0373C150.907 37.1653 150.779 37.6773 150.736 38.104C150.693 38.5733 150.523 39.128 150.395 39.3413C150.224 39.5973 149.883 39.896 149.627 40.0667C149.371 40.1947 148.859 40.28 148.347 40.28ZM118.779 13.912C118.779 14.3813 118.864 15.3627 118.949 16.088C119.077 16.8987 119.248 17.6667 119.376 17.88C119.547 18.0933 119.803 18.3067 119.973 18.392C120.187 18.4773 121.125 18.52 122.107 18.52C123.557 18.52 123.941 18.4773 124.325 18.264C124.624 18.136 125.221 17.7947 125.648 17.5387C126.288 17.1973 127.013 16.9413 128.976 16.6C130.384 16.3013 131.835 16.0453 132.261 16.0453C132.645 16.0453 133.371 16.216 133.883 16.3013C134.309 16.4293 135.035 16.7707 135.461 17.112C135.931 17.4107 136.443 17.6667 136.656 17.6667C136.784 17.6667 137.04 17.496 137.168 17.3253C137.339 16.9413 137.339 16.856 137.083 15.704C136.955 14.9787 136.741 13.6987 136.656 12.76C136.571 11.864 136.485 10.6693 136.571 10.1573L136.741 8.57867C136.784 8.19467 136.784 7.72533 136.741 7.55467C136.699 7.34133 136.485 7.128 136.272 7.04267C136.016 6.95733 135.504 6.82933 135.077 6.78667C134.608 6.744 133.883 6.53067 133.371 6.36C132.475 5.976 132.261 5.976 129.445 5.93333C127.355 5.93333 126.203 5.976 125.904 6.06133C125.605 6.14667 125.051 6.53067 124.581 6.82933C124.112 7.128 123.301 7.59733 122.747 7.81067C122.149 8.024 121.595 8.408 121.424 8.62133C121.211 8.83467 120.912 9.432 120.784 9.98667C120.571 10.6267 120.229 11.1387 119.803 11.6933C119.376 12.0773 118.992 12.5893 118.907 12.76C118.821 12.9733 118.736 13.4853 118.779 13.912ZM119.333 21.976C119.333 22.616 119.376 22.9147 119.632 23.1707C119.845 23.4267 120.059 23.5547 120.315 23.5547C120.613 23.5547 120.955 23.3413 121.509 22.9147C121.893 22.5307 122.533 22.104 122.832 21.976C123.216 21.8053 123.728 21.72 124.283 21.72C124.923 21.72 125.563 21.848 126.8 22.232C127.696 22.5733 129.061 23.0853 129.829 23.4267L131.237 24.024L133.755 23.9387C135.888 23.9387 136.357 23.8533 136.784 23.6827C137.04 23.512 137.339 23.1707 137.467 22.872C137.595 22.5733 137.68 22.1467 137.595 21.848C137.552 21.592 137.381 21.2507 137.253 21.1653C137.125 21.0373 136.869 20.952 136.741 20.952C136.571 20.952 136.016 21.208 135.547 21.5493C135.12 21.8053 134.48 22.1467 134.224 22.232C133.968 22.3173 133.243 22.4453 132.645 22.4453C131.877 22.4453 131.067 22.232 129.744 21.8907C128.72 21.6347 127.355 21.2507 126.8 21.08C126.203 20.952 125.307 20.6533 124.752 20.3973C123.941 20.056 123.6 20.0133 122.235 19.928C120.997 19.8853 120.443 19.928 120.101 20.056C119.803 20.1413 119.632 20.3547 119.461 20.696C119.376 20.952 119.333 21.5493 119.333 21.976ZM120.144 26.2427C120.016 26.4987 120.059 26.7547 120.272 27.5653C120.485 28.0773 120.827 28.8453 121.083 29.2293C121.339 29.6133 121.765 30.2533 121.979 30.68C122.277 31.0213 122.533 31.6613 122.576 32.0027C122.619 32.344 122.619 32.984 122.576 33.4533L122.405 35.16C122.32 35.9707 122.32 36.056 122.661 36.312C122.875 36.4827 123.301 36.6107 123.6 36.696C123.941 36.7813 124.752 37.08 125.477 37.3787C126.203 37.72 127.227 38.0187 127.739 38.104C128.379 38.1893 129.445 38.1893 131.109 38.104C132.475 38.0187 134.096 37.976 134.779 38.0187C135.589 38.104 135.973 38.0613 136.144 37.9333C136.315 37.8053 136.357 37.464 136.357 36.824C136.357 36.184 136.443 35.5013 136.699 35.032C136.912 34.3067 136.955 33.88 136.912 33.112C136.869 32.5573 136.741 31.4907 136.656 30.7227C136.443 29.4427 136.443 29.144 136.699 27.6933C136.955 26.1573 136.955 26.1147 136.699 25.7307C136.443 25.432 136.272 25.3467 135.717 25.3467L132.816 25.432C131.024 25.4747 130.64 25.56 130.299 25.7733C130.043 25.9013 129.573 26.2853 129.189 26.584C128.848 26.9253 128.208 27.3093 127.824 27.48C127.397 27.6933 126.757 27.9493 126.331 28.0347C125.947 28.12 125.221 28.1627 124.795 28.12C124.368 28.0347 123.685 27.9067 123.344 27.6933C122.96 27.5653 122.32 27.096 121.893 26.6267C121.339 26.072 120.997 25.8587 120.741 25.8587C120.443 25.8587 120.272 25.944 120.144 26.2427ZM186.81 42.0293C185.786 42.0293 185.487 41.9867 185.061 41.688C184.762 41.4747 184.506 41.2187 184.335 40.792C184.207 40.4507 184.165 40.0667 184.207 39.8107C184.25 39.5973 184.207 39.2987 184.165 39.128C184.079 38.9147 183.909 38.7013 183.738 38.6587C183.567 38.5307 183.226 38.5733 182.501 38.7867C181.69 39 181.306 39.0853 180.623 38.9573C180.111 38.9147 179.514 38.7867 179.215 38.7013C178.959 38.5733 178.49 38.2747 178.191 37.976C177.893 37.6773 177.423 37.4213 177.253 37.336C177.039 37.208 176.783 37.1653 176.57 37.1653C176.442 37.1653 175.887 37.3787 175.29 37.592C174.479 37.8907 174.053 37.976 173.285 37.976C172.645 37.976 171.962 37.8907 171.493 37.72C171.023 37.5493 170.511 37.464 170.255 37.464C169.999 37.464 169.573 37.5493 169.231 37.72C168.89 37.848 168.463 37.976 168.25 37.976C168.037 37.976 167.525 37.848 167.141 37.6773C166.586 37.5067 166.117 37.4213 165.306 37.4213C164.709 37.4213 163.941 37.464 163.685 37.5493C163.386 37.6347 162.874 37.976 162.575 38.2747C162.191 38.5733 161.765 39.1707 161.509 39.5547C161.21 40.024 160.826 40.4933 160.613 40.664C160.357 40.8773 159.845 41.0907 159.418 41.176C158.821 41.304 158.522 41.304 157.925 41.176C157.37 41.048 156.986 40.8773 156.602 40.536C156.303 40.28 155.962 39.8107 155.834 39.4693C155.749 39.128 155.621 38.4027 155.578 37.8907C155.535 37.4213 155.578 36.6533 155.663 36.184C155.749 35.8 155.919 35.2453 156.133 35.032C156.303 34.8187 156.559 34.4773 156.773 34.3067C157.071 34.136 157.455 34.0507 158.053 34.008C158.821 33.9653 159.077 34.008 159.717 34.3067C160.271 34.6053 160.655 34.904 161.21 35.6293C161.637 36.0987 162.063 36.568 162.191 36.6107C162.277 36.6533 162.533 36.6533 162.618 36.568C162.746 36.4827 162.874 36.2693 162.874 36.0987C162.917 35.9707 162.703 35.3307 162.405 34.6907C162.063 34.0507 161.765 33.2827 161.679 33.0267C161.594 32.6 161.509 29.8693 161.509 21.848C161.509 11.9067 161.551 11.1387 161.765 10.4987C161.893 10.072 162.191 9.304 162.49 8.83467C162.703 8.32267 162.917 7.72533 162.917 7.46933C162.917 7.17067 162.831 7 162.661 6.91467C162.447 6.82933 162.277 6.82933 162.106 6.91467C161.978 6.95733 161.594 7.34133 161.253 7.72533C160.954 8.10933 160.399 8.664 160.058 8.96267C159.717 9.26133 159.162 9.64533 158.821 9.816C158.309 10.0293 158.053 10.072 157.242 10.0293C156.474 10.0293 156.175 9.944 155.706 9.688C155.365 9.432 155.023 9.09067 154.81 8.664C154.597 8.19467 154.511 7.768 154.469 6.82933C154.426 5.93333 154.469 5.42133 154.639 4.86667C154.767 4.52533 155.023 4.01333 155.279 3.75733C155.535 3.50134 155.919 3.24533 156.346 3.11733C156.645 2.98933 157.157 2.904 157.327 2.904C157.498 2.904 157.967 2.98933 158.351 3.07467C158.821 3.24533 159.29 3.544 159.973 4.14133C160.485 4.568 161.125 5.03733 161.381 5.16533C161.679 5.25067 162.191 5.42133 162.575 5.50667C162.959 5.63467 163.514 5.848 163.813 6.01867C164.282 6.27467 164.581 6.31733 166.074 6.31733H167.823L168.549 5.80533C168.975 5.54934 169.658 5.208 169.999 5.12267C170.554 4.90933 171.023 4.86667 171.791 4.90933C172.645 4.952 172.986 5.08 173.711 5.464C174.607 5.848 174.65 5.93333 176.399 5.93333C177.381 5.93333 178.533 5.976 178.874 6.01867C179.471 6.104 179.599 6.104 179.898 5.848C180.154 5.63467 180.367 5.29333 180.495 4.824C180.623 4.44 180.879 3.928 181.05 3.672C181.306 3.45867 181.647 3.16 181.903 3.07467C182.159 2.98933 182.757 2.904 183.311 2.904C184.079 2.904 184.378 2.94667 184.975 3.288C185.573 3.58667 185.786 3.75733 186.127 4.44C186.426 5.08 186.554 5.37867 186.597 6.36C186.639 7.21333 186.597 7.72533 186.383 8.23733C186.255 8.62133 185.957 9.09067 185.743 9.304C185.445 9.60267 185.018 9.85867 184.634 9.944C184.25 10.0293 183.653 10.072 183.183 10.0293C182.543 9.98667 181.989 9.816 181.05 9.34667C180.367 9.00533 179.642 8.74933 179.386 8.74933C179.087 8.74933 178.575 8.87733 178.106 8.96267C177.722 9.048 176.869 9.13333 176.186 9.09067C175.119 9.09067 174.991 9.09067 174.437 9.51733C174.138 9.688 173.626 9.98667 173.413 10.1573C173.114 10.328 172.73 10.4133 172.09 10.4133C171.365 10.4133 171.066 10.328 170.469 10.0293C169.914 9.73067 169.615 9.38933 169.231 8.87733C168.975 8.49333 168.719 8.10933 168.634 8.06667C168.506 8.024 168.335 7.98133 168.165 7.98133C167.951 7.98133 167.823 8.06667 167.781 8.28C167.653 8.536 167.781 8.87733 167.994 9.304C168.165 9.73067 168.421 10.4133 168.634 10.8827L168.975 11.736V32.472L168.677 33.368C168.463 33.9227 168.207 34.648 168.037 34.9893C167.866 35.3307 167.738 35.8427 167.738 36.056C167.738 36.44 167.823 36.568 168.037 36.6533C168.293 36.7813 168.463 36.7387 168.847 36.568C169.061 36.4827 169.615 36.056 169.999 35.7573C170.426 35.3733 170.981 35.0747 171.237 34.9893C171.535 34.904 171.962 34.8187 172.303 34.776C172.602 34.776 173.114 34.8613 173.413 34.9467C173.669 34.9893 174.351 35.2453 174.821 35.416C175.333 35.672 176.058 35.8853 176.442 35.928C176.911 35.9707 177.423 36.056 177.679 36.1413C177.935 36.184 178.405 36.568 178.746 36.8667C179.13 37.208 179.471 37.464 179.685 37.464C179.898 37.464 180.069 37.336 180.154 37.1653C180.197 37.0373 180.325 36.824 180.325 36.6533C180.325 36.5253 180.154 36.056 180.026 35.672C179.898 35.2453 179.599 34.6907 179.386 34.3493C179.13 34.0507 178.661 33.4107 178.234 32.9413C177.85 32.4293 177.295 31.4907 176.954 30.68C176.613 29.8693 175.887 28.248 175.29 27.0107C174.693 25.7733 173.925 24.3227 173.626 23.7253C173.327 23.2133 172.986 22.488 172.901 22.1893C172.815 21.8053 172.773 21.2507 172.815 20.7813C172.858 20.3547 173.029 19.672 173.285 19.288C173.455 18.9467 173.925 18.264 174.351 17.7947C174.778 17.2827 175.205 16.728 175.333 16.3013C175.461 15.96 175.589 15.1067 175.631 14.424C175.674 13.7413 175.887 12.9733 175.973 12.76C176.101 12.5467 176.357 12.248 176.57 12.0347C176.869 11.8213 177.253 11.6507 177.466 11.608C177.765 11.5653 178.191 11.5653 178.49 11.608C178.789 11.6507 180.879 11.736 183.183 11.7787C185.999 11.864 187.493 11.9493 187.749 12.0347C187.962 12.12 188.346 12.3333 188.559 12.504C188.773 12.632 189.114 13.1013 189.327 13.4427C189.541 13.9973 189.626 14.3813 189.626 15.192C189.626 15.96 189.541 16.4293 189.37 16.8133C189.157 17.1547 188.858 17.496 188.517 17.752C188.175 17.9653 187.706 18.3067 187.45 18.6053C187.023 18.9467 186.853 19.2453 186.682 19.8853C186.554 20.44 186.255 20.9093 185.914 21.336C185.445 21.7627 185.189 21.9333 184.549 22.1467C184.079 22.2747 183.525 22.3173 182.97 22.2747C182.33 22.232 181.903 22.104 181.562 21.848C181.263 21.6773 180.922 21.336 180.794 20.9947C180.623 20.696 180.538 20.184 180.538 19.7573C180.538 19.1173 180.666 18.776 181.263 17.5813C181.605 16.8133 182.074 15.7893 182.159 15.32C182.287 14.8933 182.373 14.2533 182.373 13.9973C182.373 13.656 182.287 13.3573 182.159 13.2293C181.946 13.016 181.733 12.9733 180.879 13.1013C180.111 13.144 179.599 13.1013 179.002 12.9307C178.575 12.8027 178.106 12.7173 177.935 12.7173C177.85 12.7173 177.594 12.8453 177.338 13.016C177.039 13.3147 176.997 13.4853 176.869 14.7227C176.783 15.4907 176.698 16.3867 176.613 16.7707C176.57 17.2827 176.698 17.5813 177.039 18.3493C177.295 18.8613 177.85 19.672 178.234 20.0987C178.661 20.568 179.087 21.208 179.258 21.5067C179.471 21.8053 179.727 22.5733 179.898 23.1707L180.453 24.9627C180.581 25.304 180.879 25.9867 181.178 26.4133C181.391 26.8827 181.861 27.736 182.245 28.248L183.397 30.2533C183.653 30.7653 184.207 31.576 184.634 32.088C185.061 32.5573 185.445 33.1547 185.487 33.368C185.573 33.5813 185.658 33.9653 185.658 34.1787C185.658 34.392 185.743 34.7333 185.871 34.904C186.085 35.2027 186.17 35.2027 186.853 35.1173C187.279 35.032 187.962 34.9893 188.431 34.9893C188.986 34.9893 189.285 35.032 189.669 35.288C189.967 35.544 190.309 35.928 190.522 36.312C190.821 36.952 190.863 37.1653 190.821 38.0613C190.778 38.7867 190.65 39.3413 190.437 39.8107C190.223 40.28 189.839 40.7493 189.583 41.048C189.327 41.304 188.858 41.6027 188.602 41.7733C188.133 41.9867 187.749 42.0293 186.81 42.0293ZM259.113 48.984C258.559 49.0693 258.175 48.984 257.705 48.8133C257.364 48.6853 256.852 48.3867 256.639 48.088C256.425 47.832 256.169 47.4053 256.084 47.1067C255.956 46.808 255.871 46.1253 255.871 45.656C255.871 45.1013 255.999 44.376 256.169 43.9493C256.34 43.4373 256.639 42.968 257.065 42.5413C257.577 42.072 257.919 41.816 258.559 41.6453C259.156 41.4747 259.711 41.432 260.18 41.4747C260.649 41.5173 261.247 41.688 261.673 41.9013C262.1 42.1147 262.484 42.4133 262.74 42.84C262.953 43.1813 263.295 43.9067 263.465 44.376C263.593 44.888 263.849 45.528 263.977 45.784C264.191 45.9973 264.617 46.3813 265.044 46.5947C265.428 46.7653 265.94 46.936 266.153 46.936C266.367 46.936 266.623 46.8507 266.708 46.7653C266.879 46.68 266.921 46.424 266.921 46.168C266.921 45.8693 266.665 45.6133 266.025 44.9307C265.385 44.2907 265.087 43.864 264.873 43.4373C264.745 43.0107 264.745 42.3707 264.788 41.304C264.873 39.9813 264.873 39.8107 264.66 39.5973C264.532 39.512 264.148 39.4267 263.593 39.4693C263.039 39.4693 262.569 39.4267 262.356 39.2987L261.332 38.6587C261.033 38.4453 260.692 38.1893 260.564 38.1893C260.351 38.1893 259.881 38.5307 259.412 38.9147C258.985 39.3413 258.345 39.768 258.047 39.896C257.663 40.1093 257.108 40.1947 256.639 40.1947C256.212 40.1947 255.615 40.152 255.316 40.024C255.017 39.9387 254.505 39.64 254.079 39.3413C253.737 39 253.225 38.744 253.055 38.7013C252.884 38.6587 251.519 38.616 250.025 38.5733C247.892 38.5733 247.039 38.488 246.356 38.3173C245.673 38.104 245.076 38.0613 244.265 38.104C243.455 38.1467 243.071 38.232 242.729 38.488L241.449 39.128C241.065 39.3413 240.297 39.5547 239.7 39.5973C238.975 39.6827 238.42 39.6827 237.908 39.5973C237.481 39.5547 236.841 39.256 236.287 38.9147C235.604 38.4453 235.305 38.36 234.751 38.36C234.367 38.36 233.769 38.4453 233.343 38.5733C232.916 38.7013 232.447 38.9573 232.148 39.2987C231.892 39.5547 231.465 39.8533 231.252 39.9387C231.081 40.1093 230.1 40.1947 229.076 40.2373C227.967 40.3227 227.113 40.28 226.772 40.1947C226.388 40.1093 225.876 39.768 225.535 39.4693C225.193 39.2133 224.809 38.872 224.553 38.8293C224.297 38.7867 224.084 38.8293 223.913 39.0427C223.615 39.2987 223.572 39.4267 223.657 39.7253C223.7 39.896 223.999 40.408 224.212 40.792C224.596 41.432 224.639 41.56 224.639 42.6693C224.639 43.352 224.553 44.376 224.511 44.9733C224.425 45.912 224.425 46.04 224.724 46.2533C224.895 46.424 225.151 46.5093 225.407 46.5093C225.705 46.4667 225.876 46.296 226.047 46.04C226.175 45.6987 226.175 45.3573 226.047 44.3333C225.961 43.5227 225.961 42.8827 226.047 42.4987C226.089 42.2427 226.217 41.9013 226.345 41.7733C226.431 41.6453 226.772 41.4747 227.028 41.3467C227.284 41.2613 228.095 41.176 229.332 41.176C230.868 41.176 231.252 41.2187 231.636 41.432C231.935 41.56 232.276 41.944 232.447 42.2C232.617 42.4133 232.916 42.8827 233.001 43.1387C233.129 43.4373 233.215 44.12 233.215 44.8453C233.215 45.784 233.129 46.1253 232.916 46.5947C232.703 46.936 232.361 47.3627 232.105 47.5333C231.807 47.704 231.38 47.96 231.124 48.0027C230.825 48.088 230.185 48.2587 229.588 48.3013C228.863 48.344 227.967 48.2587 226.303 47.96C224.553 47.704 223.529 47.6187 221.78 47.6187C220.5 47.6187 219.391 47.576 219.049 47.4907C218.793 47.4053 218.324 47.1493 218.111 46.9787C217.855 46.808 217.471 46.3813 217.3 46.04C217.087 45.656 217.001 45.1013 216.959 44.3333C216.916 43.736 216.959 42.968 217.044 42.6267C217.129 42.2853 217.343 41.816 217.556 41.56C217.727 41.304 218.111 40.92 218.537 40.7493C219.049 40.4933 219.391 40.4507 220.457 40.4933C221.481 40.4933 221.737 40.4507 221.951 40.28C222.164 40.1093 222.292 39.8107 222.292 39.64C222.292 39.4267 222.335 39 222.42 38.744C222.505 38.488 222.719 38.104 222.932 37.9333C223.145 37.8053 223.657 37.6347 224.169 37.5493C224.767 37.464 225.407 37.1653 226.089 36.7813C226.943 36.2693 227.241 36.184 228.009 36.1413C228.649 36.0987 228.991 36.1413 229.375 36.2693C229.588 36.3973 229.972 36.7813 230.185 37.08C230.399 37.4213 230.697 37.6773 230.825 37.72C230.996 37.7627 231.252 37.72 231.337 37.6347C231.508 37.5067 231.508 37.208 231.465 36.184C231.423 35.4587 231.295 34.8187 231.209 34.776C231.124 34.6053 230.655 34.5627 229.759 34.5627C228.607 34.6053 228.351 34.5627 227.711 34.264C227.284 34.0933 226.815 33.6667 226.559 33.368C226.303 33.0693 225.876 32.2587 225.62 31.576C225.321 30.936 224.639 29.7413 224.127 28.888C223.572 28.0347 222.847 26.7973 222.548 26.072C222.249 25.3467 221.823 24.2373 221.609 23.512C221.225 22.36 221.225 22.0613 221.225 19.544C221.183 17.624 221.268 16.472 221.396 15.9173C221.524 15.4053 221.737 14.7227 222.036 14.424C222.292 13.912 222.591 13.6987 223.401 13.3573C223.956 13.0587 224.596 12.76 224.895 12.632C225.236 12.4613 225.449 12.2053 225.663 11.7787C225.791 11.4373 225.961 10.8827 226.047 10.584C226.089 10.2427 226.559 9.64533 226.9 9.13333C227.284 8.62133 227.839 7.896 228.052 7.42667C228.308 7.04267 228.649 6.488 228.905 6.27467C229.076 6.104 229.673 5.72 230.1 5.54934C230.527 5.37867 231.167 5.16533 231.465 5.08C231.721 5.03733 232.319 4.78133 232.66 4.52533C233.044 4.26933 233.513 3.928 233.769 3.84267C233.983 3.71467 234.452 3.62933 234.879 3.62933C235.263 3.62933 235.732 3.71467 235.903 3.75733C236.073 3.88533 236.585 4.184 237.012 4.568L237.78 5.208H240.98L241.876 5.93333C242.644 6.70133 242.815 6.78667 244.18 7.17067C244.991 7.384 245.929 7.59733 246.313 7.64C246.655 7.68267 246.953 7.68267 247.124 7.55467C247.252 7.512 247.337 7.04267 247.38 6.57333C247.423 6.06133 247.593 5.54934 247.764 5.336C247.892 5.16533 248.276 4.86667 248.532 4.78133C248.788 4.696 249.385 4.65334 249.897 4.65334C250.623 4.61067 250.921 4.568 251.647 4.09867C252.116 3.84267 252.628 3.544 252.799 3.50134C252.927 3.45867 253.396 3.37333 253.78 3.37333C254.121 3.37333 254.676 3.45867 254.932 3.58667C255.231 3.71467 255.743 4.09867 256.169 4.48267C256.553 4.86667 257.108 5.25067 257.449 5.336C257.705 5.42133 258.217 5.464 258.431 5.464C258.687 5.464 259.412 5.72 260.009 5.976C260.735 6.36 261.46 6.57333 261.972 6.616L263.593 6.872C264.148 7 264.489 7.17067 264.959 7.59733C265.428 8.024 265.727 8.45067 266.068 9.21867C266.324 9.816 266.879 10.968 267.305 11.7787C267.732 12.5893 268.159 13.6133 268.287 13.9973C268.415 14.4667 268.543 15.576 268.628 16.5573C268.671 17.88 268.628 18.7333 268.415 19.8853C268.287 20.7387 268.031 21.9333 267.86 22.5733C267.604 23.256 267.391 23.896 267.263 24.152C267.177 24.3653 266.879 24.7067 266.623 24.9627C266.409 25.176 265.727 25.5173 265.172 25.7733C264.404 26.072 263.977 26.328 263.764 26.6693C263.636 26.9253 263.423 27.3947 263.38 27.7787C263.337 28.12 263.167 28.632 263.039 28.8453C262.953 29.016 262.484 29.528 262.015 29.912C261.545 30.3387 261.076 30.808 260.991 31.0213C260.905 31.2773 260.905 31.7893 260.948 32.3013C260.991 32.728 260.948 33.3253 260.863 33.624C260.735 33.9227 260.436 34.3067 260.223 34.4773C259.924 34.776 259.668 34.8613 259.156 34.8613C258.815 34.8613 258.217 34.776 257.876 34.648C257.364 34.52 257.193 34.52 257.023 34.648C256.852 34.8187 256.767 35.032 256.767 35.2453C256.767 35.416 257.065 36.0987 257.321 36.696C257.748 37.592 257.919 37.72 258.26 37.7627C258.559 37.8053 258.857 37.6773 259.327 37.2933C259.967 36.8667 260.095 36.7813 260.649 36.8667C261.076 36.9093 261.503 37.08 262.015 37.5067L262.74 38.0613H266.111C268.756 38.0613 269.652 38.104 270.207 38.3173C270.676 38.4027 271.231 38.7013 271.529 39C271.828 39.2987 272.255 39.8107 272.468 40.2373C272.681 40.792 272.767 41.2187 272.767 42.072C272.767 42.8827 272.681 43.352 272.511 43.736C272.383 44.0347 272.041 44.376 271.785 44.5893C271.487 44.8027 271.06 44.888 270.292 44.9307C269.78 44.9733 269.14 45.0587 268.927 45.1013C268.713 45.1867 268.457 45.4 268.372 45.6987C268.287 45.912 268.201 46.296 268.201 46.552C268.201 46.7653 268.116 47.1067 268.031 47.3627C267.903 47.576 267.561 47.832 267.348 47.96C267.135 48.088 266.58 48.216 266.239 48.216C265.727 48.216 265.215 48.0453 264.66 47.832C264.02 47.5333 263.721 47.4907 263.295 47.5333C262.953 47.6187 262.057 47.9173 261.247 48.3013C260.436 48.6427 259.497 48.9413 259.113 48.984ZM227.327 11.2667C227.327 11.6507 227.54 12.0773 227.924 12.7173C228.223 13.272 228.607 13.912 228.692 14.296C228.82 14.6373 228.991 15.3627 229.076 15.9173C229.204 16.3867 229.289 18.2213 229.375 19.8853C229.46 21.592 229.588 23.2133 229.673 23.512L230.484 26.072C230.825 27.224 231.337 28.3333 231.636 28.8453C231.935 29.272 232.276 29.9547 232.361 30.296C232.447 30.68 232.532 31.5333 232.532 32.2587C232.532 33.5387 232.532 33.5387 233.001 33.9227C233.257 34.0933 233.513 34.264 233.684 34.264C233.769 34.264 234.196 34.5627 234.665 34.9893C235.263 35.5013 235.604 35.7147 235.903 35.7573C236.159 35.7573 236.884 35.544 237.439 35.3307C238.079 35.0747 238.676 34.9467 239.273 34.9467C239.785 34.904 240.169 34.9893 240.425 35.16C240.639 35.288 240.98 35.672 241.108 35.9707C241.279 36.2693 241.492 36.6107 241.663 36.6533C241.833 36.7387 242.004 36.7387 242.175 36.6533C242.303 36.568 242.388 36.3547 242.388 36.184C242.388 35.9707 242.217 35.5013 241.961 35.0747C241.663 34.648 241.364 34.1787 241.279 33.9653C241.193 33.7093 241.023 33.0267 240.895 32.344C240.767 31.704 240.681 30.68 240.681 30.04C240.681 29.4853 240.724 28.4613 240.852 27.736C240.937 27.0533 241.108 25.9867 241.279 25.304C241.492 24.4507 241.535 24.1093 241.407 23.8533C241.321 23.6827 241.108 23.5973 240.852 23.5973C240.596 23.5973 240.169 23.768 239.785 24.0667C239.444 24.28 238.975 24.536 238.719 24.664C238.463 24.7493 237.481 25.0053 236.543 25.1333C235.561 25.304 234.239 25.432 233.599 25.432C232.703 25.432 232.361 25.3467 231.935 25.0907C231.508 24.92 231.252 24.5787 230.996 24.1093C230.655 23.512 230.612 23.128 230.569 21.976C230.527 20.952 230.569 20.4827 230.74 20.0133C230.868 19.672 231.209 19.2027 231.465 18.9893C231.721 18.776 232.233 18.4773 232.489 18.392C232.831 18.3067 233.428 18.264 233.94 18.264C234.409 18.264 235.604 18.3493 236.543 18.52C237.439 18.6907 238.42 18.904 238.719 19.032C238.932 19.1173 239.444 19.3733 239.785 19.672C240.169 19.8853 240.596 20.056 240.895 20.056C241.151 20.056 241.321 19.9707 241.407 19.7573C241.535 19.5013 241.492 19.2027 241.279 18.4347C241.108 17.9227 240.937 17.0693 240.852 16.5573C240.767 16.088 240.639 15.192 240.596 14.5947C240.553 13.9973 240.383 12.9733 240.255 12.248C240.084 11.608 239.956 10.6693 239.956 10.1573C239.956 9.51733 240.084 9.13333 240.383 8.45067C240.639 7.98133 240.852 7.34133 240.852 7.17067C240.852 6.95733 240.724 6.70133 240.639 6.616C240.553 6.57333 239.7 6.53067 238.804 6.488C237.737 6.488 236.713 6.57333 235.988 6.70133C234.964 6.872 234.836 6.872 233.94 6.65867C233.385 6.53067 232.66 6.36 232.361 6.36C232.02 6.31733 231.423 6.40267 230.996 6.57333C230.527 6.744 230.015 7.04267 229.844 7.17067C229.631 7.34133 229.332 7.896 229.033 8.28C228.82 8.74933 228.479 9.304 228.223 9.56L227.583 10.3707C227.497 10.584 227.327 10.968 227.327 11.2667ZM247.508 36.6107C247.508 36.8667 247.593 37.1227 247.721 37.208C247.849 37.336 248.063 37.4213 248.319 37.2507C248.532 37.208 248.788 36.952 248.959 36.7387C249.087 36.44 249.3 36.0987 249.428 35.8853C249.556 35.7147 249.94 35.416 250.196 35.288C250.495 35.2027 250.921 35.1173 251.177 35.16C251.433 35.2027 251.988 35.4587 252.415 35.8C253.097 36.184 253.268 36.2693 253.908 36.184C254.377 36.1413 254.719 36.056 254.889 35.8853C255.06 35.7147 255.316 35.2027 255.401 34.776C255.529 34.3067 255.743 33.752 255.913 33.624C256.127 33.4533 256.425 33.2827 256.639 33.24C256.895 33.1547 257.492 33.24 258.132 33.368L259.113 33.624L259.369 33.3253C259.583 33.0693 259.668 32.8133 259.583 31.9173C259.497 30.9787 259.54 30.7653 259.796 30.3387C259.924 30.04 260.393 29.5707 260.863 29.2293C261.247 28.888 261.716 28.504 261.801 28.2907C261.887 28.12 261.972 27.864 261.972 27.6507C261.972 27.3947 261.673 26.584 261.204 25.8587L260.436 24.408V20.6107C260.436 18.4773 260.351 16.216 260.265 15.4907C260.18 14.808 260.009 13.9973 259.967 13.6987C259.881 13.4 259.668 12.632 259.412 12.0347C259.241 11.4373 259.113 10.6267 259.113 10.2C259.113 9.85867 259.199 9.13333 259.327 8.57867C259.497 7.93867 259.497 7.59733 259.369 7.34133C259.284 7.17067 259.071 6.95733 258.9 6.82933C258.687 6.78667 257.961 6.70133 257.236 6.65867C256.212 6.57333 255.828 6.616 255.103 6.82933C254.633 7.04267 253.908 7.17067 253.439 7.17067C252.756 7.17067 252.372 7.08533 251.305 6.53067C250.623 6.18933 249.897 5.848 249.641 5.848V5.89067C249.471 5.89067 249.172 5.93333 249.001 6.104C248.745 6.27467 248.745 6.40267 248.788 7.04267C248.831 7.42667 248.831 9.85867 248.831 12.376C248.831 16.6853 248.831 16.984 248.532 18.136C248.276 19.0747 248.233 19.3733 248.361 19.672C248.447 19.8427 248.66 19.928 248.959 19.928C249.172 19.928 249.599 19.7573 249.983 19.544C250.281 19.2453 250.793 18.9893 251.049 18.8613C251.305 18.776 252.543 18.52 253.737 18.3067C255.316 18.0507 256.212 17.9653 256.681 18.0507C257.108 18.0933 257.705 18.264 258.047 18.4347C258.431 18.7333 258.687 19.032 258.985 19.5013C259.241 20.0133 259.284 20.3973 259.284 21.5067C259.284 22.4453 259.241 23 259.071 23.4693C258.9 23.8107 258.559 24.3227 258.303 24.536C258.047 24.792 257.535 25.048 257.236 25.1333C256.98 25.2187 256.297 25.2613 255.828 25.2613C255.359 25.2613 254.164 25.176 253.225 25.0053C252.287 24.8773 251.305 24.6213 251.049 24.536C250.793 24.408 250.281 24.152 249.983 23.8533C249.599 23.64 249.172 23.4693 248.916 23.4693C248.617 23.4693 248.447 23.5547 248.361 23.768C248.233 24.0667 248.276 24.3653 248.489 25.176C248.66 25.7733 248.831 26.8827 248.959 27.6507C249.044 28.4613 249.087 29.5707 249.087 30.1253C249.087 30.68 249.001 31.704 248.831 32.3867C248.745 33.0693 248.404 34.136 248.105 34.8613C247.764 35.544 247.508 36.3547 247.508 36.6107ZM290.263 40.152C289.922 40.0667 289.324 39.768 288.983 39.512C288.599 39.2133 288.13 38.9573 287.916 38.9147C287.703 38.872 287.276 38.9573 286.764 39.128C286.252 39.3413 285.826 39.4693 285.484 39.4267C285.186 39.3413 284.332 39 283.692 38.616C282.924 38.1467 282.156 37.5493 281.772 37.1227C281.388 36.7387 281.09 36.312 281.09 36.2693C281.09 36.2267 280.876 36.056 280.578 35.8853C280.322 35.672 279.554 35.4587 278.743 35.3307C277.89 35.2453 277.164 35.032 276.78 34.776C276.482 34.6053 276.055 34.2213 275.842 33.88C275.628 33.5813 275.244 32.8987 275.031 32.4293C274.818 31.9173 274.22 30.936 273.751 30.2107C273.239 29.4853 272.642 28.376 272.386 27.7787C272.172 27.1387 271.831 26.2427 271.703 25.7307C271.618 25.2613 271.49 24.1093 271.404 23.2987C271.362 22.104 271.404 21.2507 271.575 20.1413C271.703 19.288 271.959 18.2213 272.13 17.7093C272.258 17.2827 272.556 16.6427 272.727 16.3867C273.026 15.96 273.452 15.6613 274.476 15.1493C275.714 14.5947 275.884 14.4667 276.14 13.912C276.311 13.5707 276.482 13.1867 276.482 13.0587C276.482 12.9307 276.567 12.5893 276.652 12.2907C276.78 12.0347 277.207 11.4373 277.719 10.968C278.188 10.4133 278.786 9.60267 279.084 9.13333C279.34 8.62133 279.767 7.98133 280.066 7.72533C280.364 7.42667 281.388 6.70133 282.412 6.104C283.394 5.50667 284.375 4.90933 284.674 4.86667C284.887 4.73867 285.612 4.61067 286.252 4.48267C286.892 4.35467 287.788 4.14133 288.258 4.01333C288.727 3.84267 289.367 3.71467 289.666 3.71467C290.007 3.71467 290.434 3.8 290.732 3.928C290.988 4.056 291.33 4.26933 291.5 4.39734C291.714 4.61067 292.055 4.696 292.268 4.696C292.567 4.696 292.908 4.52533 293.335 4.14133C293.89 3.672 294.103 3.58667 294.7 3.58667C295.084 3.58667 295.724 3.75733 296.492 4.056C297.132 4.312 297.9 4.73867 298.156 4.90933C298.412 5.12267 298.882 5.63467 299.18 6.06133C299.479 6.53067 299.906 7 300.119 7.17067C300.332 7.34133 300.887 7.46933 301.868 7.55467C302.764 7.64 303.49 7.768 303.831 7.93867C304.172 8.152 304.556 8.408 304.684 8.57867C304.812 8.792 305.111 9.21867 305.239 9.56C305.367 9.90133 305.708 10.584 306.007 11.1813C306.263 11.736 306.732 12.5893 307.116 13.0587C307.458 13.528 307.884 14.2533 308.055 14.7653C308.226 15.2347 308.524 16.216 308.78 16.8987C309.079 18.136 309.122 18.5627 309.122 20.4827C309.122 22.4453 309.079 22.872 308.78 24.1093C308.524 24.8773 308.183 25.7733 308.012 26.1573C307.799 26.456 307.415 26.9253 307.159 27.096C306.903 27.2667 306.348 27.5653 305.879 27.7787C305.495 27.9493 304.94 28.2907 304.77 28.504C304.471 28.8453 304.3 29.272 304.172 29.912C303.959 30.7653 303.916 30.8507 302.892 31.7893C301.954 32.6853 301.826 32.8987 301.612 33.7093C301.399 34.3493 301.186 34.776 300.844 35.16C300.46 35.5013 300.034 35.7573 299.351 36.0133C298.626 36.2267 298.242 36.44 297.73 36.952C297.388 37.2933 296.876 37.72 296.62 37.848C296.322 38.0187 295.724 38.1893 295.255 38.2747C294.743 38.3173 294.146 38.616 293.847 38.7867C293.591 38.9573 293.122 39.2987 292.823 39.5547C292.567 39.8107 292.012 40.0667 291.671 40.152C291.116 40.3227 290.818 40.3227 290.263 40.152ZM277.89 12.9307C277.762 13.272 277.762 13.4853 278.018 13.912C278.188 14.2107 278.487 14.808 278.743 15.2347C278.956 15.6613 279.298 16.3867 279.426 16.856C279.596 17.4533 279.639 18.4347 279.639 20.1413C279.639 21.6773 279.724 23.128 279.852 24.1093C280.023 24.9627 280.151 26.5413 280.151 27.608C280.151 28.8453 280.236 29.656 280.322 29.8267C280.407 29.9973 280.663 30.2107 280.962 30.296C281.218 30.3813 281.516 30.3813 281.772 30.296C281.943 30.2107 282.156 29.9973 282.242 29.8267C282.327 29.5707 282.327 29.2293 282.242 28.8453C282.156 28.504 282.114 27.992 282.114 27.608C282.114 27.3093 282.242 26.7547 282.37 26.456C282.54 26.1573 282.967 25.688 283.266 25.5173C283.65 25.304 284.076 24.92 284.332 24.7067C284.716 24.408 284.972 23.9387 285.271 23.1707C285.527 22.5733 286.039 21.6347 286.551 20.9093C287.02 20.2267 288.13 18.648 288.94 17.368C289.708 16.0453 290.903 14.3387 291.458 13.4853C292.055 12.5893 292.951 11.1387 293.463 10.2C294.146 8.96267 294.53 8.10933 294.786 7.04267C294.956 6.31733 295.127 5.54934 295.127 5.42133C295.127 5.25067 295.042 5.08 294.914 4.99467C294.743 4.952 294.572 4.90933 294.444 4.952C294.316 4.99467 293.975 5.208 293.719 5.50667C293.463 5.76267 293.036 6.01867 292.823 6.104C292.567 6.18933 292.226 6.18933 291.97 6.104C291.714 6.06133 291.202 5.80533 290.86 5.592C290.391 5.25067 290.007 5.12267 289.623 5.12267C289.324 5.12267 288.812 5.208 288.471 5.37867C288.13 5.50667 287.276 5.67733 286.551 5.76267C285.826 5.89067 285.015 6.104 284.802 6.18933C284.588 6.36 283.65 6.872 282.754 7.42667C281.559 8.152 281.004 8.57867 280.663 9.048C280.45 9.34667 280.108 9.944 279.852 10.328C279.682 10.6693 279.212 11.352 278.786 11.7787C278.402 12.12 277.975 12.6747 277.89 12.9307ZM281.175 33.5813C281.09 34.264 281.132 34.392 281.346 34.648C281.644 34.9467 281.644 34.9467 282.711 34.6053C283.266 34.4347 283.991 34.3067 284.204 34.2213C284.503 34.1787 284.802 34.0507 284.887 33.88C285.015 33.752 285.228 33.3253 285.442 32.8987C285.612 32.5147 286.039 31.6613 286.466 30.9787C286.892 30.3387 287.49 29.4 287.831 28.9733C288.172 28.4613 288.727 27.608 289.068 27.0533C289.41 26.456 290.092 25.432 290.519 24.792C290.988 24.1947 291.628 23.1707 291.884 22.616C292.183 21.9333 292.695 21.208 293.207 20.6107C293.975 19.8427 294.146 19.544 294.316 18.8613C294.402 18.392 294.615 17.752 294.743 17.4533C294.999 17.0693 295.298 16.8133 295.98 16.472C296.578 16.216 297.09 15.832 297.218 15.6187C297.388 15.32 297.346 15.1493 297.09 14.2533C296.876 13.7413 296.748 13.1013 296.748 12.888C296.748 12.7173 296.834 12.2907 297.004 12.0773C297.175 11.7787 297.474 11.5227 298.156 11.224C298.839 10.9253 299.138 10.7547 299.223 10.4133C299.308 10.2427 299.394 9.73067 299.436 9.38933C299.522 8.96267 299.479 8.62133 299.351 8.49333C299.266 8.36533 299.01 8.28 298.711 8.28C298.455 8.28 297.73 8.45067 297.09 8.57867C296.194 8.792 295.767 9.00533 295.554 9.26133C295.426 9.432 294.871 10.328 294.444 11.1813C293.932 12.0347 292.994 13.5707 292.268 14.5947C291.628 15.6613 290.263 17.624 289.367 19.032L287.276 22.232C286.978 22.616 286.636 23.3413 286.466 23.8533C286.295 24.408 285.911 25.0053 285.655 25.3467C285.356 25.6453 284.844 26.072 284.503 26.2853C284.119 26.456 283.735 26.7973 283.65 27.096C283.394 27.4373 283.394 27.6507 283.564 28.5467C283.65 29.1013 283.692 29.8267 283.65 30.0827C283.607 30.3813 283.351 30.7227 283.052 30.9787C282.796 31.192 282.37 31.4907 282.114 31.6187C281.9 31.7467 281.559 32.0453 281.474 32.344C281.346 32.6 281.218 33.1973 281.175 33.5813ZM285.484 37.5067C285.527 37.848 285.612 37.9333 285.954 37.976C286.338 38.0187 286.551 37.848 287.276 37.1653C287.916 36.5253 288.343 36.2693 288.983 36.0987C289.58 35.928 290.135 35.8853 290.988 35.928C291.884 35.9707 292.396 36.056 293.036 36.3547C293.548 36.568 294.103 36.824 294.359 36.8667C294.615 36.952 295.042 36.9947 295.34 36.9093C295.724 36.8667 296.151 36.568 296.791 36.0133C297.431 35.4587 298.028 35.0747 298.583 34.8613C299.052 34.6907 299.564 34.4773 299.778 34.3493C299.991 34.2213 300.162 33.7947 300.375 33.1547C300.674 32.1733 300.802 32.0027 301.698 31.1493C302.21 30.68 302.722 30.0827 302.764 29.8693C302.807 29.6987 302.764 29.3147 302.594 29.016C302.423 28.76 302.082 28.1627 301.826 27.6933C301.612 27.2667 301.271 26.6693 301.228 26.456C301.143 26.2 301.015 24.3653 300.972 22.4453C300.887 20.2693 300.759 18.392 300.631 17.624C300.46 16.9413 300.375 15.704 300.375 14.808C300.375 13.1867 300.332 13.1013 299.991 12.76C299.778 12.5467 299.436 12.376 299.18 12.376C298.924 12.376 298.583 12.4187 298.455 12.5467C298.284 12.632 298.199 12.8453 298.199 13.144C298.199 13.4427 298.284 13.8693 298.412 14.168C298.583 14.552 298.626 14.9787 298.583 15.4907C298.54 16.0453 298.455 16.344 298.114 16.6427C297.9 16.8987 297.346 17.2827 296.919 17.4533C296.535 17.624 296.108 17.9227 295.98 18.136C295.852 18.264 295.682 18.7333 295.596 19.2027C295.511 19.5867 295.383 20.0987 295.255 20.312C295.127 20.5253 294.743 20.9947 294.359 21.336C293.932 21.7627 293.463 22.488 293.036 23.2987C292.695 23.9387 292.012 25.0907 291.5 25.688C291.074 26.328 290.476 27.224 290.22 27.6507C289.964 28.1627 289.196 29.3147 288.514 30.296C287.831 31.2773 287.02 32.6 286.722 33.24C286.466 33.8373 286.124 34.6907 286.039 35.16C285.954 35.5867 285.74 36.184 285.655 36.5253C285.527 36.8667 285.442 37.2933 285.484 37.5067ZM311.172 40.3653C310.745 40.3653 310.105 40.2373 309.806 40.152C309.508 40.0667 308.953 39.8533 308.654 39.5973C308.228 39.2987 307.972 38.9573 307.588 38.3173C307.289 37.5493 307.204 37.2507 307.204 36.3973C307.204 35.5867 307.246 35.2453 307.502 34.7333C307.716 34.3493 308.014 33.9653 308.313 33.7947C308.74 33.5387 309.038 33.496 309.764 33.496C310.404 33.496 310.788 33.5813 311.257 33.7947C311.556 33.9227 311.982 34.0933 312.281 34.0933C312.665 34.0933 312.793 34.008 312.836 33.752C312.878 33.5387 312.836 33.2827 312.58 32.8987C312.409 32.6427 312.196 32.216 312.153 32.0453C312.068 31.832 312.153 31.4907 312.238 31.192C312.324 30.936 312.58 30.5947 312.793 30.3387C313.22 30.04 313.305 29.9973 314.372 30.0827C315.481 30.168 315.524 30.168 315.78 29.8267C315.993 29.4853 315.95 29.4427 315.353 28.248C314.841 27.1813 314.67 26.9253 314.67 26.2427C314.67 25.7733 314.841 25.2613 314.926 24.92C315.054 24.664 315.268 24.3227 315.438 24.1093C315.566 23.9387 315.993 23.6827 316.292 23.5547C316.761 23.256 317.06 23.2133 318.468 23.2133C319.79 23.2133 320.089 23.256 320.601 23.5547C320.9 23.7253 321.326 24.024 321.497 24.28C321.71 24.5787 321.796 24.92 321.838 25.56C321.881 26.3707 321.838 26.4987 321.326 27.608C320.814 28.632 320.729 29.016 320.644 30.168C320.558 30.8933 320.43 31.704 320.302 31.96C320.217 32.216 319.918 32.6853 319.748 32.9413C319.577 33.2827 319.406 33.624 319.406 33.8373C319.406 34.008 319.534 34.3067 319.662 34.392C319.748 34.52 320.302 34.6053 320.814 34.6907C321.369 34.7333 322.052 34.8613 322.35 35.032C322.649 35.2027 323.204 35.5013 323.545 35.7573C324.228 36.2693 324.313 36.312 325.977 36.4827C326.958 36.568 328.281 36.6533 328.878 36.696C329.817 36.824 330.67 36.696 332.761 36.3973C334.297 36.1413 335.705 35.8853 336.089 35.672C336.473 35.544 336.9 35.2453 337.113 35.032C337.326 34.776 337.582 34.2213 337.71 33.7093C337.881 33.24 338.009 32.6 338.009 32.344C338.009 31.9173 337.71 31.192 337.028 29.7413C336.516 28.5893 335.918 27.3947 335.748 27.096C335.62 26.7547 335.278 26.3707 335.108 26.2427C334.937 26.1147 333.7 25.7307 332.334 25.3893C331.054 25.048 329.604 24.7493 329.22 24.7067C328.622 24.664 328.281 24.664 327.897 24.792C327.556 24.9627 327.3 25.2187 327.044 25.7307C326.83 26.2 326.276 26.7973 325.764 27.352C324.91 28.1627 324.782 28.2907 324.484 29.2293C324.313 29.784 324.185 30.424 324.185 30.7653C324.185 31.064 324.228 31.32 324.398 31.5333C324.526 31.6613 324.825 31.7893 324.996 31.7893C325.124 31.7893 325.678 31.6613 326.105 31.5333C326.702 31.32 327.129 31.2347 327.47 31.2773C327.726 31.32 328.366 31.6613 328.836 32.0027C329.39 32.344 329.902 32.6 330.073 32.6C330.244 32.6 330.457 32.5147 330.585 32.3867C330.713 32.216 330.841 31.96 330.841 31.704C330.841 31.4053 330.713 31.1493 330.5 30.936C330.286 30.7227 329.774 30.552 329.092 30.3813C328.58 30.2533 327.94 30.04 327.726 29.8693C327.556 29.7413 327.257 29.4 327.172 29.144C327.044 28.888 326.958 28.504 326.958 28.2907C326.958 28.12 327.172 27.5227 327.47 27.096C327.684 26.584 328.025 26.1147 328.281 25.9013C328.494 25.7733 328.836 25.688 329.262 25.688C329.561 25.688 330.457 25.8587 331.225 26.072C331.993 26.2853 332.932 26.4987 333.316 26.6267C333.785 26.7547 334.254 27.0107 334.468 27.2667C334.809 27.5227 334.98 27.9067 335.065 28.3333C335.193 28.8453 335.193 29.2293 335.108 29.6133C335.022 29.9547 334.852 30.3387 334.766 30.552C334.638 30.7653 334.084 31.064 333.529 31.32C333.017 31.576 332.462 31.8747 332.334 32.0027C332.206 32.1307 331.993 32.5147 331.908 32.7707C331.737 33.0693 331.438 33.4533 331.225 33.5813C330.841 33.752 330.585 33.7947 329.945 33.752C329.348 33.7093 329.049 33.624 328.366 33.1973C327.854 32.856 327.3 32.6 327.086 32.6C326.916 32.6 326.489 32.6853 326.148 32.8133C325.849 32.8987 325.294 32.984 324.953 32.984C324.526 32.984 324.1 32.8987 323.844 32.728C323.545 32.5573 323.289 32.216 323.118 31.832C322.905 31.32 322.82 31.064 322.905 30.552C322.948 30.168 323.161 29.3573 323.332 28.7173C323.63 27.736 323.801 27.4373 324.27 27.0107C324.569 26.712 325.081 26.328 325.294 26.1573C325.593 25.9013 325.849 25.56 325.977 25.2187C326.105 24.7067 326.105 24.5787 325.977 24.28C325.892 24.0667 325.678 23.8533 325.465 23.7253C325.252 23.64 324.74 23.5973 324.228 23.5973C323.63 23.5973 323.118 23.4693 322.777 23.3413C322.478 23.1707 321.924 22.8293 321.625 22.5733C321.284 22.2747 320.473 21.8053 319.833 21.4213C318.98 20.9947 318.297 20.4827 317.572 19.7573C316.932 19.1173 315.865 18.008 315.14 17.24C314.116 16.088 313.817 15.704 313.646 15.1067C313.518 14.6373 313.476 14.168 313.518 13.8267C313.561 13.528 313.732 13.016 313.945 12.76C314.073 12.4613 314.457 12.0773 314.756 11.864C315.097 11.6933 315.566 11.3093 315.865 11.0533C316.206 10.6693 316.42 10.328 316.633 9.73067C316.761 9.26133 317.145 8.49333 317.657 7.768C318.084 7.08533 318.638 6.44534 318.894 6.232C319.108 6.06133 319.534 5.848 319.705 5.76267C319.961 5.67733 321.113 5.50667 322.222 5.336C323.545 5.16533 324.782 5.08 325.764 5.12267C327.172 5.16533 327.172 5.16533 328.409 5.80533C329.476 6.40267 329.689 6.44534 330.158 6.40267C330.414 6.36 331.012 6.18933 331.396 6.104C331.78 5.976 332.334 5.93333 332.548 5.976C332.804 6.01867 333.145 6.14667 333.358 6.31733C333.572 6.44534 333.87 6.70133 334.041 6.91467C334.169 7.21333 334.297 7.59733 334.297 7.98133C334.297 8.45067 334.169 8.83467 333.956 9.26133C333.785 9.56 333.572 10.072 333.572 10.328C333.572 10.584 333.742 11.0533 333.87 11.2667C334.041 11.48 334.34 11.8213 334.596 11.992C334.852 12.12 335.236 12.248 335.492 12.248C335.705 12.248 336.004 12.12 336.174 12.0347C336.388 11.9067 336.516 11.6933 336.516 11.48C336.516 11.3093 336.26 10.712 336.046 10.2853L335.662 9.432L335.705 6.616C335.748 3.84267 335.748 3.8 336.089 3.16C336.388 2.776 336.686 2.43467 337.07 2.264C337.412 2.09333 337.924 1.92267 338.308 1.88C338.606 1.83733 339.204 1.752 339.545 1.83733H339.502L340.74 2.008C341.081 2.09333 341.593 2.392 341.934 2.648C342.318 3.032 342.66 3.416 342.788 3.84267C342.958 4.26933 343.044 4.824 343.044 5.50667C343.044 6.31733 342.958 6.70133 342.745 7.128C342.489 7.55467 342.19 7.93867 341.849 8.19467C341.294 8.536 341.209 8.536 339.332 8.536C338.265 8.536 337.326 8.536 337.241 8.57867C337.113 8.57867 337.028 8.70667 336.985 8.87733C336.942 9.09067 337.028 9.47467 337.326 9.98667C337.625 10.4987 337.71 10.9253 337.71 11.3947C337.71 11.7787 337.625 12.248 337.497 12.4613C337.369 12.76 336.985 13.0587 336.772 13.1867C336.43 13.3573 336.004 13.4853 335.278 13.4853C334.34 13.4853 334.212 13.4853 333.87 13.8267C333.572 14.0827 333.444 14.424 333.358 14.8933C333.358 15.2773 333.273 15.7467 333.23 15.96C333.188 16.2587 333.017 16.6 332.633 16.856C332.42 17.112 332.036 17.4533 331.865 17.5813C331.652 17.752 331.524 18.0507 331.524 18.3067C331.524 18.52 331.566 18.8613 331.652 18.9893C331.737 19.1173 331.993 19.288 332.249 19.3733C332.462 19.4587 333.06 19.5013 333.529 19.5013C334.041 19.5013 334.681 19.5867 334.937 19.7573C335.193 19.8427 335.79 20.2267 336.174 20.568C336.644 20.952 337.369 21.464 337.838 21.8053C338.308 22.1467 339.502 23.2133 340.484 24.28C342.062 25.9013 342.318 26.2427 342.489 26.9253C342.66 27.3947 342.702 27.9067 342.66 28.2907C342.617 28.7173 342.404 29.2293 342.276 29.4853C342.105 29.8267 341.764 30.168 341.465 30.3387C341.209 30.552 340.697 30.8507 340.398 31.0213C340.1 31.2347 339.716 31.576 339.63 31.7467C339.502 31.96 339.332 32.6 339.204 33.1973C339.118 33.7947 338.777 34.6053 338.521 35.0747C338.265 35.544 337.796 36.0987 337.497 36.3547C337.156 36.568 336.473 36.9093 335.961 37.08C335.492 37.208 333.87 37.5067 332.462 37.7627C331.054 37.976 329.561 38.1467 329.22 38.1467C328.836 38.1467 328.324 38.0613 327.982 38.0187C327.641 37.9333 326.702 37.8053 325.806 37.7627C324.868 37.6773 324.057 37.5067 323.801 37.3787C323.545 37.2507 322.99 36.9093 322.521 36.568C321.71 36.0987 321.54 36.0133 320.601 35.9707C320.004 35.8853 319.364 35.7147 319.108 35.6293C318.894 35.5013 318.596 35.2453 318.468 35.032C318.254 34.776 318.126 34.3493 318.084 34.008C318.041 33.6667 317.87 33.3253 317.785 33.112C317.657 32.984 317.145 32.728 316.718 32.5573C316.249 32.3867 315.566 32.0027 315.182 31.7467C314.841 31.4907 314.372 31.2347 314.158 31.2347C313.988 31.2347 313.732 31.32 313.604 31.448C313.518 31.5333 313.476 31.704 313.476 31.832C313.476 31.96 313.732 32.472 314.073 32.9413C314.457 33.496 314.713 34.008 314.756 34.4347C314.841 34.7333 314.841 35.544 314.67 36.2693C314.628 36.952 314.457 37.848 314.329 38.232C314.244 38.616 313.988 39.128 313.732 39.384C313.518 39.6827 313.049 39.9813 312.665 40.1093C312.324 40.2373 311.684 40.3653 311.172 40.3653ZM317.87 10.2C317.87 10.456 318.126 11.1813 318.553 11.9493L319.492 13.9547C319.62 14.424 319.876 14.8507 320.089 15.064C320.302 15.2773 320.772 15.5333 321.156 15.6187C321.497 15.704 322.564 16.0027 323.502 16.344C324.484 16.6 325.934 17.1973 326.788 17.496C327.897 18.008 328.537 18.1787 328.964 18.1787C329.348 18.1787 329.732 18.136 329.86 18.0507C329.988 18.008 330.286 17.6667 330.457 17.4107C330.585 17.1547 331.054 16.6427 331.353 16.3867C331.78 15.96 331.95 15.7467 331.95 15.4907C331.95 15.192 331.78 14.936 331.353 14.5947C331.012 14.2533 330.585 13.8267 330.414 13.528C330.158 13.1013 330.116 12.8027 330.116 12.12C330.116 11.3947 330.158 11.096 330.414 10.6267C330.67 10.2 330.969 9.944 331.524 9.64533C331.95 9.432 332.462 9.09067 332.633 8.83467C332.889 8.62133 333.06 8.32267 333.06 8.10933C333.06 7.85333 332.932 7.59733 332.804 7.46933C332.633 7.34133 332.334 7.256 332.121 7.256C331.95 7.256 331.353 7.384 330.884 7.55467C330.372 7.72533 329.945 7.768 329.604 7.72533C329.305 7.68267 328.665 7.42667 328.153 7.08533C327.684 6.78667 326.916 6.53067 326.574 6.44534C326.148 6.36 325.678 6.31733 325.465 6.36C325.252 6.36 324.868 6.40267 324.484 6.40267C324.142 6.44534 323.076 6.53067 322.094 6.65867C321.113 6.78667 320.089 6.95733 319.918 7.04267C319.705 7.128 319.406 7.46933 319.193 7.68267C319.022 7.896 318.638 8.49333 318.34 8.92C318.041 9.432 317.87 9.944 317.87 10.2ZM345.922 40.3653C345.495 40.3653 344.855 40.2373 344.556 40.152C344.258 40.0667 343.703 39.8533 343.404 39.5973C342.978 39.2987 342.722 38.9573 342.338 38.3173C342.039 37.5493 341.954 37.2507 341.954 36.3973C341.954 35.5867 341.996 35.2453 342.252 34.7333C342.466 34.3493 342.764 33.9653 343.063 33.7947C343.49 33.5387 343.788 33.496 344.514 33.496C345.154 33.496 345.538 33.5813 346.007 33.7947C346.306 33.9227 346.732 34.0933 347.031 34.0933C347.415 34.0933 347.543 34.008 347.586 33.752C347.628 33.5387 347.586 33.2827 347.33 32.8987C347.159 32.6427 346.946 32.216 346.903 32.0453C346.818 31.832 346.903 31.4907 346.988 31.192C347.074 30.936 347.33 30.5947 347.543 30.3387C347.97 30.04 348.055 29.9973 349.122 30.0827C350.231 30.168 350.274 30.168 350.53 29.8267C350.743 29.4853 350.7 29.4427 350.103 28.248C349.591 27.1813 349.42 26.9253 349.42 26.2427C349.42 25.7733 349.591 25.2613 349.676 24.92C349.804 24.664 350.018 24.3227 350.188 24.1093C350.316 23.9387 350.743 23.6827 351.042 23.5547C351.511 23.256 351.81 23.2133 353.218 23.2133C354.54 23.2133 354.839 23.256 355.351 23.5547C355.65 23.7253 356.076 24.024 356.247 24.28C356.46 24.5787 356.546 24.92 356.588 25.56C356.631 26.3707 356.588 26.4987 356.076 27.608C355.564 28.632 355.479 29.016 355.394 30.168C355.308 30.8933 355.18 31.704 355.052 31.96C354.967 32.216 354.668 32.6853 354.498 32.9413C354.327 33.2827 354.156 33.624 354.156 33.8373C354.156 34.008 354.284 34.3067 354.412 34.392C354.498 34.52 355.052 34.6053 355.564 34.6907C356.119 34.7333 356.802 34.8613 357.1 35.032C357.399 35.2027 357.954 35.5013 358.295 35.7573C358.978 36.2693 359.063 36.312 360.727 36.4827C361.708 36.568 363.031 36.6533 363.628 36.696C364.567 36.824 365.42 36.696 367.511 36.3973C369.047 36.1413 370.455 35.8853 370.839 35.672C371.223 35.544 371.65 35.2453 371.863 35.032C372.076 34.776 372.332 34.2213 372.46 33.7093C372.631 33.24 372.759 32.6 372.759 32.344C372.759 31.9173 372.46 31.192 371.778 29.7413C371.266 28.5893 370.668 27.3947 370.498 27.096C370.37 26.7547 370.028 26.3707 369.858 26.2427C369.687 26.1147 368.45 25.7307 367.084 25.3893C365.804 25.048 364.354 24.7493 363.97 24.7067C363.372 24.664 363.031 24.664 362.647 24.792C362.306 24.9627 362.05 25.2187 361.794 25.7307C361.58 26.2 361.026 26.7973 360.514 27.352C359.66 28.1627 359.532 28.2907 359.234 29.2293C359.063 29.784 358.935 30.424 358.935 30.7653C358.935 31.064 358.978 31.32 359.148 31.5333C359.276 31.6613 359.575 31.7893 359.746 31.7893C359.874 31.7893 360.428 31.6613 360.855 31.5333C361.452 31.32 361.879 31.2347 362.22 31.2773C362.476 31.32 363.116 31.6613 363.586 32.0027C364.14 32.344 364.652 32.6 364.823 32.6C364.994 32.6 365.207 32.5147 365.335 32.3867C365.463 32.216 365.591 31.96 365.591 31.704C365.591 31.4053 365.463 31.1493 365.25 30.936C365.036 30.7227 364.524 30.552 363.842 30.3813C363.33 30.2533 362.69 30.04 362.476 29.8693C362.306 29.7413 362.007 29.4 361.922 29.144C361.794 28.888 361.708 28.504 361.708 28.2907C361.708 28.12 361.922 27.5227 362.22 27.096C362.434 26.584 362.775 26.1147 363.031 25.9013C363.244 25.7733 363.586 25.688 364.012 25.688C364.311 25.688 365.207 25.8587 365.975 26.072C366.743 26.2853 367.682 26.4987 368.066 26.6267C368.535 26.7547 369.004 27.0107 369.218 27.2667C369.559 27.5227 369.73 27.9067 369.815 28.3333C369.943 28.8453 369.943 29.2293 369.858 29.6133C369.772 29.9547 369.602 30.3387 369.516 30.552C369.388 30.7653 368.834 31.064 368.279 31.32C367.767 31.576 367.212 31.8747 367.084 32.0027C366.956 32.1307 366.743 32.5147 366.658 32.7707C366.487 33.0693 366.188 33.4533 365.975 33.5813C365.591 33.752 365.335 33.7947 364.695 33.752C364.098 33.7093 363.799 33.624 363.116 33.1973C362.604 32.856 362.05 32.6 361.836 32.6C361.666 32.6 361.239 32.6853 360.898 32.8133C360.599 32.8987 360.044 32.984 359.703 32.984C359.276 32.984 358.85 32.8987 358.594 32.728C358.295 32.5573 358.039 32.216 357.868 31.832C357.655 31.32 357.57 31.064 357.655 30.552C357.698 30.168 357.911 29.3573 358.082 28.7173C358.38 27.736 358.551 27.4373 359.02 27.0107C359.319 26.712 359.831 26.328 360.044 26.1573C360.343 25.9013 360.599 25.56 360.727 25.2187C360.855 24.7067 360.855 24.5787 360.727 24.28C360.642 24.0667 360.428 23.8533 360.215 23.7253C360.002 23.64 359.49 23.5973 358.978 23.5973C358.38 23.5973 357.868 23.4693 357.527 23.3413C357.228 23.1707 356.674 22.8293 356.375 22.5733C356.034 22.2747 355.223 21.8053 354.583 21.4213C353.73 20.9947 353.047 20.4827 352.322 19.7573C351.682 19.1173 350.615 18.008 349.89 17.24C348.866 16.088 348.567 15.704 348.396 15.1067C348.268 14.6373 348.226 14.168 348.268 13.8267C348.311 13.528 348.482 13.016 348.695 12.76C348.823 12.4613 349.207 12.0773 349.506 11.864C349.847 11.6933 350.316 11.3093 350.615 11.0533C350.956 10.6693 351.17 10.328 351.383 9.73067C351.511 9.26133 351.895 8.49333 352.407 7.768C352.834 7.08533 353.388 6.44534 353.644 6.232C353.858 6.06133 354.284 5.848 354.455 5.76267C354.711 5.67733 355.863 5.50667 356.972 5.336C358.295 5.16533 359.532 5.08 360.514 5.12267C361.922 5.16533 361.922 5.16533 363.159 5.80533C364.226 6.40267 364.439 6.44534 364.908 6.40267C365.164 6.36 365.762 6.18933 366.146 6.104C366.53 5.976 367.084 5.93333 367.298 5.976C367.554 6.01867 367.895 6.14667 368.108 6.31733C368.322 6.44534 368.62 6.70133 368.791 6.91467C368.919 7.21333 369.047 7.59733 369.047 7.98133C369.047 8.45067 368.919 8.83467 368.706 9.26133C368.535 9.56 368.322 10.072 368.322 10.328C368.322 10.584 368.492 11.0533 368.62 11.2667C368.791 11.48 369.09 11.8213 369.346 11.992C369.602 12.12 369.986 12.248 370.242 12.248C370.455 12.248 370.754 12.12 370.924 12.0347C371.138 11.9067 371.266 11.6933 371.266 11.48C371.266 11.3093 371.01 10.712 370.796 10.2853L370.412 9.432L370.455 6.616C370.498 3.84267 370.498 3.8 370.839 3.16C371.138 2.776 371.436 2.43467 371.82 2.264C372.162 2.09333 372.674 1.92267 373.058 1.88C373.356 1.83733 373.954 1.752 374.295 1.83733H374.252L375.49 2.008C375.831 2.09333 376.343 2.392 376.684 2.648C377.068 3.032 377.41 3.416 377.538 3.84267C377.708 4.26933 377.794 4.824 377.794 5.50667C377.794 6.31733 377.708 6.70133 377.495 7.128C377.239 7.55467 376.94 7.93867 376.599 8.19467C376.044 8.536 375.959 8.536 374.082 8.536C373.015 8.536 372.076 8.536 371.991 8.57867C371.863 8.57867 371.778 8.70667 371.735 8.87733C371.692 9.09067 371.778 9.47467 372.076 9.98667C372.375 10.4987 372.46 10.9253 372.46 11.3947C372.46 11.7787 372.375 12.248 372.247 12.4613C372.119 12.76 371.735 13.0587 371.522 13.1867C371.18 13.3573 370.754 13.4853 370.028 13.4853C369.09 13.4853 368.962 13.4853 368.62 13.8267C368.322 14.0827 368.194 14.424 368.108 14.8933C368.108 15.2773 368.023 15.7467 367.98 15.96C367.938 16.2587 367.767 16.6 367.383 16.856C367.17 17.112 366.786 17.4533 366.615 17.5813C366.402 17.752 366.274 18.0507 366.274 18.3067C366.274 18.52 366.316 18.8613 366.402 18.9893C366.487 19.1173 366.743 19.288 366.999 19.3733C367.212 19.4587 367.81 19.5013 368.279 19.5013C368.791 19.5013 369.431 19.5867 369.687 19.7573C369.943 19.8427 370.54 20.2267 370.924 20.568C371.394 20.952 372.119 21.464 372.588 21.8053C373.058 22.1467 374.252 23.2133 375.234 24.28C376.812 25.9013 377.068 26.2427 377.239 26.9253C377.41 27.3947 377.452 27.9067 377.41 28.2907C377.367 28.7173 377.154 29.2293 377.026 29.4853C376.855 29.8267 376.514 30.168 376.215 30.3387C375.959 30.552 375.447 30.8507 375.148 31.0213C374.85 31.2347 374.466 31.576 374.38 31.7467C374.252 31.96 374.082 32.6 373.954 33.1973C373.868 33.7947 373.527 34.6053 373.271 35.0747C373.015 35.544 372.546 36.0987 372.247 36.3547C371.906 36.568 371.223 36.9093 370.711 37.08C370.242 37.208 368.62 37.5067 367.212 37.7627C365.804 37.976 364.311 38.1467 363.97 38.1467C363.586 38.1467 363.074 38.0613 362.732 38.0187C362.391 37.9333 361.452 37.8053 360.556 37.7627C359.618 37.6773 358.807 37.5067 358.551 37.3787C358.295 37.2507 357.74 36.9093 357.271 36.568C356.46 36.0987 356.29 36.0133 355.351 35.9707C354.754 35.8853 354.114 35.7147 353.858 35.6293C353.644 35.5013 353.346 35.2453 353.218 35.032C353.004 34.776 352.876 34.3493 352.834 34.008C352.791 33.6667 352.62 33.3253 352.535 33.112C352.407 32.984 351.895 32.728 351.468 32.5573C350.999 32.3867 350.316 32.0027 349.932 31.7467C349.591 31.4907 349.122 31.2347 348.908 31.2347C348.738 31.2347 348.482 31.32 348.354 31.448C348.268 31.5333 348.226 31.704 348.226 31.832C348.226 31.96 348.482 32.472 348.823 32.9413C349.207 33.496 349.463 34.008 349.506 34.4347C349.591 34.7333 349.591 35.544 349.42 36.2693C349.378 36.952 349.207 37.848 349.079 38.232C348.994 38.616 348.738 39.128 348.482 39.384C348.268 39.6827 347.799 39.9813 347.415 40.1093C347.074 40.2373 346.434 40.3653 345.922 40.3653ZM352.62 10.2C352.62 10.456 352.876 11.1813 353.303 11.9493L354.242 13.9547C354.37 14.424 354.626 14.8507 354.839 15.064C355.052 15.2773 355.522 15.5333 355.906 15.6187C356.247 15.704 357.314 16.0027 358.252 16.344C359.234 16.6 360.684 17.1973 361.538 17.496C362.647 18.008 363.287 18.1787 363.714 18.1787C364.098 18.1787 364.482 18.136 364.61 18.0507C364.738 18.008 365.036 17.6667 365.207 17.4107C365.335 17.1547 365.804 16.6427 366.103 16.3867C366.53 15.96 366.7 15.7467 366.7 15.4907C366.7 15.192 366.53 14.936 366.103 14.5947C365.762 14.2533 365.335 13.8267 365.164 13.528C364.908 13.1013 364.866 12.8027 364.866 12.12C364.866 11.3947 364.908 11.096 365.164 10.6267C365.42 10.2 365.719 9.944 366.274 9.64533C366.7 9.432 367.212 9.09067 367.383 8.83467C367.639 8.62133 367.81 8.32267 367.81 8.10933C367.81 7.85333 367.682 7.59733 367.554 7.46933C367.383 7.34133 367.084 7.256 366.871 7.256C366.7 7.256 366.103 7.384 365.634 7.55467C365.122 7.72533 364.695 7.768 364.354 7.72533C364.055 7.68267 363.415 7.42667 362.903 7.08533C362.434 6.78667 361.666 6.53067 361.324 6.44534C360.898 6.36 360.428 6.31733 360.215 6.36C360.002 6.36 359.618 6.40267 359.234 6.40267C358.892 6.44534 357.826 6.53067 356.844 6.65867C355.863 6.78667 354.839 6.95733 354.668 7.04267C354.455 7.128 354.156 7.46933 353.943 7.68267C353.772 7.896 353.388 8.49333 353.09 8.92C352.791 9.432 352.62 9.944 352.62 10.2Z" fill="#D3FF00"/>
</svg>
