<svg width="381" height="61" viewBox="0 0 381 61" fill="none" xmlns="http://www.w3.org/2000/svg">
<path d="M39.343 13.6C39.343 15.52 39.023 17.376 38.447 19.104C37.871 20.896 37.039 22.432 35.951 23.776C34.863 25.12 33.519 26.208 31.983 26.976C30.383 27.744 28.591 28.128 26.607 28.128C25.583 28.128 24.687 28 23.791 27.616C22.895 27.296 22.191 26.848 21.551 26.208C20.911 25.632 20.399 24.928 20.015 24.096C19.631 23.264 19.503 22.368 19.503 21.344C19.503 20.704 19.631 20 19.887 19.36C20.143 18.72 20.463 18.208 20.911 17.696C21.359 17.184 21.871 16.8 22.447 16.48C23.023 16.224 23.663 16.032 24.367 16.032C25.711 16.032 26.799 16.416 27.567 17.184C28.335 17.952 28.719 18.976 28.719 20.256C28.719 21.024 28.527 21.6 28.143 22.048C27.759 22.496 27.183 22.688 26.415 22.688C25.071 22.688 24.431 22.112 24.431 20.896C24.431 20.64 24.495 20.448 24.623 20.256C24.751 20.064 24.943 19.872 25.135 19.68C25.327 19.552 25.519 19.36 25.647 19.168C25.775 19.04 25.903 18.784 25.903 18.528C25.903 18.208 25.775 17.952 25.519 17.824C25.263 17.696 25.007 17.632 24.751 17.632C23.855 17.632 22.959 18.016 22.191 18.72C21.423 19.488 21.039 20.256 21.039 21.152C21.039 22.048 21.231 22.88 21.615 23.52C21.999 24.16 22.447 24.736 23.087 25.12C23.663 25.504 24.367 25.824 25.135 26.016C25.903 26.272 26.735 26.336 27.503 26.336C28.783 26.336 29.871 26.016 30.895 25.376C31.855 24.736 32.687 23.968 33.327 22.944C33.967 21.984 34.415 20.896 34.735 19.68C35.055 18.528 35.247 17.376 35.247 16.224C35.247 14.944 34.927 13.536 34.415 12.128C33.839 10.72 33.071 9.376 32.111 8.16C31.151 7.008 29.999 5.984 28.719 5.216C27.375 4.448 25.903 4.064 24.367 4.064C23.215 4.064 22.255 4.384 21.423 4.96C20.527 5.536 19.823 6.24 19.311 7.136C18.735 8.032 18.287 9.056 18.031 10.08C17.775 11.168 17.647 12.192 17.647 13.152V41.952C17.647 42.464 17.519 43.296 17.327 44.448C17.135 45.664 16.751 47.008 16.111 48.48C15.471 49.952 14.511 51.488 13.295 53.024C12.079 54.56 10.479 55.968 8.431 57.12C8.175 57.248 7.791 57.44 7.407 57.568C7.023 57.696 6.575 57.824 6.127 57.888C5.679 58.016 5.231 58.08 4.847 58.144C4.463 58.208 4.079 58.208 3.823 58.208C3.439 58.208 2.991 58.208 2.607 58.08C2.159 58.016 1.775 57.888 1.391 57.696C1.007 57.568 0.751 57.312 0.495 56.992C0.239 56.736 0.175 56.352 0.175 55.84C0.175 55.456 0.367 55.072 0.815 54.816C1.263 54.56 1.647 54.368 2.031 54.368C2.415 54.368 2.863 54.496 3.247 54.752C3.631 55.008 4.015 55.2 4.399 55.456C4.719 55.712 5.039 55.968 5.359 56.224C5.615 56.48 5.871 56.544 6.063 56.544C6.575 56.544 7.087 56.416 7.599 56.096C8.111 55.84 8.623 55.456 9.135 55.008C9.647 54.56 10.095 54.048 10.479 53.472C10.863 52.96 11.247 52.384 11.631 51.872C12.015 51.232 12.271 50.528 12.463 49.696C12.655 48.864 12.783 47.968 12.911 47.072C13.039 46.176 13.103 45.28 13.103 44.384V41.952V16.288C13.103 15.904 12.911 15.648 12.527 15.456C12.143 15.328 11.759 15.2 11.439 15.2C10.927 15.2 10.479 15.328 10.095 15.52C9.711 15.776 9.263 15.968 8.879 16.224C8.495 16.48 8.047 16.736 7.599 16.928C7.151 17.184 6.639 17.248 6.063 17.248C5.295 17.248 4.655 17.056 4.143 16.672C3.631 16.288 3.375 15.712 3.375 14.944C3.375 14.56 3.503 14.304 3.823 14.112C4.079 13.984 4.399 13.856 4.783 13.856C5.039 13.856 5.295 13.984 5.423 14.112C5.551 14.24 5.679 14.432 5.807 14.56C5.935 14.688 6.063 14.88 6.191 15.008C6.319 15.136 6.511 15.2 6.767 15.2C7.279 15.2 7.919 14.88 8.687 14.176C9.455 13.472 10.351 12.576 11.375 11.488C12.399 10.464 13.487 9.312 14.703 8.096C15.919 6.88 17.263 5.728 18.671 4.64C20.079 3.616 21.551 2.72 23.151 2.016C24.687 1.312 26.351 0.927998 28.143 0.927998C29.871 0.927998 31.407 1.312 32.815 2.016C34.223 2.72 35.375 3.68 36.335 4.832C37.295 5.984 38.063 7.328 38.575 8.864C39.087 10.4 39.343 12 39.343 13.6ZM60.8345 5.024C60.8345 5.664 60.6425 6.112 60.3225 6.368C59.9385 6.624 59.5545 6.816 59.1065 6.88C58.5945 7.008 58.0825 7.008 57.5705 7.008H56.1625C55.6505 7.008 55.1385 7.072 54.6265 7.072C54.1145 7.136 53.7305 7.264 53.3465 7.456C52.9625 7.648 52.7065 7.904 52.4505 8.288C52.1945 8.672 52.1305 9.184 52.1305 9.824V39.712C52.1305 40.48 52.2585 41.12 52.5785 41.504C52.8985 41.952 53.2825 42.272 53.7945 42.464C54.2425 42.656 54.7545 42.784 55.3945 42.784C55.9705 42.848 56.5465 42.848 57.1225 42.848C57.8905 42.848 58.6585 43.04 59.4265 43.296C60.1945 43.616 60.5785 44.128 60.5785 44.832C60.5785 45.088 60.4505 45.344 60.2585 45.6C60.0665 45.856 59.8105 45.984 59.5545 45.984C59.1705 45.984 58.9145 45.92 58.7225 45.664C58.4665 45.472 58.2745 45.28 58.0825 45.024C57.8905 44.768 57.6985 44.576 57.5065 44.32C57.2505 44.128 56.9945 44 56.7385 44H42.0185C41.6985 44 41.4425 44.128 41.2505 44.256C41.0585 44.448 40.8665 44.64 40.7385 44.896C40.5465 45.152 40.3545 45.344 40.1625 45.472C39.9705 45.664 39.7785 45.728 39.5225 45.728C39.1385 45.728 38.8825 45.6 38.6905 45.28C38.4345 45.024 38.3705 44.704 38.3705 44.384C38.3705 44 38.4985 43.744 38.8185 43.488C39.0745 43.232 39.4585 43.04 39.8425 42.912C40.2265 42.784 40.6745 42.656 41.1225 42.592C41.5065 42.528 41.8905 42.464 42.1465 42.464C42.6585 42.464 43.1705 42.464 43.7465 42.4C44.3225 42.4 44.8985 42.272 45.4105 42.08C45.9225 41.952 46.3065 41.696 46.6265 41.312C46.9465 40.928 47.1385 40.416 47.1385 39.712V9.824C47.1385 9.184 46.9465 8.672 46.6905 8.288C46.4345 7.904 46.0505 7.648 45.6025 7.456C45.1545 7.264 44.6425 7.136 44.1305 7.072C43.5545 7.072 42.9785 7.008 42.4665 7.008C42.0825 7.008 41.6985 7.008 41.3145 6.944C40.8665 6.944 40.4825 6.816 40.0985 6.624C39.7145 6.496 39.4585 6.24 39.2025 5.984C38.9465 5.728 38.8185 5.28 38.8185 4.768C38.8185 4.32 39.1385 4.064 39.7785 4.064C40.0985 4.064 40.3545 4.192 40.4825 4.32C40.6105 4.512 40.7385 4.704 40.8665 4.896C40.9945 5.152 41.1225 5.344 41.3145 5.472C41.4425 5.664 41.6985 5.728 42.0825 5.728H56.9945C57.2505 5.728 57.5705 5.664 57.8265 5.472C58.0825 5.344 58.2745 5.152 58.5305 4.96C58.7225 4.768 58.9145 4.576 59.1065 4.384C59.2985 4.256 59.4905 4.128 59.7465 4.128C60.0025 4.128 60.1945 4.256 60.4505 4.448C60.7065 4.64 60.8345 4.832 60.8345 5.024ZM107.393 41.312C107.393 42.016 107.009 42.528 106.369 42.912C105.665 43.296 104.833 43.552 103.937 43.68C103.041 43.872 102.081 44 101.185 44C100.289 44 99.5845 44 99.1365 44H85.0565C84.6725 44 84.3525 44.128 84.2245 44.256C84.0325 44.448 83.9045 44.64 83.7765 44.832C83.6485 45.024 83.5205 45.216 83.3925 45.344C83.2645 45.472 83.0725 45.536 82.8165 45.536C82.4325 45.536 82.1765 45.472 81.9205 45.344C81.6645 45.216 81.6005 44.96 81.6005 44.576C81.6005 43.936 81.8565 43.424 82.4325 43.104C83.0085 42.848 83.7125 42.656 84.4805 42.592C85.2485 42.528 86.0805 42.528 86.8485 42.528C87.6165 42.592 88.2565 42.592 88.6405 42.592C89.6005 42.592 90.3045 42.464 90.8165 42.144C91.3285 41.888 91.5845 41.184 91.5845 40.032C91.5845 40.032 91.3925 39.648 91.0085 38.944C90.6245 38.24 90.1125 37.408 89.5365 36.384C88.8965 35.36 88.2565 34.272 87.5525 33.12C86.8485 31.968 86.2085 30.816 85.5685 29.792C84.9285 28.768 84.3525 27.808 83.9045 27.04C83.3925 26.272 83.1365 25.824 83.0725 25.632C82.6885 26.08 82.1765 26.656 81.6645 27.296C81.0885 27.936 80.5125 28.64 80.0005 29.344C79.4245 30.048 78.9125 30.752 78.4645 31.392C77.9525 32.096 77.6325 32.672 77.4405 33.184C77.0565 33.952 76.8005 34.848 76.6085 36C76.4165 37.152 76.1605 38.304 75.8405 39.392C75.5205 40.544 75.0725 41.504 74.4965 42.272C73.9205 43.104 73.0885 43.488 72.0005 43.488C70.9125 43.488 70.0165 43.744 69.2485 44.192C68.4805 44.64 67.9045 45.216 67.3925 45.92C66.8805 46.624 66.5605 47.392 66.3045 48.288C66.0485 49.184 65.9845 50.144 65.9845 51.04C65.9845 52.064 66.1125 53.024 66.4325 53.92C66.6885 54.816 67.1365 55.648 67.7125 56.352C68.2885 57.12 68.9925 57.696 69.8245 58.08C70.5925 58.528 71.5525 58.72 72.6405 58.72C73.5365 58.72 74.4325 58.592 75.3285 58.208C76.1605 57.888 76.9925 57.504 77.8245 57.12C78.5925 56.736 79.3605 56.352 80.1285 55.968C80.8965 55.648 81.6005 55.456 82.3045 55.456C82.5605 55.456 82.8805 55.52 83.3285 55.584C83.7765 55.712 84.2245 55.84 84.6725 55.968C85.0565 56.096 85.4405 56.288 85.7605 56.544C86.0805 56.8 86.2725 57.12 86.2725 57.504C86.2725 57.888 86.1445 58.272 86.0165 58.72C85.8885 59.168 85.5685 59.36 85.1205 59.36C84.8645 59.36 84.6085 59.296 84.2245 59.104C83.8405 58.912 83.4565 58.656 83.0725 58.4C82.6885 58.144 82.2405 57.952 81.7925 57.76C81.2805 57.568 80.8325 57.44 80.3845 57.44C80.0005 57.44 79.4885 57.568 78.9125 57.824C78.2725 58.08 77.6325 58.336 76.8645 58.592C76.0965 58.912 75.3285 59.168 74.5605 59.424C73.7285 59.68 72.8965 59.744 72.0645 59.744C71.5525 59.744 71.0405 59.744 70.4005 59.68C69.7605 59.616 69.2485 59.488 68.8645 59.232C68.2245 58.976 67.7125 58.464 67.2005 57.76C66.6885 57.056 66.2405 56.288 65.8565 55.392C65.4725 54.56 65.1525 53.728 64.9605 52.832C64.7045 51.936 64.6405 51.168 64.6405 50.528C64.6405 49.376 64.9605 48.032 65.6005 46.496C66.2405 44.96 67.0725 43.36 68.0965 41.696C69.1205 40.032 70.3365 38.368 71.6165 36.64C72.8965 34.976 74.1765 33.312 75.4565 31.776C76.7365 30.24 78.0165 28.768 79.1685 27.424C80.3205 26.144 81.3445 24.992 82.1125 24.096C81.9845 23.904 81.6005 23.392 81.0885 22.56C80.5765 21.728 79.9365 20.768 79.2325 19.616C78.5285 18.528 77.7605 17.376 76.9925 16.096C76.2245 14.816 75.4565 13.664 74.7525 12.576C74.0485 11.552 73.4725 10.656 73.0245 9.888C72.5125 9.184 72.2565 8.8 72.1925 8.736C71.2965 8.224 70.2725 7.84 69.0565 7.712C67.7765 7.584 66.6245 7.392 65.4725 7.136C64.3205 6.944 63.2965 6.56 62.5285 5.984C61.6965 5.472 61.3125 4.512 61.3125 3.104C61.3125 2.72 61.3765 2.464 61.5045 2.272C61.6325 2.08 61.8885 1.952 62.2725 1.952C62.7845 1.952 63.1045 2.144 63.2965 2.528C63.4245 2.912 63.5525 3.36 63.6805 3.872C63.8085 4.384 63.9365 4.768 64.1285 5.152C64.2565 5.536 64.6405 5.728 65.2805 5.728H82.1765C82.4965 5.728 82.7525 5.6 82.9445 5.344C83.1365 5.088 83.3285 4.832 83.4565 4.512C83.5845 4.192 83.7125 3.872 83.9045 3.616C84.0325 3.36 84.2885 3.168 84.6725 3.168C84.9925 3.168 85.2485 3.232 85.4405 3.232C85.6325 3.296 85.7605 3.488 85.7605 3.808C85.7605 4.448 85.5685 4.96 85.3125 5.344C85.0565 5.728 84.6725 6.048 84.2885 6.304C83.9045 6.56 83.4565 6.688 82.9445 6.816C82.4325 6.944 81.9205 7.008 81.4085 7.008C80.6405 7.136 80.0005 7.264 79.4885 7.456C78.9125 7.712 78.6565 8.16 78.6565 8.864C78.6565 9.12 78.7845 9.504 79.1045 10.08C79.3605 10.656 79.7445 11.36 80.1925 12.128C80.6405 12.896 81.1525 13.728 81.6645 14.624C82.1765 15.52 82.6885 16.352 83.2005 17.12C83.7125 17.888 84.1605 18.592 84.5445 19.232C84.9285 19.872 85.1845 20.256 85.3125 20.448C85.6965 20.064 86.2725 19.36 87.0405 18.464C87.8085 17.568 88.6405 16.544 89.4085 15.52C90.1765 14.496 90.8805 13.472 91.5205 12.448C92.1605 11.488 92.4805 10.72 92.4805 10.144C92.4805 9.632 92.3525 9.312 92.0965 9.056C91.8405 8.864 91.5205 8.736 91.1365 8.608C90.7525 8.48 90.3045 8.416 89.9205 8.416C89.4725 8.416 89.0885 8.288 88.8325 8.16C89.0245 7.712 89.2805 7.2 89.6005 6.56C89.8565 5.984 90.2405 5.408 90.6245 4.896C91.0085 4.384 91.4565 3.936 91.9685 3.552C92.4805 3.168 92.9925 2.976 93.6325 2.976C94.0165 2.976 94.4005 3.168 94.7845 3.424C95.1685 3.68 95.4885 4 95.7445 4.384C96.0005 4.768 96.1925 5.216 96.3205 5.664C96.4485 6.112 96.5125 6.496 96.5125 6.88C96.5125 7.776 96.0645 8.864 95.2325 10.272C94.3365 11.68 93.3765 13.152 92.2245 14.688C91.0725 16.224 89.9205 17.632 88.7685 18.976C87.6165 20.32 86.7205 21.28 86.2085 21.92C87.4885 24.096 88.8325 26.272 90.1765 28.448C91.5205 30.624 92.8645 32.736 94.2725 34.912C94.8485 35.872 95.4885 36.896 96.1285 37.984C96.7685 39.072 97.4085 40.032 98.1765 40.8C98.6245 41.44 99.3285 41.824 100.353 42.016C101.377 42.208 102.209 42.272 102.977 42.272C103.553 42.272 104.001 42.208 104.257 41.952C104.513 41.76 104.769 41.568 104.961 41.312C105.153 41.056 105.345 40.864 105.537 40.608C105.729 40.416 106.049 40.288 106.433 40.288C106.689 40.288 106.945 40.416 107.137 40.608C107.265 40.864 107.393 41.056 107.393 41.312ZM147.304 44H119.464H115.112C113.64 44 112.232 44.128 110.824 44.384C110.44 44.64 110.12 44.896 109.799 45.216C109.48 45.6 109.096 45.728 108.712 45.728C108.392 45.728 108.136 45.664 107.944 45.472C107.688 45.344 107.623 45.088 107.623 44.704C107.623 44.32 107.688 44.064 107.88 43.808C108.648 43.168 109.672 42.848 110.824 42.848C111.976 42.848 113.064 42.848 114.088 42.848C114.408 42.848 114.792 42.848 115.304 42.72C115.752 42.656 116.2 42.528 116.648 42.336C117.095 42.144 117.48 41.888 117.8 41.568C118.12 41.248 118.312 40.864 118.312 40.352V10.016C118.312 9.312 117.992 8.736 117.352 8.288C116.712 7.84 116.135 7.52 115.496 7.328C114.664 7.072 113.768 6.944 112.872 6.88C111.976 6.88 111.144 6.752 110.376 6.56C109.608 6.368 108.968 5.984 108.456 5.472C107.944 4.96 107.688 4.128 107.688 2.976C107.688 2.4 107.944 2.08 108.584 2.08C109.096 2.08 109.48 2.272 109.736 2.656C109.992 3.04 110.184 3.488 110.312 3.936C110.44 4.384 110.568 4.768 110.76 5.152C110.952 5.536 111.336 5.664 111.848 5.664H144.936V6.176C144.296 6.688 143.528 7.264 142.696 7.968C141.8 8.672 141.032 9.376 140.264 10.144C139.496 10.912 138.792 11.616 138.28 12.32C137.704 13.088 137.448 13.728 137.448 14.24C137.448 14.752 137.512 15.264 137.768 15.712C138.024 16.224 138.152 16.736 138.152 17.248C138.152 17.632 138.024 17.888 137.832 18.144C137.576 18.4 137.32 18.528 137 18.528C136.36 18.528 135.912 18.336 135.656 17.824C135.336 17.376 135.208 16.864 135.208 16.352C135.208 15.584 135.4 14.816 135.912 14.176C136.424 13.536 136.808 12.896 137.128 12.128C136.872 11.872 136.616 11.616 136.232 11.424C135.848 11.296 135.464 11.104 135.08 10.912C134.696 10.72 134.312 10.464 134.056 10.208C133.8 9.952 133.672 9.632 133.672 9.184C133.672 8.928 133.736 8.608 133.992 8.16C134.184 7.712 134.376 7.328 134.504 7.008H127.656C127.144 7.008 126.696 7.072 126.184 7.136C125.672 7.264 125.16 7.392 124.776 7.648C124.328 7.904 124.008 8.16 123.752 8.544C123.496 8.928 123.368 9.44 123.368 10.016V21.6H129.192C129.448 21.6 129.768 21.344 130.152 20.832C130.536 20.32 130.792 19.872 130.984 19.424C131.176 19.04 131.304 18.784 131.368 18.656H132.2V28.384H131.368C131.304 28.384 131.176 28.192 130.984 27.808C130.792 27.424 130.536 27.04 130.216 26.592C129.832 26.208 129.512 25.952 129.192 25.952H123.368V40.352C123.368 40.864 123.496 41.312 123.88 41.632C124.264 41.952 124.712 42.208 125.224 42.4C125.736 42.592 126.248 42.72 126.824 42.784C127.336 42.848 127.848 42.848 128.296 42.848H135.592C135.464 42.656 135.272 42.208 135.016 41.44C134.76 40.736 134.696 40.096 134.696 39.584C134.696 39.136 134.824 38.752 135.08 38.496C135.336 38.24 135.656 37.984 136.04 37.856C136.424 37.728 136.808 37.6 137.256 37.472C137.64 37.408 138.024 37.28 138.408 37.152C138.152 36.128 137.832 35.104 137.448 34.08C137 33.12 136.808 32.096 136.808 30.944C136.808 30.688 136.808 30.368 136.936 29.984C137.064 29.6 137.192 29.28 137.384 28.96C137.576 28.64 137.832 28.384 138.088 28.128C138.344 27.936 138.6 27.808 138.984 27.808C139.24 27.808 139.56 27.936 139.816 28.128C140.072 28.32 140.2 28.576 140.2 28.896C140.2 29.152 140.072 29.344 139.944 29.6C139.752 29.856 139.56 30.176 139.304 30.496C139.048 30.816 138.856 31.136 138.728 31.456C138.536 31.84 138.472 32.16 138.472 32.48C138.472 32.736 138.472 32.992 138.6 33.12C138.664 33.312 138.728 33.504 138.856 33.696C139.752 36 140.904 37.856 142.248 39.264C143.528 40.672 145.256 42.08 147.304 43.36V44ZM187.217 44H151.761C151.377 44 150.993 44.256 150.673 44.64C150.353 45.088 149.969 45.28 149.457 45.28C149.073 45.28 148.817 45.216 148.625 44.96C148.369 44.768 148.305 44.512 148.305 44.128C148.305 43.872 148.369 43.616 148.625 43.424C148.881 43.232 149.137 43.04 149.457 42.912C149.777 42.784 150.097 42.72 150.417 42.656C150.737 42.656 150.993 42.592 151.249 42.592C151.761 42.592 152.209 42.656 152.721 42.656C153.233 42.72 153.681 42.72 154.193 42.72C154.577 42.72 155.089 42.656 155.601 42.464C156.113 42.336 156.625 42.08 157.137 41.824C157.649 41.568 158.033 41.184 158.417 40.8C158.737 40.416 158.929 39.904 158.929 39.392V9.696C158.929 8.8 158.417 8.096 157.457 7.712C156.689 7.456 155.857 7.264 154.961 7.2C154.001 7.136 153.233 7.072 152.593 7.072C151.569 7.072 150.673 7.008 149.905 6.816C149.137 6.624 148.753 6.112 148.753 5.28C148.753 5.024 148.817 4.768 149.009 4.512C149.201 4.256 149.457 4.064 149.841 4.064C150.097 4.064 150.353 4.192 150.609 4.32C150.865 4.512 151.057 4.704 151.313 4.896C151.569 5.152 151.761 5.344 152.017 5.472C152.209 5.664 152.401 5.728 152.593 5.728H170.641C170.897 5.728 171.089 5.664 171.281 5.536C171.409 5.408 171.601 5.216 171.729 5.024C171.857 4.832 172.049 4.64 172.305 4.448C172.497 4.32 172.817 4.192 173.201 4.192C173.649 4.192 173.969 4.384 174.161 4.64C174.289 4.96 174.417 5.216 174.417 5.472C174.417 5.856 174.225 6.176 173.905 6.496C173.521 6.816 173.201 7.008 172.945 7.072C172.561 7.2 172.049 7.328 171.409 7.328C170.769 7.328 170.065 7.392 169.297 7.456C168.529 7.52 167.825 7.648 167.121 7.776C166.353 7.904 165.777 8.16 165.265 8.48C164.945 8.736 164.625 8.992 164.369 9.312C164.113 9.632 163.985 9.952 163.985 10.336V39.392C163.985 39.904 164.113 40.416 164.433 40.8C164.753 41.184 165.137 41.568 165.585 41.824C165.969 42.144 166.417 42.4 166.865 42.528C167.313 42.72 167.697 42.784 167.953 42.784H176.209C175.889 42.528 175.697 42.144 175.569 41.632C175.441 41.12 175.377 40.672 175.377 40.16C175.377 39.456 175.505 38.88 175.825 38.496C176.081 38.112 176.465 37.792 176.849 37.6C177.233 37.408 177.553 37.28 177.937 37.216C178.321 37.216 178.577 37.152 178.705 37.152C178.193 35.36 177.553 33.504 176.913 31.584C176.209 29.664 175.889 27.744 175.889 25.824C175.889 25.568 175.889 25.184 175.889 24.736C175.889 24.352 176.017 23.904 176.145 23.52C176.273 23.136 176.401 22.816 176.657 22.56C176.913 22.304 177.233 22.176 177.681 22.176C178.321 22.176 178.641 22.56 178.641 23.2C178.641 23.584 178.513 23.968 178.385 24.352C178.257 24.736 178.065 25.056 177.937 25.376C177.809 25.76 177.617 26.08 177.489 26.4C177.361 26.72 177.297 27.04 177.297 27.424C177.297 29.344 177.681 31.136 178.449 32.928C179.217 34.72 180.113 36.384 181.201 37.856C181.713 38.624 182.289 39.328 182.929 39.968C183.505 40.608 184.081 41.184 184.657 41.696C185.233 42.208 185.745 42.656 186.193 42.976C186.641 43.296 186.961 43.488 187.217 43.488V44ZM272.523 42.592C272.523 43.104 272.331 43.552 272.011 44C271.691 44.512 271.307 44.704 270.859 44.704C270.539 44.704 270.283 44.64 270.091 44.448C269.835 44.256 269.643 44.064 269.451 43.808C269.259 43.616 269.067 43.424 268.875 43.232C268.619 43.04 268.363 42.912 268.107 42.912C267.723 42.912 267.403 43.104 267.147 43.36C266.891 43.616 266.571 43.936 266.187 44.256C265.803 44.576 265.291 44.896 264.715 45.152C264.139 45.408 263.435 45.536 262.539 45.536C260.747 45.536 259.531 45.024 258.891 44C258.251 42.976 257.931 41.632 257.931 40.096C257.931 38.496 258.187 36.96 258.763 35.424C259.275 33.952 259.915 32.48 260.683 31.008C261.387 29.536 262.091 28.064 262.795 26.528C263.499 25.056 264.011 23.52 264.267 21.92C264.395 21.216 264.459 20.448 264.587 19.68C264.651 18.912 264.715 18.208 264.715 17.44C264.715 16.352 264.587 15.2 264.331 13.984C264.075 12.768 263.691 11.68 263.115 10.656C262.539 9.632 261.771 8.8 260.875 8.16C259.979 7.52 258.827 7.136 257.547 7.136C256.267 7.136 254.987 7.52 253.835 8.16C252.619 8.8 251.531 9.696 250.571 10.72C249.611 11.808 248.843 12.96 248.267 14.24C247.691 15.52 247.435 16.8 247.435 18.016V40.48C247.435 40.736 247.562 41.056 247.819 41.312C248.075 41.632 248.395 41.952 248.779 42.208C249.163 42.464 249.547 42.72 249.931 42.848C250.315 43.04 250.635 43.104 250.891 43.104C251.275 43.104 251.595 43.04 251.851 42.784C252.107 42.592 252.427 42.336 252.683 42.08C252.939 41.824 253.194 41.568 253.515 41.312C253.771 41.12 254.155 40.992 254.539 40.992C254.859 40.992 255.115 41.12 255.243 41.376C255.371 41.632 255.435 41.952 255.435 42.208C255.435 42.72 255.243 43.04 254.987 43.296C254.731 43.552 254.411 43.68 254.027 43.808C253.643 43.936 253.194 44 252.747 44C252.299 44 251.915 44 251.659 44H237.899C237.643 44 237.451 44.128 237.323 44.256C237.195 44.448 237.003 44.64 236.811 44.896C236.619 45.152 236.427 45.344 236.171 45.472C235.915 45.664 235.659 45.728 235.403 45.728C235.019 45.728 234.763 45.664 234.635 45.408C234.507 45.216 234.443 44.96 234.443 44.64C234.443 44.256 234.507 44 234.699 43.744C235.083 43.296 235.531 42.976 236.043 42.848C236.555 42.72 237.067 42.656 237.707 42.592C238.283 42.592 238.859 42.528 239.435 42.528C240.011 42.528 240.523 42.336 241.035 42.08C241.483 41.824 241.867 41.44 242.187 40.8C242.443 40.224 242.635 39.328 242.635 38.176V10.784C242.635 10.208 242.443 9.632 242.059 9.12C241.675 8.608 241.163 8.16 240.587 7.776C240.011 7.392 239.435 7.136 238.795 6.88C238.155 6.688 237.579 6.56 237.067 6.56C235.787 6.56 234.635 6.88 233.611 7.456C232.587 8.096 231.755 8.864 231.115 9.76C230.475 10.72 229.963 11.808 229.643 12.96C229.259 14.112 229.131 15.264 229.131 16.416V36.128C229.131 38.048 229.067 39.904 228.939 41.696C228.811 43.488 228.491 45.152 228.043 46.752C227.531 48.352 226.827 49.888 225.931 51.296C225.035 52.768 223.755 54.176 222.219 55.456C221.003 56.48 219.595 57.312 218.059 58.016C216.459 58.72 214.922 59.04 213.386 59.04C213.002 59.04 212.618 59.04 212.17 59.04C211.658 59.04 211.21 58.912 210.826 58.784C210.442 58.656 210.058 58.464 209.802 58.208C209.482 57.952 209.354 57.568 209.354 57.056C209.354 56.672 209.482 56.352 209.802 56.096C210.058 55.84 210.442 55.712 210.826 55.712C211.21 55.712 211.53 55.84 211.786 55.968C212.042 56.16 212.298 56.352 212.554 56.608C212.81 56.864 213.194 57.056 213.642 57.184C214.026 57.376 214.602 57.44 215.37 57.44C216.587 57.44 217.611 57.248 218.507 56.8C219.403 56.352 220.171 55.776 220.875 55.008C221.579 54.24 222.155 53.28 222.667 52.128C223.115 50.976 223.499 49.824 223.755 48.608C224.01 47.392 224.139 46.176 224.267 44.96C224.331 43.744 224.395 42.592 224.395 41.568V17.888C224.395 17.568 224.203 17.312 223.819 17.056C223.435 16.8 223.115 16.672 222.859 16.672C222.411 16.672 222.027 16.8 221.643 16.992C221.259 17.248 220.811 17.44 220.427 17.696C220.043 17.952 219.595 18.208 219.211 18.4C218.763 18.656 218.315 18.72 217.867 18.72C217.355 18.72 216.843 18.592 216.331 18.336C215.819 18.08 215.627 17.632 215.627 16.992C215.627 16.672 215.691 16.416 215.819 16.16C215.947 15.968 216.203 15.84 216.587 15.84C217.099 15.84 217.483 16.032 217.867 16.416C218.187 16.8 218.635 16.992 219.147 16.992C219.403 16.992 219.915 16.736 220.683 16.16C221.451 15.648 222.347 14.944 223.435 14.112C224.459 13.28 225.611 12.32 226.891 11.296C228.107 10.272 229.323 9.312 230.475 8.352C231.627 7.456 232.651 6.624 233.611 5.856C234.507 5.152 235.211 4.64 235.723 4.384C236.235 4.128 236.875 3.872 237.515 3.744C238.155 3.616 238.795 3.488 239.435 3.488C240.651 3.488 241.867 3.808 243.019 4.384C244.171 4.96 245.067 5.792 245.835 6.816C246.219 7.456 246.539 8.288 246.859 9.312C247.179 10.336 247.371 11.232 247.435 12C248.139 11.168 248.907 10.272 249.803 9.248C250.699 8.288 251.659 7.392 252.683 6.56C253.707 5.728 254.731 5.024 255.883 4.448C257.035 3.936 258.187 3.616 259.467 3.616C261.003 3.616 262.411 4 263.691 4.768C264.971 5.536 265.995 6.56 266.827 7.712C267.659 8.928 268.299 10.272 268.747 11.744C269.195 13.28 269.451 14.688 269.451 16.096C269.451 18.016 269.195 19.68 268.683 21.216C268.171 22.752 267.595 24.224 266.891 25.632C266.123 27.04 265.355 28.448 264.459 29.792C263.563 31.2 262.667 32.608 261.899 34.144C261.387 35.168 260.811 36.128 260.299 37.152C259.723 38.176 259.467 39.264 259.467 40.352C259.467 41.376 259.723 42.272 260.299 43.04C260.875 43.808 261.707 44.192 262.859 44.192C263.371 44.192 263.883 44 264.331 43.552C264.779 43.168 265.227 42.656 265.739 42.144C266.187 41.632 266.699 41.184 267.275 40.736C267.851 40.352 268.619 40.096 269.515 40.096C270.155 40.096 270.859 40.352 271.499 40.8C272.139 41.248 272.523 41.824 272.523 42.592ZM306.054 25.248C306.054 27.424 305.734 29.664 305.158 31.968C304.518 34.272 303.622 36.384 302.406 38.304C301.19 40.224 299.654 41.824 297.798 43.04C295.942 44.32 293.766 44.896 291.333 44.896C288.39 44.896 285.894 44.256 283.782 42.912C281.606 41.568 279.878 39.84 278.47 37.728C277.062 35.616 276.038 33.248 275.398 30.688C274.758 28.128 274.438 25.632 274.438 23.136C274.438 20.576 274.694 18.08 275.334 15.52C275.974 12.96 276.934 10.72 278.278 8.672C279.558 6.688 281.286 5.088 283.398 3.808C285.446 2.528 288.006 1.888 290.95 1.888C291.398 1.888 292.102 1.952 292.998 2.08C293.894 2.208 294.854 2.336 295.75 2.592C296.646 2.848 297.478 3.232 298.182 3.68C298.822 4.128 299.206 4.64 299.206 5.28C299.206 6.24 298.694 6.688 297.798 6.688C297.286 6.688 296.902 6.56 296.71 6.176C296.454 5.856 296.198 5.472 295.814 5.088C295.43 4.704 294.918 4.384 294.278 4C293.574 3.68 292.486 3.488 291.014 3.488C288.774 3.488 286.854 3.872 285.318 4.64C283.782 5.408 282.502 6.496 281.542 7.776C280.518 9.056 279.814 10.592 279.366 12.384C278.918 14.176 278.726 16.032 278.726 18.016C278.726 19.488 278.854 21.088 279.11 22.752C279.366 24.48 279.814 26.208 280.326 27.872C280.838 29.6 281.542 31.264 282.374 32.864C283.206 34.464 284.23 35.872 285.382 37.088C286.534 38.304 287.814 39.264 289.222 40.032C290.63 40.8 292.294 41.12 294.086 41.12C295.686 41.12 297.03 40.8 298.118 40.16C299.142 39.52 299.974 38.688 300.614 37.6C301.254 36.576 301.702 35.36 301.958 34.016C302.214 32.672 302.342 31.328 302.342 29.92C302.342 28.192 302.022 26.144 301.446 23.712C300.806 21.28 299.974 18.976 298.822 16.8C297.67 14.624 296.262 12.704 294.598 11.168C292.934 9.632 291.014 8.864 288.902 8.864C288.198 8.864 287.558 9.12 286.918 9.568C286.278 10.016 285.702 10.592 285.19 11.232C284.678 11.936 284.294 12.64 284.038 13.408C283.718 14.176 283.59 14.816 283.59 15.456C283.59 16.096 283.654 16.736 283.91 17.376C284.102 18.016 284.422 18.528 284.806 19.04C285.19 19.552 285.702 20 286.278 20.32C286.79 20.64 287.43 20.768 288.134 20.768C288.582 20.768 289.094 20.64 289.606 20.384C290.118 20.128 290.374 19.68 290.374 19.168C290.374 18.784 290.246 18.4 290.054 18.016C289.862 17.632 289.798 17.248 289.798 16.864C289.798 16.48 289.926 16.224 290.31 15.968C290.694 15.776 291.014 15.648 291.398 15.648C291.846 15.648 292.23 15.904 292.614 16.352C292.998 16.8 293.19 17.248 293.19 17.696C293.19 18.464 292.998 19.168 292.678 19.744C292.358 20.32 291.91 20.768 291.398 21.152C290.885 21.536 290.246 21.792 289.606 21.984C288.902 22.176 288.198 22.24 287.558 22.24C286.662 22.24 285.83 22.048 285.19 21.536C284.486 21.024 283.91 20.448 283.462 19.68C282.95 18.912 282.63 18.144 282.374 17.248C282.118 16.352 281.99 15.52 281.99 14.752C281.99 13.472 282.246 12.192 282.758 11.04C283.27 9.888 284.038 8.928 284.934 8.096C285.83 7.328 286.854 6.688 288.07 6.176C289.222 5.728 290.502 5.472 291.846 5.472C294.278 5.472 296.39 6.176 298.182 7.456C299.974 8.736 301.446 10.4 302.598 12.32C303.75 14.304 304.582 16.48 305.158 18.784C305.734 21.088 306.054 23.264 306.054 25.248ZM347.792 3.616C347.792 3.936 347.6 4.256 347.28 4.512C346.96 4.768 346.704 4.896 346.448 4.896C345.936 4.896 345.488 4.832 345.04 4.64C344.528 4.448 344.08 4.32 343.632 4.32C342.736 4.32 341.904 4.832 341.136 5.728C340.304 6.688 339.536 7.776 338.896 9.056C338.192 10.336 337.616 11.552 337.104 12.832C336.592 14.112 336.272 15.136 336.144 15.776L335.12 19.616C334.736 20.896 334.416 22.176 334.032 23.456C336.08 24.48 337.936 25.568 339.472 26.784C341.007 28 341.904 29.472 342.288 31.2C342.352 31.776 342.416 32.352 342.479 32.864C342.479 33.44 342.544 34.016 342.544 34.528C342.544 36.576 342.224 38.304 341.583 39.712C340.944 41.184 340.112 42.4 338.96 43.296C337.808 44.192 336.464 44.896 334.928 45.28C333.328 45.728 331.6 45.92 329.744 45.92C328.592 45.92 327.376 45.792 326.224 45.536C325.776 46.496 325.328 47.392 324.88 48.288C324.432 49.184 323.984 50.016 323.536 50.912C322.896 52.064 322.192 53.216 321.424 54.368C320.656 55.584 319.76 56.672 318.8 57.632C317.776 58.592 316.688 59.36 315.536 60C314.32 60.64 312.976 60.896 311.568 60.896C310.672 60.896 309.904 60.768 309.136 60.384C308.367 60.064 307.983 59.36 307.983 58.272C307.983 57.888 308.047 57.504 308.303 57.184C308.495 56.928 308.816 56.736 309.264 56.736C309.648 56.736 310.032 56.864 310.288 57.12C310.544 57.376 310.799 57.632 311.056 57.888C311.248 58.208 311.44 58.464 311.568 58.72C311.696 58.976 311.888 59.04 312.08 59.04C313.104 59.04 314.064 58.848 314.96 58.4C315.856 57.952 316.688 57.376 317.456 56.608C318.224 55.904 318.928 55.136 319.568 54.24C320.208 53.408 320.784 52.576 321.296 51.68C321.808 50.912 322.32 50.016 322.832 48.928C323.344 47.84 323.92 46.624 324.56 45.216L321.232 44.576C320.08 44.384 318.992 44.256 317.904 44.256C316.368 44.256 315.216 44.512 314.512 45.024C313.744 45.536 313.232 46.048 312.848 46.624C312.464 47.2 312.08 47.712 311.824 48.224C311.504 48.736 310.992 48.928 310.224 48.928C309.456 48.928 309.136 48.544 309.136 47.776C309.136 47.52 309.2 47.264 309.456 47.072C309.648 46.88 309.904 46.688 310.224 46.496C310.48 46.368 310.799 46.176 311.184 45.984C311.504 45.792 311.824 45.536 312.08 45.28C312.784 44.512 313.296 43.552 313.616 42.464C313.936 41.376 314.192 40.224 314.448 39.072C314.64 37.856 314.832 36.64 315.024 35.424C315.152 34.272 315.28 32.992 315.28 31.712C315.28 30.624 315.152 29.728 314.896 29.088C314.64 28.448 314.448 28 314.192 27.616C313.936 27.232 313.68 26.976 313.424 26.72C313.168 26.528 313.104 26.272 313.104 25.952C313.104 25.824 313.168 25.568 313.36 25.184C313.552 24.8 313.744 24.608 314 24.608C314.576 24.608 315.024 24.8 315.408 25.184C315.792 25.568 315.984 25.952 316.048 26.4C316.176 27.744 316.368 29.088 316.496 30.496C316.624 31.904 316.816 33.184 317.135 34.464C317.456 35.744 317.968 36.96 318.672 38.112C319.312 39.264 320.336 40.16 321.68 40.928C322.64 41.568 323.344 42.08 323.856 42.464C324.368 42.848 324.88 43.168 325.392 43.424C326.288 41.184 327.184 38.816 328.08 36.256C328.976 33.76 329.808 31.264 330.576 28.768C328.976 28.128 327.248 27.488 325.456 26.784C323.6 26.08 321.872 25.184 320.336 24.16C318.8 23.136 317.456 21.92 316.432 20.512C315.408 19.104 314.896 17.312 314.896 15.2C314.896 13.728 315.152 12.32 315.728 10.976C316.304 9.632 317.072 8.48 318.095 7.456C319.056 6.432 320.208 5.664 321.552 5.024C322.832 4.448 324.24 4.128 325.776 4.128C327.312 4.128 328.592 4.32 329.68 4.704C330.704 5.088 331.664 5.536 332.432 6.048C333.2 6.56 333.904 6.944 334.544 7.328C335.12 7.712 335.696 7.904 336.336 7.904C336.976 7.904 337.68 7.648 338.32 7.072C338.96 6.56 339.6 5.92 340.304 5.28C341.007 4.64 341.776 4 342.608 3.424C343.44 2.912 344.4 2.592 345.552 2.592C345.68 2.592 345.936 2.656 346.192 2.656C346.448 2.656 346.64 2.72 346.896 2.784C347.152 2.848 347.344 2.976 347.536 3.104C347.664 3.232 347.792 3.424 347.792 3.616ZM333.392 15.456C333.392 14.048 333.2 12.768 332.816 11.616C332.432 10.464 331.856 9.44 331.088 8.544C330.32 7.712 329.36 7.072 328.208 6.56C327.056 6.048 325.776 5.792 324.368 5.792C323.472 5.792 322.64 6.048 321.744 6.496C320.848 6.944 320.08 7.456 319.504 8.032C318.928 8.672 318.48 9.312 318.16 10.08C317.84 10.848 317.712 11.68 317.712 12.576C317.712 13.344 317.776 14.048 318.032 14.688C318.224 15.392 318.608 15.968 319.184 16.48C319.824 17.12 320.656 17.696 321.68 18.208C322.64 18.72 323.728 19.232 324.88 19.744C326.032 20.256 327.184 20.704 328.464 21.216C329.744 21.728 330.96 22.176 332.24 22.688C332.56 21.216 332.816 19.872 333.072 18.592C333.264 17.376 333.392 16.352 333.392 15.456ZM340.112 37.28C340.112 36.64 339.984 36.128 339.856 35.616C339.6 35.104 339.216 34.528 338.64 33.888C338.064 33.248 337.424 32.672 336.656 32.16C335.888 31.648 335.12 31.136 334.352 30.624C333.52 30.176 332.816 29.792 332.24 29.536C331.472 31.968 330.704 34.4 329.808 36.832C328.912 39.264 328.016 41.632 326.992 43.936C327.312 44.064 327.696 44.064 328.08 44.064H329.424C330.512 44.064 331.664 44 332.944 43.808C334.224 43.616 335.376 43.232 336.4 42.72C337.424 42.208 338.32 41.568 339.024 40.672C339.728 39.776 340.112 38.688 340.112 37.28ZM380.229 3.616C380.229 3.936 380.037 4.256 379.717 4.512C379.397 4.768 379.141 4.896 378.885 4.896C378.373 4.896 377.925 4.832 377.477 4.64C376.965 4.448 376.517 4.32 376.069 4.32C375.173 4.32 374.341 4.832 373.573 5.728C372.741 6.688 371.973 7.776 371.333 9.056C370.629 10.336 370.053 11.552 369.541 12.832C369.029 14.112 368.709 15.136 368.581 15.776L367.557 19.616C367.173 20.896 366.853 22.176 366.469 23.456C368.517 24.48 370.373 25.568 371.909 26.784C373.445 28 374.341 29.472 374.725 31.2C374.789 31.776 374.853 32.352 374.917 32.864C374.917 33.44 374.981 34.016 374.981 34.528C374.981 36.576 374.661 38.304 374.021 39.712C373.381 41.184 372.549 42.4 371.397 43.296C370.245 44.192 368.901 44.896 367.365 45.28C365.765 45.728 364.037 45.92 362.181 45.92C361.029 45.92 359.813 45.792 358.661 45.536C358.213 46.496 357.765 47.392 357.317 48.288C356.869 49.184 356.421 50.016 355.973 50.912C355.333 52.064 354.629 53.216 353.861 54.368C353.093 55.584 352.197 56.672 351.237 57.632C350.213 58.592 349.125 59.36 347.973 60C346.757 60.64 345.413 60.896 344.005 60.896C343.109 60.896 342.341 60.768 341.573 60.384C340.805 60.064 340.421 59.36 340.421 58.272C340.421 57.888 340.485 57.504 340.741 57.184C340.933 56.928 341.253 56.736 341.701 56.736C342.085 56.736 342.469 56.864 342.725 57.12C342.981 57.376 343.237 57.632 343.493 57.888C343.685 58.208 343.877 58.464 344.005 58.72C344.133 58.976 344.325 59.04 344.517 59.04C345.541 59.04 346.501 58.848 347.397 58.4C348.293 57.952 349.125 57.376 349.893 56.608C350.661 55.904 351.365 55.136 352.005 54.24C352.645 53.408 353.221 52.576 353.733 51.68C354.245 50.912 354.757 50.016 355.269 48.928C355.781 47.84 356.357 46.624 356.997 45.216L353.669 44.576C352.517 44.384 351.429 44.256 350.341 44.256C348.805 44.256 347.653 44.512 346.949 45.024C346.181 45.536 345.669 46.048 345.285 46.624C344.901 47.2 344.517 47.712 344.261 48.224C343.941 48.736 343.429 48.928 342.661 48.928C341.893 48.928 341.573 48.544 341.573 47.776C341.573 47.52 341.637 47.264 341.893 47.072C342.085 46.88 342.341 46.688 342.661 46.496C342.917 46.368 343.237 46.176 343.621 45.984C343.941 45.792 344.261 45.536 344.517 45.28C345.221 44.512 345.733 43.552 346.053 42.464C346.373 41.376 346.629 40.224 346.885 39.072C347.077 37.856 347.269 36.64 347.461 35.424C347.589 34.272 347.717 32.992 347.717 31.712C347.717 30.624 347.589 29.728 347.333 29.088C347.077 28.448 346.885 28 346.629 27.616C346.373 27.232 346.117 26.976 345.861 26.72C345.605 26.528 345.541 26.272 345.541 25.952C345.541 25.824 345.605 25.568 345.797 25.184C345.989 24.8 346.181 24.608 346.437 24.608C347.013 24.608 347.461 24.8 347.845 25.184C348.229 25.568 348.421 25.952 348.485 26.4C348.613 27.744 348.805 29.088 348.933 30.496C349.061 31.904 349.253 33.184 349.573 34.464C349.893 35.744 350.405 36.96 351.109 38.112C351.749 39.264 352.773 40.16 354.117 40.928C355.077 41.568 355.781 42.08 356.293 42.464C356.805 42.848 357.317 43.168 357.829 43.424C358.725 41.184 359.621 38.816 360.517 36.256C361.413 33.76 362.245 31.264 363.013 28.768C361.413 28.128 359.685 27.488 357.893 26.784C356.037 26.08 354.309 25.184 352.773 24.16C351.237 23.136 349.893 21.92 348.869 20.512C347.845 19.104 347.333 17.312 347.333 15.2C347.333 13.728 347.589 12.32 348.165 10.976C348.741 9.632 349.509 8.48 350.533 7.456C351.493 6.432 352.645 5.664 353.989 5.024C355.269 4.448 356.677 4.128 358.213 4.128C359.749 4.128 361.029 4.32 362.117 4.704C363.141 5.088 364.101 5.536 364.869 6.048C365.637 6.56 366.341 6.944 366.981 7.328C367.557 7.712 368.133 7.904 368.773 7.904C369.413 7.904 370.117 7.648 370.757 7.072C371.397 6.56 372.037 5.92 372.741 5.28C373.445 4.64 374.213 4 375.045 3.424C375.877 2.912 376.837 2.592 377.989 2.592C378.117 2.592 378.373 2.656 378.629 2.656C378.885 2.656 379.077 2.72 379.333 2.784C379.589 2.848 379.781 2.976 379.973 3.104C380.101 3.232 380.229 3.424 380.229 3.616ZM365.829 15.456C365.829 14.048 365.637 12.768 365.253 11.616C364.869 10.464 364.293 9.44 363.525 8.544C362.757 7.712 361.797 7.072 360.645 6.56C359.493 6.048 358.213 5.792 356.805 5.792C355.909 5.792 355.077 6.048 354.181 6.496C353.285 6.944 352.517 7.456 351.941 8.032C351.365 8.672 350.917 9.312 350.597 10.08C350.277 10.848 350.149 11.68 350.149 12.576C350.149 13.344 350.213 14.048 350.469 14.688C350.661 15.392 351.045 15.968 351.621 16.48C352.261 17.12 353.093 17.696 354.117 18.208C355.077 18.72 356.165 19.232 357.317 19.744C358.469 20.256 359.621 20.704 360.901 21.216C362.181 21.728 363.397 22.176 364.677 22.688C364.997 21.216 365.253 19.872 365.509 18.592C365.701 17.376 365.829 16.352 365.829 15.456ZM372.549 37.28C372.549 36.64 372.421 36.128 372.293 35.616C372.037 35.104 371.653 34.528 371.077 33.888C370.501 33.248 369.861 32.672 369.093 32.16C368.325 31.648 367.557 31.136 366.789 30.624C365.957 30.176 365.253 29.792 364.677 29.536C363.909 31.968 363.141 34.4 362.245 36.832C361.349 39.264 360.453 41.632 359.429 43.936C359.749 44.064 360.133 44.064 360.517 44.064H361.861C362.949 44.064 364.101 44 365.381 43.808C366.661 43.616 367.813 43.232 368.837 42.72C369.861 42.208 370.757 41.568 371.461 40.672C372.165 39.776 372.549 38.688 372.549 37.28Z" fill="#D3FF00"/>
</svg>
