<svg width="138" height="25" viewBox="0 0 138 25" fill="none" xmlns="http://www.w3.org/2000/svg">
<path d="M5.53125 15.3086V13.4688H7.38281V15.3086H5.53125ZM7.38281 13.4688V11.6172H9.22266V13.4688H7.38281ZM9.22266 11.6172V9.77734H11.0742V11.6172H9.22266ZM11.0742 9.77734V6.08594H12.9141V9.77734H11.0742ZM9.22266 6.08594V4.23438H11.0742V6.08594H9.22266ZM1.83984 22.6914V4.23438H0V2.39453H3.69141V4.23438H5.53125V6.08594H3.69141V15.3086H5.53125V17.1602H3.69141V22.6914H1.83984ZM5.53125 4.23438V2.39453H9.22266V4.23438H5.53125ZM22.1484 19V17.1602H24V19H22.1484ZM20.3086 17.1602V15.3086H22.1484V17.1602H20.3086ZM24 17.1602V15.3086H25.8398V17.1602H24ZM18.457 15.3086V13.4688H20.3086V15.3086H18.457ZM25.8398 15.3086V13.4688H27.6914V15.3086H25.8398ZM16.6172 13.4688V9.77734H18.457V13.4688H16.6172ZM22.1484 13.4688V9.77734H24V13.4688H22.1484ZM27.6914 13.4688V9.77734H29.5312V13.4688H27.6914ZM18.457 9.77734V7.92578H22.1484V9.77734H18.457ZM24 9.77734V7.92578H27.6914V9.77734H24ZM22.1484 7.92578V6.08594H24V7.92578H22.1484ZM20.3086 6.08594V4.23438H22.1484V6.08594H20.3086ZM24 6.08594V4.23438H25.8398V6.08594H24ZM18.457 4.23438V2.39453H20.3086V4.23438H18.457ZM22.1484 4.23438V2.39453H24V4.23438H22.1484ZM25.8398 4.23438V2.39453H27.6914V4.23438H25.8398ZM20.3086 2.39453V0.542969H22.1484V2.39453H20.3086ZM24 2.39453V0.542969H25.8398V2.39453H24ZM33.2344 24.5312V22.6914H35.0742V24.5312H33.2344ZM44.3086 24.5312V22.6914H46.1484V24.5312H44.3086ZM35.0742 22.6914V20.8398H36.9258V22.6914H35.0742ZM42.457 22.6914V20.8398H44.3086V22.6914H42.457ZM36.9258 20.8398V19H38.7656V20.8398H36.9258ZM40.6172 20.8398V19H42.457V20.8398H40.6172ZM38.7656 19V17.1602H40.6172V19H38.7656ZM36.9258 17.1602V15.3086H38.7656V17.1602H36.9258ZM40.6172 17.1602V15.3086H42.457V17.1602H40.6172ZM35.0742 15.3086V13.4688H36.9258V15.3086H35.0742ZM42.457 15.3086V13.4688H44.3086V15.3086H42.457ZM33.2344 13.4688V9.77734H35.0742V13.4688H33.2344ZM38.7656 13.4688V9.77734H40.6172V13.4688H38.7656ZM44.3086 13.4688V9.77734H46.1484V13.4688H44.3086ZM35.0742 9.77734V7.92578H38.7656V9.77734H35.0742ZM40.6172 9.77734V7.92578H44.3086V9.77734H40.6172ZM55.3828 19V17.1602H57.2344V19H55.3828ZM53.543 17.1602V15.3086H55.3828V17.1602H53.543ZM51.6914 15.3086V13.4688H49.8516V9.77734H51.6914V11.6172H55.3828V9.77734H57.2344V13.4688H53.543V15.3086H51.6914ZM51.6914 9.77734V7.92578H55.3828V9.77734H51.6914ZM66.4688 19V17.1602H68.3203V19H66.4688ZM64.6289 17.1602V15.3086H66.4688V17.1602H64.6289ZM62.7773 15.3086V13.4688H64.6289V15.3086H62.7773ZM60.9375 13.4688V9.77734H62.7773V13.4688H60.9375ZM66.4688 13.4688V9.77734H68.3203V13.4688H66.4688ZM62.7773 9.77734V4.23438H64.6289V7.92578H66.4688V9.77734H62.7773ZM64.6289 4.23438V2.39453H66.4688V4.23438H64.6289ZM66.4688 2.39453V0.542969H68.3203V2.39453H66.4688ZM78.4922 19V17.1602H80.332V19H78.4922ZM87.7148 19V17.1602H89.5664V19H87.7148ZM96.9492 19V17.1602H98.7891V19H96.9492ZM80.332 17.1602V15.3086H82.1836V17.1602H80.332ZM85.875 17.1602V15.3086H87.7148V17.1602H85.875ZM89.5664 17.1602V15.3086H91.4062V17.1602H89.5664ZM95.0977 17.1602V15.3086H96.9492V17.1602H95.0977ZM84.0234 15.3086V13.4688H85.875V15.3086H84.0234ZM91.4062 15.3086V13.4688H93.2578V15.3086H91.4062ZM82.1836 13.4688V11.6172H84.0234V13.4688H82.1836ZM93.2578 13.4688V11.6172H95.0977V13.4688H93.2578ZM80.332 11.6172V9.77734H82.1836V11.6172H80.332ZM95.0977 11.6172V9.77734H96.9492V11.6172H95.0977ZM78.4922 9.77734V6.08594H80.332V9.77734H78.4922ZM87.7148 9.77734V6.08594H89.5664V9.77734H87.7148ZM96.9492 9.77734V6.08594H98.7891V9.77734H96.9492ZM80.332 6.08594V4.23438H82.1836V6.08594H80.332ZM85.875 6.08594V4.23438H87.7148V6.08594H85.875ZM89.5664 6.08594V4.23438H91.4062V6.08594H89.5664ZM95.0977 6.08594V4.23438H96.9492V6.08594H95.0977ZM82.1836 4.23438V2.39453H85.875V4.23438H82.1836ZM91.4062 4.23438V2.39453H95.0977V4.23438H91.4062ZM108.023 19V17.1602H109.875V19H108.023ZM106.184 17.1602V15.3086H108.023V17.1602H106.184ZM109.875 17.1602V15.3086H111.715V17.1602H109.875ZM104.332 15.3086V13.4688H106.184V15.3086H104.332ZM111.715 15.3086V13.4688H113.566V15.3086H111.715ZM102.492 13.4688V9.77734H104.332V13.4688H102.492ZM108.023 13.4688V9.77734H109.875V13.4688H108.023ZM113.566 13.4688V9.77734H115.406V13.4688H113.566ZM104.332 9.77734V7.92578H108.023V9.77734H104.332ZM109.875 9.77734V7.92578H113.566V9.77734H109.875ZM120.949 24.5312V22.6914H124.641V24.5312H120.949ZM119.109 22.6914V19H120.949V22.6914H119.109ZM124.641 22.6914V17.1602H126.492V22.6914H124.641ZM122.801 17.1602V15.3086H124.641V17.1602H122.801ZM120.949 15.3086V13.4688H122.801V15.3086H120.949ZM119.109 13.4688V9.77734H120.949V13.4688H119.109ZM124.641 13.4688V9.77734H126.492V13.4688H124.641ZM120.949 9.77734V7.92578H124.641V9.77734H120.949ZM132.035 24.5312V22.6914H135.727V24.5312H132.035ZM130.195 22.6914V19H132.035V22.6914H130.195ZM135.727 22.6914V17.1602H137.578V22.6914H135.727ZM133.887 17.1602V15.3086H135.727V17.1602H133.887ZM132.035 15.3086V13.4688H133.887V15.3086H132.035ZM130.195 13.4688V9.77734H132.035V13.4688H130.195ZM135.727 13.4688V9.77734H137.578V13.4688H135.727ZM132.035 9.77734V7.92578H135.727V9.77734H132.035Z" fill="#D3FF00"/>
</svg>
