<svg width="293" height="48" viewBox="0 0 293 48" fill="none" xmlns="http://www.w3.org/2000/svg">
<path d="M25.2043 11.76C25.1616 10.5227 25.0336 9.52 24.8203 8.752C24.6069 7.94133 24.1589 7.216 23.4763 6.576C22.7509 5.97866 21.9616 5.616 21.1083 5.488C20.2549 5.31733 19.4229 5.232 18.6123 5.232C17.8443 5.232 17.3323 5.232 17.0763 5.232C16.0096 5.232 15.0496 5.14666 14.1963 4.976C13.2149 4.76266 12.3189 4.464 11.5083 4.08C10.7403 3.696 10.0149 3.29066 9.33225 2.864C8.64958 2.43733 8.18025 2.13867 7.92425 1.968C7.32692 1.712 6.98558 1.584 6.90025 1.584C6.68692 1.54133 6.38825 1.52 6.00425 1.52C4.93758 1.52 3.97758 1.904 3.12425 2.672C2.31358 3.39733 1.90825 4.25067 1.90825 5.232C1.90825 5.65866 1.92958 6 1.97225 6.256L2.16425 7.216C2.33492 7.89867 2.42025 8.47466 2.42025 8.944C2.42025 9.37067 2.35625 9.81867 2.22825 10.288C1.46025 12.8053 1.07625 14.9813 1.07625 16.816C1.07625 20.0587 2.31358 22.4693 4.78825 24.048C4.78825 24.048 5.00158 24.2613 5.42825 24.688L6.13225 25.456C6.72958 26.3093 7.02825 27.2053 7.02825 28.144C7.02825 28.528 6.94292 29.0613 6.77225 29.744C6.43092 30.8533 5.70558 32.304 4.59625 34.096C3.82825 35.376 3.25225 36.4427 2.86825 37.296C2.52692 38.1493 2.35625 39.1093 2.35625 40.176C2.35625 41.5413 2.78292 42.7787 3.63625 43.888C4.53225 44.9973 5.62025 45.552 6.90025 45.552C8.09492 45.552 9.05492 45.168 9.78025 44.4C10.5056 43.5893 10.8683 42.6507 10.8683 41.584C10.8683 40.9013 10.6123 40.0053 10.1003 38.896C9.63092 37.9573 9.39625 37.1467 9.39625 36.464C9.39625 35.7387 9.63092 34.9707 10.1003 34.16C10.6549 33.2213 10.9749 32.4533 11.0603 31.856L11.2523 31.152C11.2949 30.9387 11.3163 30.64 11.3163 30.256C11.3163 29.0613 10.7829 27.632 9.71625 25.968L9.20425 24.944C8.43625 23.5787 7.83892 22.3627 7.41225 21.296C7.02825 20.1867 6.83625 19.0773 6.83625 17.968C6.83625 17.3707 6.90025 16.752 7.02825 16.112L7.22025 15.024C7.43358 13.7013 7.83892 12.2293 8.43625 10.608C8.82025 9.66933 9.80158 8.90133 11.3803 8.304C11.7643 8.13333 12.1483 8.02666 12.5323 7.984C12.7456 7.94133 13.0869 7.92 13.5563 7.92C15.1776 7.92 16.7349 8.34666 18.2283 9.2C18.3136 9.24267 18.6123 9.41333 19.1243 9.712C20.2763 10.0533 21.2789 10.736 22.1323 11.76C22.9856 12.7413 23.4123 13.7867 23.4123 14.896C23.4123 15.1947 23.3909 15.4293 23.3483 15.6C23.1349 16.5387 22.6016 17.584 21.7483 18.736C20.8949 19.888 19.9989 20.464 19.0603 20.464C18.7189 20.464 18.4629 20.4213 18.2923 20.336C17.7803 20.1653 17.3963 19.9093 17.1403 19.568C16.8843 19.184 16.6496 18.7147 16.4363 18.16C16.2229 17.6053 16.0309 17.2213 15.8603 17.008C15.3056 16.24 14.6869 15.6427 14.0043 15.216C13.3643 14.7893 12.7029 14.576 12.0203 14.576C10.7829 14.576 9.80158 15.216 9.07625 16.496C8.90558 16.8373 8.82025 17.2427 8.82025 17.712C8.82025 18.096 8.90558 18.6293 9.07625 19.312C9.58825 20.7627 10.3136 21.872 11.2523 22.64C12.0203 23.28 13.1083 23.6 14.5163 23.6L16.3083 23.536C16.9056 23.536 17.3536 23.5573 17.6523 23.6C17.7376 23.6 17.9083 23.6213 18.1643 23.664C18.4203 23.7067 18.6336 23.792 18.8043 23.92C19.9989 24.6453 21.3003 25.008 22.7083 25.008C23.5616 25.008 24.3509 24.8373 25.0763 24.496C25.8443 24.1547 26.4629 23.6213 26.9323 22.896C27.4016 22.256 27.6363 21.5307 27.6363 20.72C27.6363 20.1653 27.5296 19.6107 27.3163 19.056C27.1029 18.4587 26.8469 17.8613 26.5483 17.264C26.2923 16.624 26.0789 16.1333 25.9083 15.792C25.6096 15.1093 25.4176 14.3627 25.3323 13.552L25.2043 11.76ZM1.14025 5.232C1.14025 4.03733 1.65225 2.992 2.67625 2.096C3.70025 1.15733 4.83092 0.688 6.06825 0.688C6.32425 0.688 6.66558 0.730666 7.09225 0.815998L8.30825 1.328C8.43625 1.41333 8.58558 1.52 8.75625 1.648C8.96958 1.73333 9.18292 1.86133 9.39625 2.032C10.5056 2.71467 11.3803 3.22667 12.0203 3.568C12.7029 3.86666 13.4709 4.08 14.3243 4.208C14.8789 4.336 15.7749 4.4 17.0123 4.4C18.8469 4.4 20.2549 4.48533 21.2363 4.656C22.2176 4.784 23.1349 5.232 23.9883 6C24.7989 6.72533 25.3109 7.536 25.5243 8.432C25.7803 9.28533 25.9296 10.3733 25.9723 11.696L26.1003 13.488C26.1856 14.256 26.3563 14.9173 26.6123 15.472C26.7403 15.7707 26.9749 16.2827 27.3163 17.008C27.6576 17.6907 27.9136 18.352 28.0843 18.992C28.2976 19.5893 28.4043 20.1653 28.4043 20.72C28.4043 21.616 28.1269 22.4907 27.5723 23.344C27.0603 24.1547 26.3563 24.7733 25.4603 25.2C24.6069 25.584 23.6896 25.776 22.7083 25.776C21.2149 25.776 19.7856 25.3707 18.4203 24.56C18.3349 24.5173 18.1856 24.4747 17.9722 24.432C17.7589 24.3893 17.6096 24.368 17.5243 24.368L16.4363 24.304L14.5163 24.368C12.9803 24.368 11.7216 23.984 10.7403 23.216C9.67358 22.32 8.88425 21.104 8.37225 19.568C8.15892 18.928 8.05225 18.3093 8.05225 17.712C8.05225 17.2 8.15892 16.688 8.37225 16.176C8.79892 15.408 9.31092 14.832 9.90825 14.448C10.5483 14.064 11.2523 13.872 12.0203 13.872C12.8309 13.872 13.6416 14.1067 14.4523 14.576C15.2629 15.0453 15.9456 15.7067 16.5003 16.56C16.7136 16.8587 16.9483 17.3067 17.2043 17.904C17.5456 18.8427 17.9936 19.4187 18.5483 19.632C19.1029 19.8453 19.6576 19.7173 20.2123 19.248C20.8096 18.7787 21.3216 18.1813 21.7483 17.456C22.1749 16.688 22.4523 16.0267 22.5803 15.472L22.6443 14.832C22.6443 13.8933 22.2603 13.0187 21.4923 12.208C20.7669 11.3547 19.8709 10.7573 18.8043 10.416C18.2923 10.1173 17.9936 9.94667 17.9083 9.904C16.5003 9.09333 15.0709 8.688 13.6203 8.688C13.1936 8.688 12.8736 8.70933 12.6603 8.752C12.2336 8.83733 11.8923 8.92266 11.6363 9.008C10.2709 9.56267 9.43892 10.1813 9.14025 10.864C8.62825 12.272 8.24425 13.7013 7.98825 15.152L7.79625 16.24C7.66825 16.7947 7.60425 17.3707 7.60425 17.968C7.60425 18.992 7.79625 19.9947 8.18025 20.976C8.56425 21.9573 9.11892 23.152 9.84425 24.56C10.1856 25.1147 10.3776 25.456 10.4203 25.584C11.5296 27.3333 12.0843 28.8907 12.0843 30.256C12.0843 30.7253 12.0629 31.0667 12.0203 31.28L11.8283 32.048C11.6576 32.816 11.2949 33.648 10.7403 34.544C10.3989 35.184 10.2283 35.7813 10.2283 36.336C10.2283 36.8053 10.4203 37.4667 10.8043 38.32C11.0603 38.9173 11.2523 39.4507 11.3803 39.92C11.5509 40.3467 11.6363 40.88 11.6363 41.52C11.6363 42.7573 11.1883 43.8667 10.2923 44.848C9.43892 45.8293 8.30825 46.32 6.90025 46.32C5.40692 46.32 4.14825 45.68 3.12425 44.4C2.10025 43.0773 1.58825 41.6693 1.58825 40.176C1.58825 39.024 1.78025 37.9787 2.16425 37.04C2.59092 36.1013 3.20958 34.928 4.02025 33.52C5.04425 31.9413 5.72692 30.6187 6.06825 29.552C6.19625 29.0827 6.26025 28.6347 6.26025 28.208C6.26025 27.3547 6.00425 26.5867 5.49225 25.904L4.91625 25.2L4.34025 24.688C1.65225 22.9813 0.30825 20.3573 0.30825 16.816C0.30825 14.9813 0.713583 12.72 1.52425 10.032C1.60958 9.60533 1.65225 9.264 1.65225 9.008C1.65225 8.624 1.56692 8.09067 1.39625 7.408L1.20425 6.384C1.16158 6.128 1.14025 5.744 1.14025 5.232ZM32.8088 44.72C33.5341 45.2747 34.3021 45.552 35.1128 45.552C36.3074 45.552 37.3314 45.0827 38.1848 44.144C39.0808 43.2053 39.4648 42.1173 39.3368 40.88C39.2941 40.368 39.1448 39.9413 38.8888 39.6C38.6328 39.216 38.1848 38.6827 37.5448 38C36.9048 37.4027 36.4141 36.8693 36.0728 36.4C35.7314 35.888 35.5608 35.312 35.5608 34.672C35.5608 33.9893 35.8168 33.3707 36.3288 32.816C36.8834 32.2187 37.7154 31.4507 38.8248 30.512C40.0621 29.5307 40.8088 28.8267 41.0648 28.4C41.7048 27.4187 42.0248 26.4587 42.0248 25.52C42.0248 24.752 41.8328 24.1333 41.4488 23.664C41.0648 23.1947 40.4674 22.704 39.6568 22.192C38.8034 21.5947 38.3341 21.2533 38.2488 21.168C37.5661 20.6133 37.2248 20.016 37.2248 19.376C37.2248 18.8213 37.4168 18.3307 37.8008 17.904C38.1848 17.4347 38.7394 16.88 39.4648 16.24L40.4888 15.344C41.2568 14.4907 41.6408 13.5733 41.6408 12.592C41.6408 11.952 41.4701 11.376 41.1288 10.864C40.7874 10.3093 40.2754 9.88266 39.5928 9.584C39.0381 9.328 38.5048 9.2 37.9928 9.2C36.8834 9.2 35.8808 9.648 34.9848 10.544C34.1314 11.44 33.5981 12.464 33.3848 13.616C33.2994 14.2987 33.2568 14.768 33.2568 15.024C33.2568 16.3467 33.5554 17.648 34.1528 18.928C34.2808 19.312 34.4941 19.6747 34.7928 20.016C35.1341 20.3573 35.3474 20.5707 35.4328 20.656C35.9874 21.2533 36.3928 21.7867 36.6488 22.256C36.9474 22.7253 37.0968 23.2373 37.0968 23.792C37.0968 24.4747 36.9048 25.1573 36.5208 25.84C36.1368 26.5227 35.6034 27.3547 34.9208 28.336L33.9608 29.744C31.7421 33.8827 30.6328 37.2107 30.6328 39.728C30.6328 41.904 31.3581 43.568 32.8088 44.72ZM31.9128 5.04C31.9128 3.93067 32.3181 2.94933 33.1288 2.096C33.9821 1.2 35.0061 0.751999 36.2008 0.751999C37.8648 0.751999 39.4648 1.52 41.0008 3.056C41.2568 3.35467 41.4701 3.76 41.6408 4.272C41.8114 4.784 41.8968 5.27466 41.8968 5.744C41.8968 6.896 41.3848 7.6 40.3608 7.856C39.9341 7.984 39.5074 8.09066 39.0808 8.176C38.6541 8.26133 38.2061 8.368 37.7368 8.496C38.4621 8.41067 39.1874 8.53867 39.9128 8.88C40.7234 9.264 41.3208 9.79733 41.7048 10.48C42.1314 11.12 42.3448 11.824 42.3448 12.592C42.3448 13.7867 41.9181 14.8747 41.0648 15.856C40.8514 16.0693 40.6381 16.2613 40.4248 16.432C40.2541 16.6027 40.0834 16.7733 39.9128 16.944C38.6754 17.9253 38.0568 18.736 38.0568 19.376C38.0568 19.76 38.2914 20.1653 38.7608 20.592C39.1874 20.9333 39.6141 21.232 40.0408 21.488C40.9368 22.0427 41.6194 22.6187 42.0888 23.216C42.5581 23.7707 42.7928 24.5173 42.7928 25.456C42.7928 26.608 42.4301 27.7387 41.7048 28.848C41.3634 29.36 40.5528 30.128 39.2728 31.152C38.3341 31.8773 37.6088 32.5173 37.0968 33.072C36.5848 33.6267 36.3288 34.16 36.3288 34.672C36.3288 35.0987 36.4568 35.504 36.7128 35.888C36.9688 36.2293 37.3741 36.6987 37.9288 37.296C38.6541 37.9787 39.2088 38.6187 39.5928 39.216C39.9768 39.7707 40.1688 40.432 40.1688 41.2C40.1688 42.5653 39.6354 43.76 38.5688 44.784C37.5448 45.808 36.3928 46.32 35.1128 46.32C34.1314 46.32 33.2141 45.9787 32.3608 45.296C30.6968 43.9733 29.8648 42.1387 29.8648 39.792C29.8648 36.9333 31.0168 33.456 33.3208 29.36L34.4088 27.76C35.0488 26.864 35.5181 26.1173 35.8168 25.52C36.1581 24.9227 36.3288 24.3253 36.3288 23.728C36.3288 23.344 36.2221 23.0027 36.0088 22.704C35.8381 22.3627 35.6248 22.064 35.3688 21.808C35.1554 21.5093 35.0061 21.3173 34.9208 21.232C34.2808 20.592 33.7901 19.9307 33.4488 19.248C32.8088 17.84 32.4888 16.432 32.4888 15.024C32.4888 14.6827 32.5314 14.1707 32.6168 13.488C32.7874 12.5067 33.1928 11.6107 33.8328 10.8C34.4728 9.94666 35.2408 9.30666 36.1368 8.88C35.0274 8.96533 34.0461 8.66667 33.1927 7.984C32.3394 7.30133 31.9128 6.32 31.9128 5.04ZM32.9368 6.256C33.4488 7.536 34.3661 8.176 35.6888 8.176C36.2008 8.176 36.6274 8.09067 36.9688 7.92C37.5234 7.74933 38.5901 7.472 40.1688 7.088C40.8088 6.96 41.1288 6.55467 41.1288 5.872C41.1288 4.89066 40.8941 4.12266 40.4248 3.568C39.8274 2.97066 39.1661 2.48 38.4408 2.096C37.7154 1.712 36.9688 1.52 36.2008 1.52C35.1768 1.52 34.3234 1.88266 33.6408 2.608C33.0008 3.29066 32.6808 4.10133 32.6808 5.04C32.6808 5.50933 32.7661 5.91467 32.9368 6.256ZM75.2708 42.928C75.6121 41.9893 75.7828 41.072 75.7828 40.176C75.7828 39.1947 75.6121 38.0853 75.2708 36.848C74.9721 35.6107 74.7801 34.7787 74.6948 34.352C74.4814 33.4987 74.2254 32.8587 73.9268 32.432C73.6708 31.9627 73.2228 31.728 72.5828 31.728C70.3641 31.728 68.4441 31.216 66.8228 30.192C63.7081 28.4 62.1508 26.8 62.1508 25.392C62.1508 25.136 62.2148 24.8587 62.3428 24.56C62.8974 23.664 63.1748 22.8747 63.1748 22.192C63.1748 21.8933 63.1321 21.552 63.0468 21.168C62.9614 20.7413 62.9188 20.4 62.9188 20.144C62.9188 19.4613 63.3028 18.9067 64.0708 18.48C64.5401 18.2667 65.2868 18.032 66.3108 17.776C67.2068 17.6053 67.9321 17.392 68.4868 17.136C69.0414 16.8373 69.3828 16.4747 69.5108 16.048C69.5961 15.792 69.6388 15.6 69.6388 15.472C69.6388 15.088 69.5108 14.6827 69.2548 14.256C69.0414 13.8293 68.7854 13.424 68.4868 13.04C67.9321 12.1867 67.5694 11.5467 67.3988 11.12C67.1854 10.5227 67.3134 10.096 67.7828 9.84C68.2521 9.584 68.7428 9.41333 69.2548 9.328C69.7668 9.24266 70.0868 9.17866 70.2148 9.136C73.2868 8.15466 74.8228 6.66133 74.8228 4.656C74.8228 3.76 74.5454 3.03466 73.9908 2.48C73.4361 1.88267 72.7748 1.584 72.0068 1.584C71.4521 1.584 70.9614 1.712 70.5348 1.968C70.1508 2.224 69.6601 2.62933 69.0628 3.184L67.7828 4.208C67.6121 4.37866 67.3561 4.528 67.0148 4.656C66.7161 4.784 66.5028 4.89067 66.3748 4.976C65.6068 5.36 65.0094 5.744 64.5828 6.128C64.1988 6.46933 64.0068 6.96 64.0068 7.6C64.0068 8.02666 64.0921 8.53866 64.2628 9.136C64.4334 9.73333 64.6041 10.288 64.7748 10.8C65.0308 11.568 65.1588 12.2933 65.1588 12.976C65.1588 14.64 64.4548 16.176 63.0468 17.584C62.5774 18.0107 61.9374 18.3947 61.1268 18.736C60.3588 19.0773 59.6974 19.2267 59.1428 19.184C58.2041 19.1413 57.7348 18.7573 57.7348 18.032C57.7348 17.8187 57.7774 17.52 57.8628 17.136C57.9908 16.7093 58.0548 16.432 58.0548 16.304C58.0548 15.8347 57.9268 15.5147 57.6708 15.344C57.4574 15.1307 57.1161 14.9813 56.6468 14.896C56.3908 14.8533 56.0281 14.832 55.5588 14.832C55.3881 14.7893 55.1321 14.8107 54.7908 14.896C54.4921 14.9387 54.1934 14.96 53.8948 14.96C53.4254 14.96 53.0414 14.7893 52.7428 14.448C52.4014 13.8933 52.2308 13.3813 52.2308 12.912C52.2308 12.272 52.4014 11.6747 52.7428 11.12C53.1268 10.5653 53.5534 10.032 54.0228 9.52C54.4921 9.008 54.8334 8.624 55.0468 8.368C55.6014 7.68533 55.8788 6.896 55.8788 6C55.8788 5.232 55.6654 4.54933 55.2388 3.952C54.8548 3.312 54.3001 2.84266 53.5748 2.544C53.1054 2.37333 52.6361 2.288 52.1667 2.288C51.2281 2.288 50.3534 2.65067 49.5428 3.376C48.7321 4.05866 48.0921 4.93333 47.6228 6C46.8548 7.664 46.4708 9.54133 46.4708 11.632C46.4708 13.5947 46.8761 15.3227 47.6868 16.816C48.5401 18.3093 49.7988 19.2693 51.4628 19.696C51.7614 19.7813 52.1454 19.8027 52.6148 19.76C53.0841 19.6747 53.4681 19.632 53.7668 19.632C54.3214 19.632 54.7908 19.7387 55.1748 19.952L56.0068 20.464C56.5614 20.848 57.0308 21.296 57.4148 21.808C57.7988 22.32 57.9908 22.8533 57.9908 23.408C57.9908 23.6213 57.9694 23.792 57.9268 23.92C57.8414 24.2187 57.6068 24.56 57.2228 24.944C56.8388 25.328 56.2414 25.776 55.4308 26.288C54.3641 27.0133 53.5534 27.6747 52.9988 28.272C52.4868 28.8267 52.3374 29.4667 52.5508 30.192C52.6361 30.448 52.7641 30.6613 52.9348 30.832L53.7028 31.664C54.3428 32.304 54.6628 32.7733 54.6628 33.072C54.6628 33.2853 54.5348 33.4347 54.2788 33.52L53.0628 34.032C51.2281 34.8427 49.7988 35.6107 48.7748 36.336C47.7508 37.0187 47.0041 38.0213 46.5348 39.344C46.4068 39.856 46.3428 40.3893 46.3428 40.944C46.3428 42.608 46.9614 43.888 48.1988 44.784C48.8388 45.296 49.5854 45.552 50.4388 45.552C51.2068 45.552 51.9534 45.36 52.6788 44.976C53.4468 44.5493 54.1294 43.9947 54.7268 43.312C55.5801 42.288 56.1348 41.1573 56.3908 39.92C56.4761 39.5787 56.5614 39.0667 56.6468 38.384C56.7748 37.7013 56.9241 37.104 57.0948 36.592C57.2654 36.08 57.5214 35.6747 57.8628 35.376C58.0334 35.2053 58.2468 35.056 58.5028 34.928C58.7161 34.8 59.0574 34.6293 59.5268 34.416C60.0388 34.16 60.3801 33.9253 60.5508 33.712C60.7214 33.4987 60.6788 33.264 60.4228 33.008C60.2948 32.7947 60.1241 32.624 59.9108 32.496C59.3134 31.984 58.8441 31.536 58.5028 31.152C58.2041 30.768 58.0548 30.2987 58.0548 29.744C58.0548 28.9333 58.5454 28.528 59.5268 28.528C59.9961 28.528 60.4868 28.6133 60.9988 28.784C61.5108 28.9547 61.9161 29.1467 62.2148 29.36C62.8121 29.9147 63.3028 30.5973 63.6868 31.408C63.7294 31.4933 63.8788 31.7707 64.1348 32.24C64.4334 32.6667 64.8388 33.0293 65.3508 33.328C65.5214 33.456 65.7561 33.584 66.0548 33.712C66.3961 33.7973 66.6308 33.8613 66.7588 33.904C67.9961 34.3307 68.8708 34.8427 69.3828 35.44C69.6388 35.696 69.7668 36.0373 69.7668 36.464C69.7668 36.8907 69.6388 37.36 69.3828 37.872C69.1268 38.384 68.8708 38.8747 68.6148 39.344C68.1881 40.112 67.9534 40.6027 67.9108 40.816C67.8254 41.072 67.7828 41.4347 67.7828 41.904C67.7828 42.9707 68.1668 43.8453 68.9348 44.528C69.7028 45.168 70.5988 45.488 71.6228 45.488C73.0308 45.488 74.0974 44.912 74.8228 43.76C74.9081 43.6747 75.0574 43.3973 75.2708 42.928ZM45.8307 39.088C46.3001 37.5947 47.0894 36.464 48.1988 35.696C49.3508 34.8853 50.8441 34.1173 52.6788 33.392L53.9588 32.816C53.8734 32.8587 53.6174 32.6667 53.1908 32.24L52.3588 31.344C52.1454 31.1307 51.9534 30.8107 51.7828 30.384C51.6974 30.0427 51.6548 29.808 51.6548 29.68C51.6548 28.8693 51.9534 28.1653 52.5508 27.568C53.1908 26.9707 54.0441 26.3093 55.1108 25.584C56.0068 24.944 56.5401 24.56 56.7108 24.432C56.9668 24.0907 57.1161 23.856 57.1588 23.728C57.3294 23.3013 57.2441 22.8533 56.9028 22.384C56.6041 21.9147 56.1561 21.488 55.5588 21.104L54.7908 20.592C54.4921 20.464 54.1934 20.4 53.8948 20.4C53.6388 20.4 53.3614 20.4213 53.0628 20.464C52.7641 20.5067 52.4228 20.528 52.0388 20.528C51.7401 20.528 51.4841 20.5067 51.2708 20.464C49.3934 19.9947 47.9854 18.9493 47.0468 17.328C46.1508 15.664 45.7028 13.744 45.7028 11.568C45.7028 9.47733 46.1081 7.51466 46.9188 5.68C47.4308 4.48533 48.1561 3.504 49.0948 2.736C50.0761 1.92533 51.1214 1.52 52.2308 1.52C52.7001 1.52 53.2548 1.62666 53.8948 1.84C54.7481 2.224 55.4094 2.8 55.8788 3.568C56.3481 4.336 56.5828 5.168 56.5828 6.064C56.5828 7.13066 56.2841 8.048 55.6868 8.816C55.0894 9.54133 54.8121 9.88267 54.8548 9.84C54.3001 10.4373 53.8521 10.992 53.5108 11.504C53.2121 11.9733 53.0628 12.4427 53.0628 12.912C53.0628 13.296 53.1694 13.6587 53.3828 14C53.4681 14.0853 53.6174 14.128 53.8308 14.128C54.0014 14.128 54.2574 14.1067 54.5988 14.064C54.9828 14.0213 55.3241 14.0213 55.6228 14.064H55.9428C57.8628 14.064 58.8228 14.8107 58.8228 16.304C58.8228 16.6027 58.7801 16.9227 58.6948 17.264C58.6094 17.5627 58.5668 17.7973 58.5668 17.968C58.5668 18.2667 58.8654 18.416 59.4628 18.416C59.9321 18.416 60.4654 18.2667 61.0628 17.968C61.6601 17.6693 62.1508 17.3493 62.5347 17.008C63.7721 15.7707 64.3908 14.4267 64.3908 12.976C64.3908 12.208 64.2841 11.568 64.0708 11.056C64.0281 10.8853 63.8788 10.4587 63.6228 9.776C63.3668 9.05067 63.2388 8.34667 63.2388 7.664C63.2388 6.72533 63.4734 6.02133 63.9428 5.552C64.4548 5.08267 65.1801 4.63467 66.1188 4.208C66.7161 3.952 67.1214 3.73866 67.3348 3.568C67.3774 3.52533 67.7401 3.22666 68.4228 2.672C69.0628 2.07466 69.6388 1.62666 70.1508 1.328C70.6628 0.986665 71.2601 0.815998 71.9428 0.815998C72.9241 0.815998 73.7774 1.2 74.5028 1.968C75.2281 2.69333 75.5908 3.61067 75.5908 4.72C75.5908 7.06666 73.8628 8.79467 70.4068 9.904C70.1934 9.94667 69.8521 10.0107 69.3828 10.096C68.9561 10.1387 68.6148 10.224 68.3588 10.352C68.1028 10.48 68.0174 10.6507 68.1028 10.864C68.1881 11.0347 68.4868 11.5467 68.9988 12.4C69.4254 13.04 69.7454 13.5733 69.9588 14C70.2148 14.4267 70.3428 14.896 70.3428 15.408C70.3428 15.792 70.3001 16.0907 70.2148 16.304C70.0441 16.944 69.5748 17.456 68.8068 17.84C68.2521 18.1387 67.4841 18.3733 66.5028 18.544C65.4361 18.8 64.7534 19.0133 64.4548 19.184C63.9428 19.4827 63.6868 19.824 63.6868 20.208C63.6868 20.464 63.7508 20.848 63.8788 21.36L63.9428 22.128C63.9428 22.9387 63.6441 23.8773 63.0468 24.944L62.9188 25.456C62.9188 26.5227 64.3481 27.888 67.2068 29.552C68.7428 30.4907 70.5348 30.96 72.5828 30.96C73.9908 30.96 74.9508 32.0267 75.4628 34.16C75.5481 34.4587 75.7401 35.248 76.0387 36.528C76.3801 37.808 76.5508 39.024 76.5508 40.176C76.5508 41.2427 76.3588 42.2667 75.9748 43.248L75.4628 44.208C75.0361 44.848 74.4814 45.36 73.7988 45.744C73.1161 46.0853 72.4121 46.256 71.6868 46.256C70.4494 46.256 69.3401 45.8507 68.3588 45.04C67.4201 44.1867 66.9508 43.12 66.9508 41.84C66.9508 41.4133 67.0148 41.008 67.1428 40.624C67.2281 40.368 67.5268 39.7493 68.0388 38.768C68.7214 37.744 69.0628 36.9973 69.0628 36.528C69.0628 36.272 68.9774 36.08 68.8068 35.952C68.4654 35.5253 67.7401 35.0987 66.6308 34.672C65.8628 34.416 65.3081 34.1813 64.9668 33.968C64.4974 33.712 64.1134 33.4133 63.8148 33.072C63.5588 32.688 63.2814 32.2187 62.9828 31.664C62.4708 30.8107 62.0441 30.2347 61.7028 29.936C61.4468 29.7653 61.1268 29.616 60.7428 29.488C60.3588 29.3173 59.9961 29.232 59.6548 29.232C59.1428 29.232 58.8868 29.4453 58.8868 29.872C58.8868 30.4693 59.3774 31.1307 60.3588 31.856C60.6574 32.0693 60.8708 32.2827 60.9988 32.496C61.2974 32.7947 61.4468 33.1147 61.4468 33.456C61.4468 33.84 61.2334 34.2027 60.8068 34.544C60.3801 34.8427 59.9534 35.0987 59.5268 35.312C59.1428 35.4827 58.9081 35.5893 58.8228 35.632L58.3748 35.952C58.0761 36.208 57.8628 36.5707 57.7348 37.04C57.6068 37.4667 57.5001 38 57.4148 38.64C57.3294 39.2373 57.2441 39.728 57.1588 40.112C56.8174 41.5627 56.1988 42.8 55.3028 43.824C54.6201 44.592 53.8521 45.2107 52.9988 45.68C52.1454 46.1067 51.2708 46.32 50.3748 46.32C49.3934 46.32 48.5188 46.0213 47.7508 45.424C47.0681 44.912 46.5348 44.272 46.1508 43.504C45.7668 42.6933 45.5748 41.84 45.5748 40.944C45.5748 40.2613 45.6601 39.6427 45.8307 39.088ZM106.586 36.848C106.586 35.7813 106.16 34.8853 105.306 34.16C104.496 33.392 103.429 33.008 102.106 33.008C101.338 33.008 100.698 33.1787 100.186 33.52C99.8449 33.776 99.5463 34.16 99.2903 34.672C99.0769 35.184 98.8209 35.8667 98.5223 36.72C98.0529 38.2133 97.5623 39.344 97.0503 40.112C96.5383 40.88 95.7489 41.264 94.6823 41.264C93.4023 41.264 92.1649 40.752 90.9703 39.728C89.7756 38.6613 88.7943 37.4027 88.0263 35.952C87.2583 34.4587 86.8743 33.136 86.8743 31.984C86.8743 31.3013 87.0023 30.7893 87.2583 30.448C87.5569 30.1067 88.0049 29.744 88.6023 29.36L89.6263 28.592C89.8396 28.4213 90.2023 27.9733 90.7143 27.248C91.3116 26.5227 91.7809 25.9893 92.1223 25.648C92.4636 25.3067 92.9329 25.0507 93.5303 24.88C94.0849 24.7093 94.7249 24.624 95.4503 24.624H96.6663C97.4769 24.624 98.0956 24.56 98.5223 24.432C99.8876 23.92 100.805 23.152 101.274 22.128C101.488 21.616 101.594 21.168 101.594 20.784C101.594 19.9307 101.296 19.1627 100.698 18.48C100.101 17.7547 99.3543 17.392 98.4583 17.392C97.8609 17.392 97.2636 17.5413 96.6663 17.84C96.1116 18.096 95.4076 18.5227 94.5543 19.12C94.2556 19.3333 93.7436 19.7387 93.0183 20.336C92.2929 20.8907 91.5889 21.36 90.9062 21.744C90.2236 22.0853 89.5836 22.256 88.9863 22.256C87.9623 22.256 87.1516 21.5947 86.5543 20.272C86.3409 19.5467 86.2343 18.9707 86.2343 18.544C86.2343 17.904 86.3409 17.2213 86.5543 16.496C86.7676 15.7707 86.9169 15.28 87.0023 15.024C87.0449 14.896 87.0663 14.6827 87.0663 14.384C87.0663 14.0427 86.9809 13.7867 86.8103 13.616C86.5969 13.36 86.2769 13.2107 85.8503 13.168C85.4663 13.1253 85.2103 13.0827 85.0823 13.04C83.7169 12.784 83.0343 12.1867 83.0343 11.248C83.0343 10.3093 83.6103 9.30667 84.7623 8.24C84.8049 8.19733 85.0823 7.984 85.5943 7.6C86.1063 7.38667 86.6396 7.28 87.1943 7.28C88.4743 7.28 89.3489 7.74933 89.8183 8.688C90.1169 9.24266 90.2663 9.94666 90.2663 10.8C90.2663 11.056 90.2449 11.4187 90.2023 11.888C90.2023 12.3573 90.2449 12.784 90.3303 13.168C90.4156 13.5093 90.5649 13.8293 90.7783 14.128C91.6743 15.4507 92.9543 16.112 94.6183 16.112C95.3009 16.112 96.0903 15.9627 96.9863 15.664C98.8209 15.0667 100.229 14.1493 101.21 12.912C101.722 12.3573 101.978 11.632 101.978 10.736C101.978 10.096 101.829 9.37066 101.53 8.56C101.104 7.32266 100.442 6.704 99.5463 6.704C99.0769 6.704 98.5863 6.832 98.0743 7.088C97.5623 7.30133 97.0289 7.57866 96.4743 7.92C95.9196 8.26133 95.4929 8.51733 95.1943 8.688C94.4263 9.072 93.8503 9.264 93.4663 9.264C92.8689 9.264 92.5703 8.88 92.5703 8.112C92.5703 7.51467 92.6769 6.896 92.8903 6.256C93.0183 5.65866 93.0823 5.14666 93.0823 4.72C93.0823 4.08 92.9116 3.52533 92.5703 3.056C91.8449 1.98933 90.7569 1.456 89.3063 1.456C87.6849 1.456 85.8503 2.11733 83.8023 3.44C81.7969 4.72 80.0903 6.32 78.6823 8.24C77.2743 10.1173 76.5703 11.8453 76.5703 13.424C76.5703 14.2347 76.7836 14.9387 77.2103 15.536C77.5089 15.9627 77.8929 16.2827 78.3623 16.496C78.8743 16.6667 79.5569 16.8373 80.4103 17.008C81.5623 17.2213 82.4156 17.4987 82.9703 17.84C83.5249 18.1387 83.8023 18.736 83.8023 19.632C83.8023 20.1867 83.7169 20.7413 83.5463 21.296C83.4183 21.68 83.3542 22.1067 83.3542 22.576C83.3542 23.3867 83.5676 24.0693 83.9943 24.624C84.0796 24.752 84.3783 24.9653 84.8903 25.264C85.4023 25.5627 85.7863 25.84 86.0423 26.096C86.3409 26.352 86.4903 26.6933 86.4903 27.12C86.4903 27.76 86.2129 28.2507 85.6583 28.592C85.1463 28.8907 84.6343 29.1253 84.1223 29.296C83.6103 29.424 83.2903 29.5093 83.1623 29.552C82.1809 29.8933 81.4556 30.32 80.9863 30.832C80.5169 31.344 80.2823 32.0907 80.2823 33.072C80.2823 34.224 80.7729 35.2907 81.7543 36.272C82.7356 37.2107 83.9089 37.9787 85.2743 38.576C86.0849 38.96 86.5969 39.3867 86.8103 39.856C87.0236 40.2827 87.1729 40.88 87.2583 41.648C87.3436 42.4587 87.5143 43.0773 87.7703 43.504C88.1116 44.1013 88.5809 44.592 89.1783 44.976C89.8183 45.3173 90.5223 45.488 91.2903 45.488C92.0583 45.488 92.8049 45.3173 93.5303 44.976C94.2556 44.6347 95.1943 44.1227 96.3463 43.44C96.9009 43.184 97.4983 42.9707 98.1383 42.8C98.8209 42.6293 99.2689 42.5227 99.4823 42.48C100.336 42.3093 100.954 42.16 101.338 42.032C103.216 41.3493 104.624 40.4533 105.562 39.344C106.245 38.5333 106.586 37.7013 106.586 36.848ZM76.5703 15.984C76.0583 15.2587 75.8023 14.4267 75.8023 13.488C75.8023 11.7387 76.5489 9.86133 78.0423 7.856C79.5356 5.85067 81.3489 4.16533 83.4823 2.8C85.6583 1.392 87.6423 0.688 89.4343 0.688C91.0983 0.688 92.3569 1.328 93.2103 2.608C93.6369 3.29066 93.8503 4.016 93.8503 4.784C93.8503 5.168 93.8289 5.488 93.7863 5.744C93.7436 6 93.7009 6.23466 93.6583 6.448C93.4449 7.216 93.3383 7.74933 93.3383 8.048C93.3383 8.304 93.4449 8.432 93.6583 8.432C93.8716 8.432 94.2556 8.28267 94.8103 7.984C95.0663 7.81333 95.5143 7.55733 96.1543 7.216C96.8369 6.832 97.4556 6.53333 98.0103 6.32C98.6076 6.064 99.1409 5.936 99.6103 5.936C100.805 5.936 101.68 6.72533 102.234 8.304C102.576 9.072 102.746 9.88266 102.746 10.736C102.746 11.8453 102.426 12.7413 101.786 13.424C101.274 14.064 100.592 14.6613 99.7383 15.216C98.9276 15.728 98.0956 16.112 97.2423 16.368C96.4743 16.6667 95.6209 16.816 94.6823 16.816C92.7196 16.816 91.2049 16.0693 90.1383 14.576C89.6689 13.9787 89.4343 13.104 89.4343 11.952V10.736C89.4343 10.0107 89.3276 9.43467 89.1143 9.008C88.8156 8.368 88.1969 8.048 87.2583 8.048C86.7463 8.048 86.3196 8.13333 85.9783 8.304C85.7223 8.432 85.4876 8.60266 85.2743 8.816C84.2929 9.712 83.8023 10.48 83.8023 11.12C83.8023 11.7173 84.2716 12.1013 85.2103 12.272C85.3383 12.3147 85.6583 12.3787 86.1703 12.464C86.6823 12.5067 87.0876 12.72 87.3863 13.104C87.6849 13.4453 87.8343 13.8933 87.8343 14.448C87.8343 14.7893 87.8129 15.0453 87.7703 15.216C87.6849 15.5573 87.5356 16.0693 87.3223 16.752C87.1089 17.4347 87.0023 18.032 87.0023 18.544C87.0023 19.0133 87.0876 19.4827 87.2583 19.952C87.6423 20.9333 88.2396 21.424 89.0503 21.424C89.6049 21.424 90.2023 21.232 90.8423 20.848C91.4823 20.464 92.1009 20.0373 92.6983 19.568C93.3383 19.056 93.8076 18.6933 94.1063 18.48C95.0023 17.8827 95.7703 17.4347 96.4103 17.136C97.0503 16.7947 97.7329 16.624 98.4583 16.624C99.5676 16.624 100.485 17.0507 101.21 17.904C101.978 18.7573 102.362 19.7387 102.362 20.848C102.362 21.4027 102.234 21.936 101.978 22.448C101.68 23.0453 101.232 23.6 100.634 24.112C100.08 24.5813 99.4609 24.9227 98.7783 25.136C98.0529 25.3493 97.0289 25.456 95.7063 25.456C94.8103 25.456 94.1489 25.52 93.7222 25.648C93.2529 25.776 92.8476 26.0107 92.5063 26.352C92.1649 26.6507 91.8023 27.0773 91.4183 27.632C90.9063 28.3147 90.4796 28.8267 90.1383 29.168C89.8396 29.4667 89.4343 29.7867 88.9223 30.128C88.4956 30.384 88.1756 30.64 87.9623 30.896C87.7489 31.152 87.6423 31.5147 87.6423 31.984C87.6423 33.0507 87.9836 34.2667 88.6663 35.632C89.3916 36.9547 90.2876 38.1067 91.3542 39.088C92.4636 40.0267 93.5729 40.496 94.6823 40.496C95.4929 40.496 96.0689 40.1973 96.4103 39.6C96.7943 39.0027 97.2423 38.0213 97.7543 36.656C98.0529 35.7173 98.3303 34.9493 98.5863 34.352C98.8849 33.712 99.2689 33.2213 99.7383 32.88C100.421 32.4533 101.232 32.24 102.17 32.24C103.621 32.24 104.837 32.688 105.818 33.584C106.842 34.48 107.354 35.5467 107.354 36.784C107.354 37.8507 106.949 38.8747 106.138 39.856C105.072 41.0933 103.557 42.0533 101.594 42.736C101.082 42.9067 100.4 43.0773 99.5463 43.248C99.3756 43.2907 98.9703 43.3973 98.3303 43.568C97.7329 43.696 97.1996 43.888 96.7303 44.144C96.5169 44.272 96.0476 44.5493 95.3223 44.976C94.5969 45.4027 93.8716 45.744 93.1463 46C92.4636 46.2133 91.8023 46.32 91.1623 46.32C90.3516 46.32 89.5623 46.1067 88.7943 45.68C88.0689 45.2107 87.5143 44.6133 87.1303 43.888C86.7889 43.3333 86.5756 42.8213 86.4903 42.352C86.4049 41.8827 86.3623 41.6053 86.3623 41.52C86.2769 40.9227 86.1489 40.4747 85.9783 40.176C85.8503 39.8347 85.5089 39.536 84.9543 39.28C83.5036 38.64 82.2236 37.7867 81.1143 36.72C80.0476 35.6107 79.5143 34.3947 79.5143 33.072C79.5143 31.8773 79.8129 30.9813 80.4103 30.384C81.0076 29.744 81.8396 29.232 82.9062 28.848C83.1196 28.7627 83.4823 28.6347 83.9943 28.464C84.5063 28.2933 84.9116 28.1013 85.2103 27.888C85.5516 27.6747 85.7223 27.4187 85.7223 27.12C85.7223 26.9493 85.6369 26.8 85.4663 26.672C85.2956 26.5013 85.1249 26.3733 84.9543 26.288C84.8263 26.16 84.7196 26.0747 84.6343 26.032C83.9516 25.6907 83.5249 25.3707 83.3542 25.072C82.8423 24.3467 82.5863 23.4933 82.5863 22.512C82.5863 22 82.6503 21.5307 82.7783 21.104C82.9063 20.592 82.9703 20.1653 82.9703 19.824C82.9703 19.184 82.7783 18.7573 82.3943 18.544C82.0103 18.3307 81.3703 18.1387 80.4743 17.968C79.5783 17.84 78.8103 17.648 78.1703 17.392C77.5303 17.0933 76.9969 16.624 76.5703 15.984ZM137.337 36.144C136.953 33.7973 136.292 31.8133 135.353 30.192C134.969 29.5093 134.393 28.9333 133.625 28.464C132.9 27.9947 132.175 27.76 131.449 27.76C130.681 27.76 129.956 28.0373 129.273 28.592C128.505 29.232 127.844 30.064 127.289 31.088C126.777 32.0693 126.521 33.008 126.521 33.904C126.521 35.5253 127.311 36.656 128.889 37.296C129.316 37.4667 129.956 37.6373 130.809 37.808C131.833 38.064 132.601 38.2987 133.113 38.512C133.54 38.7253 133.988 39.088 134.457 39.6C134.927 40.0693 135.161 40.5173 135.161 40.944C135.161 41.3707 134.884 41.7333 134.329 42.032C134.073 42.16 133.753 42.224 133.369 42.224C133.113 42.224 132.772 42.1813 132.345 42.096L130.233 41.456C128.143 40.7307 126.436 40.368 125.113 40.368C124.644 40.368 124.281 40.3893 124.025 40.432C123.684 40.4747 123.193 40.5813 122.553 40.752C121.956 40.88 121.444 40.944 121.017 40.944C120.036 40.944 119.332 40.624 118.905 39.984C118.735 39.7707 118.649 39.4933 118.649 39.152C118.649 38.384 119.183 37.296 120.249 35.888C120.676 35.3333 120.953 34.8853 121.081 34.544C121.209 34.0747 121.273 33.6053 121.273 33.136C121.273 32.624 121.145 32.112 120.889 31.6C120.505 31.0453 119.993 30.5973 119.353 30.256C118.713 29.872 117.86 29.4667 116.793 29.04C115.897 28.6987 115.172 28.4 114.617 28.144C114.063 27.8453 113.551 27.504 113.081 27.12C112.185 26.2667 111.737 25.3707 111.737 24.432C111.737 22.768 113.06 20.8693 115.705 18.736C117.583 17.1147 119.033 15.5787 120.057 14.128C121.124 12.6347 121.657 11.12 121.657 9.584C121.657 8.176 121.167 6.768 120.185 5.36C119.417 4.29333 118.479 3.39733 117.369 2.672C116.303 1.94667 115.172 1.584 113.977 1.584C112.868 1.584 111.908 1.92533 111.097 2.608C110.329 3.29066 109.945 4.144 109.945 5.168C109.945 5.72267 110.095 6.192 110.393 6.576C110.692 6.96 111.161 7.42933 111.801 7.984C112.399 8.53866 112.847 9.008 113.145 9.392C113.487 9.776 113.721 10.2453 113.849 10.8C113.892 10.9707 113.913 11.184 113.913 11.44C113.913 11.9947 113.785 12.5707 113.529 13.168C113.316 13.7227 112.996 14.384 112.569 15.152C112.271 15.6213 112.015 16.112 111.801 16.624C110.649 19.3547 110.073 21.936 110.073 24.368C110.073 26.16 110.393 27.7173 111.033 29.04C111.716 30.32 112.804 31.4293 114.297 32.368C114.895 32.7093 115.193 33.2 115.193 33.84C115.193 34.1387 115.151 34.352 115.065 34.48C114.937 35.0347 114.703 35.632 114.361 36.272C114.02 36.8693 113.785 37.2747 113.657 37.488C113.145 38.3413 112.761 39.0453 112.505 39.6C112.292 40.112 112.185 40.688 112.185 41.328L112.249 42.032C112.335 42.5013 112.612 42.8427 113.081 43.056C113.551 43.2693 114.084 43.376 114.681 43.376C115.364 43.376 116.516 43.248 118.137 42.992C119.759 42.736 120.953 42.608 121.721 42.608C123.471 42.608 124.921 43.0773 126.073 44.016C126.287 44.1867 126.713 44.5707 127.353 45.168C127.993 45.7653 128.612 46.2133 129.209 46.512C129.807 46.8107 130.404 46.96 131.001 46.96C131.428 46.96 131.919 46.8533 132.473 46.64C134.223 45.9147 135.481 44.784 136.249 43.248C137.06 41.712 137.465 39.984 137.465 38.064C137.465 37.68 137.423 37.0613 137.337 36.208V36.144ZM109.177 5.232C109.177 4.03733 109.647 3.01333 110.585 2.16C111.567 1.264 112.697 0.815998 113.977 0.815998C115.3 0.815998 116.559 1.22133 117.753 2.032C118.991 2.84266 120.015 3.80266 120.825 4.912C121.892 6.40533 122.425 7.94133 122.425 9.52C122.425 11.2267 121.849 12.8907 120.697 14.512C119.588 16.0907 118.095 17.6907 116.217 19.312C115.108 20.2507 114.212 21.1467 113.529 22C112.847 22.8107 112.505 23.6213 112.505 24.432C112.505 25.1573 112.868 25.8613 113.593 26.544C113.977 26.8853 114.468 27.2053 115.065 27.504C115.663 27.76 116.281 28.016 116.921 28.272C118.159 28.7413 119.119 29.1893 119.801 29.616C120.527 30 121.103 30.5333 121.529 31.216C121.871 31.728 122.041 32.3893 122.041 33.2C122.041 33.584 121.956 34.1173 121.785 34.8C121.657 35.0987 121.295 35.6747 120.697 36.528C120.185 37.3387 119.801 37.9787 119.545 38.448C119.332 38.8747 119.332 39.2373 119.545 39.536C119.801 39.9627 120.271 40.176 120.953 40.176C121.295 40.176 121.764 40.112 122.361 39.984C123.001 39.8133 123.513 39.7067 123.897 39.664C124.153 39.6213 124.537 39.6 125.049 39.6C126.457 39.6 128.207 39.9627 130.297 40.688L132.537 41.328C132.964 41.4133 133.241 41.456 133.369 41.456C133.54 41.456 133.753 41.4133 134.009 41.328C134.265 41.2 134.393 41.0507 134.393 40.88C134.393 40.624 134.223 40.3467 133.881 40.048C133.54 39.7067 133.177 39.4293 132.793 39.216C132.367 39.0027 131.663 38.8107 130.681 38.64C130.511 38.5973 130.191 38.5333 129.721 38.448C129.295 38.32 128.911 38.1707 128.569 38C126.692 37.232 125.753 35.888 125.753 33.968C125.753 32.944 126.031 31.8773 126.585 30.768C127.183 29.6587 127.908 28.7413 128.761 28.016C129.615 27.376 130.489 27.056 131.385 27.056C132.324 27.056 133.22 27.3333 134.073 27.888C134.927 28.4 135.567 29.04 135.993 29.808C137.06 31.5573 137.764 33.648 138.105 36.08V36.144C138.148 36.528 138.169 37.1467 138.169 38C138.169 40.048 137.743 41.9253 136.889 43.632C136.079 45.296 134.713 46.5333 132.793 47.344C132.153 47.6 131.556 47.728 131.001 47.728C130.02 47.728 129.167 47.472 128.441 46.96C127.716 46.448 126.756 45.6587 125.561 44.592C124.537 43.7813 123.279 43.376 121.785 43.376C121.103 43.376 119.951 43.504 118.329 43.76C116.708 44.016 115.492 44.144 114.681 44.144C113.956 44.144 113.273 43.9733 112.633 43.632C111.993 43.2907 111.609 42.8 111.481 42.16C111.439 41.9893 111.417 41.712 111.417 41.328C111.417 40.6027 111.545 39.92 111.801 39.28C112.1 38.64 112.527 37.872 113.081 36.976C113.807 35.6533 114.233 34.736 114.361 34.224C114.447 34.0533 114.489 33.904 114.489 33.776C114.489 33.4347 114.297 33.1787 113.913 33.008C110.841 31.1307 109.305 28.2933 109.305 24.496C109.305 21.936 109.903 19.2053 111.097 16.304C111.225 15.9627 111.353 15.664 111.481 15.408C111.652 15.152 111.78 14.9387 111.865 14.768C112.719 13.3173 113.145 12.2293 113.145 11.504C113.145 10.9493 112.996 10.48 112.697 10.096C112.399 9.712 111.929 9.24266 111.289 8.688C110.564 8.048 110.031 7.49333 109.689 7.024C109.348 6.55467 109.177 5.95733 109.177 5.232ZM203.439 35.888C203.183 35.2907 202.756 34.3947 202.159 33.2C201.22 31.4933 200.623 30.0853 200.367 28.976C200.111 27.696 199.983 26.096 199.983 24.176C199.983 23.152 200.004 22.384 200.047 21.872L200.111 20.848C200.153 20.5067 200.196 20.1867 200.239 19.888C200.281 19.5467 200.324 19.2053 200.367 18.864L200.559 17.776L201.007 15.792C201.519 13.6587 201.775 12.0373 201.775 10.928C201.775 9.56266 201.583 8.28266 201.199 7.088C200.772 5.72266 199.94 4.656 198.703 3.888C197.508 3.12 196.164 2.736 194.671 2.736C192.025 2.736 189.977 3.61066 188.527 5.36C187.076 7.06666 186.351 9.09333 186.351 11.44C186.351 14.0853 187.204 16.2827 188.911 18.032C189.593 18.7147 189.935 19.5253 189.935 20.464C189.935 20.6773 189.892 20.9973 189.807 21.424C189.636 22.0213 189.359 22.5547 188.975 23.024C188.633 23.4507 188.164 23.664 187.567 23.664C187.14 23.664 186.671 23.4933 186.159 23.152C185.049 22.512 184.345 21.744 184.047 20.848C183.791 19.952 183.663 18.7787 183.663 17.328C183.663 15.4507 183.343 13.7867 182.703 12.336C182.489 11.8667 182.127 11.3547 181.615 10.8C181.145 10.2453 180.783 9.79733 180.527 9.456C179.673 8.304 179.055 7.024 178.671 5.616C178.628 5.488 178.5 5.104 178.287 4.464C178.116 3.824 177.881 3.29066 177.583 2.864C177.284 2.43733 176.921 2.096 176.495 1.84C176.068 1.62666 175.492 1.52 174.767 1.52C173.785 1.52 172.804 1.73333 171.823 2.16C170.585 2.75733 169.668 3.632 169.071 4.784C168.473 5.89333 168.175 7.13066 168.175 8.496C168.175 9.34933 168.303 10.1813 168.559 10.992C168.815 11.8027 169.177 12.784 169.647 13.936C170.073 14.96 170.372 15.728 170.543 16.24C170.671 16.496 170.735 16.7733 170.735 17.072C170.735 17.328 170.671 17.584 170.543 17.84C170.329 18.1387 170.116 18.352 169.903 18.48C169.604 18.6933 169.113 19.056 168.431 19.568C167.748 20.0373 167.236 20.5493 166.895 21.104C166.553 21.616 166.383 22.2347 166.383 22.96C166.383 24.0267 166.809 24.944 167.663 25.712C168.047 26.096 168.708 26.48 169.647 26.864C170.5 27.2907 171.055 27.5893 171.311 27.76C172.42 28.5707 172.975 29.616 172.975 30.896C172.975 31.792 172.697 32.7093 172.143 33.648C171.631 34.5867 170.969 35.376 170.159 36.016C168.921 37.04 167.983 37.936 167.343 38.704C166.703 39.472 166.383 40.3253 166.383 41.264C166.383 42.416 166.809 43.4187 167.663 44.272C168.559 45.1253 169.583 45.552 170.735 45.552C171.119 45.552 171.503 45.488 171.887 45.36C173.337 44.8907 174.319 43.952 174.831 42.544C175.343 41.136 175.599 39.4507 175.599 37.488L175.535 35.056L175.471 32.624C175.471 31.344 175.556 30.1707 175.727 29.104C175.769 28.8907 175.791 28.5493 175.791 28.08C175.791 26.3733 175.108 25.0507 173.743 24.112C173.444 24.0267 173.231 23.856 173.103 23.6C172.975 23.3867 172.911 23.1947 172.911 23.024C172.911 22.64 173.081 22.2773 173.423 21.936C174.489 20.7413 175.257 19.8027 175.727 19.12C176.239 18.4373 176.559 17.6693 176.687 16.816C176.772 16.4747 176.815 16.2187 176.815 16.048C176.815 15.4507 176.644 14.8533 176.303 14.256C176.175 14.0853 175.919 13.8507 175.535 13.552C175.193 13.2107 174.895 12.8907 174.639 12.592C174.425 12.2507 174.361 11.9307 174.447 11.632C174.575 11.0773 174.937 10.8 175.535 10.8C175.876 10.8 176.452 10.9707 177.263 11.312C178.201 11.7387 179.183 12.4 180.207 13.296C181.273 14.1493 181.807 15.0027 181.807 15.856C181.807 16.2827 181.657 16.6667 181.359 17.008C181.103 17.3493 180.676 17.8187 180.079 18.416C179.055 19.3973 178.393 20.2507 178.095 20.976C177.881 21.616 177.775 22.2133 177.775 22.768C177.775 23.792 178.073 24.7733 178.671 25.712C178.927 26.1813 179.268 26.7147 179.695 27.312C180.121 27.8667 180.463 28.3147 180.719 28.656C181.487 29.552 182.34 30.2347 183.279 30.704C183.535 30.8747 183.812 31.0027 184.111 31.088C184.623 31.1733 185.028 31.216 185.327 31.216C186.095 31.216 186.841 31.0027 187.567 30.576C188.292 30.1493 188.911 29.5947 189.423 28.912C191.172 26.5227 192.132 22.8107 192.303 17.776L192.367 16.624L192.623 15.088C192.751 13.8507 192.943 12.6347 193.199 11.44C193.284 11.056 193.455 10.736 193.711 10.48C193.967 10.1813 194.329 10.032 194.799 10.032C195.823 10.032 196.335 11.0347 196.335 13.04C196.335 13.5947 196.313 14.0427 196.271 14.384C196.228 14.7253 196.207 14.9813 196.207 15.152L195.951 16.816C195.695 18.096 195.567 19.0347 195.567 19.632C195.567 21.296 195.737 23.088 196.079 25.008C196.335 26.7147 196.74 28.4 197.295 30.064C197.892 31.728 198.639 33.5627 199.535 35.568C199.748 35.9947 199.855 36.4213 199.855 36.848C199.855 37.36 199.705 37.7867 199.407 38.128C198.98 38.5973 198.383 38.832 197.615 38.832C197.188 38.832 196.783 38.768 196.399 38.64C196.057 38.512 195.609 38.2987 195.055 38C194.543 37.6587 194.159 37.4453 193.903 37.36C193.433 37.1467 192.815 37.04 192.047 37.04C191.364 37.04 190.703 37.168 190.063 37.424C189.465 37.68 188.953 38.0427 188.527 38.512C187.972 39.1093 187.695 39.856 187.695 40.752C187.695 41.8187 188.079 42.672 188.847 43.312C189.785 44.08 191.065 44.464 192.687 44.464C195.929 44.464 199.023 43.4827 201.967 41.52C203.289 40.6667 203.951 39.5787 203.951 38.256C203.951 37.5733 203.78 36.784 203.439 35.888ZM165.615 22.896C165.615 21.9147 165.849 21.1253 166.319 20.528C166.831 19.888 167.385 19.3547 167.983 18.928C168.623 18.4587 169.092 18.1173 169.391 17.904C169.647 17.7333 169.796 17.584 169.839 17.456C169.924 17.2853 169.967 17.1573 169.967 17.072C169.967 16.944 169.924 16.752 169.839 16.496L169.007 14.32C168.452 12.9547 168.047 11.888 167.791 11.12C167.535 10.3093 167.407 9.43467 167.407 8.496C167.407 7.04533 167.748 5.68 168.431 4.4C169.156 3.12 170.18 2.13867 171.503 1.456C172.612 0.943999 173.7 0.688 174.767 0.688C175.535 0.688 176.217 0.837332 176.815 1.136C177.583 1.56266 178.116 2.096 178.415 2.736C178.713 3.33333 179.055 4.22933 179.439 5.424C179.78 6.74666 180.356 7.94133 181.167 9.008C181.423 9.34933 181.785 9.79733 182.255 10.352C182.767 10.9067 183.151 11.4613 183.407 12.016C184.089 13.5093 184.431 15.3013 184.431 17.392C184.431 18.7147 184.537 19.76 184.751 20.528C185.007 21.2533 185.604 21.9147 186.543 22.512C187.055 22.768 187.396 22.896 187.567 22.896C188.292 22.896 188.783 22.3413 189.039 21.232C189.124 20.8053 189.167 20.5067 189.167 20.336C189.167 19.696 188.889 19.0987 188.335 18.544C187.439 17.648 186.756 16.5813 186.287 15.344C185.817 14.064 185.583 12.784 185.583 11.504C185.583 9.15733 186.287 7.06666 187.695 5.232C189.103 3.39733 191.087 2.33067 193.647 2.032L194.607 1.968C196.271 1.968 197.785 2.39466 199.151 3.248C200.516 4.10133 201.433 5.296 201.903 6.832C202.329 8.06933 202.543 9.43467 202.543 10.928C202.543 12.336 202.265 14.064 201.711 16.112L201.327 17.904L201.135 18.992C201.092 19.2907 201.049 19.6107 201.007 19.952C200.964 20.2933 200.921 20.6347 200.879 20.976L200.815 21.936C200.772 22.448 200.751 23.1947 200.751 24.176C200.751 26.0533 200.879 27.6107 201.135 28.848C201.348 29.7867 201.881 31.0453 202.735 32.624C203.503 34.1173 203.972 35.12 204.143 35.632C204.527 36.6987 204.719 37.5733 204.719 38.256C204.719 39.792 203.951 41.0933 202.415 42.16C199.3 44.208 196.079 45.232 192.751 45.232C190.831 45.232 189.359 44.784 188.335 43.888C187.396 43.0773 186.927 42.032 186.927 40.752C186.927 39.6427 187.268 38.7253 187.951 38C188.42 37.4453 189.017 37.0187 189.743 36.72C190.468 36.4213 191.236 36.272 192.047 36.272C192.815 36.272 193.54 36.4 194.223 36.656C194.735 36.912 195.119 37.1253 195.375 37.296L196.655 37.936C196.996 38.064 197.316 38.128 197.615 38.128C198.169 38.128 198.575 37.9573 198.831 37.616C199.001 37.4027 199.087 37.1467 199.087 36.848C199.087 36.5067 199.001 36.1867 198.831 35.888C197.935 33.84 197.188 31.9627 196.591 30.256C195.993 28.5493 195.567 26.8427 195.311 25.136C194.969 23.216 194.799 21.3813 194.799 19.632C194.799 18.9067 194.927 17.904 195.183 16.624L195.439 15.088C195.439 14.8747 195.46 14.5973 195.503 14.256C195.545 13.9147 195.567 13.488 195.567 12.976C195.567 11.568 195.268 10.864 194.671 10.864C194.287 10.864 194.052 11.12 193.967 11.632C193.839 12.1013 193.625 13.296 193.327 15.216L193.135 16.688L193.071 17.776C192.985 20.1227 192.729 22.2773 192.303 24.24C191.876 26.2027 191.129 27.9093 190.063 29.36C189.508 30.1707 188.804 30.8107 187.951 31.28C187.097 31.7493 186.18 31.984 185.199 31.984C184.644 31.984 184.217 31.9413 183.919 31.856C183.364 31.6427 183.023 31.4933 182.895 31.408C181.828 30.8533 180.911 30.0853 180.143 29.104C179.887 28.7627 179.524 28.2933 179.055 27.696C178.628 27.0987 178.287 26.5653 178.031 26.096C177.391 25.1147 177.071 24.0053 177.071 22.768C177.071 21.9147 177.177 21.232 177.391 20.72C177.604 20.1653 177.881 19.6747 178.223 19.248C178.564 18.8213 179.012 18.3307 179.567 17.776C180.079 17.3493 180.484 16.9227 180.783 16.496C180.953 16.3253 181.039 16.112 181.039 15.856C181.039 15.216 180.569 14.512 179.631 13.744C178.692 12.976 177.796 12.4 176.943 12.016C175.791 11.504 175.215 11.4613 175.215 11.888C175.215 12.016 175.321 12.1867 175.535 12.4C175.748 12.6133 175.897 12.784 175.983 12.912C176.495 13.3387 176.815 13.6587 176.943 13.872C177.369 14.5547 177.583 15.3013 177.583 16.112C177.583 17.1787 177.284 18.16 176.687 19.056C176.089 19.952 175.193 21.0827 173.999 22.448C173.7 22.704 173.615 22.96 173.743 23.216C173.871 23.344 173.999 23.4293 174.127 23.472C174.937 24.0267 175.535 24.7307 175.919 25.584C176.345 26.3947 176.559 27.2693 176.559 28.208L176.495 29.232C176.324 30.256 176.239 31.408 176.239 32.688L176.303 35.12L176.367 37.552C176.367 42.288 174.959 45.1253 172.143 46.064C171.759 46.2347 171.289 46.32 170.735 46.32C169.753 46.32 168.815 46.0213 167.919 45.424C167.065 44.8267 166.447 44.08 166.063 43.184C165.764 42.544 165.615 41.904 165.615 41.264C165.615 40.1547 165.956 39.1947 166.639 38.384C167.321 37.5733 168.324 36.592 169.647 35.44C170.415 34.8427 171.033 34.1387 171.503 33.328C172.015 32.5173 172.271 31.728 172.271 30.96C172.271 29.936 171.801 29.0827 170.863 28.4C170.479 28.144 169.967 27.888 169.327 27.632C169.199 27.5893 168.9 27.4613 168.431 27.248C167.961 26.992 167.535 26.672 167.151 26.288C166.681 25.8613 166.297 25.3493 165.999 24.752C165.743 24.112 165.615 23.4933 165.615 22.896ZM226.455 38.64C226.242 38.8533 225.965 39.0453 225.623 39.216C223.959 40.24 222.167 40.752 220.247 40.752C219.01 40.752 217.901 40.4747 216.919 39.92C215.81 39.2373 215.106 38.32 214.807 37.168C214.509 36.016 214.359 34.5653 214.359 32.816C214.359 31.536 214.295 30.448 214.167 29.552C214.039 28.6133 213.783 27.7173 213.399 26.864C213.143 26.352 212.589 25.6693 211.735 24.816C210.797 23.8773 210.178 23.088 209.879 22.448C209.495 21.5947 209.303 20.7627 209.303 19.952C209.303 17.776 210.327 15.6427 212.375 13.552C214.466 11.4613 216.599 9.81866 218.775 8.624C219.458 8.19733 220.013 7.984 220.439 7.984C220.951 7.984 221.207 8.26133 221.207 8.816C221.207 9.28533 221.015 9.75466 220.631 10.224C220.034 11.0347 219.522 11.9307 219.095 12.912C218.711 13.8933 218.519 14.832 218.519 15.728C218.519 16.5813 218.69 17.2853 219.031 17.84C219.373 18.48 219.778 18.928 220.247 19.184C220.759 19.3973 221.293 19.568 221.847 19.696C222.402 19.824 222.786 19.9093 222.999 19.952C223.767 20.1653 224.407 20.4213 224.919 20.72C225.474 21.0187 225.815 21.4667 225.943 22.064C225.986 22.1493 226.007 22.32 226.007 22.576L225.943 23.408C225.73 24.7733 225.623 26.0107 225.623 27.12C225.623 28.4 225.73 29.4667 225.943 30.32C226.199 31.2587 226.413 31.9627 226.583 32.432C226.626 32.6027 226.775 33.072 227.031 33.84C227.287 34.608 227.415 35.376 227.415 36.144C227.415 37.04 227.159 37.808 226.647 38.448L226.455 38.64ZM204.503 18.992C204.887 18.224 205.357 17.52 205.911 16.88C206.509 16.24 207.234 15.536 208.087 14.768C209.325 13.5307 210.05 12.784 210.263 12.528C211.757 10.7787 212.951 8.83733 213.847 6.704C214.871 4.4 216.087 2.75733 217.495 1.776C218.477 1.136 219.543 0.815998 220.695 0.815998C221.677 0.815998 222.573 1.072 223.383 1.584C224.237 2.05333 224.877 2.77866 225.303 3.76C225.901 5.08267 226.114 6.93867 225.943 9.328L225.687 10.864C225.517 11.8027 225.431 12.528 225.431 13.04C225.431 13.5093 225.517 13.8933 225.687 14.192C225.815 14.4907 226.157 14.8747 226.711 15.344C227.181 15.6853 227.522 16.0053 227.735 16.304C228.205 16.9013 228.653 17.904 229.079 19.312C229.378 20.4213 229.485 21.7013 229.399 23.152C229.357 23.5787 229.271 24.048 229.143 24.56C229.058 25.072 229.015 25.4773 229.015 25.776C229.015 26.3733 229.186 26.8427 229.527 27.184C229.869 27.5253 230.295 27.8667 230.807 28.208C231.362 28.5493 231.81 28.848 232.151 29.104C233.047 29.7867 233.645 30.576 233.943 31.472C234.199 32.0267 234.327 32.688 234.327 33.456C234.327 35.888 233.261 37.9787 231.127 39.728C228.994 41.4773 226.349 43.1413 223.191 44.72C222.253 45.1893 221.143 45.5733 219.863 45.872C218.626 46.1707 217.367 46.32 216.087 46.32C213.911 46.32 212.098 45.8293 210.647 44.848C209.239 43.8667 208.535 42.3093 208.535 40.176C208.535 39.664 208.557 39.28 208.599 39.024C208.685 38.1707 208.898 37.3813 209.239 36.656C209.623 35.888 210.157 35.0347 210.839 34.096C211.053 33.84 211.33 33.4133 211.671 32.816C211.799 32.6027 211.863 32.3893 211.863 32.176C211.863 31.664 211.586 31.1733 211.031 30.704C210.477 30.192 209.751 29.6587 208.855 29.104C208.087 28.592 207.618 28.2507 207.447 28.08C206.423 27.184 205.57 26.1813 204.887 25.072C204.247 23.92 203.927 22.7467 203.927 21.552C203.927 20.7413 204.119 19.888 204.503 18.992ZM205.207 19.312C204.866 20.1227 204.695 20.8693 204.695 21.552C204.695 22.6187 204.994 23.664 205.591 24.688C206.231 25.712 207.021 26.6507 207.959 27.504C208.13 27.6747 208.322 27.8453 208.535 28.016C208.749 28.144 208.962 28.272 209.175 28.4C210.242 29.04 211.095 29.6587 211.735 30.256C212.375 30.8107 212.695 31.4293 212.695 32.112C212.695 32.4533 212.567 32.816 212.311 33.2C212.141 33.5413 211.842 34.0107 211.415 34.608C210.818 35.504 210.349 36.2933 210.007 36.976C209.666 37.616 209.453 38.32 209.367 39.088C209.325 39.3013 209.303 39.6213 209.303 40.048C209.303 41.968 209.922 43.376 211.159 44.272C212.439 45.1253 214.061 45.552 216.023 45.552C217.218 45.552 218.413 45.424 219.607 45.168C220.845 44.8693 221.933 44.4853 222.871 44.016C225.773 42.5653 228.205 41.0507 230.167 39.472C232.173 37.8933 233.282 36.0587 233.495 33.968C233.538 33.84 233.559 33.648 233.559 33.392C233.559 32.8373 233.453 32.2827 233.239 31.728C232.941 30.9173 232.429 30.256 231.703 29.744C231.405 29.5307 230.935 29.232 230.295 28.848C229.655 28.464 229.143 28.0373 228.759 27.568C228.418 27.056 228.247 26.4587 228.247 25.776C228.247 25.392 228.29 24.944 228.375 24.432C228.503 23.8773 228.589 23.4293 228.631 23.088C228.717 21.7227 228.61 20.528 228.311 19.504C228.013 18.352 227.607 17.4347 227.095 16.752C226.967 16.5813 226.626 16.2827 226.071 15.856C225.559 15.3867 225.197 14.9387 224.983 14.512C224.77 14.128 224.663 13.616 224.663 12.976C224.663 12.2933 224.77 11.5253 224.983 10.672L225.175 9.264L225.239 7.664C225.239 6.384 225.026 5.18933 224.599 4.08C224.215 3.22667 223.682 2.58666 222.999 2.16C222.317 1.73333 221.57 1.52 220.759 1.52C219.735 1.52 218.797 1.81866 217.943 2.416C217.175 2.928 216.535 3.54667 216.023 4.272C215.511 4.99733 215.021 5.91466 214.551 7.024C213.655 9.2 212.418 11.2053 210.839 13.04C210.626 13.296 209.879 14.064 208.599 15.344C207.661 16.24 206.957 16.9653 206.487 17.52C206.018 18.032 205.591 18.6293 205.207 19.312ZM210.583 22.128C210.882 22.7253 211.415 23.408 212.183 24.176C213.037 24.944 213.677 25.7333 214.103 26.544C214.573 27.4827 214.871 28.464 214.999 29.488C215.127 30.512 215.191 31.7707 215.191 33.264C215.191 34.7573 215.319 35.9947 215.575 36.976C215.831 37.9573 216.407 38.7253 217.303 39.28C218.199 39.792 219.202 40.048 220.311 40.048C221.933 40.048 223.575 39.5573 225.239 38.576L225.943 38.128C226.029 38.0427 226.071 37.9787 226.071 37.936C226.455 37.424 226.647 36.8267 226.647 36.144C226.647 35.2053 226.37 34.032 225.815 32.624C225.73 32.3253 225.623 32.0053 225.495 31.664C225.41 31.3227 225.303 30.9387 225.175 30.512C224.962 29.616 224.855 28.4853 224.855 27.12C224.855 25.968 224.962 24.688 225.175 23.28L225.239 22.576C225.239 22.0213 225.005 21.616 224.535 21.36C224.109 21.104 223.533 20.8907 222.807 20.72C222.594 20.6773 222.125 20.592 221.399 20.464C220.717 20.2933 220.119 20.0373 219.607 19.696C219.095 19.312 218.669 18.8213 218.327 18.224C217.943 17.6267 217.751 16.8373 217.751 15.856C217.751 14.832 217.965 13.7867 218.391 12.72C218.818 11.6533 219.351 10.672 219.991 9.776C220.247 9.43467 220.375 9.17867 220.375 9.008V8.944C220.375 8.816 220.311 8.752 220.183 8.752C220.055 8.752 219.714 8.92267 219.159 9.264C217.026 10.4587 214.978 12.0373 213.015 14C211.053 15.9627 210.071 17.9467 210.071 19.952C210.071 20.72 210.242 21.4453 210.583 22.128ZM259.357 21.936C258.802 20.912 257.949 20.1013 256.797 19.504C255.645 18.9067 254.151 18.3093 252.317 17.712C249.927 16.9867 247.389 16.0907 244.701 15.024C244.487 14.9387 243.911 14.7253 242.973 14.384C242.077 14.0427 241.309 13.616 240.669 13.104C240.071 12.5493 239.773 11.9733 239.773 11.376V11.312C239.773 10.8 240.007 10.352 240.477 9.968C241.543 8.90133 243.293 8.15467 245.725 7.728C245.938 7.68533 246.365 7.6 247.005 7.472C247.645 7.344 248.221 7.28 248.733 7.28C249.415 7.28 249.97 7.42933 250.397 7.728C250.781 7.984 251.058 8.304 251.229 8.688C251.399 9.072 251.527 9.47733 251.613 9.904C251.698 10.288 251.762 10.5867 251.805 10.8C251.89 11.0133 251.997 11.44 252.125 12.08C252.295 12.6773 252.487 13.2107 252.701 13.68C252.957 14.1493 253.234 14.512 253.533 14.768C254.173 15.2373 254.962 15.472 255.901 15.472C256.455 15.472 256.882 15.4293 257.181 15.344C258.077 15.088 258.759 14.6613 259.229 14.064C259.741 13.4667 259.997 12.784 259.997 12.016C259.997 11.3333 259.826 10.7147 259.485 10.16C258.845 9.136 257.863 8.496 256.541 8.24C256.327 8.19733 255.943 8.15467 255.389 8.112C254.834 8.02666 254.365 7.856 253.981 7.6C253.597 7.344 253.362 6.96 253.277 6.448C253.234 6.192 253.213 5.76533 253.213 5.168C253.213 4.144 253.106 3.35466 252.893 2.8C252.679 2.20267 252.167 1.81867 251.357 1.648C251.229 1.60533 251.015 1.584 250.717 1.584C249.906 1.584 248.967 1.84 247.901 2.352C246.834 2.864 245.938 3.41867 245.213 4.016C244.743 4.35733 244.125 4.95467 243.357 5.808C243.186 5.97867 242.759 6.40533 242.077 7.088C241.394 7.728 240.669 8.26133 239.901 8.688C239.218 8.98667 238.066 9.37067 236.445 9.84C234.866 10.224 233.65 10.6507 232.797 11.12C231.986 11.5893 231.474 12.3787 231.261 13.488C231.175 13.9147 231.133 14.192 231.133 14.32C231.133 15.5573 231.666 16.5173 232.733 17.2C233.799 17.8827 235.101 18.224 236.637 18.224C237.618 18.224 238.962 18.032 240.669 17.648C240.925 17.6053 241.522 17.4987 242.461 17.328C243.399 17.1573 244.274 17.072 245.085 17.072C246.706 17.072 248.071 17.4347 249.181 18.16C249.778 18.5013 250.269 19.0133 250.653 19.696C251.037 20.336 251.378 20.9973 251.677 21.68C251.975 22.3627 252.189 22.8533 252.317 23.152C253.255 25.2 253.725 27.44 253.725 29.872C253.725 30.6827 253.661 31.5147 253.533 32.368C253.533 32.624 253.49 32.9653 253.405 33.392C253.106 34.544 252.274 35.5253 250.909 36.336C250.738 36.464 250.567 36.528 250.397 36.528C250.141 36.528 249.927 36.4427 249.757 36.272C249.586 36.1013 249.501 35.8667 249.501 35.568C249.501 35.2267 249.437 34.864 249.309 34.48C248.711 32.2187 246.834 30.5547 243.677 29.488C242.909 29.104 242.29 28.7413 241.821 28.4C241.394 28.0587 241.181 27.6107 241.181 27.056C241.181 26.544 241.351 26.1387 241.693 25.84C242.034 25.5413 242.525 25.2213 243.165 24.88C243.719 24.5387 244.146 24.1333 244.445 23.664C244.786 23.152 244.957 22.6187 244.957 22.064C244.871 21.5947 244.722 21.1893 244.509 20.848C244.039 20.2933 243.463 20.016 242.781 20.016C242.354 20.016 241.906 20.1227 241.437 20.336C241.01 20.5067 240.754 20.6133 240.669 20.656C240.327 20.784 239.879 20.912 239.325 21.04C238.77 21.168 238.279 21.296 237.853 21.424C236.829 21.68 235.954 22.128 235.229 22.768C234.546 23.408 234.205 24.1973 234.205 25.136C234.205 25.9467 234.503 26.5867 235.101 27.056C235.741 27.4827 236.701 27.952 237.981 28.464C238.919 28.8053 239.602 29.0827 240.029 29.296C241.949 30.32 243.293 32.1547 244.061 34.8C244.359 35.824 244.615 36.9333 244.829 38.128C244.999 39.0667 245.149 39.7707 245.277 40.24L245.469 41.584C245.554 42.3947 245.639 43.0133 245.725 43.44C245.853 43.824 246.087 44.1867 246.429 44.528C246.898 44.9973 247.538 45.2747 248.349 45.36C248.562 45.4027 248.903 45.424 249.373 45.424C250.909 45.424 252.423 45.0613 253.917 44.336C255.453 43.6107 256.605 42.6933 257.373 41.584C257.799 40.9013 258.013 40.2613 258.013 39.664C258.013 39.1947 257.799 38.448 257.373 37.424C257.33 37.296 257.159 36.912 256.861 36.272C256.605 35.5893 256.477 34.8427 256.477 34.032C256.477 33.0507 257.01 31.7067 258.077 30L258.781 28.72C259.591 26.928 259.997 25.4987 259.997 24.432C259.997 23.9627 259.933 23.5147 259.805 23.088C259.762 22.832 259.613 22.448 259.357 21.936ZM230.493 13.36C230.749 12.0373 231.346 11.0987 232.285 10.544C233.266 9.94667 234.61 9.43467 236.317 9.008C237.682 8.70933 238.749 8.368 239.517 7.984C240.071 7.68533 240.626 7.28 241.181 6.768C241.735 6.256 242.269 5.744 242.781 5.232C243.591 4.42133 244.231 3.824 244.701 3.44C245.511 2.8 246.493 2.20267 247.645 1.648C248.797 1.09333 249.842 0.815998 250.781 0.815998C251.079 0.815998 251.314 0.837331 251.485 0.879997C252.551 1.09333 253.234 1.584 253.533 2.352C253.831 3.07733 253.981 3.84533 253.981 4.656C253.981 5.424 254.002 5.97867 254.045 6.32C254.087 6.704 254.258 6.96 254.557 7.088C254.898 7.216 255.282 7.30133 255.709 7.344C256.135 7.38666 256.455 7.42933 256.669 7.472C258.29 7.81333 259.442 8.58133 260.125 9.776C260.551 10.4587 260.765 11.2053 260.765 12.016C260.765 13.168 260.317 14.1707 259.421 15.024C258.567 15.8347 257.437 16.24 256.029 16.24C254.834 16.24 253.853 15.9413 253.085 15.344C252.615 14.96 252.253 14.4693 251.997 13.872C251.741 13.2747 251.527 12.6987 251.357 12.144C251.186 11.5893 251.079 11.2053 251.037 10.992C250.994 10.736 250.93 10.416 250.845 10.032C250.759 9.60533 250.653 9.264 250.525 9.008C250.397 8.752 250.226 8.53866 250.013 8.368C249.671 8.15466 249.266 8.048 248.797 8.048C248.37 8.048 247.837 8.112 247.197 8.24C246.599 8.368 246.151 8.45333 245.853 8.496C243.549 8.92266 241.927 9.60533 240.989 10.544C240.69 10.7573 240.541 10.992 240.541 11.248C240.541 11.8453 240.903 12.3787 241.629 12.848C242.354 13.2747 243.058 13.616 243.741 13.872C244.423 14.128 244.85 14.2773 245.021 14.32C247.581 15.3867 250.098 16.2827 252.573 17.008C254.45 17.6053 256.007 18.224 257.245 18.864C258.482 19.504 259.421 20.4 260.061 21.552C260.317 22.1493 260.487 22.5973 260.573 22.896C260.701 23.408 260.765 23.92 260.765 24.432C260.765 25.6267 260.338 27.1627 259.485 29.04L258.781 30.256C258.269 31.0667 257.885 31.7707 257.629 32.368C257.373 32.9653 257.245 33.5413 257.245 34.096C257.245 34.7787 257.501 35.7173 258.013 36.912C258.525 38.0213 258.781 38.9387 258.781 39.664C258.781 40.432 258.525 41.2213 258.013 42.032C257.202 43.2267 255.943 44.2293 254.237 45.04C252.573 45.8507 250.909 46.256 249.245 46.256L248.221 46.192C247.282 46.064 246.514 45.7013 245.917 45.104C245.49 44.6773 245.191 44.208 245.021 43.696C244.893 43.1413 244.786 42.5653 244.701 41.968C244.658 41.3707 244.594 40.8587 244.509 40.432C244.423 40.0907 244.274 39.4293 244.061 38.448C243.89 37.296 243.634 36.144 243.293 34.992C242.61 32.6027 241.394 30.9387 239.645 30C239.389 29.8293 239.047 29.68 238.621 29.552C238.237 29.424 237.959 29.3173 237.789 29.232C236.381 28.72 235.293 28.1867 234.525 27.632C233.799 27.0773 233.437 26.2667 233.437 25.2C233.437 24.7733 233.479 24.432 233.565 24.176C233.735 23.3227 234.205 22.5973 234.973 22C235.783 21.36 236.679 20.912 237.661 20.656C238.13 20.528 238.621 20.4213 239.133 20.336C239.687 20.208 240.114 20.08 240.413 19.952C240.754 19.7813 241.138 19.632 241.565 19.504C241.991 19.3333 242.397 19.248 242.781 19.248C243.25 19.248 243.677 19.3547 244.061 19.568C244.487 19.7813 244.829 20.0587 245.085 20.4C245.426 20.8267 245.639 21.3813 245.725 22.064C245.725 22.7467 245.511 23.408 245.085 24.048C244.658 24.6453 244.146 25.136 243.549 25.52C243.463 25.5627 243.25 25.6907 242.909 25.904C242.567 26.1173 242.311 26.3307 242.141 26.544C242.013 26.7147 241.949 26.9067 241.949 27.12C241.949 27.376 242.098 27.6107 242.397 27.824C242.695 28.0373 242.994 28.2293 243.293 28.4C243.634 28.5707 243.869 28.6987 243.997 28.784C245.49 29.2533 246.77 29.9573 247.837 30.896C248.946 31.8347 249.693 32.9653 250.077 34.288C250.205 34.7147 250.269 35.1413 250.269 35.568C250.269 35.7813 250.354 35.824 250.525 35.696C251.719 35.0133 252.423 34.1813 252.637 33.2C252.722 32.8587 252.765 32.56 252.765 32.304C252.893 31.4507 252.957 30.6187 252.957 29.808C252.957 27.632 252.509 25.52 251.613 23.472C251.485 23.1733 251.25 22.6613 250.909 21.936C250.61 21.168 250.29 20.528 249.949 20.016C249.607 19.4613 249.223 19.056 248.797 18.8C247.73 18.16 246.493 17.84 245.085 17.84C244.018 17.84 242.631 18.032 240.925 18.416C240.669 18.4587 240.093 18.5653 239.197 18.736C238.301 18.9067 237.49 18.992 236.765 18.992C235.058 18.992 233.565 18.5867 232.285 17.776C231.005 16.9653 230.365 15.8133 230.365 14.32C230.365 14.192 230.407 13.872 230.493 13.36ZM291.544 21.936C290.99 20.912 290.136 20.1013 288.984 19.504C287.832 18.9067 286.339 18.3093 284.504 17.712C282.115 16.9867 279.576 16.0907 276.888 15.024C276.675 14.9387 276.099 14.7253 275.16 14.384C274.264 14.0427 273.496 13.616 272.856 13.104C272.259 12.5493 271.96 11.9733 271.96 11.376V11.312C271.96 10.8 272.195 10.352 272.664 9.968C273.731 8.90133 275.48 8.15467 277.912 7.728C278.126 7.68533 278.552 7.6 279.192 7.472C279.832 7.344 280.408 7.28 280.92 7.28C281.603 7.28 282.158 7.42933 282.584 7.728C282.968 7.984 283.246 8.304 283.416 8.688C283.587 9.072 283.715 9.47733 283.8 9.904C283.886 10.288 283.95 10.5867 283.992 10.8C284.078 11.0133 284.184 11.44 284.312 12.08C284.483 12.6773 284.675 13.2107 284.888 13.68C285.144 14.1493 285.422 14.512 285.72 14.768C286.36 15.2373 287.15 15.472 288.088 15.472C288.643 15.472 289.07 15.4293 289.368 15.344C290.264 15.088 290.947 14.6613 291.416 14.064C291.928 13.4667 292.184 12.784 292.184 12.016C292.184 11.3333 292.014 10.7147 291.672 10.16C291.032 9.136 290.051 8.496 288.728 8.24C288.515 8.19733 288.131 8.15467 287.576 8.112C287.022 8.02666 286.552 7.856 286.168 7.6C285.784 7.344 285.55 6.96 285.464 6.448C285.422 6.192 285.4 5.76533 285.4 5.168C285.4 4.144 285.294 3.35466 285.08 2.8C284.867 2.20267 284.355 1.81867 283.544 1.648C283.416 1.60533 283.203 1.584 282.904 1.584C282.094 1.584 281.155 1.84 280.088 2.352C279.022 2.864 278.126 3.41867 277.4 4.016C276.931 4.35733 276.312 4.95467 275.544 5.808C275.374 5.97867 274.947 6.40533 274.264 7.088C273.582 7.728 272.856 8.26133 272.088 8.688C271.406 8.98667 270.254 9.37067 268.632 9.84C267.054 10.224 265.838 10.6507 264.984 11.12C264.174 11.5893 263.662 12.3787 263.448 13.488C263.363 13.9147 263.32 14.192 263.32 14.32C263.32 15.5573 263.854 16.5173 264.92 17.2C265.987 17.8827 267.288 18.224 268.824 18.224C269.806 18.224 271.15 18.032 272.856 17.648C273.112 17.6053 273.71 17.4987 274.648 17.328C275.587 17.1573 276.462 17.072 277.272 17.072C278.894 17.072 280.259 17.4347 281.368 18.16C281.966 18.5013 282.456 19.0133 282.84 19.696C283.224 20.336 283.566 20.9973 283.864 21.68C284.163 22.3627 284.376 22.8533 284.504 23.152C285.443 25.2 285.912 27.44 285.912 29.872C285.912 30.6827 285.848 31.5147 285.72 32.368C285.72 32.624 285.678 32.9653 285.592 33.392C285.294 34.544 284.462 35.5253 283.096 36.336C282.926 36.464 282.755 36.528 282.584 36.528C282.328 36.528 282.115 36.4427 281.944 36.272C281.774 36.1013 281.688 35.8667 281.688 35.568C281.688 35.2267 281.624 34.864 281.496 34.48C280.899 32.2187 279.022 30.5547 275.864 29.488C275.096 29.104 274.478 28.7413 274.008 28.4C273.582 28.0587 273.368 27.6107 273.368 27.056C273.368 26.544 273.539 26.1387 273.88 25.84C274.222 25.5413 274.712 25.2213 275.352 24.88C275.907 24.5387 276.334 24.1333 276.632 23.664C276.974 23.152 277.144 22.6187 277.144 22.064C277.059 21.5947 276.91 21.1893 276.696 20.848C276.227 20.2933 275.651 20.016 274.968 20.016C274.542 20.016 274.094 20.1227 273.624 20.336C273.198 20.5067 272.942 20.6133 272.856 20.656C272.515 20.784 272.067 20.912 271.512 21.04C270.958 21.168 270.467 21.296 270.04 21.424C269.016 21.68 268.142 22.128 267.416 22.768C266.734 23.408 266.392 24.1973 266.392 25.136C266.392 25.9467 266.691 26.5867 267.288 27.056C267.928 27.4827 268.888 27.952 270.168 28.464C271.107 28.8053 271.79 29.0827 272.216 29.296C274.136 30.32 275.48 32.1547 276.248 34.8C276.547 35.824 276.803 36.9333 277.016 38.128C277.187 39.0667 277.336 39.7707 277.464 40.24L277.656 41.584C277.742 42.3947 277.827 43.0133 277.912 43.44C278.04 43.824 278.275 44.1867 278.616 44.528C279.086 44.9973 279.726 45.2747 280.536 45.36C280.75 45.4027 281.091 45.424 281.56 45.424C283.096 45.424 284.611 45.0613 286.104 44.336C287.64 43.6107 288.792 42.6933 289.56 41.584C289.987 40.9013 290.2 40.2613 290.2 39.664C290.2 39.1947 289.987 38.448 289.56 37.424C289.518 37.296 289.347 36.912 289.048 36.272C288.792 35.5893 288.664 34.8427 288.664 34.032C288.664 33.0507 289.198 31.7067 290.264 30L290.968 28.72C291.779 26.928 292.184 25.4987 292.184 24.432C292.184 23.9627 292.12 23.5147 291.992 23.088C291.95 22.832 291.8 22.448 291.544 21.936ZM262.68 13.36C262.936 12.0373 263.534 11.0987 264.472 10.544C265.454 9.94667 266.798 9.43467 268.504 9.008C269.87 8.70933 270.936 8.368 271.704 7.984C272.259 7.68533 272.814 7.28 273.368 6.768C273.923 6.256 274.456 5.744 274.968 5.232C275.779 4.42133 276.419 3.824 276.888 3.44C277.699 2.8 278.68 2.20267 279.832 1.648C280.984 1.09333 282.03 0.815998 282.968 0.815998C283.267 0.815998 283.502 0.837331 283.672 0.879997C284.739 1.09333 285.422 1.584 285.72 2.352C286.019 3.07733 286.168 3.84533 286.168 4.656C286.168 5.424 286.19 5.97867 286.232 6.32C286.275 6.704 286.446 6.96 286.744 7.088C287.086 7.216 287.47 7.30133 287.896 7.344C288.323 7.38666 288.643 7.42933 288.856 7.472C290.478 7.81333 291.63 8.58133 292.312 9.776C292.739 10.4587 292.952 11.2053 292.952 12.016C292.952 13.168 292.504 14.1707 291.608 15.024C290.755 15.8347 289.624 16.24 288.216 16.24C287.022 16.24 286.04 15.9413 285.272 15.344C284.803 14.96 284.44 14.4693 284.184 13.872C283.928 13.2747 283.715 12.6987 283.544 12.144C283.374 11.5893 283.267 11.2053 283.224 10.992C283.182 10.736 283.118 10.416 283.032 10.032C282.947 9.60533 282.84 9.264 282.712 9.008C282.584 8.752 282.414 8.53866 282.2 8.368C281.859 8.15466 281.454 8.048 280.984 8.048C280.558 8.048 280.024 8.112 279.384 8.24C278.787 8.368 278.339 8.45333 278.04 8.496C275.736 8.92266 274.115 9.60533 273.176 10.544C272.878 10.7573 272.728 10.992 272.728 11.248C272.728 11.8453 273.091 12.3787 273.816 12.848C274.542 13.2747 275.246 13.616 275.928 13.872C276.611 14.128 277.038 14.2773 277.208 14.32C279.768 15.3867 282.286 16.2827 284.76 17.008C286.638 17.6053 288.195 18.224 289.432 18.864C290.67 19.504 291.608 20.4 292.248 21.552C292.504 22.1493 292.675 22.5973 292.76 22.896C292.888 23.408 292.952 23.92 292.952 24.432C292.952 25.6267 292.526 27.1627 291.672 29.04L290.968 30.256C290.456 31.0667 290.072 31.7707 289.816 32.368C289.56 32.9653 289.432 33.5413 289.432 34.096C289.432 34.7787 289.688 35.7173 290.2 36.912C290.712 38.0213 290.968 38.9387 290.968 39.664C290.968 40.432 290.712 41.2213 290.2 42.032C289.39 43.2267 288.131 44.2293 286.424 45.04C284.76 45.8507 283.096 46.256 281.432 46.256L280.408 46.192C279.47 46.064 278.702 45.7013 278.104 45.104C277.678 44.6773 277.379 44.208 277.208 43.696C277.08 43.1413 276.974 42.5653 276.888 41.968C276.846 41.3707 276.782 40.8587 276.696 40.432C276.611 40.0907 276.462 39.4293 276.248 38.448C276.078 37.296 275.822 36.144 275.48 34.992C274.798 32.6027 273.582 30.9387 271.832 30C271.576 29.8293 271.235 29.68 270.808 29.552C270.424 29.424 270.147 29.3173 269.976 29.232C268.568 28.72 267.48 28.1867 266.712 27.632C265.987 27.0773 265.624 26.2667 265.624 25.2C265.624 24.7733 265.667 24.432 265.752 24.176C265.923 23.3227 266.392 22.5973 267.16 22C267.971 21.36 268.867 20.912 269.848 20.656C270.318 20.528 270.808 20.4213 271.32 20.336C271.875 20.208 272.302 20.08 272.6 19.952C272.942 19.7813 273.326 19.632 273.752 19.504C274.179 19.3333 274.584 19.248 274.968 19.248C275.438 19.248 275.864 19.3547 276.248 19.568C276.675 19.7813 277.016 20.0587 277.272 20.4C277.614 20.8267 277.827 21.3813 277.912 22.064C277.912 22.7467 277.699 23.408 277.272 24.048C276.846 24.6453 276.334 25.136 275.736 25.52C275.651 25.5627 275.438 25.6907 275.096 25.904C274.755 26.1173 274.499 26.3307 274.328 26.544C274.2 26.7147 274.136 26.9067 274.136 27.12C274.136 27.376 274.286 27.6107 274.584 27.824C274.883 28.0373 275.182 28.2293 275.48 28.4C275.822 28.5707 276.056 28.6987 276.184 28.784C277.678 29.2533 278.958 29.9573 280.024 30.896C281.134 31.8347 281.88 32.9653 282.264 34.288C282.392 34.7147 282.456 35.1413 282.456 35.568C282.456 35.7813 282.542 35.824 282.712 35.696C283.907 35.0133 284.611 34.1813 284.824 33.2C284.91 32.8587 284.952 32.56 284.952 32.304C285.08 31.4507 285.144 30.6187 285.144 29.808C285.144 27.632 284.696 25.52 283.8 23.472C283.672 23.1733 283.438 22.6613 283.096 21.936C282.798 21.168 282.478 20.528 282.136 20.016C281.795 19.4613 281.411 19.056 280.984 18.8C279.918 18.16 278.68 17.84 277.272 17.84C276.206 17.84 274.819 18.032 273.112 18.416C272.856 18.4587 272.28 18.5653 271.384 18.736C270.488 18.9067 269.678 18.992 268.952 18.992C267.246 18.992 265.752 18.5867 264.472 17.776C263.192 16.9653 262.552 15.8133 262.552 14.32C262.552 14.192 262.595 13.872 262.68 13.36Z" fill="#D3FF00"/>
</svg>
