<svg width="401" height="196" viewBox="0 0 401 196" fill="none" xmlns="http://www.w3.org/2000/svg">
<path d="M80.0078 68.123H78.8066V69.2363C79.0996 68.8066 79.5 68.4355 80.0078 68.123ZM0.876953 50.4863C0.623047 50.2324 0.496094 49.9395 0.496094 49.6074C0.496094 49.2559 0.623047 48.9629 0.876953 48.7285C1.11133 48.4746 1.4043 48.3477 1.75586 48.3477C2.10742 48.3477 2.41016 48.4746 2.66406 48.7285C2.89844 48.9629 3.01562 49.2559 3.01562 49.6074C3.01562 49.9395 2.89844 50.2324 2.66406 50.4863C2.41016 50.7402 2.10742 50.8672 1.75586 50.8672C1.4043 50.8672 1.11133 50.7402 0.876953 50.4863ZM4.45117 79.1387C4.06055 78.4551 3.86523 77.7031 3.86523 76.8828C3.86523 76.082 4.06055 75.3398 4.45117 74.6562C4.8418 73.9727 5.37891 73.4355 6.0625 73.0449C6.72656 72.6348 7.47852 72.4297 8.31836 72.4297C9.13867 72.4297 9.89062 72.6348 10.5742 73.0449C11.2383 73.4355 11.7754 73.9727 12.1855 74.6562C12.5762 75.3398 12.7715 76.082 12.7715 76.8828C12.7715 77.7031 12.5762 78.4551 12.1855 79.1387C11.7949 79.8223 11.2578 80.3691 10.5742 80.7793C9.89062 81.1699 9.13867 81.3652 8.31836 81.3652C7.47852 81.3652 6.72656 81.1699 6.0625 80.7793C5.37891 80.3691 4.8418 79.8223 4.45117 79.1387ZM8.02539 53.3574C7.49805 52.8301 7.23438 52.1855 7.23438 51.4238C7.23438 50.6621 7.49805 50.0176 8.02539 49.4902C8.55273 48.9434 9.19727 48.6699 9.95898 48.6699C10.7207 48.6699 11.3652 48.9434 11.8926 49.4902C12.4199 50.0176 12.6836 50.6621 12.6836 51.4238C12.6836 52.166 12.4199 52.8105 11.8926 53.3574C11.3652 53.8848 10.7207 54.1484 9.95898 54.1484C9.19727 54.1484 8.55273 53.8848 8.02539 53.3574ZM10.5742 65.9258C9.85156 65.1836 9.49023 64.2852 9.49023 63.2305C9.49023 62.5469 9.65625 61.9219 9.98828 61.3555C10.3203 60.7891 10.7793 60.3398 11.3652 60.0078C11.9316 59.6562 12.5664 59.4805 13.2695 59.4805C13.9531 59.4805 14.5879 59.6562 15.1738 60.0078C15.7598 60.3398 16.2188 60.7891 16.5508 61.3555C16.8828 61.9219 17.0488 62.5469 17.0488 63.2305C17.0488 64.2852 16.6875 65.1836 15.9648 65.9258C15.2227 66.6484 14.3242 67.0098 13.2695 67.0098C12.1953 67.0098 11.2969 66.6484 10.5742 65.9258ZM14.1777 91.9121C13.8262 91.3066 13.6504 90.6523 13.6504 89.9492C13.6504 89.2461 13.8262 88.6016 14.1777 88.0156C14.5098 87.4297 14.9688 86.9609 15.5547 86.6094C16.1406 86.2578 16.7949 86.082 17.5176 86.082C18.2207 86.082 18.875 86.2578 19.4805 86.6094C20.0664 86.9609 20.5352 87.4297 20.8867 88.0156C21.2188 88.6016 21.3848 89.2461 21.3848 89.9492C21.3848 90.6523 21.2188 91.3066 20.8867 91.9121C20.5352 92.498 20.0664 92.9668 19.4805 93.3184C18.875 93.6504 18.2207 93.8164 17.5176 93.8164C16.7949 93.8164 16.1406 93.6504 15.5547 93.3184C14.9688 92.9668 14.5098 92.498 14.1777 91.9121ZM28.2695 96.6582C27.6055 95.9941 27.2734 95.1934 27.2734 94.2559C27.2734 93.3184 27.6055 92.5176 28.2695 91.8535C28.9141 91.1895 29.7148 90.8574 30.6719 90.8574C31.6094 90.8574 32.4102 91.1895 33.0742 91.8535C33.7383 92.5176 34.0703 93.3184 34.0703 94.2559C34.0703 95.1934 33.748 95.9941 33.1035 96.6582C32.4395 97.3223 31.6289 97.6543 30.6719 97.6543C29.7148 97.6543 28.9141 97.3223 28.2695 96.6582ZM39.9883 93.4941C39.6367 92.8887 39.4609 92.2344 39.4609 91.5312C39.4609 90.8281 39.6367 90.1836 39.9883 89.5977C40.3203 89.0117 40.7793 88.543 41.3652 88.1914C41.9512 87.8398 42.6055 87.6641 43.3281 87.6641C44.0312 87.6641 44.6855 87.8398 45.291 88.1914C45.877 88.543 46.3457 89.0117 46.6973 89.5977C47.0293 90.1836 47.1953 90.8281 47.1953 91.5312C47.1953 92.2344 47.0293 92.8887 46.6973 93.4941C46.3457 94.0801 45.877 94.5488 45.291 94.9004C44.6855 95.2324 44.0312 95.3984 43.3281 95.3984C42.6055 95.3984 41.9512 95.2324 41.3652 94.9004C40.7793 94.5488 40.3203 94.0801 39.9883 93.4941ZM52.1172 88.0449C51.7656 87.4395 51.5898 86.7852 51.5898 86.082C51.5898 85.3789 51.7656 84.7344 52.1172 84.1484C52.4492 83.5625 52.9082 83.0938 53.4941 82.7422C54.0801 82.3906 54.7344 82.2148 55.457 82.2148C56.1602 82.2148 56.8145 82.3906 57.4199 82.7422C58.0059 83.0938 58.4746 83.5625 58.8262 84.1484C59.1582 84.7344 59.3242 85.3789 59.3242 86.082C59.3242 86.7852 59.1582 87.4395 58.8262 88.0449C58.4746 88.6309 58.0059 89.0996 57.4199 89.4512C56.8145 89.7832 56.1602 89.9492 55.457 89.9492C54.7344 89.9492 54.0801 89.7832 53.4941 89.4512C52.9082 89.0996 52.4492 88.6309 52.1172 88.0449ZM67.1758 86.4336C66.7461 85.6719 66.5312 84.8418 66.5312 83.9434C66.5312 83.0449 66.7461 82.2148 67.1758 81.4531C67.625 80.6914 68.2305 80.0859 68.9922 79.6367C69.7539 79.1875 70.5938 78.9629 71.5117 78.9629C72.0195 78.9629 72.4785 79.0312 72.8887 79.168V63.2598H86.248C91.1504 63.2598 94.8516 64.373 97.3516 66.5996C99.8711 68.8066 101.131 72.0488 101.131 76.3262C101.131 79.334 100.516 81.834 99.2852 83.8262C98.0742 85.8184 96.2676 87.2734 93.8652 88.1914C93.2598 88.6797 92.5566 88.9238 91.7559 88.9238H91.4629C89.8613 89.2559 88.123 89.4219 86.248 89.4219H78.8066V107H72.8887V88.748C72.459 88.8652 72 88.9238 71.5117 88.9238C70.5742 88.9238 69.7246 88.6992 68.9629 88.25C68.2207 87.8008 67.625 87.1953 67.1758 86.4336ZM75.4961 86.9609C74.832 87.8398 73.9629 88.4355 72.8887 88.748V79.168C73.9434 79.4609 74.8027 80.0566 75.4668 80.9551C76.1504 81.834 76.4922 82.8301 76.4922 83.9434C76.4922 85.0762 76.1602 86.082 75.4961 86.9609ZM78.8066 73.7188C78.3379 73.0352 78.1035 72.2832 78.1035 71.4629C78.1035 70.6426 78.3379 69.9004 78.8066 69.2363V84.5586H86.248C87.1074 84.5586 87.8789 84.4902 88.5625 84.3535C88.7969 83.6895 89.1973 83.1523 89.7637 82.7422C90.3496 82.332 91.0137 82.127 91.7559 82.127C92.0879 82.127 92.4297 82.1758 92.7812 82.2734C93.8555 81.1992 94.5195 79.793 94.7734 78.0547C93.7773 77.957 92.9473 77.5469 92.2832 76.8242C91.6387 76.082 91.3164 75.2129 91.3164 74.2168C91.3164 73.5137 91.4824 72.8691 91.8145 72.2832C92.166 71.6777 92.6348 71.209 93.2207 70.877C92.4785 69.9785 91.5215 69.2949 90.3496 68.8262C89.1777 68.3574 87.8105 68.123 86.248 68.123H83.9336C84.5195 68.4551 84.9785 68.9238 85.3105 69.5293C85.6621 70.1152 85.8379 70.7598 85.8379 71.4629C85.8379 72.166 85.6621 72.8203 85.3105 73.4258C84.9785 74.0117 84.5098 74.4805 83.9043 74.832C83.3184 75.1641 82.6738 75.3301 81.9707 75.3301C81.3066 75.3301 80.7012 75.1934 80.1543 74.9199C79.627 74.627 79.1777 74.2266 78.8066 73.7188ZM83.9336 68.123H80.0078C80.6133 67.7715 81.2676 67.5957 81.9707 67.5957C82.6348 67.5957 83.2891 67.7715 83.9336 68.123ZM89.2363 87.8398C88.6504 87.1953 88.3574 86.4238 88.3574 85.5254C88.3574 85.0957 88.4258 84.7051 88.5625 84.3535C90.3008 84.041 91.707 83.3477 92.7812 82.2734C93.4844 82.4883 94.0508 82.8984 94.4805 83.5039C94.9297 84.1094 95.1543 84.7832 95.1543 85.5254C95.1543 86.0527 95.0371 86.5508 94.8027 87.0195C94.5879 87.4883 94.2754 87.8789 93.8652 88.1914C93.2207 88.4453 92.4199 88.6895 91.4629 88.9238C90.5645 88.8457 89.8223 88.4844 89.2363 87.8398ZM94.8906 76.3262C94.8906 74.0801 94.334 72.2637 93.2207 70.877C93.8262 70.5254 94.4805 70.3496 95.1836 70.3496C95.8867 70.3496 96.5312 70.5254 97.1172 70.877C97.7227 71.2285 98.1914 71.6973 98.5234 72.2832C98.875 72.8691 99.0508 73.5137 99.0508 74.2168C99.0508 74.9199 98.875 75.5742 98.5234 76.1797C98.1914 76.7656 97.7227 77.2344 97.1172 77.5859C96.5312 77.918 95.8867 78.084 95.1836 78.084C94.9883 78.084 94.8516 78.0742 94.7734 78.0547C94.8516 77.5859 94.8906 77.0098 94.8906 76.3262ZM95.1836 99.6758C94.8516 99.0703 94.6855 98.416 94.6855 97.7129C94.6855 97.0098 94.8516 96.3652 95.1836 95.7793C95.5352 95.1934 96.0039 94.7246 96.5898 94.373C97.1758 94.0215 97.8301 93.8457 98.5527 93.8457C99.2559 93.8457 99.9004 94.0215 100.486 94.373C101.092 94.7246 101.561 95.1934 101.893 95.7793C102.244 96.3652 102.42 97.0098 102.42 97.7129C102.42 98.416 102.244 99.0703 101.893 99.6758C101.561 100.262 101.092 100.73 100.486 101.082C99.9004 101.414 99.2559 101.58 98.5527 101.58C97.8301 101.58 97.1758 101.414 96.5898 101.082C96.0039 100.73 95.5352 100.262 95.1836 99.6758ZM109.48 102.547C108.797 101.844 108.455 100.984 108.455 99.9688C108.455 98.9531 108.797 98.0938 109.48 97.3906C110.184 96.6875 111.053 96.3359 112.088 96.3359C113.104 96.3359 113.963 96.6973 114.666 97.4199C115.369 98.123 115.721 98.9727 115.721 99.9688C115.721 100.965 115.369 101.824 114.666 102.547C113.963 103.25 113.104 103.602 112.088 103.602C111.053 103.602 110.184 103.25 109.48 102.547ZM119.881 94.5781C119.256 93.9531 118.943 93.1914 118.943 92.293C118.943 91.4141 119.256 90.6621 119.881 90.0371C120.506 89.4121 121.268 89.0996 122.166 89.0996C123.064 89.0996 123.826 89.4121 124.451 90.0371C125.076 90.6621 125.389 91.4141 125.389 92.293C125.389 93.1914 125.076 93.9531 124.451 94.5781C123.826 95.2031 123.064 95.5156 122.166 95.5156C121.268 95.5156 120.506 95.2031 119.881 94.5781ZM130.193 97.127C129.666 96.5996 129.402 95.9551 129.402 95.1934C129.402 94.4316 129.666 93.7871 130.193 93.2598C130.721 92.7129 131.365 92.4395 132.127 92.4395C132.889 92.4395 133.533 92.7129 134.061 93.2598C134.588 93.7871 134.852 94.4316 134.852 95.1934C134.852 95.9355 134.588 96.5801 134.061 97.127C133.533 97.6543 132.889 97.918 132.127 97.918C131.365 97.918 130.721 97.6543 130.193 97.127ZM132.947 103.484C132.713 103.23 132.596 102.938 132.596 102.605C132.596 102.254 132.713 101.961 132.947 101.727C133.201 101.473 133.504 101.346 133.855 101.346C134.207 101.346 134.5 101.473 134.734 101.727C134.988 101.961 135.115 102.254 135.115 102.605C135.115 102.938 134.988 103.23 134.734 103.484C134.5 103.738 134.207 103.865 133.855 103.865C133.504 103.865 133.201 103.738 132.947 103.484ZM107.518 107V74.1875H112.908V75.0371C112.693 74.7832 112.527 74.5 112.41 74.1875C112.352 73.9727 112.322 73.748 112.322 73.5137C112.322 72.8887 112.537 72.3613 112.967 71.9316C113.396 71.502 113.924 71.2871 114.549 71.2871C115.174 71.2871 115.701 71.502 116.131 71.9316C116.561 72.3613 116.775 72.8887 116.775 73.5137C116.775 74.1387 116.561 74.666 116.131 75.0957C115.701 75.5254 115.174 75.7402 114.549 75.7402C113.885 75.7402 113.338 75.5059 112.908 75.0371V84.6172C112.654 84.4023 112.449 84.1387 112.293 83.8262C112.156 83.5137 112.088 83.1816 112.088 82.8301C112.088 82.4785 112.156 82.1465 112.293 81.834C112.449 81.5215 112.654 81.2578 112.908 81.043C113.338 80.6523 113.865 80.457 114.49 80.457C115.135 80.457 115.691 80.6914 116.16 81.1602C116.629 81.6094 116.863 82.166 116.863 82.8301C116.863 83.4941 116.629 84.0605 116.16 84.5293C115.691 84.9785 115.135 85.2031 114.49 85.2031C113.865 85.2031 113.338 85.0078 112.908 84.6172V90.125C112.713 90.1836 112.488 90.2129 112.234 90.2129C111.492 90.2129 110.857 89.9492 110.33 89.4219C109.822 88.8945 109.568 88.2598 109.568 87.5176C109.568 86.7559 109.822 86.1211 110.33 85.6133C110.857 85.0859 111.492 84.8223 112.234 84.8223C112.488 84.8223 112.713 84.8516 112.908 84.9102C113.494 85.0664 113.973 85.3789 114.344 85.8477C114.734 86.3164 114.93 86.873 114.93 87.5176C114.93 88.1426 114.734 88.6992 114.344 89.1875C113.973 89.6562 113.494 89.9688 112.908 90.125V107H107.518ZM104.822 51.4824C104.275 50.7793 104.002 49.9785 104.002 49.0801C104.002 48.3574 104.178 47.7031 104.529 47.1172C104.881 46.5312 105.35 46.0723 105.936 45.7402C106.521 45.3887 107.166 45.2129 107.869 45.2129C108.572 45.2129 109.217 45.3887 109.803 45.7402C110.408 46.0723 110.877 46.5312 111.209 47.1172C111.561 47.7031 111.736 48.3574 111.736 49.0801C111.736 49.8613 111.521 50.5742 111.092 51.2188C110.76 51.7461 110.301 52.166 109.715 52.4785C109.148 52.791 108.533 52.9473 107.869 52.9473C107.518 52.9473 107.195 52.9082 106.902 52.8301C107.371 52.3027 107.928 51.9023 108.572 51.6289C109.217 51.3359 109.9 51.1895 110.623 51.1895C110.838 51.1895 110.994 51.1992 111.092 51.2188C111.932 51.2969 112.693 51.5605 113.377 52.0098C114.08 52.459 114.627 53.0449 115.018 53.7676C115.408 54.4902 115.604 55.291 115.604 56.1699C115.604 57.0879 115.379 57.9277 114.93 58.6895C114.48 59.4512 113.875 60.0566 113.113 60.5059C112.352 60.9355 111.521 61.1504 110.623 61.1504C109.744 61.1504 108.914 60.9355 108.133 60.5059C107.371 60.0566 106.766 59.4512 106.316 58.6895C105.867 57.9277 105.643 57.0879 105.643 56.1699C105.643 54.9199 106.062 53.8066 106.902 52.8301C106.062 52.6152 105.369 52.166 104.822 51.4824ZM110.828 68.2402H107.518V61.4141H112.908V68.2402H110.828C110.906 67.6738 111.131 67.1855 111.502 66.7754C111.893 66.3457 112.361 66.0723 112.908 65.9551C113.123 65.8965 113.338 65.8672 113.553 65.8672C114.314 65.8672 114.959 66.1309 115.486 66.6582C116.014 67.1855 116.277 67.8301 116.277 68.5918C116.277 69.3535 116.004 69.998 115.457 70.5254C114.93 71.0527 114.295 71.3164 113.553 71.3164C112.791 71.3164 112.137 71.0527 111.59 70.5254C111.062 69.998 110.799 69.3535 110.799 68.5918C110.799 68.4355 110.809 68.3184 110.828 68.2402ZM108.66 44.3926C108.309 43.7871 108.133 43.1328 108.133 42.4297C108.133 41.707 108.309 41.0527 108.66 40.4668C109.012 39.8809 109.48 39.4219 110.066 39.0898C110.652 38.7383 111.297 38.5625 112 38.5625C112.703 38.5625 113.348 38.7383 113.934 39.0898C114.539 39.4219 115.008 39.8809 115.34 40.4668C115.691 41.0527 115.867 41.707 115.867 42.4297C115.867 43.1328 115.691 43.7871 115.34 44.3926C115.008 44.9785 114.539 45.4473 113.934 45.7988C113.348 46.1309 112.703 46.2969 112 46.2969C111.297 46.2969 110.652 46.1309 110.066 45.7988C109.48 45.4473 109.012 44.9785 108.66 44.3926ZM115.867 80.1348C115.32 79.5879 115.047 78.9238 115.047 78.1426C115.047 77.3418 115.32 76.6777 115.867 76.1504C116.414 75.6035 117.078 75.3301 117.859 75.3301C118.641 75.3301 119.305 75.6035 119.852 76.1504C120.398 76.6777 120.672 77.3418 120.672 78.1426C120.672 78.9238 120.398 79.5879 119.852 80.1348C119.305 80.6816 118.641 80.9551 117.859 80.9551C117.098 80.9551 116.434 80.6816 115.867 80.1348ZM117.068 39.9688C116.6 39.5 116.365 38.9336 116.365 38.2695C116.365 37.6055 116.6 37.0488 117.068 36.5996C117.537 36.1309 118.104 35.8965 118.768 35.8965C119.412 35.8965 119.969 36.1309 120.438 36.5996C120.906 37.0488 121.141 37.6055 121.141 38.2695C121.141 38.9336 120.906 39.5 120.438 39.9688C119.969 40.418 119.412 40.6426 118.768 40.6426C118.104 40.6426 117.537 40.418 117.068 39.9688ZM117.42 10.0859C116.893 9.55859 116.629 8.91406 116.629 8.15234C116.629 7.39062 116.893 6.74609 117.42 6.21875C117.967 5.69141 118.621 5.42773 119.383 5.42773C120.145 5.42773 120.789 5.69141 121.316 6.21875C121.844 6.74609 122.107 7.39062 122.107 8.15234C122.107 8.91406 121.834 9.55859 121.287 10.0859C120.76 10.6133 120.125 10.877 119.383 10.877C118.621 10.877 117.967 10.6133 117.42 10.0859ZM118.533 3.02539C118.299 2.77148 118.182 2.46875 118.182 2.11719C118.182 1.76562 118.299 1.47266 118.533 1.23828C118.787 0.984375 119.09 0.857422 119.441 0.857422C119.773 0.857422 120.066 0.984375 120.32 1.23828C120.574 1.47266 120.701 1.76562 120.701 2.11719C120.701 2.46875 120.574 2.77148 120.32 3.02539C120.066 3.25977 119.773 3.37695 119.441 3.37695C119.09 3.37695 118.787 3.25977 118.533 3.02539ZM120.35 35.457C119.998 34.8516 119.822 34.1973 119.822 33.4941C119.822 32.7715 119.998 32.1172 120.35 31.5312C120.701 30.9453 121.17 30.4863 121.756 30.1543C122.342 29.8027 122.986 29.627 123.689 29.627C124.393 29.627 125.037 29.8027 125.623 30.1543C126.229 30.4863 126.697 30.9453 127.029 31.5312C127.381 32.1172 127.557 32.7715 127.557 33.4941C127.557 34.1973 127.381 34.8516 127.029 35.457C126.697 36.043 126.229 36.5117 125.623 36.8633C125.037 37.1953 124.393 37.3613 123.689 37.3613C122.986 37.3613 122.342 37.1953 121.756 36.8633C121.17 36.5117 120.701 36.043 120.35 35.457ZM122.928 16.0918C122.244 15.4082 121.902 14.5684 121.902 13.5723C121.902 12.5762 122.244 11.7363 122.928 11.0527C123.631 10.3691 124.471 10.0273 125.447 10.0273C126.443 10.0273 127.283 10.3691 127.967 11.0527C128.65 11.7363 128.992 12.5762 128.992 13.5723C128.992 14.5684 128.641 15.4082 127.938 16.0918C127.254 16.7754 126.424 17.1172 125.447 17.1172C124.471 17.1172 123.631 16.7754 122.928 16.0918ZM122.84 25.0566C122.449 24.373 122.254 23.6211 122.254 22.8008C122.254 21.9609 122.449 21.209 122.84 20.5449C123.25 19.8613 123.797 19.3242 124.48 18.9336C125.164 18.543 125.906 18.3477 126.707 18.3477C127.527 18.3477 128.279 18.543 128.963 18.9336C129.646 19.3242 130.184 19.8613 130.574 20.5449C130.984 21.209 131.189 21.9609 131.189 22.8008C131.189 23.6211 130.984 24.373 130.574 25.0566C130.184 25.7402 129.646 26.2773 128.963 26.668C128.279 27.0586 127.527 27.2539 126.707 27.2539C125.906 27.2539 125.164 27.0586 124.48 26.668C123.797 26.2578 123.25 25.7207 122.84 25.0566ZM145.135 74.1875H151.492L139.627 90.1543L152.107 107H145.75L144.783 105.682C145.174 105.604 145.486 105.564 145.721 105.564C146.287 105.564 146.814 105.691 147.303 105.945C147.791 106.199 148.191 106.551 148.504 107C148.914 107.605 149.119 108.26 149.119 108.963C149.119 109.9 148.787 110.701 148.123 111.365C147.459 112.029 146.658 112.361 145.721 112.361C144.783 112.361 143.982 112.029 143.318 111.365C142.654 110.721 142.322 109.92 142.322 108.963C142.322 108.162 142.547 107.469 142.996 106.883C143.465 106.297 144.061 105.896 144.783 105.682L136.199 94.1094L126.648 107H120.291L133.035 89.832L121.375 74.1875H127.732L128.963 75.8281C128.787 76.7656 128.328 77.5469 127.586 78.1719C126.844 78.7773 125.994 79.0898 125.037 79.1094H125.008C124.285 79.1094 123.611 78.9336 122.986 78.582C122.381 78.2305 121.893 77.752 121.521 77.1465C121.17 76.5215 120.994 75.8379 120.994 75.0957C120.994 74.3535 121.17 73.6797 121.521 73.0742C121.893 72.4492 122.381 71.9609 122.986 71.6094C123.592 71.2578 124.266 71.082 125.008 71.082C125.73 71.082 126.395 71.2578 127 71.6094C127.625 71.9609 128.113 72.4492 128.465 73.0742C128.836 73.6797 129.021 74.3535 129.021 75.0957C129.021 75.2715 129.002 75.5156 128.963 75.8281L136.434 85.877L138.25 83.4453C138.426 83.9141 138.514 84.4023 138.514 84.9102C138.514 85.6133 138.338 86.2676 137.986 86.873C137.635 87.459 137.166 87.9277 136.58 88.2793C135.994 88.6113 135.35 88.7773 134.646 88.7773C133.943 88.7773 133.289 88.6113 132.684 88.2793C132.098 87.9277 131.629 87.459 131.277 86.873C130.945 86.2676 130.779 85.6133 130.779 84.9102C130.779 84.1094 130.984 83.3965 131.395 82.7715C131.824 82.127 132.381 81.6582 133.064 81.3652C133.592 81.1504 134.119 81.043 134.646 81.043C135.447 81.043 136.17 81.2676 136.814 81.7168C137.479 82.1465 137.957 82.7227 138.25 83.4453L145.135 74.1875ZM78.4551 24.7637C77.7129 24.0215 77.3418 23.123 77.3418 22.0684C77.3418 20.9941 77.7129 20.0957 78.4551 19.373C79.1777 18.6504 80.0664 18.2891 81.1211 18.2891C81.8047 18.2891 82.4297 18.4551 82.9961 18.7871C83.5625 19.1191 84.0215 19.5781 84.373 20.1641C84.7051 20.7305 84.8711 21.3652 84.8711 22.0684C84.8711 22.752 84.7051 23.3867 84.373 23.9727C84.0215 24.5586 83.5625 25.0176 82.9961 25.3496C82.4297 25.6816 81.8047 25.8477 81.1211 25.8477C80.0664 25.8477 79.1777 25.4863 78.4551 24.7637ZM80.8574 12.4297C80.3105 11.9023 80.0371 11.2578 80.0371 10.4961C80.0371 9.73438 80.3008 9.08984 80.8281 8.5625C81.3555 8.03516 82 7.77148 82.7617 7.77148C83.5234 7.77148 84.1777 8.03516 84.7246 8.5625C85.252 9.08984 85.5156 9.73438 85.5156 10.4961C85.5156 11.2578 85.252 11.9023 84.7246 12.4297C84.1777 12.957 83.5234 13.2207 82.7617 13.2207C82.0195 13.2207 81.3848 12.957 80.8574 12.4297ZM82.1758 37.9473C81.7656 37.2637 81.5605 36.5117 81.5605 35.6914C81.5605 34.8516 81.7656 34.0996 82.1758 33.4355C82.5664 32.752 83.1035 32.2148 83.7871 31.8242C84.4707 31.4336 85.2227 31.2383 86.043 31.2383C86.8438 31.2383 87.5859 31.4336 88.2695 31.8242C88.9531 32.2148 89.5 32.752 89.9102 33.4355C90.3008 34.0996 90.4961 34.8516 90.4961 35.6914C90.4961 36.5117 90.3008 37.2637 89.9102 37.9473C89.5 38.6113 88.9531 39.1484 88.2695 39.5586C87.5859 39.9492 86.8438 40.1445 86.043 40.1445C85.2227 40.1445 84.4707 39.9492 83.7871 39.5586C83.1035 39.168 82.5664 38.6309 82.1758 37.9473ZM84.9004 4.19727C84.6465 3.94336 84.5195 3.64062 84.5195 3.28906C84.5195 2.9375 84.6465 2.64453 84.9004 2.41016C85.1543 2.15625 85.4473 2.0293 85.7793 2.0293C86.1309 2.0293 86.4336 2.15625 86.6875 2.41016C86.9219 2.64453 87.0391 2.9375 87.0391 3.28906C87.0391 3.64062 86.9219 3.94336 86.6875 4.19727C86.4336 4.43164 86.1309 4.54883 85.7793 4.54883C85.4473 4.54883 85.1543 4.43164 84.9004 4.19727ZM94.4805 42.6348C94.1289 42.0293 93.9531 41.375 93.9531 40.6719C93.9531 39.9492 94.1289 39.2949 94.4805 38.709C94.8125 38.123 95.2812 37.6641 95.8867 37.332C96.4727 36.9805 97.1172 36.8047 97.8203 36.8047C98.5234 36.8047 99.168 36.9805 99.7539 37.332C100.34 37.6641 100.809 38.123 101.16 38.709C101.512 39.2949 101.688 39.9492 101.688 40.6719C101.688 41.375 101.512 42.0293 101.16 42.6348C100.809 43.2207 100.34 43.6895 99.7539 44.041C99.168 44.373 98.5234 44.5391 97.8203 44.5391C97.1172 44.5391 96.4727 44.373 95.8867 44.041C95.2812 43.6895 94.8125 43.2207 94.4805 42.6348ZM95.8281 108.846C95.5742 108.611 95.4473 108.318 95.4473 107.967C95.4473 107.615 95.5742 107.312 95.8281 107.059C96.082 106.824 96.375 106.707 96.707 106.707C97.0586 106.707 97.3613 106.824 97.6152 107.059C97.8496 107.312 97.9668 107.615 97.9668 107.967C97.9668 108.318 97.8496 108.611 97.6152 108.846C97.3613 109.1 97.0586 109.227 96.707 109.227C96.375 109.227 96.082 109.1 95.8281 108.846ZM102.127 105.77C101.58 105.242 101.307 104.598 101.307 103.836C101.307 103.074 101.57 102.43 102.098 101.902C102.625 101.375 103.27 101.111 104.031 101.111C104.793 101.111 105.447 101.375 105.994 101.902C106.521 102.43 106.785 103.074 106.785 103.836C106.785 104.598 106.521 105.242 105.994 105.77C105.447 106.297 104.793 106.561 104.031 106.561C103.289 106.561 102.654 106.297 102.127 105.77ZM103.914 47.2051C103.25 46.541 102.918 45.7305 102.918 44.7734C102.918 43.8164 103.25 43.0156 103.914 42.3711C104.578 41.707 105.379 41.375 106.316 41.375C107.254 41.375 108.055 41.707 108.719 42.3711C109.383 43.0156 109.715 43.8164 109.715 44.7734C109.715 45.7109 109.383 46.5117 108.719 47.1758C108.055 47.8398 107.254 48.1719 106.316 48.1719C105.379 48.1719 104.578 47.8496 103.914 47.2051ZM110.594 54.9395C110.242 54.334 110.066 53.6797 110.066 52.9766C110.066 52.2539 110.242 51.5996 110.594 51.0137C110.926 50.4277 111.395 49.9688 112 49.6367C112.586 49.2852 113.23 49.1094 113.934 49.1094C114.637 49.1094 115.281 49.2852 115.867 49.6367C116.453 49.9688 116.922 50.4277 117.273 51.0137C117.625 51.5996 117.801 52.2539 117.801 52.9766C117.801 53.6797 117.625 54.334 117.273 54.9395C116.922 55.5254 116.453 55.9941 115.867 56.3457C115.281 56.6777 114.637 56.8438 113.934 56.8438C113.23 56.8438 112.586 56.6777 112 56.3457C111.395 55.9941 110.926 55.5254 110.594 54.9395ZM111.355 68.3574C111.004 67.752 110.828 67.0977 110.828 66.3945C110.828 65.6719 111.004 65.0176 111.355 64.4316C111.688 63.8457 112.156 63.3867 112.762 63.0547C113.348 62.7031 113.992 62.5273 114.695 62.5273C115.398 62.5273 116.043 62.7031 116.629 63.0547C117.215 63.3867 117.684 63.8457 118.035 64.4316C118.387 65.0176 118.562 65.6719 118.562 66.3945C118.562 67.0977 118.387 67.752 118.035 68.3574C117.684 68.9434 117.215 69.4121 116.629 69.7637C116.043 70.0957 115.398 70.2617 114.695 70.2617C113.992 70.2617 113.348 70.0957 112.762 69.7637C112.156 69.4121 111.688 68.9434 111.355 68.3574ZM111.736 109.666C111.15 109.08 110.857 108.357 110.857 107.498C110.857 106.639 111.15 105.916 111.736 105.33C112.322 104.744 113.045 104.451 113.904 104.451C114.744 104.451 115.467 104.744 116.072 105.33C116.658 105.916 116.951 106.639 116.951 107.498C116.951 108.338 116.648 109.051 116.043 109.637C115.438 110.242 114.725 110.545 113.904 110.545C113.045 110.545 112.322 110.252 111.736 109.666ZM118.826 118.66C118.182 118.016 117.859 117.225 117.859 116.287C117.859 115.35 118.182 114.559 118.826 113.914C119.471 113.27 120.262 112.947 121.199 112.947C122.117 112.947 122.898 113.27 123.543 113.914C124.207 114.559 124.539 115.35 124.539 116.287C124.539 117.225 124.207 118.016 123.543 118.66C122.898 119.305 122.117 119.627 121.199 119.627C120.281 119.627 119.49 119.305 118.826 118.66ZM130.516 115.174C130.184 114.588 130.018 113.943 130.018 113.24C130.018 112.518 130.184 111.863 130.516 111.277C130.867 110.691 131.336 110.223 131.922 109.871C132.527 109.539 133.182 109.373 133.885 109.373C134.588 109.373 135.232 109.539 135.818 109.871C136.404 110.223 136.873 110.691 137.225 111.277C137.576 111.863 137.752 112.518 137.752 113.24C137.752 113.943 137.576 114.588 137.225 115.174C136.873 115.779 136.404 116.248 135.818 116.58C135.232 116.932 134.588 117.107 133.885 117.107C133.182 117.107 132.527 116.932 131.922 116.58C131.336 116.248 130.867 115.779 130.516 115.174ZM145.604 88.1035C145.271 87.498 145.105 86.8438 145.105 86.1406C145.105 85.418 145.271 84.7637 145.604 84.1777C145.955 83.5918 146.424 83.1328 147.01 82.8008C147.615 82.4492 148.27 82.2734 148.973 82.2734C149.676 82.2734 150.32 82.4492 150.906 82.8008C151.492 83.1328 151.961 83.5918 152.312 84.1777C152.664 84.7637 152.84 85.418 152.84 86.1406C152.84 86.8438 152.664 87.498 152.312 88.1035C151.961 88.6895 151.492 89.1582 150.906 89.5098C150.32 89.8418 149.676 90.0078 148.973 90.0078C148.27 90.0078 147.615 89.8418 147.01 89.5098C146.424 89.1582 145.955 88.6895 145.604 88.1035ZM150.203 101.697C149.539 101.033 149.207 100.223 149.207 99.2656C149.207 98.3086 149.539 97.5078 150.203 96.8633C150.867 96.1992 151.668 95.8672 152.605 95.8672C153.543 95.8672 154.344 96.1992 155.008 96.8633C155.672 97.5078 156.004 98.3086 156.004 99.2656C156.004 100.203 155.672 101.004 155.008 101.668C154.344 102.332 153.543 102.664 152.605 102.664C151.668 102.664 150.867 102.342 150.203 101.697ZM184.158 80.8379C185.33 83.2207 185.916 86.0234 185.916 89.2461V91.8828H175.076C175.35 91.1406 175.818 90.5352 176.482 90.0664C177.146 89.5977 177.889 89.3633 178.709 89.3633C179.529 89.3633 180.271 89.5977 180.936 90.0664C181.6 90.5156 182.068 91.1211 182.342 91.8828C182.498 92.3125 182.576 92.7617 182.576 93.2305C182.576 93.9531 182.4 94.6074 182.049 95.1934C181.717 95.7793 181.248 96.248 180.643 96.5996C180.057 96.9316 179.412 97.0977 178.709 97.0977C178.006 97.0977 177.361 96.9316 176.775 96.5996C176.189 96.248 175.721 95.7793 175.369 95.1934C175.018 94.6074 174.842 93.9531 174.842 93.2305C174.842 92.7617 174.92 92.3125 175.076 91.8828H161.131C161.365 95.5938 162.479 98.4258 164.471 100.379C166.482 102.312 169.275 103.279 172.85 103.279C176.873 103.279 180.809 102.264 184.656 100.232V105.33C182.898 106.072 181.189 106.639 179.529 107.029C178.416 107.303 177.195 107.518 175.867 107.674C176.648 107.166 177.518 106.912 178.475 106.912C178.865 106.912 179.217 106.951 179.529 107.029C180.662 107.264 181.6 107.83 182.342 108.729C183.084 109.627 183.455 110.682 183.455 111.893C183.455 112.771 183.26 113.572 182.869 114.295C182.479 115.018 181.932 115.604 181.229 116.053C180.545 116.502 179.783 116.766 178.943 116.844C178.846 116.863 178.689 116.873 178.475 116.873C177.752 116.873 177.068 116.727 176.424 116.434C175.779 116.16 175.223 115.76 174.754 115.232C175.047 115.154 175.369 115.115 175.721 115.115C176.385 115.115 177 115.271 177.566 115.584C178.152 115.896 178.611 116.316 178.943 116.844C179.373 117.488 179.588 118.201 179.588 118.982C179.588 119.705 179.412 120.359 179.061 120.945C178.729 121.531 178.26 121.99 177.654 122.322C177.068 122.674 176.424 122.85 175.721 122.85C175.018 122.85 174.373 122.674 173.787 122.322C173.201 121.99 172.732 121.531 172.381 120.945C172.029 120.359 171.854 119.705 171.854 118.982C171.854 118.084 172.127 117.283 172.674 116.58C173.221 115.896 173.914 115.447 174.754 115.232C173.914 114.256 173.494 113.143 173.494 111.893C173.494 111.014 173.709 110.203 174.139 109.461C174.568 108.719 175.145 108.123 175.867 107.674C174.754 107.791 173.641 107.85 172.527 107.85C169.07 107.85 166.062 107.166 163.504 105.799C160.945 104.412 158.973 102.449 157.586 99.9102C156.199 97.3516 155.506 94.3535 155.506 90.916C155.506 88.7285 155.76 86.707 156.268 84.8516C156.678 83.3281 157.254 81.9219 157.996 80.6328C158.367 80.8281 158.66 81.1016 158.875 81.4531C159.109 81.8047 159.227 82.2051 159.227 82.6543C159.227 83.2988 159.002 83.8457 158.553 84.2949C158.104 84.7246 157.566 84.9395 156.941 84.9395C156.707 84.9395 156.482 84.9102 156.268 84.8516C155.799 84.6953 155.408 84.4219 155.096 84.0312C154.803 83.6211 154.656 83.1621 154.656 82.6543C154.656 82.0098 154.881 81.4727 155.33 81.043C155.779 80.5938 156.316 80.3691 156.941 80.3691C157.352 80.3691 157.703 80.457 157.996 80.6328C158.582 79.6367 159.295 78.6992 160.135 77.8203C161.697 76.2188 163.553 75.0566 165.701 74.334C166.092 74.6465 166.395 75.0371 166.609 75.5059C166.824 75.9746 166.932 76.4727 166.932 77C166.932 77.8984 166.648 78.6602 166.082 79.2852C165.535 79.6367 165.096 79.9492 164.764 80.2227C164.334 80.3789 163.914 80.457 163.504 80.457C162.684 80.457 161.961 80.2129 161.336 79.7246C160.73 79.2363 160.33 78.6016 160.135 77.8203C160.076 77.5469 160.047 77.2734 160.047 77C160.047 76.043 160.379 75.2324 161.043 74.5684C161.727 73.8848 162.547 73.543 163.504 73.543C164.344 73.543 165.076 73.8066 165.701 74.334C167.479 73.709 169.441 73.3965 171.59 73.3965C174.5 73.3965 177.029 74.041 179.178 75.3301C181.346 76.6191 183.006 78.4551 184.158 80.8379ZM143.816 90.0957C143.562 89.8418 143.436 89.5391 143.436 89.1875C143.436 88.8359 143.562 88.543 143.816 88.3086C144.051 88.0547 144.344 87.9277 144.695 87.9277C145.027 87.9277 145.32 88.0547 145.574 88.3086C145.828 88.543 145.955 88.8359 145.955 89.1875C145.955 89.5391 145.828 89.8418 145.574 90.0957C145.32 90.3301 145.027 90.4473 144.695 90.4473C144.344 90.4473 144.051 90.3301 143.816 90.0957ZM148.885 88.8359C148.338 88.3086 148.064 87.6641 148.064 86.9023C148.064 86.1406 148.338 85.4961 148.885 84.9688C149.412 84.4414 150.057 84.1777 150.818 84.1777C151.561 84.1777 152.195 84.4414 152.723 84.9688C153.27 85.4961 153.543 86.1406 153.543 86.9023C153.543 87.6641 153.279 88.3086 152.752 88.8359C152.225 89.3633 151.58 89.627 150.818 89.627C150.057 89.627 149.412 89.3633 148.885 88.8359ZM164.764 80.2227C162.752 81.9414 161.6 84.4316 161.307 87.6934L180.32 87.6641C180.125 87.9961 179.842 88.2598 179.471 88.4551C179.119 88.6504 178.738 88.748 178.328 88.748C177.898 88.748 177.508 88.6504 177.156 88.4551C176.805 88.2598 176.521 87.9961 176.307 87.6641C176.053 87.2734 175.926 86.8438 175.926 86.375C175.926 85.7109 176.16 85.1543 176.629 84.7051C177.098 84.2363 177.664 84.002 178.328 84.002C178.699 84.002 179.051 84.0801 179.383 84.2363C179.715 84.3926 179.988 84.6172 180.203 84.9102C180.535 85.3398 180.701 85.8281 180.701 86.375C180.701 86.707 180.643 87.0195 180.525 87.3125C180.506 86.5312 180.398 85.7305 180.203 84.9102C179.715 82.7617 178.719 81.0723 177.215 79.8418C175.711 78.5918 173.855 77.9668 171.648 77.9668C169.539 77.9668 167.684 78.4062 166.082 79.2852C165.73 79.6953 165.291 80.0078 164.764 80.2227ZM165.818 100.584C165.467 99.998 165.291 99.3438 165.291 98.6211C165.291 97.918 165.467 97.2734 165.818 96.6875C166.17 96.082 166.639 95.6133 167.225 95.2812C167.811 94.9297 168.455 94.7539 169.158 94.7539C169.861 94.7539 170.506 94.9297 171.092 95.2812C171.697 95.6133 172.166 96.082 172.498 96.6875C172.85 97.2734 173.025 97.918 173.025 98.6211C173.025 99.3438 172.85 99.998 172.498 100.584C172.166 101.17 171.697 101.639 171.092 101.99C170.506 102.322 169.861 102.488 169.158 102.488C168.455 102.488 167.811 102.322 167.225 101.99C166.639 101.639 166.17 101.17 165.818 100.584ZM170.418 84.2949C169.812 83.6895 169.51 82.9473 169.51 82.0684C169.51 81.1895 169.812 80.4473 170.418 79.8418C171.043 79.2363 171.785 78.9336 172.645 78.9336C173.504 78.9336 174.236 79.2363 174.842 79.8418C175.447 80.4473 175.75 81.1895 175.75 82.0684C175.75 82.9473 175.447 83.6895 174.842 84.2949C174.256 84.9004 173.523 85.2031 172.645 85.2031C171.785 85.2031 171.043 84.9004 170.418 84.2949ZM176.512 127.596C176.16 127.01 175.984 126.355 175.984 125.633C175.984 124.93 176.16 124.275 176.512 123.67C176.863 123.084 177.332 122.615 177.918 122.264C178.504 121.932 179.148 121.766 179.852 121.766C180.555 121.766 181.199 121.932 181.785 122.264C182.391 122.615 182.859 123.084 183.191 123.67C183.543 124.275 183.719 124.93 183.719 125.633C183.719 126.355 183.543 127.01 183.191 127.596C182.859 128.182 182.391 128.641 181.785 128.973C181.199 129.324 180.555 129.5 179.852 129.5C179.148 129.5 178.504 129.324 177.918 128.973C177.332 128.641 176.863 128.182 176.512 127.596ZM180.525 87.3125C180.447 87.4688 180.379 87.5859 180.32 87.6641H180.525V87.3125ZM185.125 131.463C184.656 131.014 184.422 130.457 184.422 129.793C184.422 129.129 184.656 128.562 185.125 128.094C185.594 127.645 186.16 127.42 186.824 127.42C187.469 127.42 188.025 127.645 188.494 128.094C188.963 128.562 189.197 129.129 189.197 129.793C189.197 130.457 188.963 131.014 188.494 131.463C188.025 131.932 187.469 132.166 186.824 132.166C186.16 132.166 185.594 131.932 185.125 131.463ZM185.184 166.15C184.949 165.916 184.832 165.623 184.832 165.271C184.832 164.92 184.949 164.617 185.184 164.363C185.438 164.129 185.74 164.012 186.092 164.012C186.424 164.012 186.717 164.129 186.971 164.363C187.225 164.617 187.352 164.92 187.352 165.271C187.352 165.623 187.225 165.916 186.971 166.15C186.717 166.404 186.424 166.531 186.092 166.531C185.74 166.531 185.438 166.404 185.184 166.15ZM191.072 162.635C190.545 162.107 190.281 161.463 190.281 160.701C190.281 159.939 190.545 159.295 191.072 158.768C191.619 158.24 192.273 157.977 193.035 157.977C193.777 157.977 194.412 158.24 194.939 158.768C195.486 159.295 195.76 159.939 195.76 160.701C195.76 161.463 195.496 162.107 194.969 162.635C194.441 163.162 193.797 163.426 193.035 163.426C192.273 163.426 191.619 163.162 191.072 162.635ZM193.504 137.645C193.152 137.059 192.977 136.404 192.977 135.682C192.977 134.979 193.152 134.324 193.504 133.719C193.855 133.133 194.324 132.664 194.91 132.312C195.496 131.98 196.141 131.814 196.844 131.814C197.547 131.814 198.191 131.98 198.777 132.312C199.383 132.664 199.852 133.133 200.184 133.719C200.535 134.324 200.711 134.979 200.711 135.682C200.711 136.404 200.535 137.059 200.184 137.645C199.852 138.23 199.383 138.689 198.777 139.021C198.191 139.373 197.547 139.549 196.844 139.549C196.141 139.549 195.496 139.373 194.91 139.021C194.324 138.689 193.855 138.23 193.504 137.645ZM196.756 148.133C196.365 147.469 196.17 146.717 196.17 145.877C196.17 145.057 196.365 144.305 196.756 143.621C197.166 142.957 197.713 142.42 198.396 142.01C199.08 141.619 199.822 141.424 200.623 141.424C201.443 141.424 202.195 141.619 202.879 142.01C203.562 142.4 204.1 142.938 204.49 143.621C204.9 144.305 205.105 145.057 205.105 145.877C205.105 146.717 204.9 147.469 204.49 148.133C204.1 148.816 203.562 149.354 202.879 149.744C202.195 150.135 201.443 150.33 200.623 150.33C199.822 150.33 199.08 150.135 198.396 149.744C197.713 149.354 197.166 148.816 196.756 148.133ZM197.078 157.361C196.629 156.932 196.404 156.395 196.404 155.75C196.404 155.105 196.629 154.559 197.078 154.109C197.527 153.68 198.064 153.465 198.689 153.465C199.314 153.465 199.852 153.68 200.301 154.109C200.75 154.559 200.975 155.105 200.975 155.75C200.975 156.395 200.75 156.932 200.301 157.361C199.852 157.811 199.314 158.035 198.689 158.035C198.064 158.035 197.527 157.811 197.078 157.361ZM194.764 69.5V61.4141H200.154V72.1074C199.9 72.5762 199.539 72.957 199.07 73.25C198.602 73.5234 198.084 73.6602 197.518 73.6602C196.912 73.6602 196.355 73.4941 195.848 73.1621C195.359 72.8301 194.998 72.3906 194.764 71.8438V69.5C194.998 68.9531 195.359 68.5137 195.848 68.1816C196.355 67.8496 196.912 67.6836 197.518 67.6836C198.084 67.6836 198.602 67.8301 199.07 68.123C199.539 68.416 199.9 68.7969 200.154 69.2656C200.389 69.6758 200.506 70.1445 200.506 70.6719C200.506 71.1797 200.389 71.6582 200.154 72.1074V90.418C199.686 90.2617 199.305 89.9785 199.012 89.5684C198.719 89.1582 198.572 88.6992 198.572 88.1914C198.572 87.6836 198.719 87.2246 199.012 86.8145C199.305 86.4043 199.686 86.1211 200.154 85.9648C200.447 85.8672 200.721 85.8184 200.975 85.8184C201.619 85.8184 202.176 86.0527 202.645 86.5215C203.113 86.9707 203.348 87.5273 203.348 88.1914C203.348 88.8555 203.113 89.4219 202.645 89.8906C202.176 90.3398 201.619 90.5645 200.975 90.5645C200.721 90.5645 200.447 90.5156 200.154 90.418V107H195.379C195.516 106.238 195.877 105.604 196.463 105.096C197.068 104.588 197.762 104.334 198.543 104.334C199.148 104.334 199.686 104.48 200.154 104.773C200.643 105.047 201.023 105.428 201.297 105.916C201.59 106.404 201.736 106.941 201.736 107.527C201.736 108.426 201.424 109.178 200.799 109.783C200.174 110.408 199.422 110.721 198.543 110.721C197.664 110.721 196.912 110.408 196.287 109.783C195.662 109.178 195.35 108.426 195.35 107.527L195.379 107H194.764V76.3848C195.037 76.3262 195.301 76.2969 195.555 76.2969C196.473 76.2969 197.254 76.6191 197.898 77.2637C198.543 77.8887 198.865 78.6699 198.865 79.6074C198.865 80.5449 198.543 81.3359 197.898 81.9805C197.254 82.6055 196.473 82.918 195.555 82.918C195.301 82.918 195.037 82.8887 194.764 82.8301C194.041 82.6543 193.436 82.2734 192.947 81.6875C192.479 81.082 192.244 80.3887 192.244 79.6074C192.244 78.8262 192.479 78.1426 192.947 77.5566C193.436 76.9512 194.041 76.5605 194.764 76.3848V71.8438C194.607 71.4727 194.529 71.082 194.529 70.6719C194.529 70.2617 194.607 69.8711 194.764 69.5ZM181.785 109.871C181.238 109.344 180.965 108.699 180.965 107.938C180.965 107.176 181.238 106.531 181.785 106.004C182.312 105.477 182.957 105.213 183.719 105.213C184.461 105.213 185.105 105.477 185.652 106.004C186.18 106.531 186.443 107.176 186.443 107.938C186.443 108.699 186.18 109.344 185.652 109.871C185.125 110.398 184.48 110.662 183.719 110.662C182.957 110.662 182.312 110.398 181.785 109.871ZM181.785 102.107C181.629 101.951 181.551 101.766 181.551 101.551C181.551 101.336 181.629 101.15 181.785 100.994C181.941 100.838 182.127 100.76 182.342 100.76C182.557 100.76 182.742 100.838 182.898 100.994C183.035 101.15 183.104 101.336 183.104 101.551C183.104 101.766 183.035 101.951 182.898 102.107C182.742 102.264 182.557 102.342 182.342 102.342C182.127 102.342 181.941 102.264 181.785 102.107ZM188.553 112.068C188.104 111.639 187.879 111.102 187.879 110.457C187.879 109.812 188.104 109.266 188.553 108.816C189.002 108.387 189.539 108.172 190.164 108.172C190.789 108.172 191.326 108.387 191.775 108.816C192.225 109.266 192.449 109.812 192.449 110.457C192.449 111.102 192.225 111.639 191.775 112.068C191.326 112.518 190.789 112.742 190.164 112.742C189.539 112.742 189.002 112.518 188.553 112.068ZM201.033 100.291C200.682 99.7051 200.506 99.0508 200.506 98.3281C200.506 97.625 200.682 96.9805 201.033 96.3945C201.385 95.7891 201.854 95.3203 202.439 94.9883C203.025 94.6367 203.67 94.4609 204.373 94.4609C205.076 94.4609 205.721 94.6367 206.307 94.9883C206.912 95.3203 207.381 95.7891 207.713 96.3945C208.064 96.9805 208.24 97.625 208.24 98.3281C208.24 99.0508 208.064 99.7051 207.713 100.291C207.381 100.877 206.912 101.346 206.307 101.697C205.721 102.029 205.076 102.195 204.373 102.195C203.67 102.195 203.025 102.029 202.439 101.697C201.854 101.346 201.385 100.877 201.033 100.291ZM201.209 63.582C200.857 62.9766 200.682 62.3027 200.682 61.5605C200.682 60.8379 200.857 60.1738 201.209 59.5684C201.58 58.9629 202.068 58.4844 202.674 58.1328C203.279 57.7812 203.943 57.6055 204.666 57.6055C205.506 57.6055 206.238 57.8301 206.863 58.2793C207.41 58.6309 207.84 59.0996 208.152 59.6855C208.465 60.252 208.621 60.877 208.621 61.5605C208.621 61.7949 208.611 61.9707 208.592 62.0879C208.045 61.6387 207.615 61.1016 207.303 60.4766C207.01 59.832 206.863 59.1387 206.863 58.3965V58.2793C206.883 57.4199 207.107 56.6387 207.537 55.9355C207.967 55.2324 208.543 54.6758 209.266 54.2656C209.988 53.8555 210.77 53.6504 211.609 53.6504C212.469 53.6504 213.26 53.8652 213.982 54.2949C214.725 54.7051 215.311 55.2715 215.74 55.9941C216.17 56.7168 216.385 57.5176 216.385 58.3965C216.385 58.6113 216.375 58.7676 216.355 58.8652C216.277 59.7246 215.994 60.4961 215.506 61.1797C215.525 60.3398 215.809 59.5684 216.355 58.8652C216.727 58.416 217.176 58.0645 217.703 57.8105C218.23 57.5566 218.787 57.4297 219.373 57.4297C220.35 57.4297 221.199 57.7422 221.922 58.3672C222.371 58.7578 222.723 59.2656 222.977 59.8906C222.391 59.5 222.039 58.9922 221.922 58.3672C221.883 58.1719 221.863 58.0059 221.863 57.8691C221.863 57.2051 222.098 56.6484 222.566 56.1992C223.035 55.7305 223.602 55.4961 224.266 55.4961C224.734 55.4961 225.145 55.6133 225.496 55.8477C225.848 56.0625 226.121 56.3457 226.316 56.6973C226.531 57.0488 226.639 57.4395 226.639 57.8691C226.639 58.1426 226.59 58.4258 226.492 58.7188C225.828 57.9961 225.496 57.1367 225.496 56.1406V55.8477C225.594 54.832 226.004 53.9824 226.727 53.2988C227.469 52.6152 228.348 52.2734 229.363 52.2734H229.539C230.184 52.293 230.818 52.4883 231.443 52.8594C230.838 52.8398 230.203 52.6445 229.539 52.2734C228.875 51.8828 228.348 51.3555 227.957 50.6914C227.566 50.0078 227.371 49.2559 227.371 48.4355C227.371 47.3418 227.713 46.3945 228.396 45.5938C228.982 44.8906 229.686 44.4219 230.506 44.1875C230.35 44.5977 230.076 44.9395 229.686 45.2129C229.295 45.4668 228.865 45.5938 228.396 45.5938C227.771 45.5938 227.234 45.3789 226.785 44.9492C226.336 44.5 226.111 43.9531 226.111 43.3086C226.111 43.0547 226.16 42.7812 226.258 42.4883C226.434 42.0391 226.707 41.6875 227.078 41.4336C227.469 41.1602 227.908 41.0234 228.396 41.0234H228.631C228.396 41.4727 228.064 41.8242 227.635 42.0781C227.225 42.332 226.766 42.4688 226.258 42.4883H226.199C225.438 42.4883 224.783 42.2246 224.236 41.6973C223.709 41.1699 223.445 40.5254 223.445 39.7637C223.445 39.002 223.709 38.3574 224.236 37.8301C224.783 37.3027 225.438 37.0391 226.199 37.0391C226.941 37.0391 227.576 37.3027 228.104 37.8301C228.65 38.3574 228.924 39.002 228.924 39.7637C228.924 40.2129 228.826 40.6328 228.631 41.0234C229.217 41.082 229.705 41.3359 230.096 41.7852C230.486 42.2148 230.682 42.7227 230.682 43.3086C230.682 43.6211 230.623 43.9141 230.506 44.1875C230.896 44.0508 231.336 43.9824 231.824 43.9824C232.645 43.9824 233.396 44.1777 234.08 44.5684C234.764 44.959 235.301 45.4961 235.691 46.1797C236.102 46.8633 236.307 47.6152 236.307 48.4355C236.307 49.2754 236.102 50.0371 235.691 50.7207C235.301 51.3848 234.764 51.9121 234.08 52.3027C233.396 52.6934 232.645 52.8887 231.824 52.8887C231.648 52.8887 231.521 52.8789 231.443 52.8594C231.99 53.2109 232.42 53.6797 232.732 54.2656C233.064 54.832 233.23 55.457 233.23 56.1406C233.23 56.8633 233.055 57.5176 232.703 58.1035C232.371 58.6895 231.902 59.1582 231.297 59.5098C230.711 59.8418 230.066 60.0078 229.363 60.0078C228.797 60.0078 228.26 59.9004 227.752 59.6855C227.264 59.4512 226.844 59.1289 226.492 58.7188C226.316 59.168 226.023 59.5391 225.613 59.832C225.203 60.1055 224.754 60.2422 224.266 60.2422C223.797 60.2422 223.367 60.125 222.977 59.8906C223.152 60.3203 223.24 60.7891 223.24 61.2969C223.24 62.0195 223.064 62.6738 222.713 63.2598C222.381 63.8457 221.912 64.3145 221.307 64.666C220.721 64.998 220.076 65.1641 219.373 65.1641C218.67 65.1641 218.025 64.998 217.439 64.666C216.854 64.3145 216.385 63.8457 216.033 63.2598C215.682 62.6738 215.506 62.0195 215.506 61.2969V61.1797C215.076 61.7852 214.52 62.2637 213.836 62.6152C213.152 62.9668 212.41 63.1426 211.609 63.1426C210.457 63.1426 209.451 62.791 208.592 62.0879C208.455 63.084 208.016 63.9043 207.273 64.5488C206.531 65.1934 205.662 65.5156 204.666 65.5156C203.943 65.5156 203.279 65.3496 202.674 65.0176C202.068 64.666 201.58 64.1875 201.209 63.582ZM225.76 36.541C225.525 36.2871 225.408 35.9844 225.408 35.6328C225.408 35.2812 225.525 34.9883 225.76 34.7539C226.014 34.5 226.316 34.373 226.668 34.373C227 34.373 227.293 34.5 227.547 34.7539C227.801 34.9883 227.928 35.2812 227.928 35.6328C227.928 35.9844 227.801 36.2871 227.547 36.541C227.293 36.7754 227 36.8926 226.668 36.8926C226.316 36.8926 226.014 36.7754 225.76 36.541ZM211.316 88.8945C211.941 88.2891 212.693 87.9863 213.572 87.9863C214.451 87.9863 215.193 88.2988 215.799 88.9238C216.424 89.5293 216.736 90.2715 216.736 91.1504C216.736 92.0488 216.424 92.8008 215.799 93.4062C215.193 94.0117 214.451 94.3145 213.572 94.3145C212.693 94.3145 211.941 94.0117 211.316 93.4062C210.711 92.8008 210.408 92.0488 210.408 91.1504C210.408 90.252 210.711 89.5 211.316 88.8945ZM133.211 100.232C132.957 99.9785 132.83 99.6758 132.83 99.3242C132.83 98.9727 132.957 98.6797 133.211 98.4453C133.465 98.1914 133.758 98.0645 134.09 98.0645C134.441 98.0645 134.744 98.1914 134.998 98.4453C135.232 98.6797 135.35 98.9727 135.35 99.3242C135.35 99.6758 135.232 99.9785 134.998 100.232C134.744 100.467 134.441 100.584 134.09 100.584C133.758 100.584 133.465 100.467 133.211 100.232ZM140.359 103.484C139.832 102.957 139.568 102.312 139.568 101.551C139.568 100.789 139.842 100.145 140.389 99.6172C140.916 99.0898 141.551 98.8262 142.293 98.8262C143.055 98.8262 143.709 99.0898 144.256 99.6172C144.783 100.145 145.047 100.789 145.047 101.551C145.047 102.312 144.783 102.957 144.256 103.484C143.709 104.012 143.055 104.275 142.293 104.275C141.531 104.275 140.887 104.012 140.359 103.484ZM150.203 100.701C149.852 100.115 149.676 99.4609 149.676 98.7383C149.676 98.0352 149.852 97.3906 150.203 96.8047C150.535 96.1992 151.004 95.7305 151.609 95.3984C152.195 95.0469 152.84 94.8711 153.543 94.8711C154.246 94.8711 154.891 95.0469 155.477 95.3984C156.062 95.7305 156.531 96.1992 156.883 96.8047C157.234 97.3906 157.41 98.0352 157.41 98.7383C157.41 99.4609 157.234 100.115 156.883 100.701C156.531 101.287 156.062 101.756 155.477 102.107C154.891 102.439 154.246 102.605 153.543 102.605C152.84 102.605 152.195 102.439 151.609 102.107C151.004 101.756 150.535 101.287 150.203 100.701ZM159.49 91.2676C158.807 90.584 158.465 89.7539 158.465 88.7773C158.465 87.8008 158.807 86.9805 159.49 86.3164C160.154 85.6328 160.965 85.291 161.922 85.291C162.879 85.291 163.699 85.6328 164.383 86.3164C165.066 86.9805 165.408 87.8008 165.408 88.7773C165.408 89.7539 165.066 90.584 164.383 91.2676C163.699 91.9316 162.879 92.2637 161.922 92.2637C160.965 92.2637 160.154 91.9316 159.49 91.2676ZM169.246 84.0605C168.895 83.4746 168.719 82.8203 168.719 82.0977C168.719 81.3945 168.895 80.75 169.246 80.1641C169.578 79.5586 170.047 79.0898 170.652 78.7578C171.238 78.4062 171.883 78.2305 172.586 78.2305C173.289 78.2305 173.934 78.4062 174.52 78.7578C175.105 79.0898 175.574 79.5586 175.926 80.1641C176.277 80.75 176.453 81.3945 176.453 82.0977C176.453 82.8203 176.277 83.4746 175.926 84.0605C175.574 84.6465 175.105 85.1152 174.52 85.4668C173.934 85.7988 173.289 85.9648 172.586 85.9648C171.883 85.9648 171.238 85.7988 170.652 85.4668C170.047 85.1152 169.578 84.6465 169.246 84.0605ZM179.324 93.6113C178.699 93.0059 178.387 92.2539 178.387 91.3555C178.387 90.4766 178.699 89.7344 179.324 89.1289C179.93 88.5039 180.672 88.1914 181.551 88.1914C182.41 88.1914 183.152 88.5039 183.777 89.1289C184.402 89.7344 184.715 90.4766 184.715 91.3555C184.715 92.2344 184.412 92.9863 183.807 93.6113C183.182 94.2168 182.43 94.5195 181.551 94.5195C180.672 94.5195 179.93 94.2168 179.324 93.6113ZM188.465 98.2402C188.113 97.6543 187.938 97 187.938 96.2773C187.938 95.5742 188.113 94.9297 188.465 94.3438C188.797 93.7383 189.266 93.2695 189.871 92.9375C190.457 92.5859 191.102 92.4102 191.805 92.4102C192.508 92.4102 193.152 92.5859 193.738 92.9375C194.324 93.2695 194.793 93.7383 195.145 94.3438C195.496 94.9297 195.672 95.5742 195.672 96.2773C195.672 97 195.496 97.6543 195.145 98.2402C194.793 98.8262 194.324 99.2949 193.738 99.6465C193.152 99.9785 192.508 100.145 191.805 100.145C191.102 100.145 190.457 99.9785 189.871 99.6465C189.266 99.2949 188.797 98.8262 188.465 98.2402ZM200.535 92.5273C199.969 91.9609 199.686 91.2773 199.686 90.4766C199.686 89.6758 199.969 89.002 200.535 88.4551C201.082 87.8887 201.756 87.6055 202.557 87.6055C203.338 87.6055 204.012 87.8887 204.578 88.4551C205.125 89.002 205.398 89.6758 205.398 90.4766C205.398 91.2773 205.125 91.9609 204.578 92.5273C204.012 93.0742 203.338 93.3477 202.557 93.3477C201.756 93.3477 201.082 93.0742 200.535 92.5273ZM209.119 142.01C208.787 141.424 208.621 140.77 208.621 140.047C208.621 139.344 208.787 138.689 209.119 138.084C209.471 137.498 209.939 137.029 210.525 136.678C211.131 136.346 211.785 136.18 212.488 136.18C213.191 136.18 213.836 136.346 214.422 136.678C215.008 137.029 215.477 137.498 215.828 138.084C216.18 138.689 216.355 139.344 216.355 140.047C216.355 140.77 216.18 141.424 215.828 142.01C215.477 142.596 215.008 143.055 214.422 143.387C213.836 143.738 213.191 143.914 212.488 143.914C211.785 143.914 211.131 143.738 210.525 143.387C209.939 143.055 209.471 142.596 209.119 142.01ZM211.873 150.916C211.346 150.389 211.082 149.744 211.082 148.982C211.082 148.221 211.346 147.576 211.873 147.049C212.42 146.521 213.064 146.258 213.807 146.258C214.568 146.258 215.213 146.521 215.74 147.049C216.287 147.576 216.561 148.221 216.561 148.982C216.561 149.744 216.287 150.389 215.74 150.916C215.213 151.443 214.568 151.707 213.807 151.707C213.045 151.707 212.4 151.443 211.873 150.916ZM214.803 101.99C214.471 101.404 214.305 100.75 214.305 100.027C214.305 99.3242 214.471 98.6797 214.803 98.0938C215.154 97.4883 215.623 97.0195 216.209 96.6875C216.814 96.3359 217.469 96.1602 218.172 96.1602C218.875 96.1602 219.52 96.3359 220.105 96.6875C220.691 97.0195 221.16 97.4883 221.512 98.0938C221.863 98.6797 222.039 99.3242 222.039 100.027C222.039 100.75 221.863 101.404 221.512 101.99C221.16 102.576 220.691 103.045 220.105 103.396C219.52 103.729 218.875 103.895 218.172 103.895C217.469 103.895 216.814 103.729 216.209 103.396C215.623 103.045 215.154 102.576 214.803 101.99ZM215.477 134.246C214.812 133.582 214.48 132.762 214.48 131.785C214.48 130.809 214.812 129.979 215.477 129.295C216.16 128.631 216.98 128.299 217.938 128.299C218.895 128.299 219.715 128.631 220.398 129.295C221.082 129.979 221.424 130.809 221.424 131.785C221.424 132.762 221.082 133.582 220.398 134.246C219.715 134.93 218.895 135.271 217.938 135.271C216.98 135.271 216.16 134.93 215.477 134.246ZM216.268 155.193C216.014 154.959 215.887 154.666 215.887 154.314C215.887 153.963 216.014 153.66 216.268 153.406C216.521 153.172 216.814 153.055 217.146 153.055C217.498 153.055 217.791 153.172 218.025 153.406C218.279 153.66 218.406 153.963 218.406 154.314C218.406 154.666 218.279 154.959 218.025 155.193C217.791 155.447 217.498 155.574 217.146 155.574C216.814 155.574 216.521 155.447 216.268 155.193ZM217 84.5293C216.492 84.0215 216.238 83.3965 216.238 82.6543C216.238 81.9121 216.492 81.2871 217 80.7793C217.527 80.2715 218.152 80.0176 218.875 80.0176C219.598 80.0176 220.213 80.2812 220.721 80.8086C221.248 81.3164 221.512 81.9316 221.512 82.6543C221.512 83.3965 221.248 84.0215 220.721 84.5293C220.213 85.0371 219.598 85.291 218.875 85.291C218.133 85.291 217.508 85.0371 217 84.5293ZM219.256 76.502C218.807 76.0527 218.582 75.5059 218.582 74.8613C218.582 74.2168 218.807 73.6797 219.256 73.25C219.705 72.8008 220.252 72.5762 220.896 72.5762C221.521 72.5762 222.059 72.8008 222.508 73.25C222.957 73.6797 223.182 74.2168 223.182 74.8613C223.182 75.5059 222.957 76.0527 222.508 76.502C222.078 76.9316 221.541 77.1465 220.896 77.1465C220.252 77.1465 219.705 76.9316 219.256 76.502ZM220.018 126.16C219.686 125.574 219.52 124.92 219.52 124.197C219.52 123.494 219.686 122.84 220.018 122.234C220.369 121.648 220.838 121.18 221.424 120.828C222.029 120.496 222.684 120.33 223.387 120.33C224.09 120.33 224.734 120.496 225.32 120.828C225.906 121.18 226.375 121.648 226.727 122.234C227.078 122.84 227.254 123.494 227.254 124.197C227.254 124.92 227.078 125.574 226.727 126.16C226.375 126.746 225.906 127.205 225.32 127.537C224.734 127.889 224.09 128.064 223.387 128.064C222.684 128.064 222.029 127.889 221.424 127.537C220.838 127.205 220.369 126.746 220.018 126.16ZM224.061 117.898C223.455 117.293 223.152 116.541 223.152 115.643C223.152 114.764 223.455 114.012 224.061 113.387C224.686 112.781 225.438 112.479 226.316 112.479C227.176 112.479 227.918 112.781 228.543 113.387C229.168 114.012 229.48 114.764 229.48 115.643C229.48 116.521 229.168 117.264 228.543 117.869C227.938 118.494 227.195 118.807 226.316 118.807C225.438 118.807 224.686 118.504 224.061 117.898ZM225.906 106.385C225.574 105.799 225.408 105.145 225.408 104.422C225.408 103.719 225.574 103.074 225.906 102.488C226.258 101.883 226.727 101.414 227.312 101.082C227.918 100.73 228.572 100.555 229.275 100.555C229.979 100.555 230.623 100.73 231.209 101.082C231.795 101.414 232.264 101.883 232.615 102.488C232.967 103.074 233.143 103.719 233.143 104.422C233.143 105.145 232.967 105.799 232.615 106.385C232.264 106.971 231.795 107.43 231.209 107.762C230.623 108.113 229.979 108.289 229.275 108.289C228.572 108.289 227.918 108.113 227.312 107.762C226.727 107.43 226.258 106.971 225.906 106.385ZM227.283 73.0742C226.678 72.4688 226.375 71.7266 226.375 70.8477C226.375 69.9883 226.678 69.2559 227.283 68.6504C227.889 68.0449 228.621 67.7422 229.48 67.7422C230.34 67.7422 231.072 68.0449 231.678 68.6504C232.283 69.2559 232.586 69.9883 232.586 70.8477C232.586 71.7266 232.283 72.4688 231.678 73.0742C231.072 73.6602 230.34 73.9531 229.48 73.9531C228.621 73.9531 227.889 73.6602 227.283 73.0742ZM227.928 129.617C227.439 129.129 227.195 128.523 227.195 127.801C227.195 127.078 227.439 126.463 227.928 125.955C228.436 125.467 229.041 125.223 229.744 125.223C230.447 125.223 231.053 125.467 231.561 125.955C232.068 126.463 232.322 127.078 232.322 127.801C232.322 128.523 232.068 129.129 231.561 129.617C231.053 130.125 230.447 130.379 229.744 130.379C229.041 130.379 228.436 130.125 227.928 129.617ZM231.912 134.188C231.463 133.758 231.238 133.211 231.238 132.547C231.238 131.902 231.463 131.355 231.912 130.906C232.361 130.457 232.908 130.232 233.553 130.232C234.178 130.232 234.715 130.457 235.164 130.906C235.613 131.355 235.838 131.902 235.838 132.547C235.838 133.211 235.613 133.758 235.164 134.188C234.734 134.637 234.197 134.861 233.553 134.861C232.908 134.861 232.361 134.637 231.912 134.188ZM233.348 141.98C233.094 141.746 232.967 141.453 232.967 141.102C232.967 140.75 233.094 140.447 233.348 140.193C233.602 139.959 233.895 139.842 234.227 139.842C234.578 139.842 234.871 139.959 235.105 140.193C235.359 140.447 235.486 140.75 235.486 141.102C235.486 141.453 235.359 141.746 235.105 141.98C234.871 142.234 234.578 142.361 234.227 142.361C233.895 142.361 233.602 142.234 233.348 141.98ZM233.611 137.732C233.338 137.459 233.201 137.117 233.201 136.707C233.201 136.297 233.338 135.955 233.611 135.682C233.904 135.408 234.256 135.271 234.666 135.271C235.057 135.271 235.389 135.408 235.662 135.682C235.955 135.955 236.102 136.297 236.102 136.707C236.102 137.117 235.955 137.459 235.662 137.732C235.389 138.006 235.057 138.143 234.666 138.143C234.256 138.143 233.904 138.006 233.611 137.732ZM238.943 74.2461C238.279 73.5625 237.947 72.7324 237.947 71.7559C237.947 70.7793 238.279 69.959 238.943 69.2949C239.627 68.6113 240.447 68.2695 241.404 68.2695C242.361 68.2695 243.182 68.6113 243.865 69.2949C244.549 69.959 244.891 70.7793 244.891 71.7559C244.891 72.7324 244.549 73.5625 243.865 74.2461C243.182 74.9102 242.361 75.2422 241.404 75.2422C240.447 75.2422 239.627 74.9102 238.943 74.2461ZM247.146 66.9805C246.482 66.2969 246.15 65.4668 246.15 64.4902C246.15 63.5137 246.482 62.6934 247.146 62.0293C247.83 61.3457 248.65 61.0039 249.607 61.0039C250.564 61.0039 251.385 61.3457 252.068 62.0293C252.752 62.6934 253.094 63.5137 253.094 64.4902C253.094 65.4668 252.752 66.2969 252.068 66.9805C251.385 67.6445 250.564 67.9766 249.607 67.9766C248.65 67.9766 247.83 67.6445 247.146 66.9805ZM249.783 54.4121C249.451 53.8262 249.285 53.1719 249.285 52.4492C249.285 51.7461 249.451 51.1016 249.783 50.5156C250.135 49.9102 250.604 49.4414 251.189 49.1094C251.795 48.7578 252.449 48.582 253.152 48.582C253.855 48.582 254.5 48.7578 255.086 49.1094C255.672 49.4414 256.141 49.9102 256.492 50.5156C256.844 51.1016 257.02 51.7461 257.02 52.4492C257.02 53.1719 256.844 53.8262 256.492 54.4121C256.141 54.998 255.672 55.4668 255.086 55.8184C254.5 56.1504 253.855 56.3164 253.152 56.3164C252.449 56.3164 251.795 56.1504 251.189 55.8184C250.604 55.4668 250.135 54.998 249.783 54.4121ZM262.615 49.959C262.088 49.4316 261.824 48.7871 261.824 48.0254C261.824 47.2637 262.088 46.6191 262.615 46.0918C263.162 45.5645 263.807 45.3008 264.549 45.3008C265.311 45.3008 265.955 45.5645 266.482 46.0918C267.029 46.6191 267.303 47.2637 267.303 48.0254C267.303 48.7871 267.029 49.4316 266.482 49.959C265.955 50.4863 265.311 50.75 264.549 50.75C263.787 50.75 263.143 50.4863 262.615 49.959ZM269.266 53.416C269.012 53.1621 268.885 52.8594 268.885 52.5078C268.885 52.1562 269.012 51.8633 269.266 51.6289C269.52 51.375 269.812 51.248 270.145 51.248C270.496 51.248 270.789 51.375 271.023 51.6289C271.277 51.8633 271.404 52.1562 271.404 52.5078C271.404 52.8594 271.277 53.1621 271.023 53.416C270.789 53.6504 270.496 53.7676 270.145 53.7676C269.812 53.7676 269.52 53.6504 269.266 53.416ZM230.799 65.6035V63.2598H236.043C235.613 64.002 235.018 64.5977 234.256 65.0469C233.514 65.4766 232.684 65.6914 231.766 65.6914C231.453 65.6914 231.131 65.6621 230.799 65.6035ZM151.434 27.9863C151.102 27.4199 150.936 26.7949 150.936 26.1113C150.936 25.0566 151.307 24.168 152.049 23.4453C152.771 22.7031 153.66 22.332 154.715 22.332C155.789 22.332 156.688 22.7031 157.41 23.4453C158.133 24.168 158.494 25.0566 158.494 26.1113C158.494 26.7949 158.328 27.4199 157.996 27.9863C157.664 28.5527 157.215 29.0117 156.648 29.3633C156.062 29.6953 155.418 29.8613 154.715 29.8613C154.031 29.8613 153.396 29.6953 152.811 29.3633C152.225 29.0117 151.766 28.5527 151.434 27.9863ZM152.107 15.3887C151.443 14.7246 151.111 13.9238 151.111 12.9863C151.111 12.0488 151.443 11.248 152.107 10.584C152.752 9.91992 153.553 9.58789 154.51 9.58789C155.467 9.58789 156.277 9.91992 156.941 10.584C157.586 11.248 157.908 12.0488 157.908 12.9863C157.908 13.9238 157.586 14.7246 156.941 15.3887C156.277 16.0527 155.467 16.3848 154.51 16.3848C153.572 16.3848 152.771 16.0527 152.107 15.3887ZM155.945 4.43164C155.691 4.17773 155.564 3.875 155.564 3.52344C155.564 3.19141 155.691 2.89844 155.945 2.64453C156.18 2.39063 156.473 2.26367 156.824 2.26367C157.176 2.26367 157.479 2.39063 157.732 2.64453C157.967 2.89844 158.084 3.19141 158.084 3.52344C158.084 3.875 157.967 4.17773 157.732 4.43164C157.479 4.66602 157.176 4.7832 156.824 4.7832C156.473 4.7832 156.18 4.66602 155.945 4.43164ZM163.562 37.5078C163.152 36.8242 162.947 36.082 162.947 35.2812C162.947 34.4609 163.143 33.709 163.533 33.0254C163.924 32.3418 164.461 31.8047 165.145 31.4141C165.828 31.0039 166.58 30.7988 167.4 30.7988C168.24 30.7988 169.002 31.0039 169.686 31.4141C170.35 31.8047 170.877 32.3418 171.268 33.0254C171.658 33.709 171.854 34.4609 171.854 35.2812C171.854 36.082 171.658 36.8242 171.268 37.5078C170.877 38.1914 170.35 38.7383 169.686 39.1484C169.002 39.5391 168.24 39.7344 167.4 39.7344C166.58 39.7344 165.838 39.5391 165.174 39.1484C164.49 38.7383 163.953 38.1914 163.562 37.5078ZM177.479 45.5352C177.127 44.9102 176.951 44.2363 176.951 43.5137C176.951 42.791 177.127 42.127 177.479 41.5215C177.83 40.916 178.318 40.4375 178.943 40.0859C179.549 39.7148 180.223 39.5293 180.965 39.5293C181.707 39.5293 182.391 39.7148 183.016 40.0859C183.621 40.4375 184.1 40.916 184.451 41.5215C184.803 42.127 184.979 42.791 184.979 43.5137C184.979 44.2363 184.803 44.9102 184.451 45.5352C184.1 46.1406 183.621 46.6289 183.016 47C182.391 47.3516 181.707 47.5273 180.965 47.5273C180.223 47.5273 179.549 47.3516 178.943 47C178.318 46.6289 177.83 46.1406 177.479 45.5352ZM191.658 43.9531C190.994 43.2891 190.662 42.4883 190.662 41.5508C190.662 40.6133 190.994 39.8125 191.658 39.1484C192.303 38.4844 193.104 38.1523 194.061 38.1523C195.018 38.1523 195.828 38.4844 196.492 39.1484C197.137 39.8125 197.459 40.6133 197.459 41.5508C197.459 42.4883 197.137 43.2891 196.492 43.9531C195.828 44.6172 195.018 44.9492 194.061 44.9492C193.123 44.9492 192.322 44.6172 191.658 43.9531ZM204.197 44.6562C203.846 44.0703 203.67 43.4258 203.67 42.7227C203.67 42.0195 203.846 41.375 204.197 40.7891C204.529 40.1836 204.998 39.7148 205.604 39.3828C206.189 39.0312 206.834 38.8555 207.537 38.8555C208.26 38.8555 208.914 39.0312 209.5 39.3828C210.086 39.7148 210.555 40.1836 210.906 40.7891C211.238 41.375 211.404 42.0195 211.404 42.7227C211.404 43.4258 211.238 44.0703 210.906 44.6562C210.555 45.2422 210.086 45.7109 209.5 46.0625C208.914 46.4141 208.26 46.5898 207.537 46.5898C206.834 46.5898 206.189 46.4141 205.604 46.0625C204.998 45.7109 204.529 45.2422 204.197 44.6562ZM214.979 52.8008C214.627 52.2148 214.451 51.5703 214.451 50.8672C214.451 50.1641 214.627 49.5195 214.979 48.9336C215.311 48.3281 215.779 47.8594 216.385 47.5273C216.971 47.1758 217.615 47 218.318 47C219.041 47 219.695 47.1758 220.281 47.5273C220.867 47.8594 221.336 48.3281 221.688 48.9336C222.02 49.5195 222.186 50.1641 222.186 50.8672C222.186 51.5703 222.02 52.2148 221.688 52.8008C221.336 53.3867 220.867 53.8555 220.281 54.207C219.695 54.5586 219.041 54.7344 218.318 54.7344C217.615 54.7344 216.971 54.5586 216.385 54.207C215.779 53.8555 215.311 53.3867 214.979 52.8008ZM227.928 63.875C227.166 62.957 226.785 61.9023 226.785 60.7109C226.785 59.8125 227 58.9824 227.43 58.2207C227.879 57.459 228.484 56.8535 229.246 56.4043C230.008 55.9551 230.848 55.7305 231.766 55.7305C232.703 55.7305 233.543 55.9551 234.285 56.4043C235.047 56.8535 235.643 57.459 236.072 58.2207C236.521 58.9824 236.746 59.8125 236.746 60.7109C236.746 61.5898 236.512 62.4395 236.043 63.2598H239.617L243.66 74.041C243.543 74.998 243.123 75.7988 242.4 76.4434C241.697 77.0879 240.857 77.4199 239.881 77.4395L237.303 70.6133C238.045 70.0078 238.885 69.7051 239.822 69.7051C240.838 69.7051 241.697 70.0273 242.4 70.6719C242.811 71.0234 243.123 71.4531 243.338 71.9609C243.572 72.4688 243.689 73.0059 243.689 73.5723C243.689 73.7871 243.68 73.9434 243.66 74.041L250.779 93.0254L262 63.2598H270.818V73.6016C270.154 74.3047 269.334 74.6562 268.357 74.6562C267.557 74.6562 266.844 74.4121 266.219 73.9238C265.613 73.416 265.223 72.7812 265.047 72.0195V70.4668C265.223 69.7051 265.613 69.0801 266.219 68.5918C266.844 68.1035 267.557 67.8594 268.357 67.8594C269.314 67.8594 270.135 68.2012 270.818 68.8848C271.443 69.5488 271.756 70.3398 271.756 71.2578C271.756 72.1562 271.443 72.9375 270.818 73.6016V86.9902C270.135 87.5566 269.324 87.8398 268.387 87.8398C267.684 87.8398 267.039 87.6738 266.453 87.3418C265.867 86.9902 265.398 86.5215 265.047 85.9355V82.0098C265.398 81.4238 265.867 80.9648 266.453 80.6328C267.039 80.2812 267.684 80.1055 268.387 80.1055C269.324 80.1055 270.135 80.3887 270.818 80.9551C271.268 81.3066 271.619 81.7461 271.873 82.2734C272.127 82.8008 272.254 83.3672 272.254 83.9727C272.254 84.5586 272.127 85.125 271.873 85.6719C271.619 86.1992 271.268 86.6387 270.818 86.9902V99.207C270.018 98.9531 269.363 98.4844 268.855 97.8008C268.367 97.1172 268.123 96.3555 268.123 95.5156C268.123 94.6562 268.367 93.8945 268.855 93.2305C269.363 92.5469 270.018 92.0781 270.818 91.8242C271.209 91.707 271.6 91.6484 271.99 91.6484C272.713 91.6484 273.367 91.8242 273.953 92.1758C274.539 92.5078 274.998 92.9766 275.33 93.582C275.682 94.168 275.857 94.8125 275.857 95.5156C275.857 96.2188 275.682 96.8633 275.33 97.4492C274.998 98.0352 274.539 98.5039 273.953 98.8555C273.367 99.207 272.713 99.3828 271.99 99.3828C271.6 99.3828 271.209 99.3242 270.818 99.207V107H266.102C266.57 106.512 267.107 106.141 267.713 105.887C268.338 105.613 269.002 105.477 269.705 105.477C270.135 105.477 270.506 105.516 270.818 105.594C271.951 105.848 272.879 106.424 273.602 107.322C274.324 108.221 274.686 109.266 274.686 110.457C274.686 111.355 274.461 112.186 274.012 112.947C273.582 113.709 272.986 114.314 272.225 114.764C271.463 115.213 270.623 115.438 269.705 115.438C268.787 115.438 267.947 115.213 267.186 114.764C266.424 114.314 265.818 113.699 265.369 112.918C264.939 112.156 264.725 111.336 264.725 110.457C264.725 109.129 265.184 107.977 266.102 107H265.047V85.9355C264.695 85.291 264.52 84.6367 264.52 83.9727C264.52 83.3086 264.695 82.6543 265.047 82.0098V72.0195C264.988 71.7852 264.959 71.5312 264.959 71.2578C264.959 70.9844 264.988 70.7207 265.047 70.4668V68.5918L253.768 98.5918H247.82L241.521 81.8633C242.029 81.5117 242.586 81.3359 243.191 81.3359C244.012 81.3359 244.695 81.6191 245.242 82.1855C245.809 82.752 246.092 83.4355 246.092 84.2363C246.092 84.9785 245.848 85.6328 245.359 86.1992C244.871 86.7461 244.256 87.0586 243.514 87.1367C243.436 87.1562 243.328 87.166 243.191 87.166C242.371 87.166 241.678 86.8828 241.111 86.3164C240.564 85.75 240.291 85.0566 240.291 84.2363C240.291 83.748 240.398 83.2988 240.613 82.8887C240.828 82.4785 241.131 82.1367 241.521 81.8633L239.881 77.4395H239.822C239.139 77.4395 238.504 77.2734 237.918 76.9414C237.352 76.6094 236.893 76.1699 236.541 75.623C236.15 75.0176 235.955 74.334 235.955 73.5723C235.955 72.8105 236.15 72.127 236.541 71.5215V107H230.799V65.6035C229.646 65.3691 228.689 64.793 227.928 63.875ZM236.541 68.5918V71.5215C236.717 71.209 236.971 70.9062 237.303 70.6133L236.541 68.5918ZM245.711 153.699C245.047 153.035 244.715 152.234 244.715 151.297C244.715 150.359 245.037 149.559 245.682 148.895C246.346 148.23 247.156 147.898 248.113 147.898C249.07 147.898 249.871 148.23 250.516 148.895C251.18 149.559 251.512 150.359 251.512 151.297C251.512 152.234 251.18 153.035 250.516 153.699C249.871 154.363 249.07 154.695 248.113 154.695C247.176 154.695 246.375 154.363 245.711 153.699ZM247.557 166.883C247.205 166.277 247.029 165.613 247.029 164.891C247.029 164.168 247.205 163.504 247.557 162.898C247.908 162.293 248.387 161.805 248.992 161.434C249.617 161.082 250.301 160.906 251.043 160.906C251.785 160.906 252.459 161.082 253.064 161.434C253.689 161.805 254.178 162.293 254.529 162.898C254.881 163.504 255.057 164.168 255.057 164.891C255.057 165.613 254.881 166.277 254.529 166.883C254.178 167.508 253.689 167.996 253.064 168.348C252.459 168.719 251.785 168.904 251.043 168.904C250.301 168.904 249.617 168.719 248.992 168.348C248.387 167.996 247.908 167.508 247.557 166.883ZM251.072 141.688C250.74 141.102 250.574 140.457 250.574 139.754C250.574 139.051 250.74 138.396 251.072 137.791C251.424 137.205 251.893 136.736 252.479 136.385C253.084 136.053 253.738 135.887 254.441 135.887C255.164 135.887 255.818 136.053 256.404 136.385C256.99 136.736 257.449 137.205 257.781 137.791C258.133 138.396 258.309 139.051 258.309 139.754C258.309 140.457 258.133 141.102 257.781 141.688C257.449 142.273 256.99 142.742 256.404 143.094C255.818 143.445 255.164 143.621 254.441 143.621C253.738 143.621 253.084 143.445 252.479 143.094C251.893 142.742 251.424 142.273 251.072 141.688ZM256.316 180.975C255.926 180.291 255.73 179.549 255.73 178.748C255.73 177.928 255.926 177.176 256.316 176.492C256.707 175.809 257.244 175.262 257.928 174.852C258.611 174.461 259.363 174.266 260.184 174.266C261.023 174.266 261.775 174.461 262.439 174.852C263.123 175.262 263.66 175.809 264.051 176.492C264.441 177.176 264.637 177.928 264.637 178.748C264.637 179.549 264.441 180.291 264.051 180.975C263.66 181.658 263.123 182.195 262.439 182.586C261.775 182.996 261.023 183.201 260.184 183.201C259.363 183.201 258.611 182.996 257.928 182.586C257.264 182.195 256.727 181.658 256.316 180.975ZM260.711 130.262C260.301 129.539 260.096 128.748 260.096 127.889C260.096 127.029 260.301 126.229 260.711 125.486C261.141 124.764 261.717 124.188 262.439 123.758C263.162 123.348 263.963 123.143 264.842 123.143C265.721 123.143 266.521 123.348 267.244 123.758C267.967 124.188 268.533 124.764 268.943 125.486C269.373 126.229 269.588 127.029 269.588 127.889C269.588 128.748 269.373 129.539 268.943 130.262C268.533 130.984 267.967 131.561 267.244 131.99C266.521 132.42 265.721 132.635 264.842 132.635C263.963 132.635 263.162 132.42 262.439 131.99C261.717 131.561 261.141 130.984 260.711 130.262ZM271.316 184.432C270.984 183.865 270.818 183.24 270.818 182.557C270.818 181.502 271.18 180.604 271.902 179.861C272.645 179.139 273.543 178.777 274.598 178.777C275.672 178.777 276.57 179.139 277.293 179.861C278.016 180.604 278.377 181.502 278.377 182.557C278.377 183.24 278.211 183.865 277.879 184.432C277.547 184.998 277.088 185.447 276.502 185.779C275.936 186.131 275.301 186.307 274.598 186.307C273.914 186.307 273.279 186.131 272.693 185.779C272.107 185.447 271.648 184.998 271.316 184.432ZM283.064 190.438C282.4 189.773 282.068 188.973 282.068 188.035C282.068 187.098 282.391 186.297 283.035 185.633C283.699 184.969 284.51 184.637 285.467 184.637C286.424 184.637 287.225 184.969 287.869 185.633C288.533 186.297 288.865 187.098 288.865 188.035C288.865 188.973 288.533 189.773 287.869 190.438C287.225 191.102 286.424 191.434 285.467 191.434C284.529 191.434 283.729 191.102 283.064 190.438ZM292.645 194.686C292.41 194.451 292.293 194.158 292.293 193.807C292.293 193.475 292.41 193.182 292.645 192.928C292.898 192.674 293.201 192.547 293.553 192.547C293.904 192.547 294.197 192.674 294.432 192.928C294.686 193.182 294.812 193.475 294.812 193.807C294.812 194.158 294.686 194.451 294.432 194.686C294.197 194.939 293.904 195.066 293.553 195.066C293.201 195.066 292.898 194.939 292.645 194.686ZM299.002 78.875C297.83 78.2695 296.521 77.9668 295.076 77.9668C293.162 77.9668 291.502 78.4746 290.096 79.4902C288.689 80.5059 287.605 81.9609 286.844 83.8555C286.082 85.75 285.701 87.9863 285.701 90.5645C285.955 90.252 286.268 90.0078 286.639 89.832C287.01 89.6562 287.41 89.5684 287.84 89.5684C288.289 89.5684 288.689 89.6562 289.041 89.832C288.924 89.5 288.865 89.1387 288.865 88.748C288.865 87.791 289.207 86.9805 289.891 86.3164C290.574 85.6523 291.385 85.3203 292.322 85.3203C293.006 85.3203 293.621 85.5059 294.168 85.877C294.734 86.2285 295.154 86.707 295.428 87.3125C295.486 86.5117 295.799 85.8477 296.365 85.3203C296.951 84.7734 297.645 84.5 298.445 84.5C299.285 84.5 299.998 84.793 300.584 85.3789C301.17 85.9648 301.463 86.6777 301.463 87.5176C301.463 88.3574 301.17 89.0703 300.584 89.6562C299.998 90.2422 299.285 90.5352 298.445 90.5352C297.859 90.5352 297.322 90.3887 296.834 90.0957C296.365 89.7832 296.004 89.373 295.75 88.8652C295.73 89.8027 295.389 90.5938 294.725 91.2383C294.061 91.8633 293.26 92.1758 292.322 92.1758C291.678 92.1758 291.082 92.0098 290.535 91.6777C290.574 91.9512 290.594 92.166 290.594 92.3223C290.594 92.9473 290.428 93.4844 290.096 93.9336C290.682 93.6211 291.326 93.4648 292.029 93.4648C292.771 93.4648 293.455 93.6504 294.08 94.0215C294.725 94.3926 295.232 94.9004 295.604 95.5449C295.975 96.1699 296.16 96.8633 296.16 97.625V97.7129C296.57 97.4785 297.039 97.3613 297.566 97.3613C298.426 97.3613 299.148 97.6543 299.734 98.2402C300.32 98.8262 300.613 99.5488 300.613 100.408C300.613 100.76 300.555 101.102 300.438 101.434C301.434 100.613 302.254 99.5586 302.898 98.2695C302.664 98.3477 302.479 98.3867 302.342 98.3867C301.99 98.3867 301.688 98.2695 301.434 98.0352C301.199 97.7812 301.082 97.4785 301.082 97.127C301.082 96.7754 301.199 96.4824 301.434 96.248C301.688 95.9941 301.99 95.8672 302.342 95.8672C302.596 95.8672 302.83 95.9453 303.045 96.1016C303.26 96.2578 303.416 96.4531 303.514 96.6875C304.119 94.9102 304.422 92.8887 304.422 90.623C304.422 88.709 304.207 86.9805 303.777 85.4375C303.367 83.875 302.752 82.5371 301.932 81.4238C301.795 81.8535 301.541 82.2051 301.17 82.4785C300.799 82.752 300.379 82.8887 299.91 82.8887C299.324 82.8887 298.826 82.6836 298.416 82.2734C298.006 81.8633 297.801 81.3652 297.801 80.7793C297.801 80.3691 297.908 79.998 298.123 79.666C298.338 79.3145 298.631 79.0508 299.002 78.875ZM249.988 127.215C249.734 126.98 249.607 126.688 249.607 126.336C249.607 125.984 249.734 125.682 249.988 125.428C250.223 125.193 250.516 125.076 250.867 125.076C251.199 125.076 251.492 125.193 251.746 125.428C252 125.682 252.127 125.984 252.127 126.336C252.127 126.688 252 126.98 251.746 127.215C251.492 127.469 251.199 127.596 250.867 127.596C250.516 127.596 250.223 127.469 249.988 127.215ZM251.248 133.719C250.545 133.035 250.193 132.186 250.193 131.17C250.193 130.174 250.545 129.324 251.248 128.621C251.951 127.938 252.791 127.596 253.768 127.596C254.354 127.596 254.891 127.713 255.379 127.947C255.867 128.201 256.277 128.543 256.609 128.973C256.961 128.27 257.469 127.713 258.133 127.303C258.797 126.893 259.529 126.688 260.33 126.688C261.092 126.688 261.795 126.873 262.439 127.244C263.084 127.635 263.582 128.152 263.934 128.797C263.953 128.074 264.236 127.459 264.783 126.951C265.311 126.443 265.945 126.189 266.688 126.189C267.273 126.189 267.771 126.336 268.182 126.629C268.084 126.297 268.035 125.984 268.035 125.691C268.035 125.242 268.143 124.812 268.357 124.402C268.572 124.012 268.855 123.689 269.207 123.436C268.855 123.221 268.572 122.928 268.357 122.557C268.143 122.205 268.035 121.814 268.035 121.385C268.035 120.721 268.27 120.154 268.738 119.686C269.207 119.236 269.773 119.012 270.438 119.012H270.643C270.564 118.582 270.525 118.25 270.525 118.016C270.525 117.312 270.701 116.658 271.053 116.053C271.404 115.467 271.873 114.998 272.459 114.646C273.045 114.314 273.689 114.148 274.393 114.148C274.939 114.148 275.457 114.256 275.945 114.471C276.434 114.686 276.854 114.979 277.205 115.35C277.186 115.232 277.176 115.057 277.176 114.822C277.176 114.139 277.342 113.504 277.674 112.918C278.025 112.332 278.484 111.863 279.051 111.512C278.25 110.613 277.85 109.529 277.85 108.26C277.85 107.342 278.074 106.502 278.523 105.74C278.973 104.979 279.578 104.383 280.34 103.953C281.121 103.504 281.951 103.279 282.83 103.279C283.318 103.279 283.777 103.338 284.207 103.455C282.84 101.971 281.795 100.145 281.072 97.9766C280.369 95.8086 280.018 93.3574 280.018 90.623C280.018 87.0488 280.613 83.9727 281.805 81.3945C283.016 78.7969 284.744 76.8145 286.99 75.4473C289.256 74.0801 291.951 73.3965 295.076 73.3965C298.182 73.3965 300.867 74.0898 303.133 75.4766C305.398 76.8438 307.127 78.8164 308.318 81.3945C309.529 83.9727 310.135 87.0488 310.135 90.623C310.135 94.1777 309.529 97.2539 308.318 99.8516C307.127 102.43 305.398 104.412 303.133 105.799C300.867 107.166 298.182 107.85 295.076 107.85C292.088 107.85 289.471 107.205 287.225 105.916C287.615 106.639 287.811 107.42 287.811 108.26C287.811 109.373 287.498 110.35 286.873 111.189C286.248 112.049 285.438 112.645 284.441 112.977C284.754 113.562 284.91 114.178 284.91 114.822C284.91 115.545 284.734 116.199 284.383 116.785C284.051 117.371 283.582 117.83 282.977 118.162C282.391 118.514 281.746 118.689 281.043 118.689C280.496 118.689 279.979 118.582 279.49 118.367C279.002 118.152 278.582 117.859 278.23 117.488C278.25 117.605 278.26 117.781 278.26 118.016C278.26 118.738 278.084 119.393 277.732 119.979C277.4 120.564 276.941 121.023 276.355 121.355C275.75 121.707 275.096 121.883 274.393 121.883C273.826 121.883 273.299 121.775 272.811 121.561C272.752 122.244 272.479 122.781 271.99 123.172C272.459 123.387 272.84 123.719 273.133 124.168C273.426 124.637 273.572 125.145 273.572 125.691C273.572 126.473 273.309 127.127 272.781 127.654C272.234 128.201 271.58 128.475 270.818 128.475C270.291 128.475 269.783 128.328 269.295 128.035C269.393 128.328 269.441 128.631 269.441 128.943C269.441 129.725 269.178 130.379 268.65 130.906C268.104 131.434 267.449 131.697 266.688 131.697C266.238 131.697 265.818 131.6 265.428 131.404C265.037 131.209 264.715 130.936 264.461 130.584V130.848C264.461 131.629 264.275 132.332 263.904 132.957C263.533 133.602 263.035 134.1 262.41 134.451C261.785 134.822 261.092 135.008 260.33 135.008C259.607 135.008 258.934 134.832 258.309 134.48C257.684 134.148 257.186 133.689 256.814 133.104C256.482 133.611 256.053 134.012 255.525 134.305C254.979 134.598 254.393 134.744 253.768 134.744C252.791 134.744 251.951 134.402 251.248 133.719ZM256.814 133.104C256.385 132.42 256.17 131.668 256.17 130.848C256.17 130.223 256.316 129.598 256.609 128.973C257.117 129.617 257.371 130.35 257.371 131.17C257.371 131.873 257.186 132.518 256.814 133.104ZM264.461 130.584C264.109 130.096 263.934 129.549 263.934 128.943V128.797C264.227 129.324 264.402 129.92 264.461 130.584ZM269.295 128.035C268.748 127.645 268.377 127.176 268.182 126.629C268.709 126.941 269.08 127.41 269.295 128.035ZM270.438 123.758C269.988 123.758 269.578 123.65 269.207 123.436C269.695 123.084 270.232 122.908 270.818 122.908C271.248 122.908 271.639 122.996 271.99 123.172C271.561 123.562 271.043 123.758 270.438 123.758ZM271.463 120.535C271.072 120.086 270.799 119.578 270.643 119.012C271.248 119.07 271.766 119.324 272.195 119.773C272.605 120.223 272.811 120.76 272.811 121.385V121.561C272.283 121.326 271.834 120.984 271.463 120.535ZM278.23 117.488C277.664 116.922 277.322 116.209 277.205 115.35C277.771 115.936 278.113 116.648 278.23 117.488ZM280.721 112.771C280.057 112.479 279.5 112.059 279.051 111.512C279.676 111.141 280.34 110.955 281.043 110.955C281.766 110.955 282.43 111.141 283.035 111.512C283.641 111.883 284.109 112.371 284.441 112.977C283.953 113.152 283.416 113.24 282.83 113.24C282.088 113.24 281.385 113.084 280.721 112.771ZM287.225 105.916C286.092 105.291 285.086 104.471 284.207 103.455C284.871 103.65 285.457 103.963 285.965 104.393C286.492 104.803 286.912 105.311 287.225 105.916ZM286.023 94.4023C285.398 93.875 285.086 93.1816 285.086 92.3223C285.086 91.6582 285.291 91.0723 285.701 90.5645V90.623C285.701 91.9121 285.809 93.1719 286.023 94.4023C286.512 97.2148 287.537 99.4023 289.1 100.965C290.682 102.508 292.674 103.279 295.076 103.279C295.506 103.279 295.926 103.25 296.336 103.191C295.867 102.977 295.477 102.674 295.164 102.283C294.852 101.893 294.656 101.434 294.578 100.906C293.836 101.492 292.986 101.785 292.029 101.785C291.268 101.785 290.564 101.609 289.92 101.258C289.295 100.887 288.797 100.389 288.426 99.7637C288.055 99.1191 287.869 98.4062 287.869 97.625C287.869 96.5508 288.221 95.6328 288.924 94.8711C288.592 95.0078 288.23 95.0762 287.84 95.0762C287.137 95.0762 286.531 94.8516 286.023 94.4023ZM290.096 93.9336C289.803 94.3438 289.412 94.6562 288.924 94.8711C289.275 94.4609 289.666 94.1484 290.096 93.9336ZM290.535 91.6777C289.812 91.248 289.314 90.6328 289.041 89.832C289.412 90.0078 289.725 90.2617 289.979 90.5938C290.252 90.9062 290.438 91.2676 290.535 91.6777ZM294.578 100.906C294.559 100.809 294.549 100.643 294.549 100.408C294.549 99.8418 294.695 99.3145 294.988 98.8262C295.281 98.3379 295.672 97.9668 296.16 97.7129C296.141 98.3574 295.994 98.9629 295.721 99.5293C295.447 100.076 295.066 100.535 294.578 100.906ZM295.75 88.8652C295.535 88.4746 295.428 88.0254 295.428 87.5176V87.3125C295.643 87.7422 295.75 88.2207 295.75 88.748V88.8652ZM297.566 103.455C297.137 103.455 296.727 103.367 296.336 103.191C297.879 102.996 299.246 102.41 300.438 101.434C300.223 102.039 299.852 102.527 299.324 102.898C298.816 103.27 298.23 103.455 297.566 103.455ZM301.932 81.4238C301.111 80.3105 300.135 79.4609 299.002 78.875C299.354 78.7383 299.656 78.6699 299.91 78.6699C300.496 78.6699 300.994 78.875 301.404 79.2852C301.814 79.6953 302.02 80.1934 302.02 80.7793C302.02 80.9941 301.99 81.209 301.932 81.4238ZM303.396 97.8301C303.279 98.0254 303.113 98.1719 302.898 98.2695C303.133 97.7617 303.338 97.2344 303.514 96.6875C303.572 96.8242 303.602 96.9707 303.602 97.127C303.602 97.3809 303.533 97.6152 303.396 97.8301ZM329.529 73.3965C333.572 73.3965 337.068 73.9824 340.018 75.1543V80.252C336.951 78.6895 333.67 77.9082 330.174 77.9082C326.795 77.9082 324.49 78.5527 323.26 79.8418C322.967 80.1348 322.723 80.4961 322.527 80.9258C322 81.4141 321.365 81.6582 320.623 81.6582C319.861 81.6582 319.197 81.3848 318.631 80.8379C318.084 80.291 317.811 79.627 317.811 78.8457C318.299 77.8105 319.012 76.9023 319.949 76.1211C320.184 76.0625 320.408 76.0332 320.623 76.0332C321.404 76.0332 322.068 76.3066 322.615 76.8535C323.162 77.4004 323.436 78.0645 323.436 78.8457C323.436 79.2168 323.377 79.5488 323.26 79.8418C323.084 80.2715 322.84 80.6328 322.527 80.9258C322.273 81.4531 322.146 82.0879 322.146 82.8301C322.146 84.0801 322.625 85.0566 323.582 85.7598C324.363 86.3652 325.74 86.9121 327.713 87.4004C327.928 87.4785 328.289 87.5762 328.797 87.6934C328.445 87.6738 328.084 87.5762 327.713 87.4004C327.107 87.1465 326.619 86.7461 326.248 86.1992C325.877 85.6523 325.691 85.0273 325.691 84.3242C325.691 83.3867 326.014 82.5957 326.658 81.9512C327.322 81.2871 328.123 80.9551 329.061 80.9551C329.998 80.9551 330.789 81.2773 331.434 81.9219C332.098 82.5664 332.43 83.3672 332.43 84.3242C332.43 85.2812 332.098 86.082 331.434 86.7266C330.789 87.3711 329.998 87.6934 329.061 87.6934H328.797L329.354 87.8105L331.199 88.2207C333.641 88.748 335.613 89.3926 337.117 90.1543C338.621 90.916 339.744 91.8633 340.486 92.9961C341.229 94.1289 341.648 95.5059 341.746 97.127C341.766 97.3027 341.775 97.5762 341.775 97.9473C341.775 99.4121 341.482 100.75 340.896 101.961C340.311 103.152 339.461 104.178 338.348 105.037C337.703 104.178 337.381 103.191 337.381 102.078C337.381 101.238 337.576 100.467 337.967 99.7637C338.357 99.041 338.885 98.4453 339.549 97.9766C340.213 97.5078 340.945 97.2246 341.746 97.127C341.883 97.1074 342.088 97.0977 342.361 97.0977C343.221 97.0977 344.012 97.3027 344.734 97.7129C345.457 98.1035 346.043 98.6406 346.492 99.3242C346.961 100.008 347.234 100.77 347.312 101.609C347.332 101.707 347.342 101.863 347.342 102.078C347.342 103.172 347.029 104.158 346.404 105.037C346.346 104.764 346.316 104.49 346.316 104.217C346.316 103.201 346.648 102.332 347.312 101.609C347.684 101.219 348.113 100.916 348.602 100.701C349.109 100.467 349.637 100.35 350.184 100.35C350.887 100.35 351.531 100.525 352.117 100.877C352.723 101.209 353.191 101.678 353.523 102.283C353.875 102.869 354.051 103.514 354.051 104.217C354.051 104.666 353.992 105.066 353.875 105.418C353.68 106.004 353.367 106.512 352.938 106.941C352.508 107.371 352 107.684 351.414 107.879C351.551 107.273 351.844 106.756 352.293 106.326C352.742 105.877 353.27 105.574 353.875 105.418C354.148 105.359 354.422 105.33 354.695 105.33C355.574 105.33 356.326 105.613 356.951 106.18C357.576 106.746 357.938 107.459 358.035 108.318C358.055 108.416 358.064 108.543 358.064 108.699C358.064 109.52 357.811 110.242 357.303 110.867C357.283 110.789 357.273 110.672 357.273 110.516C357.273 109.715 357.527 108.982 358.035 108.318C358.367 107.928 358.768 107.615 359.236 107.381C359.705 107.166 360.203 107.059 360.73 107.059C361.688 107.059 362.498 107.391 363.162 108.055C363.846 108.738 364.188 109.559 364.188 110.516C364.188 111.004 364.09 111.463 363.895 111.893C363.699 112.342 363.436 112.723 363.104 113.035C362.439 113.66 361.648 113.973 360.73 113.973C360.418 113.973 360.066 113.924 359.676 113.826C360.379 113.221 361.209 112.918 362.166 112.918C362.537 112.918 362.85 112.957 363.104 113.035C363.963 113.25 364.666 113.699 365.213 114.383C365.76 115.066 366.033 115.867 366.033 116.785C366.033 117.508 365.857 118.162 365.506 118.748C365.174 119.334 364.705 119.793 364.1 120.125C363.514 120.477 362.869 120.652 362.166 120.652C362.01 120.652 361.883 120.643 361.785 120.623C360.984 120.564 360.291 120.281 359.705 119.773C360.486 119.891 361.18 120.174 361.785 120.623C362.332 121.033 362.762 121.551 363.074 122.176C363.406 122.801 363.572 123.475 363.572 124.197C363.572 125.037 363.367 125.789 362.957 126.453C362.566 127.137 362.029 127.674 361.346 128.064C360.662 128.455 359.91 128.65 359.09 128.65C358.289 128.65 357.547 128.455 356.863 128.064C356.18 127.674 355.633 127.137 355.223 126.453C354.832 125.789 354.637 125.037 354.637 124.197C354.637 123.377 354.832 122.625 355.223 121.941C355.633 121.277 356.18 120.74 356.863 120.33C357.547 119.939 358.289 119.744 359.09 119.744C359.363 119.744 359.568 119.754 359.705 119.773C359.275 119.422 358.934 118.982 358.68 118.455C358.426 117.947 358.299 117.391 358.299 116.785C358.299 116.199 358.416 115.652 358.65 115.145C358.904 114.637 359.246 114.197 359.676 113.826C359.012 113.611 358.465 113.24 358.035 112.713C357.605 112.186 357.361 111.57 357.303 110.867C356.99 111.238 356.609 111.531 356.16 111.746C355.711 111.961 355.223 112.068 354.695 112.068C353.758 112.068 352.957 111.736 352.293 111.072C351.648 110.428 351.326 109.637 351.326 108.699C351.326 108.426 351.355 108.152 351.414 107.879C351.062 108.016 350.652 108.084 350.184 108.084C349.266 108.084 348.455 107.801 347.752 107.234C347.049 106.668 346.6 105.936 346.404 105.037C345.936 105.662 345.35 106.16 344.646 106.531C343.943 106.883 343.182 107.059 342.361 107.059C341.561 107.059 340.809 106.883 340.105 106.531C339.402 106.16 338.816 105.662 338.348 105.037C337.176 105.955 335.73 106.648 334.012 107.117C332.293 107.605 330.359 107.85 328.211 107.85C324.715 107.85 320.877 107.166 316.697 105.799V100.232C320.662 102.303 324.539 103.338 328.328 103.338C330.848 103.338 332.791 102.908 334.158 102.049C335.545 101.17 336.238 99.9395 336.238 98.3574C336.238 96.9121 335.75 95.7891 334.773 94.9883C333.816 94.2266 331.648 93.4746 328.27 92.7324L326.395 92.293C323.055 91.5898 320.643 90.5156 319.158 89.0703C317.674 87.6055 316.932 85.6035 316.932 83.0645C316.932 81.4824 317.225 80.0762 317.811 78.8457C317.811 78.1816 318.016 77.6055 318.426 77.1172C318.836 76.6094 319.344 76.2773 319.949 76.1211C322.117 74.3047 325.311 73.3965 329.529 73.3965ZM277.674 85.291C277.42 85.0371 277.293 84.7344 277.293 84.3828C277.293 84.0312 277.42 83.7383 277.674 83.5039C277.908 83.25 278.201 83.123 278.553 83.123C278.885 83.123 279.178 83.25 279.432 83.5039C279.686 83.7383 279.812 84.0312 279.812 84.3828C279.812 84.7344 279.686 85.0371 279.432 85.291C279.178 85.5254 278.885 85.6426 278.553 85.6426C278.201 85.6426 277.908 85.5254 277.674 85.291ZM282.479 91.2676C281.932 90.7402 281.658 90.0957 281.658 89.334C281.658 88.5723 281.932 87.9277 282.479 87.4004C283.006 86.873 283.65 86.6094 284.412 86.6094C285.154 86.6094 285.799 86.873 286.346 87.4004C286.873 87.9277 287.137 88.5723 287.137 89.334C287.137 90.0957 286.873 90.7402 286.346 91.2676C285.818 91.7949 285.174 92.0586 284.412 92.0586C283.65 92.0586 283.006 91.7949 282.479 91.2676ZM291.678 88.6016C291.229 88.1523 291.004 87.6055 291.004 86.9609C291.004 86.3164 291.229 85.7793 291.678 85.3496C292.127 84.9004 292.664 84.6758 293.289 84.6758C293.914 84.6758 294.451 84.9004 294.9 85.3496C295.35 85.7793 295.574 86.3164 295.574 86.9609C295.574 87.6055 295.35 88.1523 294.9 88.6016C294.451 89.0312 293.914 89.2461 293.289 89.2461C292.664 89.2461 292.127 89.0312 291.678 88.6016ZM296.189 80.3398C295.467 79.6367 295.105 78.7773 295.105 77.7617C295.105 76.7461 295.467 75.8867 296.189 75.1836C296.893 74.4805 297.742 74.1289 298.738 74.1289C299.734 74.1289 300.584 74.4805 301.287 75.1836C301.99 75.8867 302.342 76.7461 302.342 77.7617C302.342 78.7773 301.99 79.6367 301.287 80.3398C300.584 81.043 299.734 81.3945 298.738 81.3945C297.742 81.3945 296.893 81.043 296.189 80.3398ZM305.096 72.3418C304.393 71.6387 304.041 70.7891 304.041 69.793C304.041 69.1484 304.207 68.5527 304.539 68.0059C304.852 67.459 305.281 67.0293 305.828 66.7168C306.375 66.3848 306.971 66.2188 307.615 66.2188C308.611 66.2188 309.461 66.5703 310.164 67.2734C310.848 67.957 311.189 68.7969 311.189 69.793C311.189 70.8086 310.848 71.6582 310.164 72.3418C309.461 73.0254 308.611 73.3672 307.615 73.3672C306.639 73.3672 305.799 73.0254 305.096 72.3418ZM316.902 72.1074C316.316 71.5215 316.023 70.7988 316.023 69.9395C316.023 69.0996 316.316 68.3867 316.902 67.8008C317.508 67.1953 318.221 66.8926 319.041 66.8926C319.9 66.8926 320.623 67.1855 321.209 67.7715C321.795 68.3574 322.088 69.0801 322.088 69.9395C322.088 70.7988 321.795 71.5215 321.209 72.1074C320.623 72.6934 319.9 72.9863 319.041 72.9863C318.221 72.9863 317.508 72.6934 316.902 72.1074ZM361.697 134.949C361.17 134.422 360.906 133.777 360.906 133.016C360.906 132.254 361.17 131.609 361.697 131.082C362.244 130.555 362.898 130.291 363.66 130.291C364.402 130.291 365.037 130.555 365.564 131.082C366.111 131.609 366.385 132.254 366.385 133.016C366.385 133.777 366.121 134.422 365.594 134.949C365.066 135.477 364.422 135.74 363.66 135.74C362.898 135.74 362.244 135.477 361.697 134.949ZM366.824 136.004C366.59 135.77 366.473 135.477 366.473 135.125C366.473 134.773 366.59 134.471 366.824 134.217C367.078 133.982 367.381 133.865 367.732 133.865C368.064 133.865 368.357 133.982 368.611 134.217C368.865 134.471 368.992 134.773 368.992 135.125C368.992 135.477 368.865 135.77 368.611 136.004C368.357 136.258 368.064 136.385 367.732 136.385C367.381 136.385 367.078 136.258 366.824 136.004ZM360.818 73.3965C364.861 73.3965 368.357 73.9824 371.307 75.1543V80.252C368.24 78.6895 364.959 77.9082 361.463 77.9082C358.084 77.9082 355.779 78.5527 354.549 79.8418C354.256 80.1348 354.012 80.4961 353.816 80.9258C353.289 81.4141 352.654 81.6582 351.912 81.6582C351.15 81.6582 350.486 81.3848 349.92 80.8379C349.373 80.291 349.1 79.627 349.1 78.8457C349.588 77.8105 350.301 76.9023 351.238 76.1211C351.473 76.0625 351.697 76.0332 351.912 76.0332C352.693 76.0332 353.357 76.3066 353.904 76.8535C354.451 77.4004 354.725 78.0645 354.725 78.8457C354.725 79.2168 354.666 79.5488 354.549 79.8418C354.373 80.2715 354.129 80.6328 353.816 80.9258C353.562 81.4531 353.436 82.0879 353.436 82.8301C353.436 84.0801 353.914 85.0566 354.871 85.7598C355.652 86.3652 357.029 86.9121 359.002 87.4004C359.217 87.4785 359.578 87.5762 360.086 87.6934C359.734 87.6738 359.373 87.5762 359.002 87.4004C358.396 87.1465 357.908 86.7461 357.537 86.1992C357.166 85.6523 356.98 85.0273 356.98 84.3242C356.98 83.3867 357.303 82.5957 357.947 81.9512C358.611 81.2871 359.412 80.9551 360.35 80.9551C361.287 80.9551 362.078 81.2773 362.723 81.9219C363.387 82.5664 363.719 83.3672 363.719 84.3242C363.719 85.2812 363.387 86.082 362.723 86.7266C362.078 87.3711 361.287 87.6934 360.35 87.6934H360.086L360.643 87.8105L362.488 88.2207C364.93 88.748 366.902 89.3926 368.406 90.1543C369.91 90.916 371.033 91.8633 371.775 92.9961C372.518 94.1289 372.938 95.5059 373.035 97.127C373.055 97.3027 373.064 97.5762 373.064 97.9473C373.064 99.4121 372.771 100.75 372.186 101.961C371.6 103.152 370.75 104.178 369.637 105.037C368.992 104.178 368.67 103.191 368.67 102.078C368.67 101.238 368.865 100.467 369.256 99.7637C369.646 99.041 370.174 98.4453 370.838 97.9766C371.502 97.5078 372.234 97.2246 373.035 97.127C373.172 97.1074 373.377 97.0977 373.65 97.0977C374.51 97.0977 375.301 97.3027 376.023 97.7129C376.746 98.1035 377.332 98.6406 377.781 99.3242C378.25 100.008 378.523 100.77 378.602 101.609C378.621 101.707 378.631 101.863 378.631 102.078C378.631 103.172 378.318 104.158 377.693 105.037C377.635 104.764 377.605 104.49 377.605 104.217C377.605 103.201 377.938 102.332 378.602 101.609C378.973 101.219 379.402 100.916 379.891 100.701C380.398 100.467 380.926 100.35 381.473 100.35C382.176 100.35 382.82 100.525 383.406 100.877C384.012 101.209 384.48 101.678 384.812 102.283C385.164 102.869 385.34 103.514 385.34 104.217C385.34 104.666 385.281 105.066 385.164 105.418C384.969 106.004 384.656 106.512 384.227 106.941C383.797 107.371 383.289 107.684 382.703 107.879C382.84 107.273 383.133 106.756 383.582 106.326C384.031 105.877 384.559 105.574 385.164 105.418C385.438 105.359 385.711 105.33 385.984 105.33C386.863 105.33 387.615 105.613 388.24 106.18C388.865 106.746 389.227 107.459 389.324 108.318C389.344 108.416 389.354 108.543 389.354 108.699C389.354 109.52 389.1 110.242 388.592 110.867C388.572 110.789 388.562 110.672 388.562 110.516C388.562 109.715 388.816 108.982 389.324 108.318C389.656 107.928 390.057 107.615 390.525 107.381C390.994 107.166 391.492 107.059 392.02 107.059C392.977 107.059 393.787 107.391 394.451 108.055C395.135 108.738 395.477 109.559 395.477 110.516C395.477 111.004 395.379 111.463 395.184 111.893C394.988 112.342 394.725 112.723 394.393 113.035C393.729 113.66 392.938 113.973 392.02 113.973C391.707 113.973 391.355 113.924 390.965 113.826C391.668 113.221 392.498 112.918 393.455 112.918C393.826 112.918 394.139 112.957 394.393 113.035C395.252 113.25 395.955 113.699 396.502 114.383C397.049 115.066 397.322 115.867 397.322 116.785C397.322 117.508 397.146 118.162 396.795 118.748C396.463 119.334 395.994 119.793 395.389 120.125C394.803 120.477 394.158 120.652 393.455 120.652C393.299 120.652 393.172 120.643 393.074 120.623C392.273 120.564 391.58 120.281 390.994 119.773C391.775 119.891 392.469 120.174 393.074 120.623C393.621 121.033 394.051 121.551 394.363 122.176C394.695 122.801 394.861 123.475 394.861 124.197C394.861 125.037 394.656 125.789 394.246 126.453C393.855 127.137 393.318 127.674 392.635 128.064C391.951 128.455 391.199 128.65 390.379 128.65C389.578 128.65 388.836 128.455 388.152 128.064C387.469 127.674 386.922 127.137 386.512 126.453C386.121 125.789 385.926 125.037 385.926 124.197C385.926 123.377 386.121 122.625 386.512 121.941C386.922 121.277 387.469 120.74 388.152 120.33C388.836 119.939 389.578 119.744 390.379 119.744C390.652 119.744 390.857 119.754 390.994 119.773C390.564 119.422 390.223 118.982 389.969 118.455C389.715 117.947 389.588 117.391 389.588 116.785C389.588 116.199 389.705 115.652 389.939 115.145C390.193 114.637 390.535 114.197 390.965 113.826C390.301 113.611 389.754 113.24 389.324 112.713C388.895 112.186 388.65 111.57 388.592 110.867C388.279 111.238 387.898 111.531 387.449 111.746C387 111.961 386.512 112.068 385.984 112.068C385.047 112.068 384.246 111.736 383.582 111.072C382.938 110.428 382.615 109.637 382.615 108.699C382.615 108.426 382.645 108.152 382.703 107.879C382.352 108.016 381.941 108.084 381.473 108.084C380.555 108.084 379.744 107.801 379.041 107.234C378.338 106.668 377.889 105.936 377.693 105.037C377.225 105.662 376.639 106.16 375.936 106.531C375.232 106.883 374.471 107.059 373.65 107.059C372.85 107.059 372.098 106.883 371.395 106.531C370.691 106.16 370.105 105.662 369.637 105.037C368.465 105.955 367.02 106.648 365.301 107.117C363.582 107.605 361.648 107.85 359.5 107.85C356.004 107.85 352.166 107.166 347.986 105.799V100.232C351.951 102.303 355.828 103.338 359.617 103.338C362.137 103.338 364.08 102.908 365.447 102.049C366.834 101.17 367.527 99.9395 367.527 98.3574C367.527 96.9121 367.039 95.7891 366.062 94.9883C365.105 94.2266 362.938 93.4746 359.559 92.7324L357.684 92.293C354.344 91.5898 351.932 90.5156 350.447 89.0703C348.963 87.6055 348.221 85.6035 348.221 83.0645C348.221 81.4824 348.514 80.0762 349.1 78.8457C349.1 78.1816 349.305 77.6055 349.715 77.1172C350.125 76.6094 350.633 76.2773 351.238 76.1211C353.406 74.3047 356.6 73.3965 360.818 73.3965ZM308.963 85.291C308.709 85.0371 308.582 84.7344 308.582 84.3828C308.582 84.0312 308.709 83.7383 308.963 83.5039C309.197 83.25 309.49 83.123 309.842 83.123C310.174 83.123 310.467 83.25 310.721 83.5039C310.975 83.7383 311.102 84.0312 311.102 84.3828C311.102 84.7344 310.975 85.0371 310.721 85.291C310.467 85.5254 310.174 85.6426 309.842 85.6426C309.49 85.6426 309.197 85.5254 308.963 85.291ZM313.768 91.2676C313.221 90.7402 312.947 90.0957 312.947 89.334C312.947 88.5723 313.221 87.9277 313.768 87.4004C314.295 86.873 314.939 86.6094 315.701 86.6094C316.443 86.6094 317.088 86.873 317.635 87.4004C318.162 87.9277 318.426 88.5723 318.426 89.334C318.426 90.0957 318.162 90.7402 317.635 91.2676C317.107 91.7949 316.463 92.0586 315.701 92.0586C314.939 92.0586 314.295 91.7949 313.768 91.2676ZM322.967 88.6016C322.518 88.1523 322.293 87.6055 322.293 86.9609C322.293 86.3164 322.518 85.7793 322.967 85.3496C323.416 84.9004 323.953 84.6758 324.578 84.6758C325.203 84.6758 325.74 84.9004 326.189 85.3496C326.639 85.7793 326.863 86.3164 326.863 86.9609C326.863 87.6055 326.639 88.1523 326.189 88.6016C325.74 89.0312 325.203 89.2461 324.578 89.2461C323.953 89.2461 323.416 89.0312 322.967 88.6016ZM327.479 80.3398C326.756 79.6367 326.395 78.7773 326.395 77.7617C326.395 76.7461 326.756 75.8867 327.479 75.1836C328.182 74.4805 329.031 74.1289 330.027 74.1289C331.023 74.1289 331.873 74.4805 332.576 75.1836C333.279 75.8867 333.631 76.7461 333.631 77.7617C333.631 78.7773 333.279 79.6367 332.576 80.3398C331.873 81.043 331.023 81.3945 330.027 81.3945C329.031 81.3945 328.182 81.043 327.479 80.3398ZM336.385 72.3418C335.682 71.6387 335.33 70.7891 335.33 69.793C335.33 69.1484 335.496 68.5527 335.828 68.0059C336.141 67.459 336.57 67.0293 337.117 66.7168C337.664 66.3848 338.26 66.2188 338.904 66.2188C339.9 66.2188 340.75 66.5703 341.453 67.2734C342.137 67.957 342.479 68.7969 342.479 69.793C342.479 70.8086 342.137 71.6582 341.453 72.3418C340.75 73.0254 339.9 73.3672 338.904 73.3672C337.928 73.3672 337.088 73.0254 336.385 72.3418ZM348.191 72.1074C347.605 71.5215 347.312 70.7988 347.312 69.9395C347.312 69.0996 347.605 68.3867 348.191 67.8008C348.797 67.1953 349.51 66.8926 350.33 66.8926C351.189 66.8926 351.912 67.1855 352.498 67.7715C353.084 68.3574 353.377 69.0801 353.377 69.9395C353.377 70.7988 353.084 71.5215 352.498 72.1074C351.912 72.6934 351.189 72.9863 350.33 72.9863C349.51 72.9863 348.797 72.6934 348.191 72.1074ZM392.986 134.949C392.459 134.422 392.195 133.777 392.195 133.016C392.195 132.254 392.459 131.609 392.986 131.082C393.533 130.555 394.188 130.291 394.949 130.291C395.691 130.291 396.326 130.555 396.854 131.082C397.4 131.609 397.674 132.254 397.674 133.016C397.674 133.777 397.41 134.422 396.883 134.949C396.355 135.477 395.711 135.74 394.949 135.74C394.188 135.74 393.533 135.477 392.986 134.949ZM398.113 136.004C397.879 135.77 397.762 135.477 397.762 135.125C397.762 134.773 397.879 134.471 398.113 134.217C398.367 133.982 398.67 133.865 399.021 133.865C399.354 133.865 399.646 133.982 399.9 134.217C400.154 134.471 400.281 134.773 400.281 135.125C400.281 135.477 400.154 135.77 399.9 136.004C399.646 136.258 399.354 136.385 399.021 136.385C398.67 136.385 398.367 136.258 398.113 136.004Z" fill="#D3FF00"/>
</svg>
