<svg width="507" height="106" viewBox="0 0 507 106" fill="none" xmlns="http://www.w3.org/2000/svg">
<path d="M29.2812 46.9375V41.0938H40.9375V35.2812H46.75V29.4688H35.0938V23.6562H23.4688V46.9375H29.2812ZM23.4688 99.25V87.625H17.6562V76H11.8438V64.375H0.21875V58.5625H6.03125V52.75H11.8438V12H6.03125V6.1875H29.2812V12H46.75V17.8438H52.5625V23.6562H58.375V41.0938H52.5625V46.9375H46.75V52.75H29.2812V58.5625H23.4688V70.1875H29.2812V99.25H23.4688ZM64.2188 105.062V23.6562H58.4062V17.8438H87.4688V23.6562H81.6562V29.4688H75.8438V81.8125H87.4688V87.625H81.6562V93.4375H75.8438V99.25H70.0312V105.062H64.2188ZM157.281 99.25V93.4375H139.812V87.625H134V81.8125H128.188V76H122.375V70.1875H116.562V58.5625H110.719V64.375H99.0938V70.1875H104.906V76H75.8438V70.1875H81.6562V64.375H87.4688V58.5625H93.2812V52.75H104.906V46.9375H99.0938V41.0938H93.2812V29.4688H87.4688V23.6562H81.6562V17.8438H110.719V23.6562H104.906V35.2812H110.719V41.0938H116.562V35.2812H122.375V23.6562H116.562V17.8438H128.188V12H139.812V6.1875H151.469V0.375H157.281V12H151.469V17.8438H145.656V23.6562H139.812V29.4688H134V41.0938H128.188V46.9375H122.375V52.75H128.188V64.375H134V70.1875H139.812V76H151.469V81.8125H163.094V87.625H174.719V81.8125H192.188V76H203.812V81.8125H198V87.625H192.188V93.4375H180.562V99.25H157.281ZM186.375 105.062V99.25H168.906V93.4375H157.281V87.625H139.844V81.8125H145.656V76H151.469V52.75H139.844V46.9375H145.656V41.0938H151.469V29.4688H145.656V23.6562H139.844V17.8438H186.375V35.2812H180.562V29.4688H163.094V41.0938H180.562V46.9375H174.75V52.75H163.094V76H168.906V81.8125H180.562V87.625H192.188V93.4375H215.469V87.625H232.906V81.8125H244.562V87.625H238.75V93.4375H232.906V99.25H221.281V105.062H186.375ZM227.125 99.25V93.4375H209.656V87.625H198.031V81.8125H180.594V76H186.406V70.1875H192.219V23.6562H186.406V17.8438H215.469V23.6562H209.656V29.4688H203.844V70.1875H209.656V76H221.312V81.8125H232.938V87.625H256.219V81.8125H273.656V76H285.312V81.8125H279.469V87.625H273.656V93.4375H262.031V99.25H227.125ZM320.188 105.062V41.0938H314.375V46.9375H308.531V41.0938H302.719V70.1875H308.531V76H279.469V70.1875H285.281V64.375H291.094V52.75H285.281V46.9375H279.469V41.0938H291.094V29.4688H285.281V23.6562H279.469V17.8438H302.719V23.6562H308.531V29.4688H314.375V23.6562H320.188V12H326V6.1875H343.469V12H337.625V17.8438H331.812V81.8125H343.469V87.625H337.625V93.4375H331.812V99.25H326V105.062H320.188ZM378.375 70.1875V64.375H384.188V58.5625H390V52.75H395.812V46.9375H390V41.0938H384.188V35.2812H378.375V29.4688H372.562V35.2812H366.719V41.0938H360.906V46.9375H355.094V52.75H360.906V58.5625H366.719V64.375H372.562V70.1875H378.375ZM372.562 87.625V81.8125H366.719V76H360.906V70.1875H355.094V64.375H349.281V58.5625H343.469V52.75H337.656V46.9375H343.469V41.0938H349.281V35.2812H355.094V29.4688H360.906V23.6562H366.719V17.8438H372.562V12H378.375V17.8438H384.188V23.6562H390V29.4688H395.812V35.2812H401.656V41.0938H407.469V46.9375H413.281V52.75H407.469V58.5625H401.656V64.375H395.812V70.1875H390V76H384.188V81.8125H378.375V87.625H372.562ZM401.656 87.625V76H395.844V64.375H390.031V52.75H395.844V58.5625H407.469V64.375H430.719V58.5625H436.531V52.75H430.719V46.9375H424.906V41.0938H419.094V35.2812H413.281V29.4688H407.469V6.1875H413.281V0.375H459.812V6.1875H465.625V23.6562H459.812V17.8438H454V12H419.094V23.6562H424.906V29.4688H430.719V35.2812H436.531V41.0938H442.375V46.9375H448.188V64.375H442.375V70.1875H436.531V76H413.281V81.8125H407.469V87.625H401.656ZM442.406 87.625V76H436.594V64.375H430.781V52.75H436.594V58.5625H448.219V64.375H471.469V58.5625H477.281V52.75H471.469V46.9375H465.656V41.0938H459.844V35.2812H454.031V29.4688H448.219V6.1875H454.031V0.375H500.562V6.1875H506.375V23.6562H500.562V17.8438H494.75V12H459.844V23.6562H465.656V29.4688H471.469V35.2812H477.281V41.0938H483.125V46.9375H488.938V64.375H483.125V70.1875H477.281V76H454.031V81.8125H448.219V87.625H442.406Z" fill="#D3FF00"/>
</svg>
