<svg width="353" height="47" viewBox="0 0 353 47" fill="none" xmlns="http://www.w3.org/2000/svg">
<path d="M32.3288 14.64V11.12V9.264C32.3288 9.136 32.3288 9.072 32.3288 8.944C32.0728 8.176 31.8168 7.92 31.0488 7.664C30.9208 7.664 30.8568 7.664 30.7288 7.664H29.8968C29.3208 7.664 28.8728 7.152 28.8728 6.64V5.744C28.8728 5.68 28.8728 5.552 28.8088 5.488C28.5528 4.656 28.3608 4.4 27.5288 4.208C27.4648 4.144 27.3368 4.144 27.2728 4.144H25.3528H21.8968H20.0408C19.9128 4.144 19.8488 4.144 19.7208 4.208C18.8888 4.4 18.6968 4.656 18.4408 5.488C18.3768 5.552 18.3768 5.68 18.3768 5.744V7.664V11.12V13.616C18.3768 14.192 17.9288 14.64 17.3528 14.64H16.5208C16.4568 14.64 16.3288 14.64 16.2648 14.64C15.4328 14.896 15.1768 15.152 14.9208 15.984C14.9208 16.048 14.9208 16.112 14.9208 16.24V18.096V19.952C14.9208 20.08 14.9208 20.144 14.9208 20.272C15.1768 21.104 15.4328 21.296 16.2648 21.552C16.3288 21.616 16.4568 21.616 16.5208 21.616H18.3768H21.8968H25.3528H27.2728C27.3368 21.616 27.4648 21.616 27.5288 21.552C28.3608 21.296 28.5528 21.104 28.8088 20.272C28.8728 20.144 28.8728 20.08 28.8728 19.952V19.12C28.8728 18.544 29.3208 18.096 29.8968 18.096H30.7288C30.8568 18.096 30.9208 18.096 31.0488 18.096C31.8168 17.84 32.0728 17.584 32.3288 16.752C32.3288 16.688 32.3288 16.56 32.3288 16.496V14.64ZM33.6728 7.6C33.8008 7.6 33.8647 7.664 33.9928 7.664H34.8248C35.4008 7.664 35.8488 8.112 35.8488 8.624V11.12V14.64V17.072C35.8488 17.648 35.4008 18.096 34.8248 18.096H33.9928C33.8647 18.096 33.8008 18.096 33.6728 18.16C32.8408 18.416 32.6488 18.608 32.3928 19.44C32.3928 19.568 32.3288 19.632 32.3288 19.76V20.592C32.3288 21.168 31.8808 21.616 31.3688 21.616H30.4728C30.4088 21.616 30.2808 21.616 30.2168 21.616C29.3848 21.872 29.1288 22.128 28.9368 22.96C28.8728 23.024 28.8728 23.152 28.8728 23.216V24.048C28.8728 24.624 28.4248 25.072 27.8488 25.072H25.3528H21.8968H18.3768H14.9208H13.0008C12.9368 25.072 12.8088 25.136 12.7448 25.136C11.9128 25.392 11.7208 25.584 11.4648 26.416C11.4008 26.544 11.4008 26.608 11.4008 26.736V28.592V31.088C11.4008 31.6 10.9528 32.048 10.3767 32.048H9.54475C9.41675 32.048 9.35275 32.112 9.22475 32.112C8.45675 32.368 8.20075 32.56 7.94475 33.392C7.94475 33.52 7.94475 33.584 7.94475 33.712V35.568V39.024V41.52C7.94475 42.096 7.43275 42.544 6.92075 42.544H6.02475C5.96075 42.544 5.83275 42.544 5.76875 42.608C4.93675 42.8 4.68075 43.056 4.48875 43.888C4.42475 43.952 4.42475 44.08 4.42475 44.144V45.04C4.42475 45.552 3.97675 46.064 3.40075 46.064H1.92875C1.41675 46.064 0.96875 45.552 0.96875 45.04V43.568C0.96875 42.992 1.41675 42.544 1.92875 42.544H2.82475C2.88875 42.544 3.01675 42.544 3.08075 42.48C3.91275 42.288 4.16875 42.032 4.36075 41.2C4.42475 41.136 4.42475 41.008 4.42475 40.944V39.024V35.568V33.072C4.42475 32.496 4.87275 32.048 5.44875 32.048H6.28075C6.40875 32.048 6.47275 32.048 6.60075 32.048C7.43275 31.792 7.62475 31.536 7.88075 30.768C7.88075 30.64 7.94475 30.576 7.94475 30.448V28.592V26.096C7.94475 25.52 8.39275 25.072 8.90475 25.072H9.80075C9.86475 25.072 9.99275 25.072 10.0568 25.072C10.8888 24.816 11.1448 24.56 11.3368 23.728C11.4008 23.664 11.4008 23.536 11.4008 23.472V21.616V18.096V15.664C11.4008 15.088 11.8488 14.64 12.4248 14.64H13.2568C13.3848 14.64 13.4488 14.576 13.5768 14.576C14.4088 14.32 14.6008 14.128 14.8568 13.296C14.8568 13.168 14.9208 13.104 14.9208 12.976V11.12V7.664V5.744C14.9208 5.68 14.8568 5.552 14.8568 5.488C14.6008 4.656 14.4088 4.4 13.5768 4.208C13.4488 4.144 13.3848 4.144 13.2568 4.144H13.0008C12.9368 4.144 12.8088 4.144 12.7448 4.208C11.9128 4.4 11.7208 4.656 11.4648 5.488C11.4008 5.552 11.4008 5.68 11.4008 5.744V6.64C11.4008 7.152 10.9528 7.664 10.3767 7.664H8.90475C8.39275 7.664 7.94475 7.152 7.94475 6.64V5.168C7.94475 4.592 8.39275 4.144 8.90475 4.144H9.80075C9.86475 4.144 9.99275 4.144 10.0568 4.08C10.8888 3.888 11.1448 3.632 11.3368 2.8C11.4008 2.736 11.4008 2.608 11.4008 2.544V1.648C11.4008 1.136 11.8488 0.623997 12.4248 0.623997H13.8968C14.4728 0.623997 14.9208 1.136 14.9208 1.648V2.544C14.9208 2.608 14.9208 2.736 14.9208 2.8C15.1768 3.632 15.4328 3.888 16.2648 4.08C16.3288 4.144 16.4568 4.144 16.5208 4.144H16.7768C16.8408 4.144 16.9688 4.144 17.0328 4.08C17.8647 3.888 18.1208 3.632 18.3768 2.8C18.3768 2.736 18.3768 2.608 18.3768 2.544V1.648C18.3768 1.136 18.8248 0.623997 19.4008 0.623997H21.8968H25.3528H27.8488C28.4248 0.623997 28.8728 1.136 28.8728 1.648V2.544C28.8728 2.608 28.8728 2.736 28.9368 2.8C29.1288 3.632 29.3848 3.888 30.2168 4.08C30.2808 4.144 30.4088 4.144 30.4728 4.144H31.3688C31.8808 4.144 32.3288 4.592 32.3288 5.168V6C32.3288 6.128 32.3928 6.192 32.3928 6.32C32.6488 7.152 32.8408 7.344 33.6728 7.6ZM51.1273 11.12V13.616C51.1273 14.128 50.6793 14.64 50.1033 14.64H49.2713C49.1433 14.64 49.0793 14.64 48.9513 14.64C48.1833 14.896 47.9273 15.152 47.6713 15.92C47.6713 16.048 47.6713 16.112 47.6713 16.24V18.096V21.616V24.048C47.6713 24.624 47.1593 25.072 46.6473 25.072H45.7513C45.6873 25.072 45.5593 25.072 45.4953 25.136C44.6633 25.392 44.4073 25.584 44.2153 26.416C44.1513 26.48 44.1513 26.608 44.1513 26.736V28.592V31.024C44.1513 31.6 43.7033 32.048 43.1273 32.048H42.2953C42.1673 32.048 42.1033 32.048 41.9753 32.112C41.2073 32.368 40.9513 32.56 40.6953 33.392C40.6953 33.52 40.6313 33.584 40.6313 33.712V35.568V39.024V40.944C40.6313 41.008 40.6953 41.136 40.6953 41.2C40.9513 42.032 41.2073 42.288 41.9753 42.48C42.1033 42.544 42.1673 42.544 42.2953 42.544H42.5513C42.6153 42.544 42.7433 42.544 42.8073 42.48C43.7033 42.224 43.8953 41.968 44.1513 41.072V40.048C44.1513 39.472 44.5993 39.024 45.1753 39.024H46.6473C47.1593 39.024 47.6713 39.472 47.6713 40.048V41.52C47.6713 42.096 47.1593 42.544 46.6473 42.544H45.7513C45.6873 42.544 45.5593 42.544 45.4953 42.608C44.6633 42.8 44.4073 43.056 44.2153 43.888C44.1513 43.952 44.1513 44.08 44.1513 44.144V45.04C44.1513 45.552 43.7033 46 43.1273 46H41.6553C41.1432 46 40.6313 45.552 40.6313 45.04V44.144C40.6313 44.08 40.6313 43.952 40.6313 43.888C40.3753 43.056 40.1193 42.8 39.3513 42.608C39.2233 42.544 39.1593 42.544 39.0312 42.544H38.1992C37.6232 42.544 37.1752 42.096 37.1752 41.52V39.024V35.568V33.072C37.1752 32.496 37.6232 32.048 38.1992 32.048H39.0312C39.1593 32.048 39.2233 32.048 39.3513 32.048C40.1193 31.792 40.3753 31.536 40.6313 30.704C40.6313 30.64 40.6313 30.512 40.6313 30.448V28.592V26.096C40.6313 25.52 41.1432 25.072 41.6553 25.072H42.5513C42.6153 25.072 42.7433 25.072 42.8073 25.072C43.6393 24.816 43.8953 24.56 44.0873 23.728C44.1513 23.664 44.1513 23.536 44.1513 23.472V21.616V18.096V15.6C44.1513 15.088 44.5993 14.64 45.1753 14.64H46.0073C46.1353 14.64 46.1993 14.576 46.3273 14.576C47.0953 14.32 47.3513 14.064 47.6073 13.296C47.6073 13.168 47.6713 13.104 47.6713 12.976V11.12V7.6V5.744C47.6713 5.68 47.6073 5.552 47.6073 5.488C47.3513 4.592 47.0953 4.4 46.1353 4.144C46.1353 4.144 46.1353 4.144 46.1993 4.144H45.6233C44.7273 4.4 44.4713 4.592 44.2153 5.488C44.1513 5.552 44.1513 5.68 44.1513 5.744V6.64C44.1513 7.152 43.7033 7.6 43.1273 7.6H41.6553C41.1432 7.6 40.6313 7.152 40.6313 6.64V5.168C40.6313 4.592 41.1432 4.144 41.6553 4.144H42.5513C42.6153 4.144 42.7433 4.144 42.8073 4.08C43.7033 3.824 43.8953 3.568 44.1513 2.672V1.648C44.1513 1.072 44.5993 0.623997 45.1753 0.623997H46.6473C47.1593 0.623997 47.6713 1.072 47.6713 1.648V2.544C47.6713 2.608 47.6713 2.736 47.6713 2.8C47.9273 3.632 48.1833 3.824 48.9513 4.08C49.0793 4.144 49.1433 4.144 49.2713 4.144H50.1033C50.6793 4.144 51.1273 4.592 51.1273 5.168V7.6V11.12ZM87.3678 2.736C87.3678 2.608 87.3678 2.544 87.3678 2.416V1.584C87.3678 1.008 87.8158 0.559998 88.3918 0.559998H89.8638C90.4398 0.559998 90.8878 1.008 90.8878 1.584V3.056C90.8878 3.632 90.4398 4.08 89.8638 4.08H89.0318C88.9038 4.08 88.8398 4.08 88.7118 4.08C87.8798 4.336 87.6878 4.592 87.4318 5.424C87.4318 5.488 87.3678 5.616 87.3678 5.68V6.512C87.3678 7.088 86.9198 7.536 86.4078 7.536H85.5118C85.4478 7.536 85.3198 7.536 85.2558 7.6C84.4238 7.856 84.1678 8.048 83.9118 8.88C83.9118 9.008 83.9118 9.072 83.9118 9.2V11.056V13.488C83.9118 14.064 83.4638 14.512 82.8878 14.512H82.0558C81.9278 14.512 81.8638 14.576 81.7358 14.576C80.9038 14.832 80.7118 15.024 80.4558 15.856C80.4558 15.984 80.3918 16.048 80.3918 16.176V17.008C80.3918 17.584 79.9438 18.032 79.3678 18.032H78.5358C78.4718 18.032 78.3438 18.032 78.2798 18.096C77.4478 18.288 77.1918 18.544 76.9358 19.376C76.9358 19.44 76.9358 19.568 76.9358 19.632V20.528C76.9358 21.04 76.4878 21.488 75.9118 21.488H75.0798C74.9518 21.488 74.8878 21.552 74.7598 21.552C73.9278 21.808 73.7358 22.064 73.4798 22.832C73.4158 22.96 73.4158 23.024 73.4158 23.152V23.408C73.4158 23.472 73.4158 23.6 73.4798 23.664C73.7358 24.496 73.9278 24.752 74.7598 24.944C74.8878 25.008 74.9518 25.008 75.0798 25.008H75.9118C76.4878 25.008 76.9358 25.456 76.9358 26.032V28.528V30.384C76.9358 30.448 76.9358 30.576 76.9358 30.64C77.1918 31.472 77.4478 31.728 78.2798 31.92C78.3438 31.984 78.4718 31.984 78.5358 31.984H79.3678C79.9438 31.984 80.3918 32.432 80.3918 33.008V35.504V38.96V40.816C80.3918 40.944 80.4558 41.008 80.4558 41.136C80.7118 41.968 80.9038 42.16 81.7358 42.416C81.8638 42.416 81.9278 42.48 82.0558 42.48H82.3118C82.3758 42.48 82.5038 42.416 82.5678 42.416C83.3998 42.16 83.5918 41.968 83.8478 41.136C83.9118 41.008 83.9118 40.944 83.9118 40.816V39.984C83.9118 39.408 84.3598 38.96 84.9358 38.96H86.4078C86.9198 38.96 87.3678 39.408 87.3678 39.984V41.456C87.3678 42.032 86.9198 42.48 86.4078 42.48H85.5118C85.4478 42.48 85.3198 42.48 85.2558 42.48C84.4238 42.736 84.1678 42.992 83.9118 43.824C83.9118 43.888 83.9118 44.016 83.9118 44.08V44.912C83.9118 45.488 83.4638 45.936 82.8878 45.936H81.4158C80.8398 45.936 80.3918 45.488 80.3918 44.912V44.08C80.3918 44.016 80.3918 43.888 80.3918 43.824C80.1358 42.992 79.8798 42.736 79.0478 42.48C78.9838 42.48 78.8558 42.48 78.7918 42.48H77.9598C77.3838 42.48 76.9358 42.032 76.9358 41.456V38.96V35.504V33.584C76.9358 33.52 76.9358 33.392 76.8718 33.328C76.6158 32.496 76.4238 32.24 75.5918 32.048C75.4638 31.984 75.3998 31.984 75.2718 31.984H74.4398C73.8638 31.984 73.4158 31.536 73.4158 30.96V28.528V26.608C73.4158 26.544 73.4158 26.416 73.4158 26.352C73.1597 25.52 72.9038 25.264 72.0718 25.072C72.0078 25.008 71.8798 25.008 71.8158 25.008H69.9598H68.0398C67.9758 25.008 67.8478 25.008 67.7838 25.072C66.9518 25.264 66.7598 25.52 66.5038 26.352C66.4398 26.416 66.4398 26.544 66.4398 26.608V28.528V30.96C66.4398 31.536 65.9918 31.984 65.4158 31.984H64.5838C64.4558 31.984 64.3918 31.984 64.2638 32.048C63.4958 32.24 63.2398 32.496 62.9838 33.328C62.9838 33.392 62.9838 33.52 62.9838 33.584V34.48C62.9838 35.056 62.4718 35.504 61.9598 35.504H61.0638C60.9998 35.504 60.8718 35.504 60.8078 35.504C59.9758 35.76 59.7198 36.016 59.5278 36.784C59.4638 36.912 59.4638 36.976 59.4638 37.104V38.96V41.456C59.4638 42.032 59.0158 42.48 58.4398 42.48H57.6078C57.4798 42.48 57.4158 42.48 57.2878 42.48C56.5198 42.736 56.2638 42.992 56.0078 43.824C56.0078 43.888 55.9438 44.016 55.9438 44.08V44.912C55.9438 45.488 55.4958 45.936 54.9838 45.936H53.5117C52.9357 45.936 52.4877 45.488 52.4877 44.912V43.504C52.4877 42.928 52.9357 42.48 53.5117 42.48H54.3438C54.4718 42.48 54.5358 42.416 54.6638 42.416C55.4318 42.16 55.6878 41.968 55.9438 41.136C55.9438 41.008 55.9438 40.944 55.9438 40.816V38.96V36.464C55.9438 35.952 56.4557 35.504 56.9678 35.504H57.8638C57.9278 35.504 58.0558 35.44 58.1198 35.44C58.9518 35.184 59.2078 34.992 59.3998 34.16C59.4638 34.032 59.4638 33.968 59.4638 33.84V33.008C59.4638 32.432 59.9118 31.984 60.4878 31.984H61.3198C61.4478 31.984 61.5118 31.984 61.6398 31.92C62.4078 31.728 62.6638 31.472 62.9198 30.64C62.9198 30.576 62.9838 30.448 62.9838 30.384V28.528V26.032C62.9838 25.456 63.4318 25.008 63.9438 25.008H64.8398C64.9038 25.008 65.0318 25.008 65.0958 24.944C65.9278 24.752 66.1838 24.496 66.3758 23.664C66.4398 23.6 66.4398 23.472 66.4398 23.408V22.512C66.4398 22 66.8878 21.488 67.4638 21.488H68.2958C68.4238 21.488 68.4878 21.488 68.6158 21.488C69.4478 21.232 69.6398 20.976 69.8958 20.208C69.8958 20.08 69.9598 20.016 69.9598 19.888V18.032V16.176C69.9598 16.048 69.8958 15.984 69.8958 15.856C69.6398 15.024 69.4478 14.832 68.6158 14.576C68.4878 14.576 68.4238 14.512 68.2958 14.512H67.4638C66.8878 14.512 66.4398 14.064 66.4398 13.488V11.056V7.536V5.68C66.4398 5.616 66.4398 5.488 66.3758 5.424C66.1838 4.592 65.9278 4.336 65.0958 4.08C65.0318 4.08 64.9038 4.08 64.8398 4.08H64.5838C64.4558 4.08 64.3918 4.08 64.2638 4.08C63.4958 4.336 63.2398 4.592 62.9838 5.424C62.9838 5.488 62.9838 5.616 62.9838 5.68V6.512C62.9838 7.088 62.4718 7.536 61.9598 7.536H60.4878C59.9118 7.536 59.4638 7.088 59.4638 6.512V5.104C59.4638 4.528 59.9118 4.08 60.4878 4.08H61.3198C61.4478 4.08 61.5118 4.016 61.6398 4.016C62.4078 3.76 62.6638 3.568 62.9198 2.736C62.9198 2.608 62.9838 2.544 62.9838 2.416V1.584C62.9838 1.008 63.4318 0.559998 63.9438 0.559998H65.4158C65.9918 0.559998 66.4398 1.008 66.4398 1.584V2.416C66.4398 2.544 66.4398 2.608 66.5038 2.736C66.7598 3.568 66.9518 3.76 67.7838 4.016C67.8478 4.016 67.9758 4.08 68.0398 4.08H68.9358C69.5118 4.08 69.9598 4.528 69.9598 5.104V7.536V11.056V12.912C69.9598 13.04 69.9598 13.104 69.9598 13.168C70.2158 14 70.4718 14.256 71.3038 14.512C71.3678 14.512 71.4318 14.512 71.5598 14.512H72.3918C72.9678 14.512 73.4158 14.96 73.4158 15.536V16.432C73.4158 16.496 73.4158 16.624 73.4798 16.688C73.7358 17.52 73.9278 17.712 74.7598 17.968C74.8878 18.032 74.9518 18.032 75.0798 18.032H75.2718C75.3998 18.032 75.4638 18.032 75.5918 17.968C76.4238 17.712 76.6158 17.52 76.8718 16.688C76.9358 16.624 76.9358 16.496 76.9358 16.432V15.536C76.9358 14.96 77.3838 14.512 77.9598 14.512H78.7918C78.8558 14.512 78.9838 14.512 79.0478 14.512C79.8798 14.256 80.1358 14 80.3918 13.168C80.3918 13.104 80.3918 13.04 80.3918 12.912V11.056V8.56C80.3918 7.984 80.8398 7.536 81.4158 7.536H82.3118C82.3758 7.536 82.5038 7.536 82.5678 7.536C83.3998 7.28 83.5918 7.024 83.8478 6.192C83.9118 6.128 83.9118 6 83.9118 5.936V5.104C83.9118 4.528 84.3598 4.08 84.9358 4.08H85.7678C85.8958 4.08 85.9598 4.016 86.0878 4.016C86.8558 3.76 87.1118 3.568 87.3678 2.736ZM123.278 4.144C122.382 4.4 122.126 4.592 121.87 5.488C121.806 5.552 121.806 5.68 121.806 5.744V6.64C121.806 7.152 121.358 7.6 120.782 7.6H119.374C118.798 7.6 118.35 7.152 118.35 6.64V5.744C118.35 5.68 118.35 5.552 118.286 5.488C118.03 4.592 117.774 4.4 116.878 4.144H114.83H111.374H109.326C108.43 4.4 108.174 4.592 107.918 5.488C107.854 5.552 107.854 5.68 107.854 5.744V7.6V11.12V13.616C107.854 14.128 107.406 14.64 106.83 14.64H105.998C105.87 14.64 105.806 14.64 105.678 14.64C104.91 14.896 104.654 15.152 104.398 15.92C104.398 16.048 104.398 16.112 104.398 16.24V16.496C104.398 16.56 104.398 16.688 104.398 16.752C104.654 17.584 104.91 17.84 105.678 18.032C105.806 18.096 105.87 18.096 105.998 18.096H107.854H110.35C110.926 18.096 111.374 18.544 111.374 19.12V19.952C111.374 20.08 111.374 20.144 111.374 20.272C111.63 21.104 111.886 21.296 112.654 21.552C112.782 21.552 112.846 21.616 112.974 21.616H113.23C113.294 21.616 113.422 21.552 113.486 21.552C114.318 21.296 114.574 21.104 114.83 20.272C114.83 20.144 114.83 20.08 114.83 19.952V19.12C114.83 18.544 115.278 18.096 115.854 18.096H117.326C117.902 18.096 118.35 18.544 118.35 19.12V20.592C118.35 21.168 117.902 21.616 117.326 21.616H116.494C116.366 21.616 116.238 21.616 116.174 21.616C115.342 21.872 115.15 22.128 114.894 22.896C114.83 23.024 114.83 23.088 114.83 23.216V24.048C114.83 24.624 114.382 25.072 113.806 25.072H112.334C111.822 25.072 111.374 24.624 111.374 24.048V23.216C111.374 23.088 111.31 23.024 111.31 22.896C111.054 22.128 110.862 21.872 110.03 21.616C109.902 21.616 109.838 21.616 109.71 21.616H107.854H105.998C105.87 21.616 105.806 21.616 105.678 21.616C104.91 21.872 104.654 22.128 104.398 22.896C104.398 23.024 104.398 23.088 104.398 23.216V24.048C104.398 24.624 103.886 25.072 103.374 25.072H102.478C102.414 25.072 102.286 25.072 102.222 25.136C101.39 25.392 101.134 25.584 100.942 26.416C100.878 26.48 100.878 26.608 100.878 26.736V28.592V31.024C100.878 31.6 100.43 32.048 99.8538 32.048H99.0218C98.8938 32.048 98.8298 32.112 98.7018 32.112C97.9338 32.368 97.6778 32.56 97.4218 33.392C97.4218 33.52 97.3578 33.584 97.3578 33.712V35.568V39.024V40.944C97.3578 41.008 97.4218 41.136 97.4218 41.2C97.6778 42.032 97.9338 42.288 98.7018 42.48C98.8298 42.544 98.8938 42.544 99.0218 42.544H100.878H104.398H107.854H111.374H113.23C113.294 42.544 113.422 42.544 113.486 42.48C114.318 42.288 114.574 42.032 114.83 41.2C114.83 41.136 114.83 41.008 114.83 40.944V40.048C114.83 39.472 115.278 39.024 115.854 39.024H117.326C117.902 39.024 118.35 39.472 118.35 40.048V41.52C118.35 42.096 117.902 42.544 117.326 42.544H116.302C115.406 42.8 115.15 42.992 114.894 43.888C114.83 43.952 114.83 44.08 114.83 44.144V45.04C114.83 45.552 114.382 46 113.806 46H111.374H107.854H104.398H100.878H98.3818C97.8698 46 97.3578 45.552 97.3578 45.04V44.144C97.3578 44.08 97.3578 43.952 97.3578 43.888C97.1018 42.992 96.8458 42.8 95.8858 42.544H95.3738C94.4138 42.8 94.2218 42.992 93.9657 43.888C93.9017 43.952 93.9017 44.08 93.9017 44.144V45.04C93.9017 45.552 93.4537 46 92.8777 46H91.4057C90.8297 46 90.3817 45.552 90.3817 45.04V43.568C90.3817 42.992 90.8297 42.544 91.4057 42.544H92.3017C92.3657 42.544 92.4937 42.544 92.5577 42.48C93.3897 42.288 93.5817 42.032 93.8377 41.2C93.9017 41.136 93.9017 41.008 93.9017 40.944V39.024V35.568V33.072C93.9017 32.496 94.3498 32.048 94.9258 32.048H95.7578C95.8858 32.048 95.9498 32.048 96.0778 32.048C96.8458 31.792 97.1018 31.536 97.3578 30.704C97.3578 30.64 97.3578 30.512 97.3578 30.448V28.592V26.096C97.3578 25.52 97.8698 25.072 98.3818 25.072H99.2778C99.3418 25.072 99.4698 25.072 99.5338 25.072C100.366 24.816 100.622 24.56 100.814 23.728C100.878 23.664 100.878 23.536 100.878 23.472V21.616V18.096V15.6C100.878 15.088 101.326 14.64 101.902 14.64H102.734C102.862 14.64 102.926 14.576 103.054 14.576C103.822 14.32 104.078 14.064 104.334 13.296C104.334 13.168 104.398 13.104 104.398 12.976V11.12V7.6V5.744C104.398 5.68 104.334 5.552 104.334 5.488C104.078 4.592 103.822 4.4 102.862 4.144H102.35C101.39 4.4 101.198 4.592 100.942 5.488C100.878 5.552 100.878 5.68 100.878 5.744V6.64C100.878 7.152 100.43 7.6 99.8538 7.6H98.3818C97.8698 7.6 97.3578 7.152 97.3578 6.64V5.168C97.3578 4.592 97.8698 4.144 98.3818 4.144H99.2778C99.3418 4.144 99.4698 4.144 99.5338 4.08C100.366 3.824 100.622 3.632 100.814 2.8C100.878 2.736 100.878 2.608 100.878 2.544V1.648C100.878 1.072 101.326 0.623997 101.902 0.623997H103.374C103.886 0.623997 104.398 1.072 104.398 1.648V2.544C104.398 2.608 104.398 2.736 104.398 2.8C104.654 3.632 104.91 3.824 105.678 4.08C105.806 4.144 105.87 4.144 105.998 4.144H106.254C106.318 4.144 106.446 4.144 106.51 4.08C107.342 3.824 107.598 3.632 107.79 2.8C107.854 2.736 107.854 2.608 107.854 2.544V1.648C107.854 1.072 108.302 0.623997 108.878 0.623997H111.374H114.83H117.326C117.902 0.623997 118.35 1.072 118.35 1.648V2.544C118.35 2.608 118.35 2.736 118.35 2.8C118.606 3.632 118.862 3.824 119.694 4.08C119.758 4.144 119.886 4.144 119.95 4.144H120.206C120.27 4.144 120.398 4.144 120.462 4.08C121.294 3.824 121.55 3.632 121.806 2.8C121.806 2.736 121.806 2.608 121.806 2.544V1.648C121.806 1.072 122.254 0.623997 122.83 0.623997H124.302C124.878 0.623997 125.326 1.072 125.326 1.648V3.12C125.326 3.696 124.878 4.144 124.302 4.144H123.278ZM156.309 41.2C156.373 41.136 156.373 41.008 156.373 40.944V40.048C156.373 39.472 156.821 39.024 157.397 39.024H158.869C159.381 39.024 159.829 39.472 159.829 40.048V41.52C159.829 42.096 159.381 42.544 158.869 42.544H157.973C157.909 42.544 157.781 42.544 157.717 42.608C156.885 42.8 156.629 43.056 156.437 43.888C156.373 43.952 156.373 44.08 156.373 44.144V45.04C156.373 45.552 155.925 46 155.349 46H152.853H149.397H145.877H142.421H138.901H136.405C135.893 46 135.445 45.552 135.445 45.04V44.144C135.445 44.08 135.381 43.952 135.381 43.888C135.125 43.056 134.933 42.8 134.101 42.608C133.973 42.544 133.909 42.544 133.781 42.544H133.525C133.461 42.544 133.333 42.544 133.269 42.608C132.437 42.8 132.181 43.056 131.989 43.888C131.925 43.952 131.925 44.08 131.925 44.144V45.04C131.925 45.552 131.477 46 130.901 46H129.429C128.917 46 128.469 45.552 128.469 45.04V43.568C128.469 42.992 128.917 42.544 129.429 42.544H130.325C130.389 42.544 130.517 42.544 130.581 42.48C131.413 42.288 131.669 42.032 131.861 41.2C131.925 41.136 131.925 41.008 131.925 40.944V39.024V35.568V33.072C131.925 32.496 132.373 32.048 132.949 32.048H133.781C133.909 32.048 133.973 32.048 134.101 32.048C134.933 31.792 135.125 31.536 135.381 30.704C135.381 30.64 135.445 30.512 135.445 30.448V28.592V26.096C135.445 25.52 135.893 25.072 136.405 25.072H137.301C137.365 25.072 137.493 25.072 137.557 25.072C138.389 24.816 138.645 24.56 138.837 23.728C138.901 23.664 138.901 23.536 138.901 23.472V21.616V18.096V15.6C138.901 15.088 139.349 14.64 139.925 14.64H140.757C140.885 14.64 140.949 14.576 141.077 14.576C141.909 14.32 142.101 14.064 142.357 13.296C142.357 13.168 142.421 13.104 142.421 12.976V11.12V7.6V5.744C142.421 5.68 142.357 5.552 142.357 5.488C142.101 4.592 141.845 4.4 140.949 4.144H140.373C139.477 4.4 139.221 4.592 138.965 5.488C138.901 5.552 138.901 5.68 138.901 5.744V6.64C138.901 7.152 138.453 7.6 137.877 7.6H136.405C135.893 7.6 135.445 7.152 135.445 6.64V5.168C135.445 4.592 135.893 4.144 136.405 4.144H137.301C137.365 4.144 137.493 4.144 137.557 4.08C138.389 3.824 138.645 3.632 138.837 2.8C138.901 2.736 138.901 2.608 138.901 2.544V1.648C138.901 1.072 139.349 0.623997 139.925 0.623997H141.397C141.973 0.623997 142.421 1.072 142.421 1.648V2.544C142.421 2.608 142.421 2.736 142.421 2.8C142.677 3.632 142.933 3.824 143.701 4.08C143.829 4.144 143.893 4.144 144.021 4.144H144.853C145.429 4.144 145.877 4.592 145.877 5.168V7.6V11.12V13.616C145.877 14.128 145.429 14.64 144.853 14.64H144.021C143.957 14.64 143.829 14.64 143.765 14.64C142.933 14.896 142.677 15.152 142.421 15.92C142.421 16.048 142.421 16.112 142.421 16.24V18.096V21.616V24.048C142.421 24.624 141.973 25.072 141.397 25.072H140.501C140.437 25.072 140.309 25.072 140.245 25.136C139.413 25.392 139.221 25.584 138.965 26.416C138.901 26.48 138.901 26.608 138.901 26.736V28.592V31.024C138.901 31.6 138.453 32.048 137.877 32.048H137.045C136.917 32.048 136.853 32.048 136.725 32.112C135.957 32.368 135.701 32.56 135.445 33.392C135.445 33.52 135.445 33.584 135.445 33.712V35.568V39.024V40.944C135.445 41.008 135.445 41.136 135.445 41.2C135.701 42.032 135.957 42.288 136.725 42.48C136.853 42.544 136.917 42.544 137.045 42.544H138.901H142.421H145.877H149.397H152.853H154.773C154.837 42.544 154.965 42.544 155.029 42.48C155.861 42.288 156.053 42.032 156.309 41.2ZM236.011 2.8C236.075 2.736 236.075 2.608 236.075 2.544V1.648C236.075 1.136 236.523 0.623997 237.099 0.623997H238.571C239.147 0.623997 239.595 1.136 239.595 1.648V4.144V7.664V11.12V13.616C239.595 14.192 239.147 14.64 238.571 14.64H237.675C237.611 14.64 237.483 14.64 237.419 14.64C236.587 14.896 236.331 15.152 236.139 15.92C236.075 16.048 236.075 16.112 236.075 16.24V18.096V21.616V24.048C236.075 24.624 235.627 25.072 235.051 25.072H234.219C234.091 25.072 234.027 25.136 233.899 25.136C233.131 25.392 232.875 25.584 232.619 26.416C232.619 26.544 232.619 26.608 232.619 26.736V28.592V31.088C232.619 31.6 232.107 32.048 231.595 32.048H230.699C230.635 32.048 230.507 32.112 230.443 32.112C229.611 32.368 229.355 32.56 229.163 33.392C229.099 33.52 229.099 33.584 229.099 33.712V35.568V39.024V40.944C229.099 41.008 229.099 41.136 229.163 41.2C229.355 42.032 229.611 42.288 230.443 42.48C230.507 42.544 230.635 42.544 230.699 42.544H230.955C231.083 42.544 231.147 42.544 231.275 42.48C232.043 42.288 232.299 42.032 232.555 41.2C232.555 41.136 232.619 41.008 232.619 40.944V40.048C232.619 39.536 233.067 39.024 233.579 39.024H235.051C235.627 39.024 236.075 39.536 236.075 40.048V41.52C236.075 42.096 235.627 42.544 235.051 42.544H234.219C234.091 42.544 234.027 42.544 233.899 42.608C233.131 42.8 232.875 43.056 232.619 43.888C232.619 43.952 232.619 44.08 232.619 44.144V45.04C232.619 45.552 232.107 46.064 231.595 46.064H230.123C229.547 46.064 229.099 45.552 229.099 45.04V44.144C229.099 44.08 229.099 43.952 229.035 43.888C228.843 43.056 228.587 42.8 227.755 42.608C227.691 42.544 227.563 42.544 227.499 42.544H226.603C226.091 42.544 225.579 42.096 225.579 41.52V39.024V35.568V33.072C225.579 32.496 226.091 32.048 226.603 32.048H227.499C227.563 32.048 227.691 32.048 227.755 32.048C228.587 31.792 228.843 31.536 229.035 30.768C229.099 30.64 229.099 30.576 229.099 30.448V28.592V26.096C229.099 25.52 229.547 25.072 230.123 25.072H230.955C231.083 25.072 231.147 25.072 231.275 25.072C232.043 24.816 232.299 24.56 232.555 23.728C232.555 23.664 232.619 23.536 232.619 23.472V21.616V18.096V15.664C232.619 15.088 233.067 14.64 233.579 14.64H234.603C235.563 14.384 235.755 14.128 236.011 13.296C236.075 13.168 236.075 13.104 236.075 12.976V11.12V8.624C236.075 8.112 235.627 7.664 235.051 7.664H234.219C234.091 7.664 234.027 7.664 233.899 7.664C233.131 7.92 232.875 8.176 232.619 8.944C232.619 9.072 232.619 9.136 232.619 9.264V10.096C232.619 10.672 232.107 11.12 231.595 11.12H230.699C230.635 11.12 230.507 11.12 230.443 11.184C229.611 11.44 229.355 11.632 229.163 12.464C229.099 12.528 229.099 12.656 229.099 12.72V13.616C229.099 14.192 228.651 14.64 228.075 14.64H227.179C227.115 14.64 226.987 14.64 226.923 14.64C226.091 14.896 225.899 15.152 225.643 15.92C225.643 16.048 225.579 16.112 225.579 16.24V18.096V20.592C225.579 21.168 225.131 21.616 224.619 21.616H223.723C223.659 21.616 223.531 21.616 223.467 21.616C222.635 21.872 222.379 22.128 222.187 22.96C222.123 23.024 222.123 23.152 222.123 23.216V24.048C222.123 24.624 221.675 25.072 221.099 25.072H220.267C220.139 25.072 220.075 25.136 219.947 25.136C219.115 25.392 218.923 25.584 218.667 26.416C218.667 26.544 218.603 26.608 218.603 26.736V27.568C218.603 28.144 218.155 28.592 217.579 28.592H216.171C215.595 28.592 215.147 28.144 215.147 27.568V26.096C215.147 25.52 215.595 25.072 216.171 25.072H217.003C217.131 25.072 217.195 25.072 217.259 25.072C218.091 24.816 218.347 24.56 218.603 23.728C218.603 23.664 218.603 23.536 218.603 23.472V23.216C218.603 23.152 218.603 23.024 218.603 22.96C218.347 22.128 218.091 21.872 217.259 21.616C217.195 21.616 217.131 21.616 217.003 21.616H216.171C215.595 21.616 215.147 21.168 215.147 20.592V18.096V14.64V11.12V9.264C215.147 9.136 215.147 9.072 215.083 8.944C214.827 8.176 214.635 7.92 213.803 7.664C213.739 7.664 213.611 7.664 213.547 7.664H213.227C213.163 7.664 213.035 7.664 212.971 7.664C212.139 7.92 211.947 8.176 211.691 8.944C211.627 9.072 211.627 9.136 211.627 9.264V11.12V13.616C211.627 14.192 211.179 14.64 210.603 14.64H209.771C209.643 14.64 209.579 14.64 209.451 14.64C208.683 14.896 208.427 15.152 208.171 15.92C208.171 16.048 208.171 16.112 208.171 16.24V18.096V21.616V24.048C208.171 24.624 207.723 25.072 207.147 25.072H206.251C206.187 25.072 206.059 25.136 205.995 25.136C205.163 25.392 204.971 25.584 204.715 26.416C204.651 26.544 204.651 26.608 204.651 26.736V28.592V31.088C204.651 31.6 204.203 32.048 203.627 32.048H202.795C202.667 32.048 202.603 32.112 202.475 32.112C201.707 32.368 201.451 32.56 201.195 33.392C201.195 33.52 201.195 33.584 201.195 33.712V35.568V39.024V41.52C201.195 42.096 200.683 42.544 200.171 42.544H199.275C199.211 42.544 199.083 42.544 199.019 42.608C198.187 42.8 197.931 43.056 197.739 43.888C197.675 43.952 197.675 44.08 197.675 44.144V45.04C197.675 45.552 197.227 46.064 196.651 46.064H195.179C194.667 46.064 194.219 45.552 194.219 45.04V43.568C194.219 42.992 194.667 42.544 195.179 42.544H196.203C197.163 42.288 197.355 42.096 197.611 41.2C197.675 41.136 197.675 41.008 197.675 40.944V39.024V35.568V33.072C197.675 32.496 198.123 32.048 198.699 32.048H199.531C199.659 32.048 199.723 32.048 199.851 32.048C200.683 31.792 200.875 31.536 201.131 30.768C201.131 30.64 201.195 30.576 201.195 30.448V28.592V26.096C201.195 25.52 201.643 25.072 202.155 25.072H203.051C203.115 25.072 203.243 25.072 203.307 25.072C204.139 24.816 204.395 24.56 204.587 23.728C204.651 23.664 204.651 23.536 204.651 23.472V21.616V18.096V15.664C204.651 15.088 205.099 14.64 205.675 14.64H206.699C207.595 14.384 207.851 14.128 208.107 13.296C208.107 13.168 208.171 13.104 208.171 12.976V11.12V7.664V5.744C208.171 5.68 208.107 5.552 208.107 5.488C207.851 4.656 207.659 4.4 206.827 4.208C206.699 4.144 206.635 4.144 206.507 4.144H206.251C206.187 4.144 206.059 4.144 205.995 4.208C205.163 4.4 204.971 4.656 204.715 5.488C204.651 5.552 204.651 5.68 204.651 5.744V6.64C204.651 7.152 204.203 7.664 203.627 7.664H202.155C201.643 7.664 201.195 7.152 201.195 6.64V5.168C201.195 4.592 201.643 4.144 202.155 4.144H203.051C203.115 4.144 203.243 4.144 203.307 4.08C204.139 3.888 204.395 3.632 204.587 2.8C204.651 2.736 204.651 2.608 204.651 2.544V1.648C204.651 1.136 205.099 0.623997 205.675 0.623997H207.147C207.723 0.623997 208.171 1.136 208.171 1.648V2.544C208.171 2.608 208.171 2.736 208.171 2.8C208.427 3.632 208.683 3.888 209.515 4.08C209.579 4.144 209.707 4.144 209.771 4.144H210.027C210.091 4.144 210.219 4.144 210.283 4.08C211.115 3.888 211.371 3.632 211.627 2.8C211.627 2.736 211.627 2.608 211.627 2.544V1.648C211.627 1.136 212.075 0.623997 212.651 0.623997H214.123C214.699 0.623997 215.147 1.136 215.147 1.648V4.144V6C215.147 6.128 215.147 6.192 215.147 6.32C215.403 7.152 215.659 7.344 216.619 7.6V7.664H217.579C218.155 7.664 218.603 8.112 218.603 8.624V11.12V14.64V18.096V19.952C218.603 20.08 218.667 20.144 218.667 20.272C218.923 21.104 219.115 21.296 219.947 21.552C220.075 21.616 220.139 21.616 220.267 21.616H220.523C220.587 21.616 220.715 21.616 220.779 21.552C221.611 21.296 221.803 21.104 222.059 20.272C222.123 20.144 222.123 20.08 222.123 19.952V18.096V15.664C222.123 15.088 222.571 14.64 223.147 14.64H224.171H224.107C225.067 14.384 225.323 14.128 225.579 13.296C225.579 13.168 225.579 13.104 225.579 12.976V12.144C225.579 11.568 226.091 11.12 226.603 11.12H227.499C227.563 11.12 227.691 11.12 227.755 11.056C228.587 10.864 228.843 10.608 229.035 9.776C229.099 9.712 229.099 9.584 229.099 9.52V8.624C229.099 8.112 229.547 7.664 230.123 7.664H230.955C231.083 7.664 231.147 7.6 231.275 7.6C232.043 7.344 232.299 7.088 232.555 6.32C232.555 6.192 232.619 6.128 232.619 6V5.168C232.619 4.592 233.067 4.144 233.579 4.144H234.475C234.539 4.144 234.667 4.144 234.731 4.08C235.563 3.888 235.819 3.632 236.011 2.8ZM269.789 28.592V25.072V22.64C269.789 22.064 270.237 21.616 270.749 21.616H271.645C271.709 21.616 271.837 21.616 271.901 21.552C272.733 21.296 272.989 21.104 273.181 20.272C273.245 20.144 273.245 20.08 273.245 19.952V18.096V14.64V11.12V9.264C273.245 9.136 273.245 9.072 273.181 8.944C272.989 8.176 272.733 7.92 271.901 7.664C271.837 7.664 271.709 7.664 271.645 7.664H270.749C270.237 7.664 269.789 7.152 269.789 6.64V5.744C269.789 5.68 269.725 5.552 269.725 5.488C269.469 4.656 269.277 4.4 268.445 4.208C268.317 4.144 268.253 4.144 268.125 4.144H266.269H262.749H259.293H257.437C257.309 4.144 257.245 4.144 257.117 4.208C256.285 4.4 256.093 4.656 255.837 5.488C255.837 5.552 255.773 5.68 255.773 5.744V6.64C255.773 7.152 255.325 7.664 254.813 7.664H253.917C253.853 7.664 253.725 7.664 253.661 7.664C252.829 7.92 252.573 8.176 252.381 8.944C252.317 9.072 252.317 9.136 252.317 9.264V11.12V13.616C252.317 14.192 251.869 14.64 251.293 14.64H250.461C250.333 14.64 250.269 14.64 250.141 14.64C249.309 14.896 249.117 15.152 248.861 15.984C248.861 16.048 248.797 16.112 248.797 16.24V18.096V21.616V24.048C248.797 24.624 248.349 25.072 247.773 25.072H246.941C246.877 25.072 246.749 25.136 246.685 25.136C245.853 25.392 245.597 25.584 245.341 26.416C245.341 26.544 245.341 26.608 245.341 26.736V28.592V32.048V35.568V37.424C245.341 37.552 245.341 37.616 245.341 37.744C245.597 38.512 245.853 38.768 246.685 39.024C246.749 39.024 246.877 39.024 246.941 39.024H247.773C248.349 39.024 248.797 39.536 248.797 40.048V40.944C248.797 41.008 248.861 41.136 248.861 41.2C249.117 42.032 249.309 42.288 250.141 42.48C250.269 42.544 250.333 42.544 250.461 42.544H252.317H255.773H259.293H261.149C261.277 42.544 261.341 42.544 261.469 42.48C262.237 42.288 262.493 42.032 262.749 41.2C262.749 41.136 262.749 41.008 262.749 40.944V40.048C262.749 39.536 263.261 39.024 263.773 39.024H264.669C264.733 39.024 264.861 39.024 264.925 39.024C265.757 38.768 266.013 38.512 266.205 37.744C266.269 37.616 266.269 37.552 266.269 37.424V35.568V33.072C266.269 32.496 266.717 32.048 267.293 32.048H268.125C268.253 32.048 268.317 32.048 268.445 32.048C269.277 31.792 269.469 31.536 269.725 30.768C269.725 30.64 269.789 30.576 269.789 30.448V28.592ZM276.765 18.096V20.592C276.765 21.168 276.317 21.616 275.741 21.616H274.845C274.781 21.616 274.653 21.616 274.589 21.616C273.757 21.872 273.565 22.128 273.309 22.96C273.245 23.024 273.245 23.152 273.245 23.216V25.072V28.592V31.088C273.245 31.6 272.797 32.048 272.221 32.048H271.389C271.261 32.048 271.197 32.112 271.069 32.112C270.301 32.368 270.045 32.56 269.789 33.392C269.789 33.52 269.789 33.584 269.789 33.712V35.568V38.064C269.789 38.576 269.277 39.024 268.765 39.024H267.869C267.805 39.024 267.677 39.088 267.613 39.088C266.781 39.344 266.525 39.6 266.333 40.368C266.269 40.496 266.269 40.56 266.269 40.688V41.52C266.269 42.096 265.821 42.544 265.245 42.544H264.413C264.285 42.544 264.221 42.544 264.093 42.608C263.325 42.8 263.069 43.056 262.813 43.888C262.813 43.952 262.749 44.08 262.749 44.144V45.04C262.749 45.552 262.301 46.064 261.789 46.064H259.293H255.773H252.317H249.821C249.245 46.064 248.797 45.552 248.797 45.04V44.144C248.797 44.08 248.797 43.952 248.797 43.888C248.541 43.056 248.285 42.8 247.453 42.608C247.389 42.544 247.261 42.544 247.197 42.544H246.365C245.789 42.544 245.341 42.096 245.341 41.52V40.688C245.341 40.56 245.341 40.496 245.277 40.368C245.021 39.6 244.829 39.344 243.997 39.088C243.869 39.088 243.805 39.024 243.677 39.024H242.845C242.269 39.024 241.821 38.576 241.821 38.064V35.568V32.048V28.592V26.096C241.821 25.52 242.269 25.072 242.845 25.072H243.677C243.805 25.072 243.869 25.072 243.997 25.072C244.829 24.816 245.021 24.56 245.277 23.728C245.341 23.664 245.341 23.536 245.341 23.472V21.616V18.096V15.664C245.341 15.088 245.789 14.64 246.365 14.64H247.197C247.261 14.64 247.389 14.576 247.453 14.576C248.285 14.32 248.541 14.128 248.797 13.296C248.797 13.168 248.797 13.104 248.797 12.976V11.12V8.624C248.797 8.112 249.245 7.664 249.821 7.664H250.717C250.781 7.664 250.909 7.6 250.973 7.6C251.805 7.344 251.997 7.088 252.253 6.32C252.317 6.192 252.317 6.128 252.317 6V5.168C252.317 4.592 252.765 4.144 253.341 4.144H254.173C254.301 4.144 254.365 4.144 254.493 4.08C255.261 3.888 255.517 3.632 255.773 2.8C255.773 2.736 255.773 2.608 255.773 2.544V1.648C255.773 1.136 256.221 0.623997 256.797 0.623997H259.293H262.749H266.269H268.765C269.277 0.623997 269.789 1.136 269.789 1.648V2.544C269.789 2.608 269.789 2.736 269.789 2.8C270.045 3.632 270.301 3.888 271.069 4.08C271.197 4.144 271.261 4.144 271.389 4.144H272.221C272.797 4.144 273.245 4.592 273.245 5.168V6C273.245 6.128 273.245 6.192 273.309 6.32C273.565 7.088 273.757 7.344 274.589 7.6C274.653 7.6 274.781 7.664 274.845 7.664H275.741C276.317 7.664 276.765 8.112 276.765 8.624V11.12V14.64V18.096ZM312.802 4.144H312.738H313.762C314.338 4.144 314.786 4.592 314.786 5.168V6.64C314.786 7.152 314.338 7.664 313.762 7.664H312.29C311.778 7.664 311.266 7.152 311.266 6.64V5.744C311.266 5.68 311.266 5.552 311.266 5.488C311.01 4.656 310.754 4.4 309.986 4.208C309.858 4.144 309.794 4.144 309.666 4.144H307.81H304.29H300.834H297.314H295.458C295.33 4.144 295.266 4.144 295.202 4.208C294.37 4.4 294.114 4.656 293.858 5.488C293.858 5.552 293.858 5.68 293.858 5.744V6.64C293.858 7.152 293.41 7.664 292.834 7.664H291.938C291.874 7.664 291.746 7.664 291.682 7.664C290.85 7.92 290.658 8.176 290.402 8.944C290.338 9.072 290.338 9.136 290.338 9.264V11.12V14.64V16.496C290.338 16.56 290.338 16.688 290.402 16.752C290.658 17.584 290.85 17.84 291.682 18.096C291.746 18.096 291.874 18.096 291.938 18.096H293.858H297.314H300.834H304.29H306.786C307.362 18.096 307.81 18.544 307.81 19.12V19.952C307.81 20.08 307.81 20.144 307.874 20.272C308.066 21.104 308.322 21.296 309.154 21.552C309.218 21.616 309.346 21.616 309.41 21.616H310.306C310.818 21.616 311.266 22.064 311.266 22.64V25.072V28.592V31.088C311.266 31.6 310.818 32.048 310.306 32.048H309.41C309.346 32.048 309.218 32.112 309.154 32.112C308.322 32.368 308.066 32.56 307.874 33.392C307.81 33.52 307.81 33.584 307.81 33.712V35.568V38.064C307.81 38.576 307.362 39.024 306.786 39.024H305.954C305.826 39.024 305.762 39.088 305.634 39.088C304.802 39.344 304.61 39.6 304.354 40.368C304.354 40.496 304.29 40.56 304.29 40.688V41.52C304.29 42.096 303.842 42.544 303.266 42.544H302.434C302.37 42.544 302.242 42.544 302.178 42.608C301.346 42.8 301.09 43.056 300.834 43.888C300.834 43.952 300.834 44.08 300.834 44.144V45.04C300.834 45.552 300.386 46.064 299.81 46.064H297.314H293.858H290.338H286.882H284.386C283.81 46.064 283.362 45.552 283.362 45.04V44.144C283.362 44.08 283.362 43.952 283.298 43.888C283.106 43.056 282.85 42.8 282.018 42.608C281.954 42.544 281.826 42.544 281.762 42.544H280.866C280.354 42.544 279.906 42.096 279.906 41.52V39.024V36.592C279.906 36.016 280.354 35.568 280.866 35.568H281.762C281.826 35.568 281.954 35.568 282.018 35.504C282.85 35.312 283.106 35.056 283.298 34.224C283.362 34.16 283.362 34.032 283.362 33.968V33.072C283.362 32.496 283.81 32.048 284.386 32.048H285.858C286.37 32.048 286.882 32.496 286.882 33.072V34.544C286.882 35.12 286.37 35.568 285.858 35.568H284.962C284.898 35.568 284.77 35.568 284.706 35.632C283.874 35.824 283.618 36.08 283.426 36.912C283.362 36.976 283.362 37.104 283.362 37.168V39.024V40.944C283.362 41.008 283.362 41.136 283.426 41.2C283.618 42.032 283.874 42.288 284.706 42.48C284.77 42.544 284.898 42.544 284.962 42.544H286.882H290.338H293.858H297.314H299.17C299.298 42.544 299.362 42.544 299.49 42.48C300.322 42.288 300.514 42.032 300.77 41.2C300.834 41.136 300.834 41.008 300.834 40.944V40.048C300.834 39.536 301.282 39.024 301.858 39.024H302.69C302.818 39.024 302.882 39.024 302.946 39.024C303.778 38.768 304.034 38.512 304.29 37.744C304.29 37.616 304.29 37.552 304.29 37.424V35.568V33.072C304.29 32.496 304.738 32.048 305.314 32.048H306.21C306.274 32.048 306.402 32.048 306.466 32.048C307.298 31.792 307.49 31.536 307.746 30.768C307.81 30.64 307.81 30.576 307.81 30.448V28.592V25.072V23.216C307.81 23.152 307.81 23.024 307.746 22.96C307.49 22.128 307.298 21.872 306.466 21.616C306.402 21.616 306.274 21.616 306.21 21.616H304.29H300.834H297.314H293.858H291.362C290.786 21.616 290.338 21.168 290.338 20.592V19.76C290.338 19.632 290.338 19.568 290.274 19.44C290.082 18.608 289.826 18.416 288.994 18.16C288.93 18.096 288.802 18.096 288.738 18.096H287.842C287.33 18.096 286.882 17.648 286.882 17.072V14.64V11.12V8.624C286.882 8.112 287.33 7.664 287.842 7.664H288.866C289.826 7.408 290.018 7.152 290.274 6.32C290.338 6.192 290.338 6.128 290.338 6V5.168C290.338 4.592 290.786 4.144 291.362 4.144H292.386C293.282 3.888 293.538 3.696 293.794 2.8C293.794 2.736 293.858 2.608 293.858 2.544V1.648C293.858 1.136 294.306 0.623997 294.882 0.623997H297.314H300.834H304.29H307.81H310.306C310.818 0.623997 311.266 1.136 311.266 1.648V2.544C311.266 2.608 311.33 2.736 311.33 2.8C311.586 3.696 311.842 3.888 312.802 4.144ZM350.865 4.144H350.801H351.825C352.401 4.144 352.849 4.592 352.849 5.168V6.64C352.849 7.152 352.401 7.664 351.825 7.664H350.353C349.841 7.664 349.329 7.152 349.329 6.64V5.744C349.329 5.68 349.329 5.552 349.329 5.488C349.073 4.656 348.817 4.4 348.049 4.208C347.921 4.144 347.857 4.144 347.729 4.144H345.873H342.353H338.897H335.377H333.521C333.393 4.144 333.329 4.144 333.265 4.208C332.433 4.4 332.177 4.656 331.921 5.488C331.921 5.552 331.921 5.68 331.921 5.744V6.64C331.921 7.152 331.473 7.664 330.897 7.664H330.001C329.937 7.664 329.809 7.664 329.745 7.664C328.913 7.92 328.721 8.176 328.465 8.944C328.401 9.072 328.401 9.136 328.401 9.264V11.12V14.64V16.496C328.401 16.56 328.401 16.688 328.465 16.752C328.721 17.584 328.913 17.84 329.745 18.096C329.809 18.096 329.937 18.096 330.001 18.096H331.921H335.377H338.897H342.353H344.849C345.425 18.096 345.873 18.544 345.873 19.12V19.952C345.873 20.08 345.873 20.144 345.937 20.272C346.129 21.104 346.385 21.296 347.217 21.552C347.281 21.616 347.409 21.616 347.473 21.616H348.369C348.881 21.616 349.329 22.064 349.329 22.64V25.072V28.592V31.088C349.329 31.6 348.881 32.048 348.369 32.048H347.473C347.409 32.048 347.281 32.112 347.217 32.112C346.385 32.368 346.129 32.56 345.937 33.392C345.873 33.52 345.873 33.584 345.873 33.712V35.568V38.064C345.873 38.576 345.425 39.024 344.849 39.024H344.017C343.889 39.024 343.825 39.088 343.697 39.088C342.865 39.344 342.673 39.6 342.417 40.368C342.417 40.496 342.353 40.56 342.353 40.688V41.52C342.353 42.096 341.905 42.544 341.329 42.544H340.497C340.433 42.544 340.305 42.544 340.241 42.608C339.409 42.8 339.153 43.056 338.897 43.888C338.897 43.952 338.897 44.08 338.897 44.144V45.04C338.897 45.552 338.449 46.064 337.873 46.064H335.377H331.921H328.401H324.945H322.449C321.873 46.064 321.425 45.552 321.425 45.04V44.144C321.425 44.08 321.425 43.952 321.361 43.888C321.169 43.056 320.913 42.8 320.081 42.608C320.017 42.544 319.889 42.544 319.825 42.544H318.929C318.417 42.544 317.969 42.096 317.969 41.52V39.024V36.592C317.969 36.016 318.417 35.568 318.929 35.568H319.825C319.889 35.568 320.017 35.568 320.081 35.504C320.913 35.312 321.169 35.056 321.361 34.224C321.425 34.16 321.425 34.032 321.425 33.968V33.072C321.425 32.496 321.873 32.048 322.449 32.048H323.921C324.433 32.048 324.945 32.496 324.945 33.072V34.544C324.945 35.12 324.433 35.568 323.921 35.568H323.025C322.961 35.568 322.833 35.568 322.769 35.632C321.937 35.824 321.681 36.08 321.489 36.912C321.425 36.976 321.425 37.104 321.425 37.168V39.024V40.944C321.425 41.008 321.425 41.136 321.489 41.2C321.681 42.032 321.937 42.288 322.769 42.48C322.833 42.544 322.961 42.544 323.025 42.544H324.945H328.401H331.921H335.377H337.233C337.361 42.544 337.425 42.544 337.553 42.48C338.385 42.288 338.577 42.032 338.833 41.2C338.897 41.136 338.897 41.008 338.897 40.944V40.048C338.897 39.536 339.345 39.024 339.921 39.024H340.753C340.881 39.024 340.945 39.024 341.009 39.024C341.841 38.768 342.097 38.512 342.353 37.744C342.353 37.616 342.353 37.552 342.353 37.424V35.568V33.072C342.353 32.496 342.801 32.048 343.377 32.048H344.273C344.337 32.048 344.465 32.048 344.529 32.048C345.361 31.792 345.553 31.536 345.809 30.768C345.873 30.64 345.873 30.576 345.873 30.448V28.592V25.072V23.216C345.873 23.152 345.873 23.024 345.809 22.96C345.553 22.128 345.361 21.872 344.529 21.616C344.465 21.616 344.337 21.616 344.273 21.616H342.353H338.897H335.377H331.921H329.425C328.849 21.616 328.401 21.168 328.401 20.592V19.76C328.401 19.632 328.401 19.568 328.337 19.44C328.145 18.608 327.889 18.416 327.057 18.16C326.993 18.096 326.865 18.096 326.801 18.096H325.905C325.393 18.096 324.945 17.648 324.945 17.072V14.64V11.12V8.624C324.945 8.112 325.393 7.664 325.905 7.664H326.929C327.889 7.408 328.081 7.152 328.337 6.32C328.401 6.192 328.401 6.128 328.401 6V5.168C328.401 4.592 328.849 4.144 329.425 4.144H330.449C331.345 3.888 331.601 3.696 331.857 2.8C331.857 2.736 331.921 2.608 331.921 2.544V1.648C331.921 1.136 332.369 0.623997 332.945 0.623997H335.377H338.897H342.353H345.873H348.369C348.881 0.623997 349.329 1.136 349.329 1.648V2.544C349.329 2.608 349.393 2.736 349.393 2.8C349.649 3.696 349.905 3.888 350.865 4.144Z" fill="#D3FF00"/>
</svg>
