<svg width="487" height="56" viewBox="0 0 487 56" fill="none" xmlns="http://www.w3.org/2000/svg">
<path d="M33.875 36C34.3125 36 34.6875 35.8542 35 35.5625C35.3125 35.2292 35.4688 34.8438 35.4688 34.4062C35.4688 33.9688 35.625 33.5938 35.9375 33.2812C36.25 32.9688 36.625 32.8125 37.0625 32.8125C37.5 32.8125 37.875 32.6562 38.1875 32.3438C38.5 32.0312 38.6562 31.6562 38.6562 31.2188V12C38.6562 11.5625 38.5 11.1875 38.1875 10.875C37.875 10.5625 37.5 10.4062 37.0625 10.4062C36.625 10.4062 36.25 10.25 35.9375 9.9375C35.625 9.625 35.4688 9.25 35.4688 8.8125C35.4688 8.375 35.3125 8 35 7.6875C34.6875 7.375 34.3125 7.21875 33.875 7.21875H29.0625H27.3438C26.9479 7.23958 26.6146 7.39583 26.3438 7.6875C26.0312 8 25.875 8.375 25.875 8.8125C25.875 9.25 25.7188 9.625 25.4062 9.9375C25.0938 10.25 24.7188 10.4062 24.2812 10.4062C23.8229 10.4062 23.4375 10.5625 23.125 10.875C22.8125 11.1875 22.6562 11.5625 22.6562 12V24.8125C22.6562 25.25 22.8125 25.625 23.125 25.9375C23.4375 26.25 23.8229 26.4062 24.2812 26.4062C24.7188 26.4062 25.0938 26.25 25.4062 25.9375C25.7188 25.625 25.875 25.25 25.875 24.8125C25.875 24.375 26.0312 24 26.3438 23.6875C26.6562 23.375 27.0312 23.2188 27.4688 23.2188C27.9062 23.2188 28.2812 23.375 28.5938 23.6875C28.9062 24 29.0625 24.375 29.0625 24.8125C29.0625 25.25 28.9062 25.625 28.5938 25.9375C28.2812 26.25 27.9062 26.4062 27.4688 26.4062C27.0312 26.4062 26.6562 26.5625 26.3438 26.875C26.0312 27.1875 25.875 27.5625 25.875 28V31.2188C25.875 31.6562 26.0312 32.0312 26.3438 32.3438C26.6562 32.6562 27.0312 32.8125 27.4688 32.8125C27.9062 32.8125 28.2812 32.9688 28.5938 33.2812C28.9062 33.5938 29.0625 33.9688 29.0625 34.4062C29.0625 34.8438 29.2188 35.2292 29.5312 35.5625C29.8438 35.8542 30.2188 36 30.6562 36H33.875ZM5.0625 52C4.625 52 4.25 51.8542 3.9375 51.5625C3.625 51.2292 3.46875 50.8438 3.46875 50.4062C3.46875 49.9688 3.3125 49.5938 3 49.2812C2.6875 48.9688 2.3125 48.8125 1.875 48.8125C1.4375 48.8125 1.05208 48.6562 0.71875 48.3438C0.427083 48.0312 0.28125 47.6562 0.28125 47.2188V44.0312C0.28125 43.5729 0.427083 43.1875 0.71875 42.875C1.05208 42.5625 1.4375 42.4062 1.875 42.4062C2.3125 42.4062 2.6875 42.25 3 41.9375C3.3125 41.625 3.46875 41.25 3.46875 40.8125C3.46875 40.375 3.3125 40 3 39.6875C2.6875 39.375 2.3125 39.2188 1.875 39.2188C1.4375 39.2188 1.05208 39.0625 0.71875 38.75C0.427083 38.4375 0.28125 38.0625 0.28125 37.625C0.28125 37.1875 0.427083 36.8021 0.71875 36.4688C1.05208 36.1562 1.4375 36 1.875 36C2.3125 36 2.6875 36.1562 3 36.4688C3.3125 36.8021 3.46875 37.1875 3.46875 37.625C3.46875 38.0625 3.625 38.4375 3.9375 38.75C4.25 39.0625 4.625 39.2188 5.0625 39.2188C5.5 39.2188 5.875 39.375 6.1875 39.6875C6.5 40 6.65625 40.375 6.65625 40.8125V47.2188C6.65625 47.6562 6.8125 48.0312 7.125 48.3438C7.4375 48.6562 7.82292 48.8125 8.28125 48.8125C8.71875 48.8125 9.09375 48.6562 9.40625 48.3438C9.71875 48.0312 9.875 47.6562 9.875 47.2188C9.875 46.7812 10.0312 46.4062 10.3438 46.0938C10.6562 45.7812 11.0312 45.625 11.4688 45.625C11.9062 45.625 12.2812 45.4688 12.5938 45.1562C12.9062 44.8438 13.0625 44.4583 13.0625 44V18.4062C13.0625 17.9688 12.9062 17.5938 12.5938 17.2812C12.2812 16.9688 11.9062 16.8125 11.4688 16.8125C11.0312 16.8125 10.6562 16.6562 10.3438 16.3438C10.0312 16.0312 9.875 15.6562 9.875 15.2188C9.875 14.7812 9.71875 14.4062 9.40625 14.0938C9.09375 13.7812 8.71875 13.625 8.28125 13.625C7.82292 13.625 7.4375 13.4688 7.125 13.1562C6.8125 12.8438 6.65625 12.4583 6.65625 12C6.65625 11.5625 6.5 11.1875 6.1875 10.875C5.875 10.5625 5.5 10.4062 5.0625 10.4062C4.625 10.4062 4.25 10.25 3.9375 9.9375C3.625 9.625 3.46875 9.25 3.46875 8.8125V5.625C3.46875 5.1875 3.625 4.8125 3.9375 4.5C4.25 4.16667 4.625 4 5.0625 4C5.5 4 5.875 3.85417 6.1875 3.5625C6.5 3.22917 6.65625 2.84375 6.65625 2.40625C6.65625 1.96875 6.8125 1.59375 7.125 1.28125C7.4375 0.96875 7.82292 0.8125 8.28125 0.8125C8.71875 0.8125 9.09375 0.96875 9.40625 1.28125C9.71875 1.59375 9.875 1.96875 9.875 2.40625C9.875 2.84375 9.71875 3.22917 9.40625 3.5625C9.09375 3.85417 8.71875 4 8.28125 4C7.82292 4 7.4375 4.15625 7.125 4.46875C6.8125 4.80208 6.65625 5.1875 6.65625 5.625C6.65625 6.0625 6.8125 6.4375 7.125 6.75C7.4375 7.0625 7.82292 7.21875 8.28125 7.21875C8.71875 7.21875 9.09375 7.375 9.40625 7.6875C9.71875 8 9.875 8.375 9.875 8.8125C9.875 9.25 10.0312 9.625 10.3438 9.9375C10.6562 10.25 11.0312 10.4062 11.4688 10.4062H17.875C18.3125 10.4062 18.6875 10.25 19 9.9375C19.3125 9.625 19.4688 9.25 19.4688 8.8125C19.4688 8.375 19.625 8 19.9375 7.6875C20.25 7.375 20.625 7.21875 21.0625 7.21875H24.2812C24.7188 7.21875 25.0938 7.0625 25.4062 6.75C25.7188 6.4375 25.875 6.0625 25.875 5.625C25.875 5.1875 26.0312 4.8125 26.3438 4.5C26.6562 4.16667 27.0312 4 27.4688 4H37.0625C37.5 4 37.875 4.15625 38.1875 4.46875C38.5 4.80208 38.6562 5.1875 38.6562 5.625C38.6562 6.0625 38.8125 6.4375 39.125 6.75C39.4375 7.0625 39.8229 7.21875 40.2812 7.21875H43.4688C43.9062 7.21875 44.2812 7.375 44.5938 7.6875C44.9062 8 45.0625 8.375 45.0625 8.8125V12C45.0625 12.4583 45.2188 12.8438 45.5312 13.1562C45.8438 13.4688 46.2188 13.625 46.6562 13.625C47.0938 13.625 47.4792 13.7812 47.8125 14.0938C48.125 14.4062 48.2812 14.7812 48.2812 15.2188V28C48.2812 28.4583 48.125 28.8438 47.8125 29.1562C47.4792 29.4688 47.0938 29.625 46.6562 29.625C46.2188 29.625 45.8438 29.7812 45.5312 30.0938C45.2188 30.4062 45.0625 30.7812 45.0625 31.2188C45.0625 31.6562 44.9062 32.0312 44.5938 32.3438C44.2812 32.6562 43.9062 32.8125 43.4688 32.8125C43.0312 32.8125 42.6562 32.9688 42.3438 33.2812C42.0312 33.5938 41.875 33.9688 41.875 34.4062C41.875 34.8438 41.7188 35.2292 41.4062 35.5625C41.0938 35.8542 40.7188 36 40.2812 36C39.8229 36 39.4375 36.1562 39.125 36.4688C38.8125 36.8021 38.6562 37.1875 38.6562 37.625C38.6562 38.0625 38.5 38.4375 38.1875 38.75C37.875 39.0625 37.5 39.2188 37.0625 39.2188H30.6562C30.2188 39.2188 29.8438 39.0625 29.5312 38.75C29.2188 38.4375 29.0625 38.0625 29.0625 37.625C29.0625 37.1875 28.9062 36.8021 28.5938 36.4688C28.2812 36.1562 27.9062 36 27.4688 36C27.0312 36 26.6562 35.8542 26.3438 35.5625C26.0312 35.2292 25.875 34.8438 25.875 34.4062C25.875 33.9688 25.7188 33.5938 25.4062 33.2812C25.0938 32.9688 24.7188 32.8125 24.2812 32.8125C23.8229 32.8125 23.4375 32.9688 23.125 33.2812C22.8125 33.5938 22.6562 33.9688 22.6562 34.4062V47.2188C22.6562 47.6562 22.8125 48.0312 23.125 48.3438C23.4375 48.6562 23.8229 48.8125 24.2812 48.8125H27.4688C27.9062 48.8125 28.2812 48.6562 28.5938 48.3438C28.9062 48.0312 29.0625 47.6562 29.0625 47.2188C29.0625 46.7812 29.2188 46.4062 29.5312 46.0938C29.8438 45.7812 30.2188 45.625 30.6562 45.625C31.0938 45.625 31.4792 45.7812 31.8125 46.0938C32.125 46.4062 32.2812 46.7812 32.2812 47.2188C32.2812 47.6562 32.125 48.0312 31.8125 48.3438C31.4792 48.6562 31.0938 48.8125 30.6562 48.8125C30.2188 48.8125 29.8438 48.9688 29.5312 49.2812C29.2188 49.5938 29.0625 49.9688 29.0625 50.4062C29.0625 50.8438 28.9062 51.2292 28.5938 51.5625C28.2812 51.8542 27.9062 52 27.4688 52H21.0625C20.625 52 20.25 51.8542 19.9375 51.5625C19.625 51.2292 19.4688 50.8438 19.4688 50.4062C19.4688 49.9688 19.3125 49.5938 19 49.2812C18.6875 48.9688 18.3125 48.8125 17.875 48.8125H14.6562C14.2188 48.8125 13.8438 48.9688 13.5312 49.2812C13.2188 49.5938 13.0625 49.9688 13.0625 50.4062C13.0625 50.8438 12.9062 51.2292 12.5938 51.5625C12.2812 51.8542 11.9062 52 11.4688 52H5.0625ZM62.6562 52C62.2188 52 61.8438 51.8542 61.5312 51.5625C61.2188 51.2292 61.0625 50.8438 61.0625 50.4062C61.0625 49.9688 60.9062 49.5938 60.5938 49.2812C60.2812 48.9688 59.9062 48.8125 59.4688 48.8125H56.25C55.8125 48.8125 55.4375 48.6562 55.125 48.3438C54.8125 48.0312 54.6562 47.6562 54.6562 47.2188C54.6562 46.7812 54.5 46.4062 54.1875 46.0938C53.875 45.7812 53.5 45.625 53.0625 45.625C52.625 45.625 52.2396 45.4688 51.9062 45.1562C51.6146 44.8438 51.4688 44.4583 51.4688 44V40.8125C51.4688 40.375 51.6146 40 51.9062 39.6875C52.2396 39.375 52.625 39.2188 53.0625 39.2188C53.5 39.2188 53.875 39.0625 54.1875 38.75C54.5 38.4375 54.6562 38.0625 54.6562 37.625C54.6562 37.1875 54.8125 36.8125 55.125 36.5C55.4375 36.1667 55.8125 36 56.25 36H59.4688C59.9062 36 60.2812 35.8542 60.5938 35.5625C60.9062 35.2292 61.0625 34.8438 61.0625 34.4062C61.0625 33.9688 61.2188 33.5938 61.5312 33.2812C61.8438 32.9688 62.2188 32.8125 62.6562 32.8125H65.8438C66.2812 32.8125 66.6667 32.6562 67 32.3438C67.3125 32.0312 67.4688 31.6562 67.4688 31.2188C67.4688 30.7812 67.3125 30.4062 67 30.0938C66.6667 29.7812 66.2812 29.625 65.8438 29.625C65.4062 29.625 65.0312 29.4688 64.7188 29.1562C64.4062 28.8438 64.25 28.4583 64.25 28C64.25 27.5625 64.4062 27.1875 64.7188 26.875C65.0312 26.5625 65.4062 26.4062 65.8438 26.4062C66.2812 26.4062 66.6667 26.5625 67 26.875C67.3125 27.1875 67.4688 27.5625 67.4688 28C67.4688 28.4583 67.6146 28.8438 67.9062 29.1562C68.2396 29.4688 68.625 29.625 69.0625 29.625C69.5 29.625 69.875 29.7812 70.1875 30.0938C70.5 30.4062 70.6562 30.7812 70.6562 31.2188V34.4062C70.6562 34.8438 70.5 35.2292 70.1875 35.5625C69.875 35.8542 69.5 36 69.0625 36C68.625 36 68.2396 36.1562 67.9062 36.4688C67.6146 36.8021 67.4688 37.1875 67.4688 37.625C67.4688 38.0625 67.3125 38.4375 67 38.75C66.6667 39.0625 66.2812 39.2188 65.8438 39.2188H62.6562C62.2188 39.2188 61.8438 39.375 61.5312 39.6875C61.2188 40 61.0625 40.375 61.0625 40.8125V47.2188C61.0625 47.6562 61.2188 48.0312 61.5312 48.3438C61.8438 48.6562 62.2188 48.8125 62.6562 48.8125H69.0625C69.5 48.8125 69.875 48.6562 70.1875 48.3438C70.5 48.0312 70.6562 47.6562 70.6562 47.2188C70.6562 46.7812 70.8125 46.4062 71.125 46.0938C71.4375 45.7812 71.8125 45.625 72.25 45.625C72.6875 45.625 73.0625 45.4688 73.375 45.1562C73.6875 44.8438 73.8438 44.4583 73.8438 44V44.0312C73.8438 43.5729 74 43.1875 74.3125 42.875C74.625 42.5625 75.0104 42.4062 75.4688 42.4062C75.9062 42.4062 76.2812 42.25 76.5938 41.9375C76.9062 41.625 77.0625 41.25 77.0625 40.8125C77.0625 40.375 77.2188 40 77.5312 39.6875C77.8438 39.375 78.2188 39.2188 78.6562 39.2188C79.0938 39.2188 79.4688 39.0625 79.7812 38.75C80.0938 38.4375 80.25 38.0625 80.25 37.625V28C80.25 27.5625 80.0938 27.1875 79.7812 26.875C79.4688 26.5625 79.0938 26.4062 78.6562 26.4062C78.2188 26.4062 77.8438 26.25 77.5312 25.9375C77.2188 25.625 77.0625 25.25 77.0625 24.8125V21.625C77.0625 21.1875 76.9062 20.8021 76.5938 20.4688C76.2812 20.1562 75.9062 20 75.4688 20C75.0104 20 74.625 19.8542 74.3125 19.5625C74 19.2292 73.8438 18.8438 73.8438 18.4062C73.8438 17.9688 73.6875 17.5938 73.375 17.2812C73.0625 16.9688 72.6875 16.8125 72.25 16.8125C71.8125 16.8125 71.4375 16.9688 71.125 17.2812C70.8125 17.5938 70.6562 17.9688 70.6562 18.4062C70.6562 18.8438 70.5 19.2292 70.1875 19.5625C69.875 19.8542 69.5 20 69.0625 20H59.4688C59.0104 20 58.625 19.8542 58.3125 19.5625C58 19.2292 57.8438 18.8438 57.8438 18.4062C57.8438 17.9688 57.6875 17.5938 57.375 17.2812C57.0625 16.9688 56.6875 16.8125 56.25 16.8125C55.8125 16.8125 55.4375 16.6562 55.125 16.3438C54.8125 16.0312 54.6562 15.6562 54.6562 15.2188C54.6562 14.7812 54.8125 14.4062 55.125 14.0938C55.4375 13.7812 55.8125 13.625 56.25 13.625C56.6875 13.625 57.0625 13.4688 57.375 13.1562C57.6875 12.8438 57.8438 12.4583 57.8438 12V12.0312C57.8438 11.5729 58 11.1875 58.3125 10.875C58.625 10.5625 59.0104 10.4062 59.4688 10.4062C59.9062 10.4062 60.2812 10.25 60.5938 9.9375C60.9062 9.625 61.0625 9.25 61.0625 8.8125C61.0625 8.375 61.2188 8 61.5312 7.6875C61.8438 7.375 62.2188 7.21875 62.6562 7.21875C63.0938 7.21875 63.4688 7.0625 63.7812 6.75C64.0938 6.4375 64.25 6.0625 64.25 5.625C64.25 5.1875 64.4062 4.80208 64.7188 4.46875C65.0312 4.15625 65.4062 4 65.8438 4C66.2812 4 66.6667 4.15625 67 4.46875C67.3125 4.80208 67.4688 5.1875 67.4688 5.625V8.8125C67.4688 9.25 67.3125 9.625 67 9.9375C66.6667 10.25 66.2812 10.4062 65.8438 10.4062C65.4062 10.4062 65.0312 10.5625 64.7188 10.875C64.4062 11.1875 64.25 11.5625 64.25 12C64.25 12.4583 64.0938 12.8438 63.7812 13.1562C63.4688 13.4688 63.0938 13.625 62.6562 13.625H61.0625H59.3438C58.9479 13.6458 58.6042 13.8021 58.3125 14.0938C58 14.4062 57.8438 14.7812 57.8438 15.2188C57.8438 15.6562 58 16.0312 58.3125 16.3438C58.625 16.6562 59.0104 16.8125 59.4688 16.8125H65.8438C66.2812 16.8125 66.6667 16.6562 67 16.3438C67.3125 16.0312 67.4688 15.6562 67.4688 15.2188C67.4688 14.7812 67.6146 14.4062 67.9062 14.0938C68.2396 13.7812 68.625 13.625 69.0625 13.625H72.25C72.6875 13.625 73.0625 13.4688 73.375 13.1562C73.6875 12.8438 73.8438 12.4583 73.8438 12V12.0312C73.8438 11.5729 74 11.1875 74.3125 10.875C74.625 10.5625 75.0104 10.4062 75.4688 10.4062C75.9062 10.4062 76.2812 10.25 76.5938 9.9375C76.9062 9.625 77.0625 9.25 77.0625 8.8125C77.0625 8.375 77.2188 8 77.5312 7.6875C77.8438 7.375 78.2188 7.21875 78.6562 7.21875C79.0938 7.21875 79.4688 7.0625 79.7812 6.75C80.0938 6.4375 80.25 6.0625 80.25 5.625C80.25 5.1875 80.4062 4.80208 80.7188 4.46875C81.0312 4.15625 81.4062 4 81.8438 4C82.2812 4 82.6667 4.15625 83 4.46875C83.3125 4.80208 83.4688 5.1875 83.4688 5.625C83.4688 6.0625 83.3125 6.4375 83 6.75C82.6667 7.0625 82.2812 7.21875 81.8438 7.21875C81.4062 7.21875 81.0312 7.375 80.7188 7.6875C80.4062 8 80.25 8.375 80.25 8.8125V18.4062C80.25 18.8438 80.4062 19.2292 80.7188 19.5625C81.0312 19.8542 81.4062 20 81.8438 20C82.2812 20 82.6667 20.1562 83 20.4688C83.3125 20.8021 83.4688 21.1875 83.4688 21.625C83.4688 22.0625 83.6146 22.4375 83.9062 22.75C84.2396 23.0625 84.625 23.2188 85.0625 23.2188C85.5 23.2188 85.875 23.375 86.1875 23.6875C86.5 24 86.6562 24.375 86.6562 24.8125C86.6562 25.25 86.8125 25.625 87.125 25.9375C87.4375 26.25 87.8125 26.4062 88.25 26.4062C88.6875 26.4062 89.0625 26.5625 89.375 26.875C89.6875 27.1875 89.8438 27.5625 89.8438 28V40.8125C89.8438 41.25 89.6875 41.625 89.375 41.9375C89.0625 42.25 88.6875 42.4062 88.25 42.4062C87.8125 42.4062 87.4375 42.5625 87.125 42.875C86.8125 43.1875 86.6562 43.5625 86.6562 44C86.6562 44.4583 86.5 44.8438 86.1875 45.1562C85.875 45.4688 85.5 45.625 85.0625 45.625C84.625 45.625 84.2396 45.7812 83.9062 46.0938C83.6146 46.4062 83.4688 46.7812 83.4688 47.2188C83.4688 47.6562 83.3125 48.0312 83 48.3438C82.6667 48.6562 82.2812 48.8125 81.8438 48.8125H75.4688C75.0104 48.8125 74.625 48.9688 74.3125 49.2812C74 49.5938 73.8438 49.9688 73.8438 50.4062C73.8438 50.8438 73.6875 51.2292 73.375 51.5625C73.0625 51.8542 72.6875 52 72.25 52H62.6562ZM101.094 52C100.635 52 100.25 51.8542 99.9375 51.5625C99.625 51.2292 99.4688 50.8438 99.4688 50.4062C99.4688 49.9688 99.3125 49.5938 99 49.2812C98.6875 48.9688 98.3125 48.8125 97.875 48.8125C97.4375 48.8125 97.0625 48.6562 96.75 48.3438C96.4375 48.0312 96.2812 47.6562 96.2812 47.2188C96.2812 46.7812 96.125 46.4062 95.8125 46.0938C95.5 45.7812 95.125 45.625 94.6875 45.625C94.25 45.625 93.8646 45.4688 93.5312 45.1562C93.2396 44.8438 93.0938 44.4583 93.0938 44C93.0938 43.5625 93.2396 43.1875 93.5312 42.875C93.8646 42.5625 94.25 42.4062 94.6875 42.4062C95.125 42.4062 95.5 42.25 95.8125 41.9375C96.125 41.625 96.2812 41.25 96.2812 40.8125C96.2812 40.375 96.4375 40 96.75 39.6875C97.0625 39.375 97.4375 39.2188 97.875 39.2188C98.3125 39.2188 98.6875 39.375 99 39.6875C99.3125 40 99.4688 40.375 99.4688 40.8125C99.4688 41.25 99.3125 41.625 99 41.9375C98.6875 42.25 98.3125 42.4062 97.875 42.4062C97.4375 42.4062 97.0625 42.5625 96.75 42.875C96.4375 43.1875 96.2812 43.5625 96.2812 44C96.2812 44.4583 96.4375 44.8438 96.75 45.1562C97.0625 45.4688 97.4375 45.625 97.875 45.625H101.094C101.531 45.625 101.906 45.7812 102.219 46.0938C102.531 46.4062 102.688 46.7812 102.688 47.2188C102.688 47.6562 102.844 48.0312 103.156 48.3438C103.469 48.6562 103.844 48.8125 104.281 48.8125C104.719 48.8125 105.094 48.6562 105.406 48.3438C105.719 48.0312 105.875 47.6562 105.875 47.2188C105.875 46.7812 106.031 46.4062 106.344 46.0938C106.656 45.7812 107.031 45.625 107.469 45.625C107.906 45.625 108.292 45.4688 108.625 45.1562C108.938 44.8438 109.094 44.4583 109.094 44V44.0312C109.094 43.5729 109.24 43.1875 109.531 42.875C109.865 42.5625 110.25 42.4062 110.688 42.4062C111.125 42.4062 111.5 42.25 111.812 41.9375C112.125 41.625 112.281 41.25 112.281 40.8125V37.625C112.281 37.1875 112.438 36.8125 112.75 36.5C113.062 36.1667 113.438 36 113.875 36C114.312 36 114.688 35.8542 115 35.5625C115.312 35.2292 115.469 34.8438 115.469 34.4062V18.4062C115.469 17.9688 115.625 17.5938 115.938 17.2812C116.25 16.9688 116.635 16.8125 117.094 16.8125C117.531 16.8125 117.906 16.6562 118.219 16.3438C118.531 16.0312 118.688 15.6562 118.688 15.2188C118.688 14.7812 118.531 14.4062 118.219 14.0938C117.906 13.7812 117.531 13.625 117.094 13.625H113.875C113.438 13.625 113.062 13.4688 112.75 13.1562C112.438 12.8438 112.281 12.4583 112.281 12V8.8125C112.281 8.375 112.125 8 111.812 7.6875C111.5 7.375 111.125 7.21875 110.688 7.21875H105.875H104.156C103.76 7.23958 103.427 7.39583 103.156 7.6875C102.844 8 102.688 8.375 102.688 8.8125C102.688 9.25 102.531 9.625 102.219 9.9375C101.906 10.25 101.531 10.4062 101.094 10.4062C100.635 10.4062 100.25 10.5625 99.9375 10.875C99.625 11.1875 99.4688 11.5625 99.4688 12C99.4688 12.4583 99.625 12.8438 99.9375 13.1562C100.25 13.4688 100.635 13.625 101.094 13.625C101.531 13.625 101.906 13.7812 102.219 14.0938C102.531 14.4062 102.688 14.7812 102.688 15.2188C102.688 15.6562 102.844 16.0312 103.156 16.3438C103.469 16.6562 103.844 16.8125 104.281 16.8125C104.719 16.8125 105.094 16.9688 105.406 17.2812C105.719 17.5938 105.875 17.9688 105.875 18.4062V21.625C105.875 22.0625 106.031 22.4375 106.344 22.75C106.656 23.0625 107.031 23.2188 107.469 23.2188C107.906 23.2188 108.292 23.375 108.625 23.6875C108.938 24 109.094 24.375 109.094 24.8125V31.2188C109.094 31.6562 108.938 32.0312 108.625 32.3438C108.292 32.6562 107.906 32.8125 107.469 32.8125C107.031 32.8125 106.656 32.9688 106.344 33.2812C106.031 33.5938 105.875 33.9688 105.875 34.4062C105.875 34.8438 105.719 35.2292 105.406 35.5625C105.094 35.8542 104.719 36 104.281 36H101.094C100.635 36 100.25 35.8542 99.9375 35.5625C99.625 35.2292 99.4688 34.8438 99.4688 34.4062C99.4688 33.9688 99.625 33.5938 99.9375 33.2812C100.25 32.9688 100.635 32.8125 101.094 32.8125C101.531 32.8125 101.906 32.6562 102.219 32.3438C102.531 32.0312 102.688 31.6562 102.688 31.2188C102.688 30.7812 102.531 30.4062 102.219 30.0938C101.906 29.7812 101.531 29.625 101.094 29.625C100.635 29.625 100.25 29.4688 99.9375 29.1562C99.625 28.8438 99.4688 28.4583 99.4688 28C99.4688 27.5625 99.3125 27.1875 99 26.875C98.6875 26.5625 98.3125 26.4062 97.875 26.4062C97.4375 26.4062 97.0625 26.25 96.75 25.9375C96.4375 25.625 96.2812 25.25 96.2812 24.8125V12.0312C96.2812 11.5729 96.4375 11.1875 96.75 10.875C97.0625 10.5625 97.4375 10.4062 97.875 10.4062C98.3125 10.4062 98.6875 10.25 99 9.9375C99.3125 9.625 99.4688 9.25 99.4688 8.8125C99.4688 8.375 99.625 8 99.9375 7.6875C100.25 7.375 100.635 7.21875 101.094 7.21875C101.531 7.21875 101.906 7.0625 102.219 6.75C102.531 6.4375 102.688 6.0625 102.688 5.625C102.688 5.1875 102.844 4.8125 103.156 4.5C103.469 4.16667 103.844 4 104.281 4H110.688C111.125 4 111.5 4.15625 111.812 4.46875C112.125 4.80208 112.281 5.1875 112.281 5.625C112.281 6.0625 112.438 6.4375 112.75 6.75C113.062 7.0625 113.438 7.21875 113.875 7.21875C114.312 7.21875 114.688 7.375 115 7.6875C115.312 8 115.469 8.375 115.469 8.8125C115.469 9.25 115.625 9.625 115.938 9.9375C116.25 10.25 116.635 10.4062 117.094 10.4062C117.531 10.4062 117.906 10.5625 118.219 10.875C118.531 11.1875 118.688 11.5625 118.688 12C118.688 12.4583 118.844 12.8438 119.156 13.1562C119.469 13.4688 119.844 13.625 120.281 13.625C120.719 13.625 121.094 13.4688 121.406 13.1562C121.719 12.8438 121.875 12.4583 121.875 12V12.0312C121.875 11.5729 122.031 11.1875 122.344 10.875C122.656 10.5625 123.031 10.4062 123.469 10.4062C123.906 10.4062 124.292 10.25 124.625 9.9375C124.938 9.625 125.094 9.25 125.094 8.8125C125.094 8.375 125.24 8 125.531 7.6875C125.865 7.375 126.25 7.21875 126.688 7.21875C127.125 7.21875 127.5 7.0625 127.812 6.75C128.125 6.4375 128.281 6.0625 128.281 5.625C128.281 5.1875 128.438 4.8125 128.75 4.5C129.062 4.16667 129.438 4 129.875 4H136.281C136.719 4 137.094 4.15625 137.406 4.46875C137.719 4.80208 137.875 5.1875 137.875 5.625C137.875 6.0625 138.031 6.4375 138.344 6.75C138.656 7.0625 139.031 7.21875 139.469 7.21875C139.906 7.21875 140.292 7.375 140.625 7.6875C140.938 8 141.094 8.375 141.094 8.8125C141.094 9.25 141.24 9.625 141.531 9.9375C141.865 10.25 142.25 10.4062 142.688 10.4062C143.125 10.4062 143.5 10.5625 143.812 10.875C144.125 11.1875 144.281 11.5625 144.281 12V24.8125C144.281 25.25 144.125 25.625 143.812 25.9375C143.5 26.25 143.125 26.4062 142.688 26.4062C142.25 26.4062 141.865 26.5625 141.531 26.875C141.24 27.1875 141.094 27.5625 141.094 28C141.094 28.4583 140.938 28.8438 140.625 29.1562C140.292 29.4688 139.906 29.625 139.469 29.625C139.031 29.625 138.656 29.7812 138.344 30.0938C138.031 30.4062 137.875 30.7812 137.875 31.2188C137.875 31.6562 138.031 32.0312 138.344 32.3438C138.656 32.6562 139.031 32.8125 139.469 32.8125C139.906 32.8125 140.292 32.9688 140.625 33.2812C140.938 33.5938 141.094 33.9688 141.094 34.4062C141.094 34.8438 140.938 35.2292 140.625 35.5625C140.292 35.8542 139.906 36 139.469 36H136.281C135.844 36 135.469 35.8542 135.156 35.5625C134.844 35.2292 134.688 34.8438 134.688 34.4062C134.688 33.9688 134.531 33.5938 134.219 33.2812C133.906 32.9688 133.531 32.8125 133.094 32.8125C132.635 32.8125 132.25 32.6562 131.938 32.3438C131.625 32.0312 131.469 31.6562 131.469 31.2188V24.8125C131.469 24.375 131.625 24 131.938 23.6875C132.25 23.375 132.635 23.2188 133.094 23.2188C133.531 23.2188 133.906 23.0625 134.219 22.75C134.531 22.4375 134.688 22.0625 134.688 21.625V18.4062C134.688 17.9688 134.844 17.5938 135.156 17.2812C135.469 16.9688 135.844 16.8125 136.281 16.8125C136.719 16.8125 137.094 16.6562 137.406 16.3438C137.719 16.0312 137.875 15.6562 137.875 15.2188C137.875 14.7812 138.031 14.4062 138.344 14.0938C138.656 13.7812 139.031 13.625 139.469 13.625C139.906 13.625 140.292 13.4688 140.625 13.1562C140.938 12.8438 141.094 12.4583 141.094 12C141.094 11.5625 140.938 11.1875 140.625 10.875C140.292 10.5625 139.906 10.4062 139.469 10.4062C139.031 10.4062 138.656 10.25 138.344 9.9375C138.031 9.625 137.875 9.25 137.875 8.8125C137.875 8.375 137.719 8 137.406 7.6875C137.094 7.375 136.719 7.21875 136.281 7.21875H131.469H129.781C129.385 7.23958 129.042 7.39583 128.75 7.6875C128.438 8 128.281 8.375 128.281 8.8125V12C128.281 12.4583 128.125 12.8438 127.812 13.1562C127.5 13.4688 127.125 13.625 126.688 13.625H125.094H123.375C122.979 13.6458 122.635 13.8021 122.344 14.0938C122.031 14.4062 121.875 14.7812 121.875 15.2188C121.875 15.6562 122.031 16.0312 122.344 16.3438C122.656 16.6562 123.031 16.8125 123.469 16.8125C123.906 16.8125 124.292 16.9688 124.625 17.2812C124.938 17.5938 125.094 17.9688 125.094 18.4062V37.625C125.094 38.0625 125.24 38.4375 125.531 38.75C125.865 39.0625 126.25 39.2188 126.688 39.2188C127.125 39.2188 127.5 39.375 127.812 39.6875C128.125 40 128.281 40.375 128.281 40.8125C128.281 41.25 128.438 41.625 128.75 41.9375C129.062 42.25 129.438 42.4062 129.875 42.4062C130.312 42.4062 130.688 42.5625 131 42.875C131.312 43.1875 131.469 43.5625 131.469 44C131.469 44.4583 131.625 44.8438 131.938 45.1562C132.25 45.4688 132.635 45.625 133.094 45.625C133.531 45.625 133.906 45.7812 134.219 46.0938C134.531 46.4062 134.688 46.7812 134.688 47.2188C134.688 47.6562 134.844 48.0312 135.156 48.3438C135.469 48.6562 135.844 48.8125 136.281 48.8125C136.719 48.8125 137.094 48.6562 137.406 48.3438C137.719 48.0312 137.875 47.6562 137.875 47.2188C137.875 46.7812 138.031 46.4062 138.344 46.0938C138.656 45.7812 139.031 45.625 139.469 45.625H142.688C143.125 45.625 143.5 45.4688 143.812 45.1562C144.125 44.8438 144.281 44.4583 144.281 44C144.281 43.5625 144.125 43.1875 143.812 42.875C143.5 42.5625 143.125 42.4062 142.688 42.4062C142.25 42.4062 141.865 42.25 141.531 41.9375C141.24 41.625 141.094 41.25 141.094 40.8125C141.094 40.375 141.24 40 141.531 39.6875C141.865 39.375 142.25 39.2188 142.688 39.2188C143.125 39.2188 143.5 39.375 143.812 39.6875C144.125 40 144.281 40.375 144.281 40.8125C144.281 41.25 144.438 41.625 144.75 41.9375C145.062 42.25 145.438 42.4062 145.875 42.4062C146.312 42.4062 146.688 42.5625 147 42.875C147.312 43.1875 147.469 43.5625 147.469 44C147.469 44.4583 147.312 44.8438 147 45.1562C146.688 45.4688 146.312 45.625 145.875 45.625C145.438 45.625 145.062 45.7812 144.75 46.0938C144.438 46.4062 144.281 46.7812 144.281 47.2188C144.281 47.6562 144.125 48.0312 143.812 48.3438C143.5 48.6562 143.125 48.8125 142.688 48.8125C142.25 48.8125 141.865 48.9688 141.531 49.2812C141.24 49.5938 141.094 49.9688 141.094 50.4062C141.094 50.8438 140.938 51.2292 140.625 51.5625C140.292 51.8542 139.906 52 139.469 52H129.875C129.438 52 129.062 51.8542 128.75 51.5625C128.438 51.2292 128.281 50.8438 128.281 50.4062C128.281 49.9688 128.125 49.5938 127.812 49.2812C127.5 48.9688 127.125 48.8125 126.688 48.8125C126.25 48.8125 125.865 48.6562 125.531 48.3438C125.24 48.0312 125.094 47.6562 125.094 47.2188C125.094 46.7812 124.938 46.4062 124.625 46.0938C124.292 45.7812 123.906 45.625 123.469 45.625C123.031 45.625 122.656 45.4688 122.344 45.1562C122.031 44.8438 121.875 44.4583 121.875 44C121.875 43.5625 121.719 43.1875 121.406 42.875C121.094 42.5625 120.719 42.4062 120.281 42.4062C119.844 42.4062 119.469 42.5625 119.156 42.875C118.844 43.1875 118.688 43.5625 118.688 44C118.688 44.4583 118.531 44.8438 118.219 45.1562C117.906 45.4688 117.531 45.625 117.094 45.625C116.635 45.625 116.25 45.7812 115.938 46.0938C115.625 46.4062 115.469 46.7812 115.469 47.2188C115.469 47.6562 115.312 48.0312 115 48.3438C114.688 48.6562 114.312 48.8125 113.875 48.8125C113.438 48.8125 113.062 48.9688 112.75 49.2812C112.438 49.5938 112.281 49.9688 112.281 50.4062C112.281 50.8438 112.125 51.2292 111.812 51.5625C111.5 51.8542 111.125 52 110.688 52H101.094ZM165.094 52C164.656 52 164.281 51.8542 163.969 51.5625C163.656 51.2292 163.5 50.8438 163.5 50.4062C163.5 49.9688 163.344 49.5938 163.031 49.2812C162.719 48.9688 162.344 48.8125 161.906 48.8125H158.719C158.26 48.8125 157.875 48.6562 157.562 48.3438C157.25 48.0312 157.094 47.6562 157.094 47.2188C157.094 46.7812 156.938 46.4062 156.625 46.0938C156.312 45.7812 155.938 45.625 155.5 45.625C155.062 45.625 154.688 45.4688 154.375 45.1562C154.062 44.8438 153.906 44.4583 153.906 44V37.625C153.906 37.1875 153.75 36.8021 153.438 36.4688C153.125 36.1562 152.75 36 152.312 36C151.875 36 151.49 35.8542 151.156 35.5625C150.865 35.2292 150.719 34.8438 150.719 34.4062V21.625C150.719 21.1875 150.865 20.8125 151.156 20.5C151.49 20.1667 151.875 20 152.312 20C152.75 20 153.125 19.8542 153.438 19.5625C153.75 19.2292 153.906 18.8438 153.906 18.4062V15.2188C153.906 14.7812 154.062 14.4062 154.375 14.0938C154.688 13.7812 155.062 13.625 155.5 13.625C155.938 13.625 156.312 13.4688 156.625 13.1562C156.938 12.8438 157.094 12.4583 157.094 12V12.0312C157.094 11.5729 157.25 11.1875 157.562 10.875C157.875 10.5625 158.26 10.4062 158.719 10.4062C159.156 10.4062 159.531 10.25 159.844 9.9375C160.156 9.625 160.312 9.25 160.312 8.8125C160.312 8.375 160.469 8 160.781 7.6875C161.094 7.375 161.469 7.21875 161.906 7.21875C162.344 7.21875 162.719 7.0625 163.031 6.75C163.344 6.4375 163.5 6.0625 163.5 5.625C163.5 5.1875 163.656 4.8125 163.969 4.5C164.281 4.16667 164.656 4 165.094 4H171.5C171.938 4 172.312 4.15625 172.625 4.46875C172.938 4.80208 173.094 5.1875 173.094 5.625C173.094 6.0625 173.25 6.4375 173.562 6.75C173.875 7.0625 174.26 7.21875 174.719 7.21875C175.156 7.21875 175.531 7.375 175.844 7.6875C176.156 8 176.312 8.375 176.312 8.8125C176.312 9.25 176.469 9.625 176.781 9.9375C177.094 10.25 177.469 10.4062 177.906 10.4062C178.344 10.4062 178.719 10.25 179.031 9.9375C179.344 9.625 179.5 9.25 179.5 8.8125C179.5 8.375 179.656 8 179.969 7.6875C180.281 7.375 180.656 7.21875 181.094 7.21875H184.312C184.75 7.21875 185.125 7.0625 185.438 6.75C185.75 6.4375 185.906 6.0625 185.906 5.625C185.906 5.1875 186.062 4.80208 186.375 4.46875C186.688 4.15625 187.062 4 187.5 4C187.938 4 188.312 4.15625 188.625 4.46875C188.938 4.80208 189.094 5.1875 189.094 5.625V12C189.094 12.4583 188.938 12.8438 188.625 13.1562C188.312 13.4688 187.938 13.625 187.5 13.625C187.062 13.625 186.688 13.7812 186.375 14.0938C186.062 14.4062 185.906 14.7812 185.906 15.2188C185.906 15.6562 185.75 16.0312 185.438 16.3438C185.125 16.6562 184.75 16.8125 184.312 16.8125H181.094C180.656 16.8125 180.281 16.6562 179.969 16.3438C179.656 16.0312 179.5 15.6562 179.5 15.2188C179.5 14.7812 179.344 14.4062 179.031 14.0938C178.719 13.7812 178.344 13.625 177.906 13.625C177.469 13.625 177.094 13.4688 176.781 13.1562C176.469 12.8438 176.312 12.4583 176.312 12C176.312 11.5625 176.156 11.1875 175.844 10.875C175.531 10.5625 175.156 10.4062 174.719 10.4062C174.26 10.4062 173.875 10.25 173.562 9.9375C173.25 9.625 173.094 9.25 173.094 8.8125C173.094 8.375 172.938 8 172.625 7.6875C172.312 7.375 171.938 7.21875 171.5 7.21875H168.312C167.875 7.21875 167.49 7.375 167.156 7.6875C166.865 8 166.719 8.375 166.719 8.8125C166.719 9.25 166.562 9.625 166.25 9.9375C165.917 10.25 165.531 10.4062 165.094 10.4062C164.656 10.4062 164.281 10.5625 163.969 10.875C163.656 11.1875 163.5 11.5625 163.5 12V15.2188C163.5 15.6562 163.344 16.0312 163.031 16.3438C162.719 16.6562 162.344 16.8125 161.906 16.8125C161.469 16.8125 161.094 16.9688 160.781 17.2812C160.469 17.5938 160.312 17.9688 160.312 18.4062V28C160.312 28.4583 160.469 28.8438 160.781 29.1562C161.094 29.4688 161.469 29.625 161.906 29.625C162.344 29.625 162.719 29.4688 163.031 29.1562C163.344 28.8438 163.5 28.4583 163.5 28V28.0312C163.5 27.5729 163.656 27.1875 163.969 26.875C164.281 26.5625 164.656 26.4062 165.094 26.4062C165.531 26.4062 165.917 26.25 166.25 25.9375C166.562 25.625 166.719 25.25 166.719 24.8125C166.719 24.375 166.865 24 167.156 23.6875C167.49 23.375 167.875 23.2188 168.312 23.2188C168.75 23.2188 169.125 23.0625 169.438 22.75C169.75 22.4375 169.906 22.0625 169.906 21.625C169.906 21.1875 170.062 20.8125 170.375 20.5C170.688 20.1667 171.062 20 171.5 20H174.719C175.156 20 175.531 20.1562 175.844 20.4688C176.156 20.8021 176.312 21.1875 176.312 21.625C176.312 22.0625 176.469 22.4375 176.781 22.75C177.094 23.0625 177.469 23.2188 177.906 23.2188H181.094C181.531 23.2188 181.917 23.375 182.25 23.6875C182.562 24 182.719 24.375 182.719 24.8125C182.719 25.25 182.865 25.625 183.156 25.9375C183.49 26.25 183.875 26.4062 184.312 26.4062C184.75 26.4062 185.125 26.25 185.438 25.9375C185.75 25.625 185.906 25.25 185.906 24.8125C185.906 24.375 186.062 24 186.375 23.6875C186.688 23.375 187.062 23.2188 187.5 23.2188C187.938 23.2188 188.312 23.375 188.625 23.6875C188.938 24 189.094 24.375 189.094 24.8125C189.094 25.25 188.938 25.625 188.625 25.9375C188.312 26.25 187.938 26.4062 187.5 26.4062C187.062 26.4062 186.688 26.5625 186.375 26.875C186.062 27.1875 185.906 27.5625 185.906 28C185.906 28.4583 185.75 28.8438 185.438 29.1562C185.125 29.4688 184.75 29.625 184.312 29.625C183.875 29.625 183.49 29.7812 183.156 30.0938C182.865 30.4062 182.719 30.7812 182.719 31.2188C182.719 31.6562 182.562 32.0312 182.25 32.3438C181.917 32.6562 181.531 32.8125 181.094 32.8125H174.719C174.26 32.8125 173.875 32.6562 173.562 32.3438C173.25 32.0312 173.094 31.6562 173.094 31.2188C173.094 30.7812 172.938 30.4062 172.625 30.0938C172.312 29.7812 171.938 29.625 171.5 29.625H166.719H165C164.604 29.6458 164.26 29.8021 163.969 30.0938C163.656 30.4062 163.5 30.7812 163.5 31.2188V40.8125C163.5 41.25 163.656 41.625 163.969 41.9375C164.281 42.25 164.656 42.4062 165.094 42.4062C165.531 42.4062 165.917 42.5625 166.25 42.875C166.562 43.1875 166.719 43.5625 166.719 44C166.719 44.4583 166.865 44.8438 167.156 45.1562C167.49 45.4688 167.875 45.625 168.312 45.625C168.75 45.625 169.125 45.7812 169.438 46.0938C169.75 46.4062 169.906 46.7812 169.906 47.2188C169.906 47.6562 170.062 48.0312 170.375 48.3438C170.688 48.6562 171.062 48.8125 171.5 48.8125H174.719C175.156 48.8125 175.531 48.6562 175.844 48.3438C176.156 48.0312 176.312 47.6562 176.312 47.2188C176.312 46.7812 176.469 46.4062 176.781 46.0938C177.094 45.7812 177.469 45.625 177.906 45.625H181.094C181.531 45.625 181.917 45.4688 182.25 45.1562C182.562 44.8438 182.719 44.4583 182.719 44V44.0312C182.719 43.5729 182.865 43.1875 183.156 42.875C183.49 42.5625 183.875 42.4062 184.312 42.4062C184.75 42.4062 185.125 42.25 185.438 41.9375C185.75 41.625 185.906 41.25 185.906 40.8125C185.906 40.375 186.062 40 186.375 39.6875C186.688 39.375 187.062 39.2188 187.5 39.2188C187.938 39.2188 188.312 39.0625 188.625 38.75C188.938 38.4375 189.094 38.0625 189.094 37.625C189.094 37.1875 189.25 36.8021 189.562 36.4688C189.875 36.1562 190.26 36 190.719 36C191.156 36 191.531 36.1562 191.844 36.4688C192.156 36.8021 192.312 37.1875 192.312 37.625C192.312 38.0625 192.156 38.4375 191.844 38.75C191.531 39.0625 191.156 39.2188 190.719 39.2188C190.26 39.2188 189.875 39.375 189.562 39.6875C189.25 40 189.094 40.375 189.094 40.8125V44C189.094 44.4583 188.938 44.8438 188.625 45.1562C188.312 45.4688 187.938 45.625 187.5 45.625C187.062 45.625 186.688 45.7812 186.375 46.0938C186.062 46.4062 185.906 46.7812 185.906 47.2188C185.906 47.6562 185.75 48.0312 185.438 48.3438C185.125 48.6562 184.75 48.8125 184.312 48.8125C183.875 48.8125 183.49 48.9688 183.156 49.2812C182.865 49.5938 182.719 49.9688 182.719 50.4062C182.719 50.8438 182.562 51.2292 182.25 51.5625C181.917 51.8542 181.531 52 181.094 52H165.094ZM203.531 48.8125C203.969 48.8125 204.344 48.6562 204.656 48.3438C204.969 48.0312 205.125 47.6562 205.125 47.2188C205.125 46.7812 205.281 46.4062 205.594 46.0938C205.906 45.7812 206.281 45.625 206.719 45.625C207.156 45.625 207.531 45.4688 207.844 45.1562C208.156 44.8438 208.312 44.4583 208.312 44C208.312 43.5625 208.156 43.1875 207.844 42.875C207.531 42.5625 207.156 42.4062 206.719 42.4062C206.281 42.4062 205.906 42.25 205.594 41.9375C205.281 41.625 205.125 41.25 205.125 40.8125C205.125 40.375 204.969 40 204.656 39.6875C204.344 39.375 203.969 39.2188 203.531 39.2188H201.906H200.219C199.823 39.2396 199.479 39.3958 199.188 39.6875C198.875 40 198.719 40.375 198.719 40.8125V47.2188C198.719 47.6562 198.875 48.0312 199.188 48.3438C199.5 48.6562 199.875 48.8125 200.312 48.8125H203.531ZM200.312 52C199.875 52 199.5 51.8542 199.188 51.5625C198.875 51.2292 198.719 50.8438 198.719 50.4062C198.719 49.9688 198.562 49.5938 198.25 49.2812C197.938 48.9688 197.562 48.8125 197.125 48.8125C196.688 48.8125 196.302 48.6562 195.969 48.3438C195.677 48.0312 195.531 47.6562 195.531 47.2188V40.8125C195.531 40.375 195.677 40 195.969 39.6875C196.302 39.375 196.688 39.2188 197.125 39.2188C197.562 39.2188 197.938 39.0625 198.25 38.75C198.562 38.4375 198.719 38.0625 198.719 37.625C198.719 37.1875 198.875 36.8125 199.188 36.5C199.5 36.1667 199.875 36 200.312 36H206.719C207.156 36 207.531 35.8542 207.844 35.5625C208.156 35.2292 208.312 34.8438 208.312 34.4062V31.2188C208.312 30.7812 208.156 30.4062 207.844 30.0938C207.531 29.7812 207.156 29.625 206.719 29.625C206.281 29.625 205.906 29.4688 205.594 29.1562C205.281 28.8438 205.125 28.4583 205.125 28C205.125 27.5625 204.969 27.1875 204.656 26.875C204.344 26.5625 203.969 26.4062 203.531 26.4062C203.073 26.4062 202.688 26.25 202.375 25.9375C202.062 25.625 201.906 25.25 201.906 24.8125C201.906 24.375 201.75 24 201.438 23.6875C201.125 23.375 200.75 23.2188 200.312 23.2188C199.875 23.2188 199.5 23.0625 199.188 22.75C198.875 22.4375 198.719 22.0625 198.719 21.625V15.2188C198.719 14.7812 198.875 14.4062 199.188 14.0938C199.5 13.7812 199.875 13.625 200.312 13.625C200.75 13.625 201.125 13.4688 201.438 13.1562C201.75 12.8438 201.906 12.4583 201.906 12V12.0312C201.906 11.5729 202.062 11.1875 202.375 10.875C202.688 10.5625 203.073 10.4062 203.531 10.4062C203.969 10.4062 204.344 10.25 204.656 9.9375C204.969 9.625 205.125 9.25 205.125 8.8125C205.125 8.375 205.281 8 205.594 7.6875C205.906 7.375 206.281 7.21875 206.719 7.21875C207.156 7.21875 207.531 7.0625 207.844 6.75C208.156 6.4375 208.312 6.0625 208.312 5.625C208.312 5.1875 208.469 4.8125 208.781 4.5C209.094 4.16667 209.469 4 209.906 4H219.531C219.969 4 220.344 4.15625 220.656 4.46875C220.969 4.80208 221.125 5.1875 221.125 5.625C221.125 6.0625 221.281 6.4375 221.594 6.75C221.906 7.0625 222.281 7.21875 222.719 7.21875H225.906C226.344 7.21875 226.729 7.375 227.062 7.6875C227.375 8 227.531 8.375 227.531 8.8125C227.531 9.25 227.677 9.625 227.969 9.9375C228.302 10.25 228.688 10.4062 229.125 10.4062C229.562 10.4062 229.938 10.5625 230.25 10.875C230.562 11.1875 230.719 11.5625 230.719 12V21.625C230.719 22.0625 230.562 22.4375 230.25 22.75C229.938 23.0625 229.562 23.2188 229.125 23.2188C228.688 23.2188 228.302 23.375 227.969 23.6875C227.677 24 227.531 24.375 227.531 24.8125V28C227.531 28.4583 227.677 28.8438 227.969 29.1562C228.302 29.4688 228.688 29.625 229.125 29.625C229.562 29.625 229.938 29.4688 230.25 29.1562C230.562 28.8438 230.719 28.4583 230.719 28C230.719 27.5625 230.875 27.1875 231.188 26.875C231.5 26.5625 231.875 26.4062 232.312 26.4062C232.75 26.4062 233.125 26.5625 233.438 26.875C233.75 27.1875 233.906 27.5625 233.906 28C233.906 28.4583 233.75 28.8438 233.438 29.1562C233.125 29.4688 232.75 29.625 232.312 29.625C231.875 29.625 231.5 29.7812 231.188 30.0938C230.875 30.4062 230.719 30.7812 230.719 31.2188C230.719 31.6562 230.562 32.0312 230.25 32.3438C229.938 32.6562 229.562 32.8125 229.125 32.8125H225.906C225.469 32.8125 225.094 32.6562 224.781 32.3438C224.469 32.0312 224.312 31.6562 224.312 31.2188C224.312 30.7812 224.156 30.4062 223.844 30.0938C223.531 29.7812 223.156 29.625 222.719 29.625C222.281 29.625 221.906 29.4688 221.594 29.1562C221.281 28.8438 221.125 28.4583 221.125 28V18.4062C221.125 17.9688 221.281 17.5938 221.594 17.2812C221.906 16.9688 222.281 16.8125 222.719 16.8125C223.156 16.8125 223.531 16.6562 223.844 16.3438C224.156 16.0312 224.312 15.6562 224.312 15.2188V12C224.312 11.5625 224.156 11.1875 223.844 10.875C223.531 10.5625 223.156 10.4062 222.719 10.4062C222.281 10.4062 221.906 10.25 221.594 9.9375C221.281 9.625 221.125 9.25 221.125 8.8125C221.125 8.375 220.969 8 220.656 7.6875C220.344 7.375 219.969 7.21875 219.531 7.21875H211.531H209.812C209.417 7.23958 209.073 7.39583 208.781 7.6875C208.469 8 208.312 8.375 208.312 8.8125C208.312 9.25 208.156 9.625 207.844 9.9375C207.531 10.25 207.156 10.4062 206.719 10.4062C206.281 10.4062 205.906 10.5625 205.594 10.875C205.281 11.1875 205.125 11.5625 205.125 12V15.2188C205.125 15.6562 205.281 16.0312 205.594 16.3438C205.906 16.6562 206.281 16.8125 206.719 16.8125C207.156 16.8125 207.531 16.9688 207.844 17.2812C208.156 17.5938 208.312 17.9688 208.312 18.4062C208.312 18.8438 208.469 19.2292 208.781 19.5625C209.094 19.8542 209.469 20 209.906 20C210.344 20 210.729 20.1562 211.062 20.4688C211.375 20.8021 211.531 21.1875 211.531 21.625C211.531 22.0625 211.677 22.4375 211.969 22.75C212.302 23.0625 212.688 23.2188 213.125 23.2188C213.562 23.2188 213.938 23.375 214.25 23.6875C214.562 24 214.719 24.375 214.719 24.8125V31.2188C214.719 31.6562 214.562 32.0312 214.25 32.3438C213.938 32.6562 213.562 32.8125 213.125 32.8125C212.688 32.8125 212.302 32.9688 211.969 33.2812C211.677 33.5938 211.531 33.9688 211.531 34.4062C211.531 34.8438 211.677 35.2292 211.969 35.5625C212.302 35.8542 212.688 36 213.125 36C213.562 36 213.938 36.1562 214.25 36.4688C214.562 36.8021 214.719 37.1875 214.719 37.625C214.719 38.0625 214.875 38.4375 215.188 38.75C215.5 39.0625 215.875 39.2188 216.312 39.2188C216.75 39.2188 217.125 39.375 217.438 39.6875C217.75 40 217.906 40.375 217.906 40.8125C217.906 41.25 218.062 41.625 218.375 41.9375C218.688 42.25 219.073 42.4062 219.531 42.4062C219.969 42.4062 220.344 42.5625 220.656 42.875C220.969 43.1875 221.125 43.5625 221.125 44C221.125 44.4583 221.281 44.8438 221.594 45.1562C221.906 45.4688 222.281 45.625 222.719 45.625H229.125C229.562 45.625 229.938 45.4688 230.25 45.1562C230.562 44.8438 230.719 44.4583 230.719 44C230.719 43.5625 230.875 43.1875 231.188 42.875C231.5 42.5625 231.875 42.4062 232.312 42.4062C232.75 42.4062 233.125 42.5625 233.438 42.875C233.75 43.1875 233.906 43.5625 233.906 44C233.906 44.4583 233.75 44.8438 233.438 45.1562C233.125 45.4688 232.75 45.625 232.312 45.625C231.875 45.625 231.5 45.7812 231.188 46.0938C230.875 46.4062 230.719 46.7812 230.719 47.2188C230.719 47.6562 230.562 48.0312 230.25 48.3438C229.938 48.6562 229.562 48.8125 229.125 48.8125H225.906C225.469 48.8125 225.094 48.9688 224.781 49.2812C224.469 49.5938 224.312 49.9688 224.312 50.4062C224.312 50.8438 224.156 51.2292 223.844 51.5625C223.531 51.8542 223.156 52 222.719 52H216.312C215.875 52 215.5 51.8542 215.188 51.5625C214.875 51.2292 214.719 50.8438 214.719 50.4062C214.719 49.9688 214.562 49.5938 214.25 49.2812C213.938 48.9688 213.562 48.8125 213.125 48.8125C212.688 48.8125 212.302 48.6562 211.969 48.3438C211.677 48.0312 211.531 47.6562 211.531 47.2188C211.531 46.7812 211.375 46.4062 211.062 46.0938C210.729 45.7812 210.344 45.625 209.906 45.625C209.469 45.625 209.094 45.7812 208.781 46.0938C208.469 46.4062 208.312 46.7812 208.312 47.2188C208.312 47.6562 208.156 48.0312 207.844 48.3438C207.531 48.6562 207.156 48.8125 206.719 48.8125C206.281 48.8125 205.906 48.9688 205.594 49.2812C205.281 49.5938 205.125 49.9688 205.125 50.4062C205.125 50.8438 204.969 51.2292 204.656 51.5625C204.344 51.8542 203.969 52 203.531 52H200.312ZM280.344 52C279.906 52 279.531 51.8542 279.219 51.5625C278.906 51.2292 278.75 50.8438 278.75 50.4062C278.75 49.9688 278.594 49.5938 278.281 49.2812C277.969 48.9688 277.594 48.8125 277.156 48.8125C276.698 48.8125 276.312 48.6562 276 48.3438C275.688 48.0312 275.531 47.6562 275.531 47.2188C275.531 46.7812 275.375 46.4062 275.062 46.0938C274.75 45.7812 274.375 45.625 273.938 45.625C273.5 45.625 273.125 45.4688 272.812 45.1562C272.5 44.8438 272.344 44.4583 272.344 44C272.344 43.5625 272.5 43.1875 272.812 42.875C273.125 42.5625 273.5 42.4062 273.938 42.4062H277.156C277.594 42.4062 277.969 42.5625 278.281 42.875C278.594 43.1875 278.75 43.5625 278.75 44C278.75 44.4583 278.906 44.8438 279.219 45.1562C279.531 45.4688 279.906 45.625 280.344 45.625H283.531C283.969 45.625 284.354 45.4688 284.688 45.1562C285 44.8438 285.156 44.4583 285.156 44V44.0312C285.156 43.5729 285.302 43.1875 285.594 42.875C285.927 42.5625 286.312 42.4062 286.75 42.4062C287.188 42.4062 287.562 42.25 287.875 41.9375C288.188 41.625 288.344 41.25 288.344 40.8125C288.344 40.375 288.5 40 288.812 39.6875C289.125 39.375 289.5 39.2188 289.938 39.2188C290.375 39.2188 290.75 39.0625 291.062 38.75C291.375 38.4375 291.531 38.0625 291.531 37.625V34.4062C291.531 33.9688 291.375 33.5938 291.062 33.2812C290.75 32.9688 290.375 32.8125 289.938 32.8125C289.5 32.8125 289.125 32.6562 288.812 32.3438C288.5 32.0312 288.344 31.6562 288.344 31.2188C288.344 30.7812 288.188 30.4062 287.875 30.0938C287.562 29.7812 287.188 29.625 286.75 29.625C286.312 29.625 285.927 29.4688 285.594 29.1562C285.302 28.8438 285.156 28.4583 285.156 28V12C285.156 11.5625 285 11.1875 284.688 10.875C284.354 10.5625 283.969 10.4062 283.531 10.4062C283.094 10.4062 282.719 10.25 282.406 9.9375C282.094 9.625 281.938 9.25 281.938 8.8125C281.938 8.375 281.781 8 281.469 7.6875C281.156 7.375 280.781 7.21875 280.344 7.21875H278.75H277.031C276.635 7.23958 276.292 7.39583 276 7.6875C275.688 8 275.531 8.375 275.531 8.8125V18.4062C275.531 18.8438 275.688 19.2292 276 19.5625C276.312 19.8542 276.698 20 277.156 20C277.594 20 277.969 20.1562 278.281 20.4688C278.594 20.8021 278.75 21.1875 278.75 21.625C278.75 22.0625 278.906 22.4375 279.219 22.75C279.531 23.0625 279.906 23.2188 280.344 23.2188C280.781 23.2188 281.156 23.375 281.469 23.6875C281.781 24 281.938 24.375 281.938 24.8125V28C281.938 28.4583 281.781 28.8438 281.469 29.1562C281.156 29.4688 280.781 29.625 280.344 29.625C279.906 29.625 279.531 29.7812 279.219 30.0938C278.906 30.4062 278.75 30.7812 278.75 31.2188C278.75 31.6562 278.594 32.0312 278.281 32.3438C277.969 32.6562 277.594 32.8125 277.156 32.8125C276.698 32.8125 276.312 32.6562 276 32.3438C275.688 32.0312 275.531 31.6562 275.531 31.2188C275.531 30.7812 275.688 30.4062 276 30.0938C276.312 29.7812 276.698 29.625 277.156 29.625C277.594 29.625 277.969 29.4688 278.281 29.1562C278.594 28.8438 278.75 28.4583 278.75 28C278.75 27.5625 278.594 27.1875 278.281 26.875C277.969 26.5625 277.594 26.4062 277.156 26.4062H273.938C273.5 26.4062 273.125 26.25 272.812 25.9375C272.5 25.625 272.344 25.25 272.344 24.8125V21.625C272.344 21.1875 272.188 20.8021 271.875 20.4688C271.562 20.1562 271.188 20 270.75 20C270.312 20 269.927 19.8542 269.594 19.5625C269.302 19.2292 269.156 18.8438 269.156 18.4062V12.0312C269.156 11.5729 269.302 11.1875 269.594 10.875C269.927 10.5625 270.312 10.4062 270.75 10.4062C271.188 10.4062 271.562 10.25 271.875 9.9375C272.188 9.625 272.344 9.25 272.344 8.8125C272.344 8.375 272.5 8 272.812 7.6875C273.125 7.375 273.5 7.21875 273.938 7.21875C274.375 7.21875 274.75 7.0625 275.062 6.75C275.375 6.4375 275.531 6.0625 275.531 5.625C275.531 5.1875 275.688 4.8125 276 4.5C276.312 4.16667 276.698 4 277.156 4H283.531C283.969 4 284.354 4.15625 284.688 4.46875C285 4.80208 285.156 5.1875 285.156 5.625C285.156 6.0625 285.302 6.4375 285.594 6.75C285.927 7.0625 286.312 7.21875 286.75 7.21875H289.938C290.375 7.21875 290.75 7.375 291.062 7.6875C291.375 8 291.531 8.375 291.531 8.8125C291.531 9.25 291.688 9.625 292 9.9375C292.312 10.25 292.698 10.4062 293.156 10.4062C293.594 10.4062 293.969 10.25 294.281 9.9375C294.594 9.625 294.75 9.25 294.75 8.8125V5.625C294.75 5.1875 294.906 4.8125 295.219 4.5C295.531 4.16667 295.906 4 296.344 4H299.531C299.969 4 300.354 4.15625 300.688 4.46875C301 4.80208 301.156 5.1875 301.156 5.625C301.156 6.0625 301.302 6.4375 301.594 6.75C301.927 7.0625 302.312 7.21875 302.75 7.21875H305.938C306.375 7.21875 306.75 7.375 307.062 7.6875C307.375 8 307.531 8.375 307.531 8.8125C307.531 9.25 307.688 9.625 308 9.9375C308.312 10.25 308.698 10.4062 309.156 10.4062C309.594 10.4062 309.969 10.25 310.281 9.9375C310.594 9.625 310.75 9.25 310.75 8.8125C310.75 8.375 310.906 8 311.219 7.6875C311.531 7.375 311.906 7.21875 312.344 7.21875C312.781 7.21875 313.156 7.0625 313.469 6.75C313.781 6.4375 313.938 6.0625 313.938 5.625C313.938 5.1875 314.094 4.80208 314.406 4.46875C314.719 4.15625 315.094 4 315.531 4C315.969 4 316.354 4.15625 316.688 4.46875C317 4.80208 317.156 5.1875 317.156 5.625C317.156 6.0625 317.302 6.4375 317.594 6.75C317.927 7.0625 318.312 7.21875 318.75 7.21875H321.938C322.375 7.21875 322.75 7.375 323.062 7.6875C323.375 8 323.531 8.375 323.531 8.8125C323.531 9.25 323.688 9.625 324 9.9375C324.312 10.25 324.698 10.4062 325.156 10.4062C325.594 10.4062 325.969 10.5625 326.281 10.875C326.594 11.1875 326.75 11.5625 326.75 12C326.75 12.4583 326.906 12.8438 327.219 13.1562C327.531 13.4688 327.906 13.625 328.344 13.625C328.781 13.625 329.156 13.7812 329.469 14.0938C329.781 14.4062 329.938 14.7812 329.938 15.2188C329.938 15.6562 329.781 16.0312 329.469 16.3438C329.156 16.6562 328.781 16.8125 328.344 16.8125C327.906 16.8125 327.531 16.9688 327.219 17.2812C326.906 17.5938 326.75 17.9688 326.75 18.4062V24.8125C326.75 25.25 326.594 25.625 326.281 25.9375C325.969 26.25 325.594 26.4062 325.156 26.4062C324.698 26.4062 324.312 26.5625 324 26.875C323.688 27.1875 323.531 27.5625 323.531 28C323.531 28.4583 323.375 28.8438 323.062 29.1562C322.75 29.4688 322.375 29.625 321.938 29.625C321.5 29.625 321.125 29.7812 320.812 30.0938C320.5 30.4062 320.344 30.7812 320.344 31.2188V40.8125C320.344 41.25 320.5 41.625 320.812 41.9375C321.125 42.25 321.5 42.4062 321.938 42.4062H325.156C325.594 42.4062 325.969 42.5625 326.281 42.875C326.594 43.1875 326.75 43.5625 326.75 44C326.75 44.4583 326.906 44.8438 327.219 45.1562C327.531 45.4688 327.906 45.625 328.344 45.625C328.781 45.625 329.156 45.4688 329.469 45.1562C329.781 44.8438 329.938 44.4583 329.938 44C329.938 43.5625 330.094 43.1875 330.406 42.875C330.719 42.5625 331.094 42.4062 331.531 42.4062C331.969 42.4062 332.354 42.5625 332.688 42.875C333 43.1875 333.156 43.5625 333.156 44C333.156 44.4583 333 44.8438 332.688 45.1562C332.354 45.4688 331.969 45.625 331.531 45.625C331.094 45.625 330.719 45.7812 330.406 46.0938C330.094 46.4062 329.938 46.7812 329.938 47.2188C329.938 47.6562 329.781 48.0312 329.469 48.3438C329.156 48.6562 328.781 48.8125 328.344 48.8125C327.906 48.8125 327.531 48.9688 327.219 49.2812C326.906 49.5938 326.75 49.9688 326.75 50.4062C326.75 50.8438 326.594 51.2292 326.281 51.5625C325.969 51.8542 325.594 52 325.156 52H321.938C321.5 52 321.125 51.8542 320.812 51.5625C320.5 51.2292 320.344 50.8438 320.344 50.4062C320.344 49.9688 320.188 49.5938 319.875 49.2812C319.562 48.9688 319.188 48.8125 318.75 48.8125C318.312 48.8125 317.927 48.6562 317.594 48.3438C317.302 48.0312 317.156 47.6562 317.156 47.2188C317.156 46.7812 317 46.4062 316.688 46.0938C316.354 45.7812 315.969 45.625 315.531 45.625C315.094 45.625 314.719 45.4688 314.406 45.1562C314.094 44.8438 313.938 44.4583 313.938 44C313.938 43.5625 313.781 43.1875 313.469 42.875C313.156 42.5625 312.781 42.4062 312.344 42.4062C311.906 42.4062 311.531 42.25 311.219 41.9375C310.906 41.625 310.75 41.25 310.75 40.8125V34.4062C310.75 33.9688 310.906 33.5938 311.219 33.2812C311.531 32.9688 311.906 32.8125 312.344 32.8125C312.781 32.8125 313.156 32.6562 313.469 32.3438C313.781 32.0312 313.938 31.6562 313.938 31.2188C313.938 30.7812 314.094 30.4062 314.406 30.0938C314.719 29.7812 315.094 29.625 315.531 29.625C315.969 29.625 316.354 29.4688 316.688 29.1562C317 28.8438 317.156 28.4583 317.156 28V28.0312C317.156 27.5729 317.302 27.1875 317.594 26.875C317.927 26.5625 318.312 26.4062 318.75 26.4062C319.188 26.4062 319.562 26.25 319.875 25.9375C320.188 25.625 320.344 25.25 320.344 24.8125V18.4062C320.344 17.9688 320.188 17.5938 319.875 17.2812C319.562 16.9688 319.188 16.8125 318.75 16.8125C318.312 16.8125 317.927 16.6562 317.594 16.3438C317.302 16.0312 317.156 15.6562 317.156 15.2188V12C317.156 11.5625 317 11.1875 316.688 10.875C316.354 10.5625 315.969 10.4062 315.531 10.4062H313.938H312.219C311.823 10.4479 311.49 10.6042 311.219 10.875C310.906 11.1875 310.75 11.5625 310.75 12V24.8125C310.75 25.25 310.594 25.625 310.281 25.9375C309.969 26.25 309.594 26.4062 309.156 26.4062C308.698 26.4062 308.312 26.5625 308 26.875C307.688 27.1875 307.531 27.5625 307.531 28C307.531 28.4583 307.375 28.8438 307.062 29.1562C306.75 29.4688 306.375 29.625 305.938 29.625C305.5 29.625 305.125 29.7812 304.812 30.0938C304.5 30.4062 304.344 30.7812 304.344 31.2188V37.625C304.344 38.0625 304.5 38.4375 304.812 38.75C305.125 39.0625 305.5 39.2188 305.938 39.2188C306.375 39.2188 306.75 39.375 307.062 39.6875C307.375 40 307.531 40.375 307.531 40.8125V44C307.531 44.4583 307.375 44.8438 307.062 45.1562C306.75 45.4688 306.375 45.625 305.938 45.625C305.5 45.625 305.125 45.4688 304.812 45.1562C304.5 44.8438 304.344 44.4583 304.344 44V40.8125C304.344 40.375 304.188 40 303.875 39.6875C303.562 39.375 303.188 39.2188 302.75 39.2188C302.312 39.2188 301.927 39.0625 301.594 38.75C301.302 38.4375 301.156 38.0625 301.156 37.625V8.8125C301.156 8.375 301 8 300.688 7.6875C300.354 7.375 299.969 7.21875 299.531 7.21875C299.094 7.21875 298.719 7.375 298.406 7.6875C298.094 8 297.938 8.375 297.938 8.8125C297.938 9.25 297.781 9.625 297.469 9.9375C297.156 10.25 296.781 10.4062 296.344 10.4062C295.906 10.4062 295.531 10.5625 295.219 10.875C294.906 11.1875 294.75 11.5625 294.75 12V44C294.75 44.4583 294.594 44.8438 294.281 45.1562C293.969 45.4688 293.594 45.625 293.156 45.625C292.698 45.625 292.312 45.7812 292 46.0938C291.688 46.4062 291.531 46.7812 291.531 47.2188C291.531 47.6562 291.375 48.0312 291.062 48.3438C290.75 48.6562 290.375 48.8125 289.938 48.8125C289.5 48.8125 289.125 48.9688 288.812 49.2812C288.5 49.5938 288.344 49.9688 288.344 50.4062C288.344 50.8438 288.188 51.2292 287.875 51.5625C287.562 51.8542 287.188 52 286.75 52H280.344ZM363.531 48.8125C363.969 48.8125 364.344 48.6562 364.656 48.3438C364.969 48.0312 365.125 47.6562 365.125 47.2188C365.125 46.7812 365.281 46.4062 365.594 46.0938C365.906 45.7812 366.281 45.625 366.719 45.625C367.156 45.625 367.542 45.4688 367.875 45.1562C368.188 44.8438 368.344 44.4583 368.344 44V44.0312C368.344 43.5729 368.49 43.1875 368.781 42.875C369.115 42.5625 369.5 42.4062 369.938 42.4062C370.375 42.4062 370.75 42.25 371.062 41.9375C371.375 41.625 371.531 41.25 371.531 40.8125V18.4062C371.531 17.9688 371.375 17.5938 371.062 17.2812C370.75 16.9688 370.375 16.8125 369.938 16.8125C369.5 16.8125 369.115 16.6562 368.781 16.3438C368.49 16.0312 368.344 15.6562 368.344 15.2188V12C368.344 11.5625 368.188 11.1875 367.875 10.875C367.542 10.5625 367.156 10.4062 366.719 10.4062H363.531C363.094 10.4062 362.719 10.5625 362.406 10.875C362.094 11.1875 361.938 11.5625 361.938 12C361.938 12.4583 361.781 12.8438 361.469 13.1562C361.156 13.4688 360.781 13.625 360.344 13.625C359.885 13.625 359.5 13.7812 359.188 14.0938C358.875 14.4062 358.719 14.7812 358.719 15.2188V21.625C358.719 22.0625 358.875 22.4375 359.188 22.75C359.5 23.0625 359.885 23.2188 360.344 23.2188C360.781 23.2188 361.156 23.375 361.469 23.6875C361.781 24 361.938 24.375 361.938 24.8125C361.938 25.25 362.094 25.625 362.406 25.9375C362.719 26.25 363.094 26.4062 363.531 26.4062C363.969 26.4062 364.344 26.5625 364.656 26.875C364.969 27.1875 365.125 27.5625 365.125 28C365.125 28.4583 365.281 28.8438 365.594 29.1562C365.906 29.4688 366.281 29.625 366.719 29.625C367.156 29.625 367.542 29.7812 367.875 30.0938C368.188 30.4062 368.344 30.7812 368.344 31.2188V34.4062C368.344 34.8438 368.188 35.2292 367.875 35.5625C367.542 35.8542 367.156 36 366.719 36C366.281 36 365.906 36.1562 365.594 36.4688C365.281 36.8021 365.125 37.1875 365.125 37.625C365.125 38.0625 364.969 38.4375 364.656 38.75C364.344 39.0625 363.969 39.2188 363.531 39.2188C363.094 39.2188 362.719 39.375 362.406 39.6875C362.094 40 361.938 40.375 361.938 40.8125C361.938 41.25 361.781 41.625 361.469 41.9375C361.156 42.25 360.781 42.4062 360.344 42.4062H357.125C356.688 42.4062 356.312 42.25 356 41.9375C355.688 41.625 355.531 41.25 355.531 40.8125C355.531 40.375 355.688 40 356 39.6875C356.312 39.375 356.688 39.2188 357.125 39.2188H360.344C360.781 39.2188 361.156 39.0625 361.469 38.75C361.781 38.4375 361.938 38.0625 361.938 37.625C361.938 37.1875 361.781 36.8021 361.469 36.4688C361.156 36.1562 360.781 36 360.344 36C359.885 36 359.5 35.8542 359.188 35.5625C358.875 35.2292 358.719 34.8438 358.719 34.4062C358.719 33.9688 358.562 33.5938 358.25 33.2812C357.938 32.9688 357.562 32.8125 357.125 32.8125C356.688 32.8125 356.312 32.6562 356 32.3438C355.688 32.0312 355.531 31.6562 355.531 31.2188C355.531 30.7812 355.375 30.4062 355.062 30.0938C354.75 29.7812 354.375 29.625 353.938 29.625C353.5 29.625 353.115 29.4688 352.781 29.1562C352.49 28.8438 352.344 28.4583 352.344 28V18.4062C352.344 17.9688 352.49 17.5938 352.781 17.2812C353.115 16.9688 353.5 16.8125 353.938 16.8125C354.375 16.8125 354.75 16.6562 355.062 16.3438C355.375 16.0312 355.531 15.6562 355.531 15.2188C355.531 14.7812 355.688 14.4062 356 14.0938C356.312 13.7812 356.688 13.625 357.125 13.625C357.562 13.625 357.938 13.4688 358.25 13.1562C358.562 12.8438 358.719 12.4583 358.719 12C358.719 11.5625 358.875 11.1875 359.188 10.875C359.5 10.5625 359.885 10.4062 360.344 10.4062C360.781 10.4062 361.156 10.25 361.469 9.9375C361.781 9.625 361.938 9.25 361.938 8.8125C361.938 8.375 361.781 8 361.469 7.6875C361.156 7.375 360.781 7.21875 360.344 7.21875H355.531H353.812C353.417 7.23958 353.073 7.39583 352.781 7.6875C352.49 8 352.344 8.375 352.344 8.8125C352.344 9.25 352.188 9.625 351.875 9.9375C351.542 10.25 351.156 10.4062 350.719 10.4062C350.281 10.4062 349.906 10.5625 349.594 10.875C349.281 11.1875 349.125 11.5625 349.125 12V15.2188C349.125 15.6562 348.969 16.0312 348.656 16.3438C348.344 16.6562 347.969 16.8125 347.531 16.8125C347.094 16.8125 346.719 16.9688 346.406 17.2812C346.094 17.5938 345.938 17.9688 345.938 18.4062V37.625C345.938 38.0625 346.094 38.4375 346.406 38.75C346.719 39.0625 347.094 39.2188 347.531 39.2188C347.969 39.2188 348.344 39.375 348.656 39.6875C348.969 40 349.125 40.375 349.125 40.8125V44C349.125 44.4583 349.281 44.8438 349.594 45.1562C349.906 45.4688 350.281 45.625 350.719 45.625C351.156 45.625 351.542 45.7812 351.875 46.0938C352.188 46.4062 352.344 46.7812 352.344 47.2188C352.344 47.6562 352.49 48.0312 352.781 48.3438C353.115 48.6562 353.5 48.8125 353.938 48.8125H363.531ZM353.938 52C353.5 52 353.115 51.8542 352.781 51.5625C352.49 51.2292 352.344 50.8438 352.344 50.4062C352.344 49.9688 352.188 49.5938 351.875 49.2812C351.542 48.9688 351.156 48.8125 350.719 48.8125H347.531C347.094 48.8125 346.719 48.6562 346.406 48.3438C346.094 48.0312 345.938 47.6562 345.938 47.2188C345.938 46.7812 345.781 46.4062 345.469 46.0938C345.156 45.7812 344.781 45.625 344.344 45.625C343.885 45.625 343.5 45.4688 343.188 45.1562C342.875 44.8438 342.719 44.4583 342.719 44C342.719 43.5625 342.562 43.1875 342.25 42.875C341.938 42.5625 341.562 42.4062 341.125 42.4062C340.688 42.4062 340.312 42.25 340 41.9375C339.688 41.625 339.531 41.25 339.531 40.8125C339.531 40.375 339.375 40 339.062 39.6875C338.75 39.375 338.375 39.2188 337.938 39.2188C337.5 39.2188 337.115 39.0625 336.781 38.75C336.49 38.4375 336.344 38.0625 336.344 37.625V18.4062C336.344 17.9688 336.49 17.5938 336.781 17.2812C337.115 16.9688 337.5 16.8125 337.938 16.8125C338.375 16.8125 338.75 16.6562 339.062 16.3438C339.375 16.0312 339.531 15.6562 339.531 15.2188C339.531 14.7812 339.688 14.4062 340 14.0938C340.312 13.7812 340.688 13.625 341.125 13.625C341.562 13.625 341.938 13.4688 342.25 13.1562C342.562 12.8438 342.719 12.4583 342.719 12V12.0312C342.719 11.5729 342.875 11.1875 343.188 10.875C343.5 10.5625 343.885 10.4062 344.344 10.4062C344.781 10.4062 345.156 10.25 345.469 9.9375C345.781 9.625 345.938 9.25 345.938 8.8125C345.938 8.375 346.094 8 346.406 7.6875C346.719 7.375 347.094 7.21875 347.531 7.21875H350.719C351.156 7.21875 351.542 7.0625 351.875 6.75C352.188 6.4375 352.344 6.0625 352.344 5.625C352.344 5.1875 352.49 4.8125 352.781 4.5C353.115 4.16667 353.5 4 353.938 4H360.344C360.781 4 361.156 4.15625 361.469 4.46875C361.781 4.80208 361.938 5.1875 361.938 5.625C361.938 6.0625 362.094 6.4375 362.406 6.75C362.719 7.0625 363.094 7.21875 363.531 7.21875H369.938C370.375 7.21875 370.75 7.375 371.062 7.6875C371.375 8 371.531 8.375 371.531 8.8125C371.531 9.25 371.688 9.625 372 9.9375C372.312 10.25 372.688 10.4062 373.125 10.4062C373.562 10.4062 373.938 10.5625 374.25 10.875C374.562 11.1875 374.719 11.5625 374.719 12C374.719 12.4583 374.875 12.8438 375.188 13.1562C375.5 13.4688 375.885 13.625 376.344 13.625C376.781 13.625 377.156 13.7812 377.469 14.0938C377.781 14.4062 377.938 14.7812 377.938 15.2188C377.938 15.6562 378.094 16.0312 378.406 16.3438C378.719 16.6562 379.094 16.8125 379.531 16.8125C379.969 16.8125 380.344 16.9688 380.656 17.2812C380.969 17.5938 381.125 17.9688 381.125 18.4062V37.625C381.125 38.0625 380.969 38.4375 380.656 38.75C380.344 39.0625 379.969 39.2188 379.531 39.2188C379.094 39.2188 378.719 39.375 378.406 39.6875C378.094 40 377.938 40.375 377.938 40.8125C377.938 41.25 377.781 41.625 377.469 41.9375C377.156 42.25 376.781 42.4062 376.344 42.4062C375.885 42.4062 375.5 42.5625 375.188 42.875C374.875 43.1875 374.719 43.5625 374.719 44C374.719 44.4583 374.562 44.8438 374.25 45.1562C373.938 45.4688 373.562 45.625 373.125 45.625C372.688 45.625 372.312 45.7812 372 46.0938C371.688 46.4062 371.531 46.7812 371.531 47.2188C371.531 47.6562 371.375 48.0312 371.062 48.3438C370.75 48.6562 370.375 48.8125 369.938 48.8125H368.344H366.625C366.229 48.8333 365.885 48.9896 365.594 49.2812C365.281 49.5938 365.125 49.9688 365.125 50.4062C365.125 50.8438 364.969 51.2292 364.656 51.5625C364.344 51.8542 363.969 52 363.531 52H353.938ZM385.938 55.1875C385.5 55.1875 385.115 55.0312 384.781 54.7188C384.49 54.4062 384.344 54.0312 384.344 53.5938C384.344 53.1562 384.198 52.7708 383.906 52.4375C383.573 52.1458 383.188 52 382.75 52C382.312 52 381.938 51.8542 381.625 51.5625C381.312 51.2292 381.156 50.8438 381.156 50.4062V47.2188C381.156 46.7812 381.312 46.4062 381.625 46.0938C381.938 45.7812 382.312 45.625 382.75 45.625C383.188 45.625 383.573 45.4688 383.906 45.1562C384.198 44.8438 384.344 44.4583 384.344 44C384.344 43.5625 384.49 43.1875 384.781 42.875C385.115 42.5625 385.5 42.4062 385.938 42.4062C386.375 42.4062 386.75 42.25 387.062 41.9375C387.375 41.625 387.531 41.25 387.531 40.8125C387.531 40.375 387.688 40 388 39.6875C388.312 39.375 388.688 39.2188 389.125 39.2188H398.719C399.156 39.2188 399.542 39.375 399.875 39.6875C400.188 40 400.344 40.375 400.344 40.8125C400.344 41.25 400.49 41.625 400.781 41.9375C401.115 42.25 401.5 42.4062 401.938 42.4062H405.125C405.562 42.4062 405.938 42.5625 406.25 42.875C406.562 43.1875 406.719 43.5625 406.719 44C406.719 44.4583 406.875 44.8438 407.188 45.1562C407.5 45.4688 407.885 45.625 408.344 45.625H414.719C415.156 45.625 415.542 45.4688 415.875 45.1562C416.188 44.8438 416.344 44.4583 416.344 44V44.0312C416.344 43.5729 416.49 43.1875 416.781 42.875C417.115 42.5625 417.5 42.4062 417.938 42.4062C418.375 42.4062 418.75 42.25 419.062 41.9375C419.375 41.625 419.531 41.25 419.531 40.8125C419.531 40.375 419.688 40 420 39.6875C420.312 39.375 420.688 39.2188 421.125 39.2188C421.562 39.2188 421.938 39.0625 422.25 38.75C422.562 38.4375 422.719 38.0625 422.719 37.625V34.4062C422.719 33.9688 422.562 33.5938 422.25 33.2812C421.938 32.9688 421.562 32.8125 421.125 32.8125C420.688 32.8125 420.312 32.6562 420 32.3438C419.688 32.0312 419.531 31.6562 419.531 31.2188V28C419.531 27.5625 419.375 27.1875 419.062 26.875C418.771 26.6042 418.427 26.4479 418.031 26.4062H417.812C417.417 26.4479 417.073 26.6042 416.781 26.875C416.49 27.1875 416.344 27.5625 416.344 28C416.344 28.4583 416.188 28.8438 415.875 29.1562C415.542 29.4688 415.156 29.625 414.719 29.625C414.281 29.625 413.906 29.7812 413.594 30.0938C413.281 30.4062 413.125 30.7812 413.125 31.2188C413.125 31.6562 412.969 32.0312 412.656 32.3438C412.344 32.6562 411.969 32.8125 411.531 32.8125H408.344C407.885 32.8125 407.5 32.6562 407.188 32.3438C406.875 32.0312 406.719 31.6562 406.719 31.2188C406.719 30.7812 406.562 30.4062 406.25 30.0938C405.938 29.7812 405.562 29.625 405.125 29.625H401.938C401.5 29.625 401.115 29.4688 400.781 29.1562C400.49 28.8438 400.344 28.4583 400.344 28C400.344 27.5625 400.188 27.1875 399.875 26.875C399.542 26.5625 399.156 26.4062 398.719 26.4062C398.281 26.4062 397.906 26.25 397.594 25.9375C397.281 25.625 397.125 25.25 397.125 24.8125C397.125 24.375 396.969 24 396.656 23.6875C396.344 23.375 395.969 23.2188 395.531 23.2188C395.094 23.2188 394.719 23.0625 394.406 22.75C394.094 22.4375 393.938 22.0625 393.938 21.625V15.2188C393.938 14.7812 394.094 14.4062 394.406 14.0938C394.719 13.7812 395.094 13.625 395.531 13.625C395.969 13.625 396.344 13.4688 396.656 13.1562C396.969 12.8438 397.125 12.4583 397.125 12V12.0312C397.125 11.5729 397.281 11.1875 397.594 10.875C397.906 10.5625 398.281 10.4062 398.719 10.4062C399.156 10.4062 399.542 10.25 399.875 9.9375C400.188 9.625 400.344 9.25 400.344 8.8125C400.344 8.375 400.49 8 400.781 7.6875C401.115 7.375 401.5 7.21875 401.938 7.21875H405.125C405.562 7.21875 405.938 7.0625 406.25 6.75C406.562 6.4375 406.719 6.0625 406.719 5.625C406.719 5.1875 406.875 4.8125 407.188 4.5C407.5 4.16667 407.885 4 408.344 4H417.938C418.375 4 418.75 4.15625 419.062 4.46875C419.375 4.80208 419.531 5.1875 419.531 5.625C419.531 6.0625 419.688 6.4375 420 6.75C420.312 7.0625 420.688 7.21875 421.125 7.21875C421.562 7.21875 421.938 7.375 422.25 7.6875C422.562 8 422.719 8.375 422.719 8.8125C422.719 9.25 422.875 9.625 423.188 9.9375C423.5 10.25 423.885 10.4062 424.344 10.4062C424.781 10.4062 425.156 10.5625 425.469 10.875C425.781 11.1875 425.938 11.5625 425.938 12C425.938 12.4583 426.094 12.8438 426.406 13.1562C426.719 13.4688 427.094 13.625 427.531 13.625C427.969 13.625 428.344 13.4688 428.656 13.1562C428.969 12.8438 429.125 12.4583 429.125 12C429.125 11.5625 429.281 11.1875 429.594 10.875C429.906 10.5625 430.281 10.4062 430.719 10.4062C431.156 10.4062 431.542 10.25 431.875 9.9375C432.188 9.625 432.344 9.25 432.344 8.8125C432.344 8.375 432.49 8 432.781 7.6875C433.115 7.375 433.5 7.21875 433.938 7.21875C434.375 7.21875 434.75 7.375 435.062 7.6875C435.375 8 435.531 8.375 435.531 8.8125C435.531 9.25 435.375 9.625 435.062 9.9375C434.75 10.25 434.375 10.4062 433.938 10.4062C433.5 10.4062 433.115 10.5625 432.781 10.875C432.49 11.1875 432.344 11.5625 432.344 12C432.344 12.4583 432.188 12.8438 431.875 13.1562C431.542 13.4688 431.156 13.625 430.719 13.625C430.281 13.625 429.906 13.7812 429.594 14.0938C429.281 14.4062 429.125 14.7812 429.125 15.2188C429.125 15.6562 428.969 16.0312 428.656 16.3438C428.344 16.6562 427.969 16.8125 427.531 16.8125H424.344C423.885 16.8125 423.5 16.6562 423.188 16.3438C422.875 16.0312 422.719 15.6562 422.719 15.2188C422.719 14.7812 422.562 14.4062 422.25 14.0938C421.938 13.7812 421.562 13.625 421.125 13.625C420.688 13.625 420.312 13.4688 420 13.1562C419.688 12.8438 419.531 12.4583 419.531 12C419.531 11.5625 419.375 11.1875 419.062 10.875C418.75 10.5625 418.375 10.4062 417.938 10.4062C417.5 10.4062 417.115 10.25 416.781 9.9375C416.49 9.625 416.344 9.25 416.344 8.8125C416.344 8.375 416.188 8 415.875 7.6875C415.542 7.375 415.156 7.21875 414.719 7.21875C414.281 7.21875 413.906 7.375 413.594 7.6875C413.281 8 413.125 8.375 413.125 8.8125C413.125 9.25 412.969 9.625 412.656 9.9375C412.344 10.25 411.969 10.4062 411.531 10.4062C411.094 10.4062 410.719 10.5625 410.406 10.875C410.094 11.1875 409.938 11.5625 409.938 12C409.938 12.4583 409.781 12.8438 409.469 13.1562C409.156 13.4688 408.781 13.625 408.344 13.625C407.885 13.625 407.5 13.7812 407.188 14.0938C406.875 14.4062 406.719 14.7812 406.719 15.2188V24.8125C406.719 25.25 406.875 25.625 407.188 25.9375C407.5 26.25 407.885 26.4062 408.344 26.4062C408.781 26.4062 409.156 26.5625 409.469 26.875C409.781 27.1875 409.938 27.5625 409.938 28C409.938 28.4583 410.094 28.8438 410.406 29.1562C410.719 29.4688 411.094 29.625 411.531 29.625C411.969 29.625 412.344 29.4688 412.656 29.1562C412.969 28.8438 413.125 28.4583 413.125 28C413.125 27.5625 413.281 27.1875 413.594 26.875C413.906 26.5625 414.281 26.4062 414.719 26.4062C415.156 26.4062 415.542 26.25 415.875 25.9375C416.188 25.625 416.344 25.25 416.344 24.8125C416.344 24.375 416.49 24 416.781 23.6875C417.115 23.375 417.5 23.2188 417.938 23.2188H421.125C421.562 23.2188 421.938 23.375 422.25 23.6875C422.562 24 422.719 24.375 422.719 24.8125C422.719 25.25 422.875 25.625 423.188 25.9375C423.5 26.25 423.885 26.4062 424.344 26.4062C424.781 26.4062 425.156 26.5625 425.469 26.875C425.781 27.1875 425.938 27.5625 425.938 28C425.938 28.4583 426.094 28.8438 426.406 29.1562C426.719 29.4688 427.094 29.625 427.531 29.625C427.969 29.625 428.344 29.7812 428.656 30.0938C428.969 30.4062 429.125 30.7812 429.125 31.2188C429.125 31.6562 429.281 32.0312 429.594 32.3438C429.906 32.6562 430.281 32.8125 430.719 32.8125C431.156 32.8125 431.542 32.9688 431.875 33.2812C432.188 33.5938 432.344 33.9688 432.344 34.4062V40.8125C432.344 41.25 432.188 41.625 431.875 41.9375C431.542 42.25 431.156 42.4062 430.719 42.4062C430.281 42.4062 429.906 42.5625 429.594 42.875C429.281 43.1875 429.125 43.5625 429.125 44C429.125 44.4583 428.969 44.8438 428.656 45.1562C428.344 45.4688 427.969 45.625 427.531 45.625C427.094 45.625 426.719 45.7812 426.406 46.0938C426.094 46.4062 425.938 46.7812 425.938 47.2188C425.938 47.6562 425.781 48.0312 425.469 48.3438C425.156 48.6562 424.781 48.8125 424.344 48.8125H421.125C420.688 48.8125 420.312 48.9688 420 49.2812C419.688 49.5938 419.531 49.9688 419.531 50.4062C419.531 50.8438 419.375 51.2292 419.062 51.5625C418.75 51.8542 418.375 52 417.938 52H408.344C407.885 52 407.5 51.8542 407.188 51.5625C406.875 51.2292 406.719 50.8438 406.719 50.4062C406.719 49.9688 406.562 49.5938 406.25 49.2812C405.938 48.9688 405.562 48.8125 405.125 48.8125H401.938C401.5 48.8125 401.115 48.6562 400.781 48.3438C400.49 48.0312 400.344 47.6562 400.344 47.2188C400.344 46.7812 400.188 46.4062 399.875 46.0938C399.542 45.7812 399.156 45.625 398.719 45.625H395.531C395.094 45.625 394.719 45.4688 394.406 45.1562C394.094 44.8438 393.938 44.4583 393.938 44C393.938 43.5625 393.781 43.1875 393.469 42.875C393.156 42.5625 392.781 42.4062 392.344 42.4062H390.719H389.031C388.635 42.4479 388.292 42.6042 388 42.875C387.688 43.1875 387.531 43.5625 387.531 44C387.531 44.4583 387.375 44.8438 387.062 45.1562C386.75 45.4688 386.375 45.625 385.938 45.625C385.5 45.625 385.115 45.7812 384.781 46.0938C384.49 46.4062 384.344 46.7812 384.344 47.2188V50.4062C384.344 50.8438 384.49 51.2292 384.781 51.5625C385.115 51.8542 385.5 52 385.938 52H389.125C389.562 52 389.938 51.8542 390.25 51.5625C390.562 51.2292 390.719 50.8438 390.719 50.4062C390.719 49.9688 390.875 49.5938 391.188 49.2812C391.5 48.9688 391.885 48.8125 392.344 48.8125C392.781 48.8125 393.156 48.9688 393.469 49.2812C393.781 49.5938 393.938 49.9688 393.938 50.4062C393.938 50.8438 393.781 51.2292 393.469 51.5625C393.156 51.8542 392.781 52 392.344 52C391.885 52 391.5 52.1458 391.188 52.4375C390.875 52.7708 390.719 53.1562 390.719 53.5938C390.719 54.0312 390.562 54.4062 390.25 54.7188C389.938 55.0312 389.562 55.1875 389.125 55.1875H385.938ZM437.125 55.1875C436.688 55.1875 436.302 55.0312 435.969 54.7188C435.677 54.4062 435.531 54.0312 435.531 53.5938C435.531 53.1562 435.385 52.7708 435.094 52.4375C434.76 52.1458 434.375 52 433.938 52C433.5 52 433.125 51.8542 432.812 51.5625C432.5 51.2292 432.344 50.8438 432.344 50.4062V47.2188C432.344 46.7812 432.5 46.4062 432.812 46.0938C433.125 45.7812 433.5 45.625 433.938 45.625C434.375 45.625 434.76 45.4688 435.094 45.1562C435.385 44.8438 435.531 44.4583 435.531 44C435.531 43.5625 435.677 43.1875 435.969 42.875C436.302 42.5625 436.688 42.4062 437.125 42.4062C437.562 42.4062 437.938 42.25 438.25 41.9375C438.562 41.625 438.719 41.25 438.719 40.8125C438.719 40.375 438.875 40 439.188 39.6875C439.5 39.375 439.875 39.2188 440.312 39.2188H449.906C450.344 39.2188 450.729 39.375 451.062 39.6875C451.375 40 451.531 40.375 451.531 40.8125C451.531 41.25 451.677 41.625 451.969 41.9375C452.302 42.25 452.688 42.4062 453.125 42.4062H456.312C456.75 42.4062 457.125 42.5625 457.438 42.875C457.75 43.1875 457.906 43.5625 457.906 44C457.906 44.4583 458.062 44.8438 458.375 45.1562C458.688 45.4688 459.073 45.625 459.531 45.625H465.906C466.344 45.625 466.729 45.4688 467.062 45.1562C467.375 44.8438 467.531 44.4583 467.531 44V44.0312C467.531 43.5729 467.677 43.1875 467.969 42.875C468.302 42.5625 468.688 42.4062 469.125 42.4062C469.562 42.4062 469.938 42.25 470.25 41.9375C470.562 41.625 470.719 41.25 470.719 40.8125C470.719 40.375 470.875 40 471.188 39.6875C471.5 39.375 471.875 39.2188 472.312 39.2188C472.75 39.2188 473.125 39.0625 473.438 38.75C473.75 38.4375 473.906 38.0625 473.906 37.625V34.4062C473.906 33.9688 473.75 33.5938 473.438 33.2812C473.125 32.9688 472.75 32.8125 472.312 32.8125C471.875 32.8125 471.5 32.6562 471.188 32.3438C470.875 32.0312 470.719 31.6562 470.719 31.2188V28C470.719 27.5625 470.562 27.1875 470.25 26.875C469.958 26.6042 469.615 26.4479 469.219 26.4062H469C468.604 26.4479 468.26 26.6042 467.969 26.875C467.677 27.1875 467.531 27.5625 467.531 28C467.531 28.4583 467.375 28.8438 467.062 29.1562C466.729 29.4688 466.344 29.625 465.906 29.625C465.469 29.625 465.094 29.7812 464.781 30.0938C464.469 30.4062 464.312 30.7812 464.312 31.2188C464.312 31.6562 464.156 32.0312 463.844 32.3438C463.531 32.6562 463.156 32.8125 462.719 32.8125H459.531C459.073 32.8125 458.688 32.6562 458.375 32.3438C458.062 32.0312 457.906 31.6562 457.906 31.2188C457.906 30.7812 457.75 30.4062 457.438 30.0938C457.125 29.7812 456.75 29.625 456.312 29.625H453.125C452.688 29.625 452.302 29.4688 451.969 29.1562C451.677 28.8438 451.531 28.4583 451.531 28C451.531 27.5625 451.375 27.1875 451.062 26.875C450.729 26.5625 450.344 26.4062 449.906 26.4062C449.469 26.4062 449.094 26.25 448.781 25.9375C448.469 25.625 448.312 25.25 448.312 24.8125C448.312 24.375 448.156 24 447.844 23.6875C447.531 23.375 447.156 23.2188 446.719 23.2188C446.281 23.2188 445.906 23.0625 445.594 22.75C445.281 22.4375 445.125 22.0625 445.125 21.625V15.2188C445.125 14.7812 445.281 14.4062 445.594 14.0938C445.906 13.7812 446.281 13.625 446.719 13.625C447.156 13.625 447.531 13.4688 447.844 13.1562C448.156 12.8438 448.312 12.4583 448.312 12V12.0312C448.312 11.5729 448.469 11.1875 448.781 10.875C449.094 10.5625 449.469 10.4062 449.906 10.4062C450.344 10.4062 450.729 10.25 451.062 9.9375C451.375 9.625 451.531 9.25 451.531 8.8125C451.531 8.375 451.677 8 451.969 7.6875C452.302 7.375 452.688 7.21875 453.125 7.21875H456.312C456.75 7.21875 457.125 7.0625 457.438 6.75C457.75 6.4375 457.906 6.0625 457.906 5.625C457.906 5.1875 458.062 4.8125 458.375 4.5C458.688 4.16667 459.073 4 459.531 4H469.125C469.562 4 469.938 4.15625 470.25 4.46875C470.562 4.80208 470.719 5.1875 470.719 5.625C470.719 6.0625 470.875 6.4375 471.188 6.75C471.5 7.0625 471.875 7.21875 472.312 7.21875C472.75 7.21875 473.125 7.375 473.438 7.6875C473.75 8 473.906 8.375 473.906 8.8125C473.906 9.25 474.062 9.625 474.375 9.9375C474.688 10.25 475.073 10.4062 475.531 10.4062C475.969 10.4062 476.344 10.5625 476.656 10.875C476.969 11.1875 477.125 11.5625 477.125 12C477.125 12.4583 477.281 12.8438 477.594 13.1562C477.906 13.4688 478.281 13.625 478.719 13.625C479.156 13.625 479.531 13.4688 479.844 13.1562C480.156 12.8438 480.312 12.4583 480.312 12C480.312 11.5625 480.469 11.1875 480.781 10.875C481.094 10.5625 481.469 10.4062 481.906 10.4062C482.344 10.4062 482.729 10.25 483.062 9.9375C483.375 9.625 483.531 9.25 483.531 8.8125C483.531 8.375 483.677 8 483.969 7.6875C484.302 7.375 484.688 7.21875 485.125 7.21875C485.562 7.21875 485.938 7.375 486.25 7.6875C486.562 8 486.719 8.375 486.719 8.8125C486.719 9.25 486.562 9.625 486.25 9.9375C485.938 10.25 485.562 10.4062 485.125 10.4062C484.688 10.4062 484.302 10.5625 483.969 10.875C483.677 11.1875 483.531 11.5625 483.531 12C483.531 12.4583 483.375 12.8438 483.062 13.1562C482.729 13.4688 482.344 13.625 481.906 13.625C481.469 13.625 481.094 13.7812 480.781 14.0938C480.469 14.4062 480.312 14.7812 480.312 15.2188C480.312 15.6562 480.156 16.0312 479.844 16.3438C479.531 16.6562 479.156 16.8125 478.719 16.8125H475.531C475.073 16.8125 474.688 16.6562 474.375 16.3438C474.062 16.0312 473.906 15.6562 473.906 15.2188C473.906 14.7812 473.75 14.4062 473.438 14.0938C473.125 13.7812 472.75 13.625 472.312 13.625C471.875 13.625 471.5 13.4688 471.188 13.1562C470.875 12.8438 470.719 12.4583 470.719 12C470.719 11.5625 470.562 11.1875 470.25 10.875C469.938 10.5625 469.562 10.4062 469.125 10.4062C468.688 10.4062 468.302 10.25 467.969 9.9375C467.677 9.625 467.531 9.25 467.531 8.8125C467.531 8.375 467.375 8 467.062 7.6875C466.729 7.375 466.344 7.21875 465.906 7.21875C465.469 7.21875 465.094 7.375 464.781 7.6875C464.469 8 464.312 8.375 464.312 8.8125C464.312 9.25 464.156 9.625 463.844 9.9375C463.531 10.25 463.156 10.4062 462.719 10.4062C462.281 10.4062 461.906 10.5625 461.594 10.875C461.281 11.1875 461.125 11.5625 461.125 12C461.125 12.4583 460.969 12.8438 460.656 13.1562C460.344 13.4688 459.969 13.625 459.531 13.625C459.073 13.625 458.688 13.7812 458.375 14.0938C458.062 14.4062 457.906 14.7812 457.906 15.2188V24.8125C457.906 25.25 458.062 25.625 458.375 25.9375C458.688 26.25 459.073 26.4062 459.531 26.4062C459.969 26.4062 460.344 26.5625 460.656 26.875C460.969 27.1875 461.125 27.5625 461.125 28C461.125 28.4583 461.281 28.8438 461.594 29.1562C461.906 29.4688 462.281 29.625 462.719 29.625C463.156 29.625 463.531 29.4688 463.844 29.1562C464.156 28.8438 464.312 28.4583 464.312 28C464.312 27.5625 464.469 27.1875 464.781 26.875C465.094 26.5625 465.469 26.4062 465.906 26.4062C466.344 26.4062 466.729 26.25 467.062 25.9375C467.375 25.625 467.531 25.25 467.531 24.8125C467.531 24.375 467.677 24 467.969 23.6875C468.302 23.375 468.688 23.2188 469.125 23.2188H472.312C472.75 23.2188 473.125 23.375 473.438 23.6875C473.75 24 473.906 24.375 473.906 24.8125C473.906 25.25 474.062 25.625 474.375 25.9375C474.688 26.25 475.073 26.4062 475.531 26.4062C475.969 26.4062 476.344 26.5625 476.656 26.875C476.969 27.1875 477.125 27.5625 477.125 28C477.125 28.4583 477.281 28.8438 477.594 29.1562C477.906 29.4688 478.281 29.625 478.719 29.625C479.156 29.625 479.531 29.7812 479.844 30.0938C480.156 30.4062 480.312 30.7812 480.312 31.2188C480.312 31.6562 480.469 32.0312 480.781 32.3438C481.094 32.6562 481.469 32.8125 481.906 32.8125C482.344 32.8125 482.729 32.9688 483.062 33.2812C483.375 33.5938 483.531 33.9688 483.531 34.4062V40.8125C483.531 41.25 483.375 41.625 483.062 41.9375C482.729 42.25 482.344 42.4062 481.906 42.4062C481.469 42.4062 481.094 42.5625 480.781 42.875C480.469 43.1875 480.312 43.5625 480.312 44C480.312 44.4583 480.156 44.8438 479.844 45.1562C479.531 45.4688 479.156 45.625 478.719 45.625C478.281 45.625 477.906 45.7812 477.594 46.0938C477.281 46.4062 477.125 46.7812 477.125 47.2188C477.125 47.6562 476.969 48.0312 476.656 48.3438C476.344 48.6562 475.969 48.8125 475.531 48.8125H472.312C471.875 48.8125 471.5 48.9688 471.188 49.2812C470.875 49.5938 470.719 49.9688 470.719 50.4062C470.719 50.8438 470.562 51.2292 470.25 51.5625C469.938 51.8542 469.562 52 469.125 52H459.531C459.073 52 458.688 51.8542 458.375 51.5625C458.062 51.2292 457.906 50.8438 457.906 50.4062C457.906 49.9688 457.75 49.5938 457.438 49.2812C457.125 48.9688 456.75 48.8125 456.312 48.8125H453.125C452.688 48.8125 452.302 48.6562 451.969 48.3438C451.677 48.0312 451.531 47.6562 451.531 47.2188C451.531 46.7812 451.375 46.4062 451.062 46.0938C450.729 45.7812 450.344 45.625 449.906 45.625H446.719C446.281 45.625 445.906 45.4688 445.594 45.1562C445.281 44.8438 445.125 44.4583 445.125 44C445.125 43.5625 444.969 43.1875 444.656 42.875C444.344 42.5625 443.969 42.4062 443.531 42.4062H441.906H440.219C439.823 42.4479 439.479 42.6042 439.188 42.875C438.875 43.1875 438.719 43.5625 438.719 44C438.719 44.4583 438.562 44.8438 438.25 45.1562C437.938 45.4688 437.562 45.625 437.125 45.625C436.688 45.625 436.302 45.7812 435.969 46.0938C435.677 46.4062 435.531 46.7812 435.531 47.2188V50.4062C435.531 50.8438 435.677 51.2292 435.969 51.5625C436.302 51.8542 436.688 52 437.125 52H440.312C440.75 52 441.125 51.8542 441.438 51.5625C441.75 51.2292 441.906 50.8438 441.906 50.4062C441.906 49.9688 442.062 49.5938 442.375 49.2812C442.688 48.9688 443.073 48.8125 443.531 48.8125C443.969 48.8125 444.344 48.9688 444.656 49.2812C444.969 49.5938 445.125 49.9688 445.125 50.4062C445.125 50.8438 444.969 51.2292 444.656 51.5625C444.344 51.8542 443.969 52 443.531 52C443.073 52 442.688 52.1458 442.375 52.4375C442.062 52.7708 441.906 53.1562 441.906 53.5938C441.906 54.0312 441.75 54.4062 441.438 54.7188C441.125 55.0312 440.75 55.1875 440.312 55.1875H437.125Z" fill="#D3FF00"/>
</svg>
