<svg width="254" height="30" viewBox="0 0 254 30" fill="none" xmlns="http://www.w3.org/2000/svg">
<path d="M10.9961 30C10.7227 30 10.4818 29.9089 10.2734 29.7266C10.0911 29.5182 10 29.2773 10 29.0039C10 28.7305 9.90234 28.4961 9.70703 28.3008C9.4987 28.1055 9.25781 28.0078 8.98438 28.0078H6.99219C6.71875 28.0078 6.48438 27.9102 6.28906 27.7148C6.09375 27.5195 5.99609 27.2852 5.99609 27.0117C5.99609 26.7383 5.89844 26.5039 5.70312 26.3086C5.50781 26.1133 5.27344 26.0156 5 26.0156C4.71354 26.0156 4.47266 25.918 4.27734 25.7227C4.08203 25.5273 3.98438 25.2865 3.98438 25V19.0039C3.98438 18.7305 4.08203 18.4961 4.27734 18.3008C4.47266 18.1055 4.71354 18.0078 5 18.0078C5.27344 18.0078 5.50781 17.9102 5.70312 17.7148C5.89844 17.5195 5.99609 17.2852 5.99609 17.0117C5.99609 16.7383 6.09375 16.5039 6.28906 16.3086C6.48438 16.1133 6.71875 16.0156 6.99219 16.0156C7.26562 16.0156 7.5 15.918 7.69531 15.7227C7.89062 15.5273 7.98828 15.2865 7.98828 15V15.0195C7.98828 14.7331 8.08594 14.4922 8.28125 14.2969C8.47656 14.1016 8.71094 14.0039 8.98438 14.0039C9.25781 14.0039 9.4987 13.9062 9.70703 13.7109C9.90234 13.5156 10 13.2812 10 13.0078C10 12.7344 10.0911 12.5 10.2734 12.3047C10.4818 12.1094 10.7227 12.0117 10.9961 12.0117C11.2695 12.0117 11.5039 11.9141 11.6992 11.7188C11.8945 11.5234 11.9922 11.2891 11.9922 11.0156C11.9922 10.7422 12.0898 10.5078 12.2852 10.3125C12.4805 10.1042 12.7148 10 12.9883 10H15C15.2734 10 15.5078 9.90885 15.7031 9.72656C15.8984 9.51823 15.9961 9.27734 15.9961 9.00391C15.9961 8.73047 15.8984 8.49609 15.7031 8.30078C15.5078 8.10547 15.2734 8.00781 15 8.00781C14.7135 8.00781 14.4727 7.91016 14.2773 7.71484C14.082 7.51953 13.9844 7.28516 13.9844 7.01172C13.9844 6.73828 13.8867 6.50391 13.6914 6.30859C13.4961 6.11328 13.2617 6.01562 12.9883 6.01562H10.9961C10.7227 6.01562 10.4818 5.91797 10.2734 5.72266C10.0911 5.52734 10 5.28646 10 5C10 4.72656 9.90234 4.49219 9.70703 4.29688C9.4987 4.10156 9.25781 4.00391 8.98438 4.00391H5C4.71354 4.00391 4.47266 4.10156 4.27734 4.29688C4.08203 4.49219 3.98438 4.72656 3.98438 5C3.98438 5.28646 3.88672 5.52734 3.69141 5.72266C3.49609 5.91797 3.26172 6.01562 2.98828 6.01562C2.71484 6.01562 2.48047 6.11328 2.28516 6.30859C2.08984 6.50391 1.99219 6.73828 1.99219 7.01172V11.0156C1.99219 11.2891 2.08984 11.5234 2.28516 11.7188C2.48047 11.9141 2.71484 12.0117 2.98828 12.0117H5C5.27344 12.0117 5.50781 11.9141 5.70312 11.7188C5.89844 11.5234 5.99609 11.2891 5.99609 11.0156C5.99609 10.7422 6.09375 10.5013 6.28906 10.293C6.48438 10.0977 6.71875 10 6.99219 10C7.26562 10 7.5 10.0977 7.69531 10.293C7.89062 10.5013 7.98828 10.7422 7.98828 11.0156C7.98828 11.2891 7.89062 11.5234 7.69531 11.7188C7.5 11.9141 7.26562 12.0117 6.99219 12.0117C6.71875 12.0117 6.48438 12.1094 6.28906 12.3047C6.09375 12.5 5.99609 12.7344 5.99609 13.0078C5.99609 13.2812 5.89844 13.5156 5.70312 13.7109C5.50781 13.9062 5.27344 14.0039 5 14.0039H2.98828C2.71484 14.0039 2.48047 13.9062 2.28516 13.7109C2.08984 13.5156 1.99219 13.2812 1.99219 13.0078C1.99219 12.7344 1.89453 12.5 1.69922 12.3047C1.50391 12.1094 1.26953 12.0117 0.996094 12.0117C0.722656 12.0117 0.481771 11.9141 0.273438 11.7188C0.0911458 11.5234 0 11.2891 0 11.0156V7.01172C0 6.73828 0.0911458 6.50391 0.273438 6.30859C0.481771 6.11328 0.722656 6.01562 0.996094 6.01562C1.26953 6.01562 1.50391 5.91797 1.69922 5.72266C1.89453 5.52734 1.99219 5.28646 1.99219 5V3.00781C1.99219 2.73438 2.08984 2.5 2.28516 2.30469C2.48047 2.10938 2.71484 2.01172 2.98828 2.01172H5C5.27344 2.01172 5.50781 1.91406 5.70312 1.71875C5.89844 1.52344 5.99609 1.28906 5.99609 1.01562C5.99609 0.742188 6.09375 0.507812 6.28906 0.3125C6.48438 0.104167 6.71875 0 6.99219 0H16.9922C17.2656 0 17.5 0.0976562 17.6953 0.292969C17.8906 0.501302 17.9883 0.742188 17.9883 1.01562C17.9883 1.28906 18.0859 1.52344 18.2812 1.71875C18.4766 1.91406 18.7109 2.01172 18.9844 2.01172C19.2578 2.01172 19.4987 2.10938 19.707 2.30469C19.9023 2.5 20 2.73438 20 3.00781C20 3.28125 20.0911 3.51562 20.2734 3.71094C20.4818 3.90625 20.7227 4.00391 20.9961 4.00391H22.9883C23.2617 4.00391 23.4961 4.10156 23.6914 4.29688C23.8867 4.49219 23.9844 4.72656 23.9844 5C23.9844 5.28646 24.082 5.52734 24.2773 5.72266C24.4727 5.91797 24.7135 6.01562 25 6.01562H26.9922C27.2656 6.01562 27.5 5.91797 27.6953 5.72266C27.8906 5.52734 27.9883 5.28646 27.9883 5V3.00781C27.9883 2.73438 28.0859 2.5 28.2812 2.30469C28.4766 2.10938 28.7109 2.01172 28.9844 2.01172C29.2578 2.01172 29.4987 2.10938 29.707 2.30469C29.9023 2.5 30 2.73438 30 3.00781V5C30 5.28646 29.9023 5.52734 29.707 5.72266C29.4987 5.91797 29.2578 6.01562 28.9844 6.01562C28.7109 6.01562 28.4766 6.11328 28.2812 6.30859C28.0859 6.50391 27.9883 6.73828 27.9883 7.01172C27.9883 7.28516 27.8906 7.51953 27.6953 7.71484C27.5 7.91016 27.2656 8.00781 26.9922 8.00781H18.9844C18.7109 8.00781 18.4766 8.10547 18.2812 8.30078C18.0859 8.49609 17.9883 8.73047 17.9883 9.00391C17.9883 9.27734 17.8906 9.51823 17.6953 9.72656C17.5 9.90885 17.2656 10 16.9922 10C16.7188 10 16.4844 10.0977 16.2891 10.293C16.0938 10.5013 15.9961 10.7422 15.9961 11.0156C15.9961 11.2891 15.8984 11.5234 15.7031 11.7188C15.5078 11.9141 15.2734 12.0117 15 12.0117C14.7135 12.0117 14.4727 12.1094 14.2773 12.3047C14.082 12.5 13.9844 12.7344 13.9844 13.0078C13.9844 13.2812 13.8867 13.5156 13.6914 13.7109C13.4961 13.9062 13.2617 14.0039 12.9883 14.0039C12.7148 14.0039 12.4805 14.1016 12.2852 14.2969C12.0898 14.4922 11.9922 14.7266 11.9922 15V17.0117C11.9922 17.2852 11.8945 17.5195 11.6992 17.7148C11.5039 17.9102 11.2695 18.0078 10.9961 18.0078C10.7227 18.0078 10.4818 18.1055 10.2734 18.3008C10.0911 18.4961 10 18.7305 10 19.0039V21.0156C10 21.2891 10.0911 21.5234 10.2734 21.7188C10.4818 21.9141 10.7227 22.0117 10.9961 22.0117C11.2695 22.0117 11.5039 22.1094 11.6992 22.3047C11.8945 22.5 11.9922 22.7344 11.9922 23.0078C11.9922 23.2812 12.0898 23.5156 12.2852 23.7109C12.4805 23.9062 12.7148 24.0039 12.9883 24.0039C13.2617 24.0039 13.4961 24.1016 13.6914 24.2969C13.8867 24.4922 13.9844 24.7266 13.9844 25C13.9844 25.2865 14.082 25.5273 14.2773 25.7227C14.4727 25.918 14.7135 26.0156 15 26.0156H22.9883C23.2617 26.0156 23.4961 25.918 23.6914 25.7227C23.8867 25.5273 23.9844 25.2865 23.9844 25V25.0195C23.9844 24.7331 24.082 24.4922 24.2773 24.2969C24.4727 24.1016 24.7135 24.0039 25 24.0039C25.2734 24.0039 25.5078 23.9062 25.7031 23.7109C25.8984 23.5156 25.9961 23.2812 25.9961 23.0078V21.0156C25.9961 20.7422 25.8984 20.5013 25.7031 20.293C25.5078 20.0977 25.2734 20 25 20C24.7135 20 24.4727 20.0977 24.2773 20.293C24.082 20.5013 23.9844 20.7422 23.9844 21.0156C23.9844 21.2891 23.8867 21.5234 23.6914 21.7188C23.4961 21.9141 23.2617 22.0117 22.9883 22.0117H20.9961C20.7227 22.0117 20.4818 21.9141 20.2734 21.7188C20.0911 21.5234 20 21.2891 20 21.0156C20 20.7422 19.9023 20.5013 19.707 20.293C19.4987 20.0977 19.2578 20 18.9844 20C18.7109 20 18.4766 19.9089 18.2812 19.7266C18.0859 19.5182 17.9883 19.2773 17.9883 19.0039V15.0195C17.9883 14.7331 18.0859 14.4922 18.2812 14.2969C18.4766 14.1016 18.7109 14.0039 18.9844 14.0039C19.2578 14.0039 19.4987 13.9062 19.707 13.7109C19.9023 13.5156 20 13.2812 20 13.0078C20 12.7344 20.0911 12.5 20.2734 12.3047C20.4818 12.1094 20.7227 12.0117 20.9961 12.0117H22.9883C23.2617 12.0117 23.4961 12.1094 23.6914 12.3047C23.8867 12.5 23.9844 12.7344 23.9844 13.0078C23.9844 13.2812 23.8867 13.5156 23.6914 13.7109C23.4961 13.9062 23.2617 14.0039 22.9883 14.0039H21.9922H20.918C20.6706 14.0299 20.4557 14.1276 20.2734 14.2969C20.0911 14.4922 20 14.7266 20 15V17.0117C20 17.2852 20.0911 17.5195 20.2734 17.7148C20.4818 17.9102 20.7227 18.0078 20.9961 18.0078C21.2695 18.0078 21.5039 17.9102 21.6992 17.7148C21.8945 17.5195 21.9922 17.2852 21.9922 17.0117C21.9922 16.7383 22.0898 16.5039 22.2852 16.3086C22.4805 16.1133 22.7148 16.0156 22.9883 16.0156H26.9922C27.2656 16.0156 27.5 16.1133 27.6953 16.3086C27.8906 16.5039 27.9883 16.7383 27.9883 17.0117C27.9883 17.2852 28.0859 17.5195 28.2812 17.7148C28.4766 17.9102 28.7109 18.0078 28.9844 18.0078C29.2578 18.0078 29.4987 18.1055 29.707 18.3008C29.9023 18.4961 30 18.7305 30 19.0039V21.0156C30 21.2891 29.9023 21.5234 29.707 21.7188C29.4987 21.9141 29.2578 22.0117 28.9844 22.0117C28.7109 22.0117 28.4766 22.1094 28.2812 22.3047C28.0859 22.5 27.9883 22.7344 27.9883 23.0078C27.9883 23.2812 27.8906 23.5156 27.6953 23.7109C27.5 23.9062 27.2656 24.0039 26.9922 24.0039C26.7188 24.0039 26.4844 24.1016 26.2891 24.2969C26.0938 24.4922 25.9961 24.7266 25.9961 25V27.0117C25.9961 27.2852 25.8984 27.5195 25.7031 27.7148C25.5078 27.9102 25.2734 28.0078 25 28.0078H22.9883C22.7148 28.0078 22.4805 28.1055 22.2852 28.3008C22.0898 28.4961 21.9922 28.7305 21.9922 29.0039C21.9922 29.2773 21.8945 29.5182 21.6992 29.7266C21.5039 29.9089 21.2695 30 20.9961 30H10.9961ZM48.9844 12.0117C49.2578 12.0117 49.4922 11.9141 49.6875 11.7188C49.8828 11.5234 49.9805 11.2891 49.9805 11.0156V5C49.9805 4.72656 49.8828 4.49219 49.6875 4.29688C49.5052 4.1276 49.2904 4.02995 49.043 4.00391H48.9062C48.6589 4.02995 48.4505 4.1276 48.2812 4.29688C48.0859 4.49219 47.9883 4.72656 47.9883 5V11.0156C47.9883 11.2891 48.0859 11.5234 48.2812 11.7188C48.4766 11.9141 48.7109 12.0117 48.9844 12.0117ZM42.9883 30C42.7148 30 42.474 29.9089 42.2656 29.7266C42.0833 29.5182 41.9922 29.2773 41.9922 29.0039C41.9922 28.7305 41.8945 28.4961 41.6992 28.3008C41.4909 28.1055 41.25 28.0078 40.9766 28.0078C40.7031 28.0078 40.4688 27.9102 40.2734 27.7148C40.0781 27.5195 39.9805 27.2852 39.9805 27.0117C39.9805 26.7383 39.8828 26.5039 39.6875 26.3086C39.4922 26.1133 39.2578 26.0156 38.9844 26.0156H36.9922C36.7057 26.0156 36.4648 25.918 36.2695 25.7227C36.0742 25.5273 35.9766 25.2865 35.9766 25C35.9766 24.7266 36.0742 24.4922 36.2695 24.2969C36.4648 24.1016 36.7057 24.0039 36.9922 24.0039C37.2656 24.0039 37.5 23.9062 37.6953 23.7109C37.8906 23.5156 37.9883 23.2812 37.9883 23.0078C37.9883 22.7344 38.0859 22.5 38.2812 22.3047C38.4766 22.1094 38.7109 22.0117 38.9844 22.0117C39.2578 22.0117 39.4922 21.9141 39.6875 21.7188C39.8828 21.5234 39.9805 21.2891 39.9805 21.0156C39.9805 20.7422 40.0781 20.5078 40.2734 20.3125C40.4688 20.1042 40.7031 20 40.9766 20C41.25 20 41.4909 19.9089 41.6992 19.7266C41.8945 19.5182 41.9922 19.2773 41.9922 19.0039V9.00391C41.9922 8.73047 42.0833 8.49609 42.2656 8.30078C42.474 8.10547 42.7148 8.00781 42.9883 8.00781C43.2617 8.00781 43.4961 7.91016 43.6914 7.71484C43.8867 7.51953 43.9844 7.28516 43.9844 7.01172V5C43.9844 4.72656 43.8867 4.49219 43.6914 4.29688C43.4961 4.10156 43.2617 4.00391 42.9883 4.00391H40.9766C40.7031 4.00391 40.4688 3.90625 40.2734 3.71094C40.0781 3.51562 39.9805 3.28125 39.9805 3.00781C39.9805 2.73438 39.8828 2.5 39.6875 2.30469C39.4922 2.10938 39.2578 2.01172 38.9844 2.01172H37.9883H36.9141C36.6667 2.02474 36.4518 2.1224 36.2695 2.30469C36.0742 2.5 35.9766 2.73438 35.9766 3.00781C35.9766 3.28125 35.8789 3.51562 35.6836 3.71094C35.4883 3.90625 35.2539 4.00391 34.9805 4.00391C34.707 4.00391 34.4727 4.10156 34.2773 4.29688C34.082 4.49219 33.9844 4.72656 33.9844 5C33.9844 5.28646 34.082 5.52734 34.2773 5.72266C34.4727 5.91797 34.707 6.01562 34.9805 6.01562C35.2539 6.01562 35.4883 6.11328 35.6836 6.30859C35.8789 6.50391 35.9766 6.73828 35.9766 7.01172C35.9766 7.28516 36.0742 7.51953 36.2695 7.71484C36.4648 7.91016 36.7057 8.00781 36.9922 8.00781C37.2656 8.00781 37.5 8.10547 37.6953 8.30078C37.8906 8.49609 37.9883 8.73047 37.9883 9.00391V11.0156C37.9883 11.2891 38.0859 11.5234 38.2812 11.7188C38.4766 11.9141 38.7109 12.0117 38.9844 12.0117C39.2578 12.0117 39.4922 12.1094 39.6875 12.3047C39.8828 12.5 39.9805 12.7344 39.9805 13.0078V17.0117C39.9805 17.2852 39.8828 17.5195 39.6875 17.7148C39.4922 17.9102 39.2578 18.0078 38.9844 18.0078C38.7109 18.0078 38.4766 18.1055 38.2812 18.3008C38.0859 18.4961 37.9883 18.7305 37.9883 19.0039C37.9883 19.2773 37.8906 19.5182 37.6953 19.7266C37.5 19.9089 37.2656 20 36.9922 20H35.9766V20.0195H34.9219C34.6745 20.0326 34.4596 20.1237 34.2773 20.293C34.082 20.5013 33.9844 20.7422 33.9844 21.0156C33.9844 21.2891 33.8867 21.5234 33.6914 21.7188C33.4961 21.9141 33.2617 22.0117 32.9883 22.0117C32.7148 22.0117 32.474 21.9141 32.2656 21.7188C32.0833 21.5234 31.9922 21.2891 31.9922 21.0156C31.9922 20.7422 32.0833 20.5013 32.2656 20.293C32.474 20.0977 32.7148 20 32.9883 20C33.2617 20 33.4961 19.9089 33.6914 19.7266C33.8867 19.5182 33.9844 19.2773 33.9844 19.0039C33.9844 18.7305 34.082 18.4961 34.2773 18.3008C34.4727 18.1055 34.707 18.0078 34.9805 18.0078C35.2539 18.0078 35.4883 17.9102 35.6836 17.7148C35.8789 17.5195 35.9766 17.2852 35.9766 17.0117C35.9766 16.7383 35.8789 16.5039 35.6836 16.3086C35.4883 16.1133 35.2539 16.0156 34.9805 16.0156C34.707 16.0156 34.4727 15.918 34.2773 15.7227C34.082 15.5273 33.9844 15.2865 33.9844 15V13.0078C33.9844 12.7344 33.8867 12.5 33.6914 12.3047C33.4961 12.1094 33.2617 12.0117 32.9883 12.0117C32.7148 12.0117 32.474 11.9141 32.2656 11.7188C32.0833 11.5234 31.9922 11.2891 31.9922 11.0156V5.01953C31.9922 4.73307 32.0833 4.49219 32.2656 4.29688C32.474 4.10156 32.7148 4.00391 32.9883 4.00391C33.2617 4.00391 33.4961 3.90625 33.6914 3.71094C33.8867 3.51562 33.9844 3.28125 33.9844 3.00781C33.9844 2.73438 34.082 2.5 34.2773 2.30469C34.4727 2.10938 34.707 2.01172 34.9805 2.01172C35.2539 2.01172 35.4883 1.91406 35.6836 1.71875C35.8789 1.52344 35.9766 1.28906 35.9766 1.01562C35.9766 0.742188 36.0742 0.507812 36.2695 0.3125C36.4648 0.104167 36.7057 0 36.9922 0H40.9766C41.25 0 41.4909 0.0976562 41.6992 0.292969C41.8945 0.501302 41.9922 0.742188 41.9922 1.01562C41.9922 1.28906 42.0833 1.52344 42.2656 1.71875C42.474 1.91406 42.7148 2.01172 42.9883 2.01172H44.9805C45.2539 2.01172 45.4883 2.10938 45.6836 2.30469C45.8789 2.5 45.9766 2.73438 45.9766 3.00781C45.9766 3.28125 46.0742 3.51562 46.2695 3.71094C46.4648 3.90625 46.7057 4.00391 46.9922 4.00391C47.2656 4.00391 47.5 3.90625 47.6953 3.71094C47.8906 3.51562 47.9883 3.28125 47.9883 3.00781C47.9883 2.73438 48.0859 2.5 48.2812 2.30469C48.4766 2.10938 48.7109 2.01172 48.9844 2.01172H56.9922C57.2656 2.01172 57.5 1.91406 57.6953 1.71875C57.8906 1.52344 57.9883 1.28906 57.9883 1.01562C57.9883 0.742188 58.0859 0.501302 58.2812 0.292969C58.4766 0.0976562 58.7109 0 58.9844 0C59.2578 0 59.4922 0.0976562 59.6875 0.292969C59.8828 0.501302 59.9805 0.742188 59.9805 1.01562C59.9805 1.28906 59.8828 1.52344 59.6875 1.71875C59.4922 1.91406 59.2578 2.01172 58.9844 2.01172C58.7109 2.01172 58.4766 2.10938 58.2812 2.30469C58.0859 2.5 57.9883 2.73438 57.9883 3.00781C57.9883 3.28125 57.8906 3.51562 57.6953 3.71094C57.5 3.90625 57.2656 4.00391 56.9922 4.00391C56.7057 4.00391 56.4648 4.10156 56.2695 4.29688C56.0742 4.49219 55.9766 4.72656 55.9766 5V21.0156C55.9766 21.2891 56.0742 21.5234 56.2695 21.7188C56.4648 21.9141 56.7057 22.0117 56.9922 22.0117C57.2656 22.0117 57.5 22.1094 57.6953 22.3047C57.8906 22.5 57.9883 22.7344 57.9883 23.0078C57.9883 23.2812 58.0859 23.5156 58.2812 23.7109C58.4766 23.9062 58.7109 24.0039 58.9844 24.0039C59.2578 24.0039 59.4922 24.1016 59.6875 24.2969C59.8828 24.4922 59.9805 24.7266 59.9805 25C59.9805 25.2865 59.8828 25.5273 59.6875 25.7227C59.4922 25.918 59.2578 26.0156 58.9844 26.0156C58.7109 26.0156 58.4766 26.1133 58.2812 26.3086C58.0859 26.5039 57.9883 26.7383 57.9883 27.0117C57.9883 27.2852 57.8906 27.5195 57.6953 27.7148C57.5 27.9102 57.2656 28.0078 56.9922 28.0078C56.7057 28.0078 56.4648 28.1055 56.2695 28.3008C56.0742 28.4961 55.9766 28.7305 55.9766 29.0039C55.9766 29.2773 55.8789 29.5182 55.6836 29.7266C55.4883 29.9089 55.2539 30 54.9805 30C54.707 30 54.4727 29.9089 54.2773 29.7266C54.082 29.5182 53.9844 29.2773 53.9844 29.0039V27.0117C53.9844 26.7383 53.8867 26.5039 53.6914 26.3086C53.4961 26.1133 53.2617 26.0156 52.9883 26.0156C52.7148 26.0156 52.474 25.918 52.2656 25.7227C52.0833 25.5273 51.9922 25.2865 51.9922 25V23.0078C51.9922 22.7344 51.8945 22.5 51.6992 22.3047C51.4909 22.1094 51.25 22.0117 50.9766 22.0117C50.7031 22.0117 50.4688 21.9141 50.2734 21.7188C50.0781 21.5234 49.9805 21.2891 49.9805 21.0156V15C49.9805 14.7266 49.8828 14.4922 49.6875 14.2969C49.4922 14.1016 49.2578 14.0039 48.9844 14.0039C48.7109 14.0039 48.4766 14.1016 48.2812 14.2969C48.0859 14.4922 47.9883 14.7266 47.9883 15V17.0117C47.9883 17.2852 47.8906 17.5195 47.6953 17.7148C47.5 17.9102 47.2656 18.0078 46.9922 18.0078C46.7057 18.0078 46.4648 18.1055 46.2695 18.3008C46.0742 18.4961 45.9766 18.7305 45.9766 19.0039C45.9766 19.2773 45.8789 19.5182 45.6836 19.7266C45.4883 19.9089 45.2539 20 44.9805 20C44.707 20 44.4727 20.0977 44.2773 20.293C44.082 20.5013 43.9844 20.7422 43.9844 21.0156C43.9844 21.2891 43.8867 21.5234 43.6914 21.7188C43.4961 21.9141 43.2617 22.0117 42.9883 22.0117C42.7148 22.0117 42.474 22.1094 42.2656 22.3047C42.0833 22.5 41.9922 22.7344 41.9922 23.0078C41.9922 23.2812 42.0833 23.5156 42.2656 23.7109C42.474 23.9062 42.7148 24.0039 42.9883 24.0039H44.9805C45.2539 24.0039 45.4883 24.1016 45.6836 24.2969C45.8789 24.4922 45.9766 24.7266 45.9766 25V27.0117C45.9766 27.2852 45.8789 27.5195 45.6836 27.7148C45.4883 27.9102 45.2539 28.0078 44.9805 28.0078C44.707 28.0078 44.4727 28.1055 44.2773 28.3008C44.082 28.4961 43.9844 28.7305 43.9844 29.0039C43.9844 29.2773 43.8867 29.5182 43.6914 29.7266C43.4961 29.9089 43.2617 30 42.9883 30ZM70.9766 30C70.7031 30 70.4688 29.9089 70.2734 29.7266C70.0781 29.5182 69.9805 29.2773 69.9805 29.0039C69.9805 28.7305 69.8828 28.4961 69.6875 28.3008C69.4922 28.1055 69.2578 28.0078 68.9844 28.0078C68.7109 28.0078 68.4766 27.9102 68.2812 27.7148C68.0859 27.5195 67.9883 27.2852 67.9883 27.0117C67.9883 26.7383 67.8906 26.5039 67.6953 26.3086C67.513 26.1263 67.2982 26.0286 67.0508 26.0156H66.9141C66.6667 26.0286 66.4518 26.1263 66.2695 26.3086C66.0742 26.5039 65.9766 26.7383 65.9766 27.0117C65.9766 27.2852 65.8789 27.5195 65.6836 27.7148C65.4883 27.9102 65.2539 28.0078 64.9805 28.0078C64.707 28.0078 64.4727 27.9102 64.2773 27.7148C64.082 27.5195 63.9844 27.2852 63.9844 27.0117C63.9844 26.7383 64.082 26.5039 64.2773 26.3086C64.4727 26.1133 64.707 26.0156 64.9805 26.0156C65.2539 26.0156 65.4883 25.918 65.6836 25.7227C65.8789 25.5273 65.9766 25.2865 65.9766 25V25.0195C65.9766 24.7331 66.0742 24.4922 66.2695 24.2969C66.4648 24.1016 66.7057 24.0039 66.9922 24.0039C67.2656 24.0039 67.5 23.9062 67.6953 23.7109C67.8906 23.5156 67.9883 23.2812 67.9883 23.0078C67.9883 22.7344 68.0859 22.5 68.2812 22.3047C68.4766 22.1094 68.7109 22.0117 68.9844 22.0117C69.2578 22.0117 69.4922 21.9141 69.6875 21.7188C69.8828 21.5234 69.9805 21.2891 69.9805 21.0156C69.9805 20.7422 70.0781 20.5078 70.2734 20.3125C70.4688 20.1042 70.7031 20 70.9766 20H72.9883C73.2617 20 73.4961 19.9089 73.6914 19.7266C73.8867 19.5182 73.9844 19.2773 73.9844 19.0039V5C73.9844 4.72656 73.8867 4.49219 73.6914 4.29688C73.4961 4.10156 73.2617 4.00391 72.9883 4.00391H70.9766C70.7031 4.00391 70.4688 3.90625 70.2734 3.71094C70.0781 3.51562 69.9805 3.28125 69.9805 3.00781C69.9805 2.73438 69.8828 2.5 69.6875 2.30469C69.4922 2.10938 69.2578 2.01172 68.9844 2.01172H67.9883H66.9141C66.6667 2.02474 66.4518 2.1224 66.2695 2.30469C66.0742 2.5 65.9766 2.73438 65.9766 3.00781C65.9766 3.28125 65.8789 3.51562 65.6836 3.71094C65.4883 3.90625 65.2539 4.00391 64.9805 4.00391C64.707 4.00391 64.4727 4.10156 64.2773 4.29688C64.082 4.49219 63.9844 4.72656 63.9844 5C63.9844 5.28646 64.082 5.52734 64.2773 5.72266C64.4727 5.91797 64.707 6.01562 64.9805 6.01562C65.2539 6.01562 65.4883 6.11328 65.6836 6.30859C65.8789 6.50391 65.9766 6.73828 65.9766 7.01172C65.9766 7.28516 66.0742 7.51953 66.2695 7.71484C66.4648 7.91016 66.7057 8.00781 66.9922 8.00781C67.2656 8.00781 67.5 8.10547 67.6953 8.30078C67.8906 8.49609 67.9883 8.73047 67.9883 9.00391V11.0156C67.9883 11.2891 68.0859 11.5234 68.2812 11.7188C68.4766 11.9141 68.7109 12.0117 68.9844 12.0117C69.2578 12.0117 69.4922 12.1094 69.6875 12.3047C69.8828 12.5 69.9805 12.7344 69.9805 13.0078V17.0117C69.9805 17.2852 69.8828 17.5195 69.6875 17.7148C69.4922 17.9102 69.2578 18.0078 68.9844 18.0078C68.7109 18.0078 68.4766 18.1055 68.2812 18.3008C68.0859 18.4961 67.9883 18.7305 67.9883 19.0039C67.9883 19.2773 67.8906 19.5182 67.6953 19.7266C67.5 19.9089 67.2656 20 66.9922 20C66.7057 20 66.4648 19.9089 66.2695 19.7266C66.0742 19.5182 65.9766 19.2773 65.9766 19.0039C65.9766 18.7305 66.0742 18.4961 66.2695 18.3008C66.4648 18.1055 66.7057 18.0078 66.9922 18.0078C67.2656 18.0078 67.5 17.9102 67.6953 17.7148C67.8906 17.5195 67.9883 17.2852 67.9883 17.0117C67.9883 16.7383 67.8906 16.5039 67.6953 16.3086C67.5 16.1133 67.2656 16.0156 66.9922 16.0156C66.7057 16.0156 66.4648 15.918 66.2695 15.7227C66.0742 15.5273 65.9766 15.2865 65.9766 15C65.9766 14.7266 65.8789 14.4922 65.6836 14.2969C65.4883 14.1016 65.2539 14.0039 64.9805 14.0039C64.707 14.0039 64.4727 13.9062 64.2773 13.7109C64.082 13.5156 63.9844 13.2812 63.9844 13.0078C63.9844 12.7344 63.8867 12.5 63.6914 12.3047C63.4961 12.1094 63.2617 12.0117 62.9883 12.0117C62.7148 12.0117 62.474 11.9141 62.2656 11.7188C62.0833 11.5234 61.9922 11.2891 61.9922 11.0156V5.01953C61.9922 4.73307 62.0833 4.49219 62.2656 4.29688C62.474 4.10156 62.7148 4.00391 62.9883 4.00391C63.2617 4.00391 63.4961 3.90625 63.6914 3.71094C63.8867 3.51562 63.9844 3.28125 63.9844 3.00781C63.9844 2.73438 64.082 2.5 64.2773 2.30469C64.4727 2.10938 64.707 2.01172 64.9805 2.01172C65.2539 2.01172 65.4883 1.91406 65.6836 1.71875C65.8789 1.52344 65.9766 1.28906 65.9766 1.01562C65.9766 0.742188 66.0742 0.507812 66.2695 0.3125C66.4648 0.104167 66.7057 0 66.9922 0H72.9883C73.2617 0 73.4961 0.0976562 73.6914 0.292969C73.8867 0.501302 73.9844 0.742188 73.9844 1.01562C73.9844 1.28906 74.082 1.52344 74.2773 1.71875C74.4727 1.91406 74.707 2.01172 74.9805 2.01172H76.9922C77.2656 2.01172 77.5 2.10938 77.6953 2.30469C77.8906 2.5 77.9883 2.73438 77.9883 3.00781C77.9883 3.28125 78.0859 3.51562 78.2812 3.71094C78.4766 3.90625 78.7109 4.00391 78.9844 4.00391C79.2578 4.00391 79.4922 4.10156 79.6875 4.29688C79.8828 4.49219 79.9805 4.72656 79.9805 5V11.0156C79.9805 11.2891 80.0781 11.5234 80.2734 11.7188C80.4688 11.9141 80.7031 12.0117 80.9766 12.0117H82.9883C83.2617 12.0117 83.4961 11.9141 83.6914 11.7188C83.8867 11.5234 83.9844 11.2891 83.9844 11.0156C83.9844 10.7422 84.082 10.5078 84.2773 10.3125C84.4727 10.1042 84.707 10 84.9805 10C85.2539 10 85.4883 9.90885 85.6836 9.72656C85.8789 9.51823 85.9766 9.27734 85.9766 9.00391V7.01172C85.9766 6.73828 85.8789 6.50391 85.6836 6.30859C85.4883 6.11328 85.2539 6.01562 84.9805 6.01562C84.707 6.01562 84.4727 5.91797 84.2773 5.72266C84.082 5.52734 83.9844 5.28646 83.9844 5V3.00781C83.9844 2.73438 84.082 2.5 84.2773 2.30469C84.4727 2.10938 84.707 2.01172 84.9805 2.01172C85.2539 2.01172 85.4883 1.91406 85.6836 1.71875C85.8789 1.52344 85.9766 1.28906 85.9766 1.01562C85.9766 0.742188 86.0742 0.507812 86.2695 0.3125C86.4648 0.104167 86.7057 0 86.9922 0H90.9766C91.25 0 91.4909 0.0976562 91.6992 0.292969C91.8945 0.501302 91.9922 0.742188 91.9922 1.01562C91.9922 1.28906 91.8945 1.52344 91.6992 1.71875C91.4909 1.91406 91.25 2.01172 90.9766 2.01172C90.7031 2.01172 90.4688 2.10938 90.2734 2.30469C90.0781 2.5 89.9805 2.73438 89.9805 3.00781C89.9805 3.28125 90.0781 3.51562 90.2734 3.71094C90.4688 3.90625 90.7031 4.00391 90.9766 4.00391C91.25 4.00391 91.4909 4.10156 91.6992 4.29688C91.8945 4.49219 91.9922 4.72656 91.9922 5C91.9922 5.28646 91.8945 5.52734 91.6992 5.72266C91.4909 5.91797 91.25 6.01562 90.9766 6.01562C90.7031 6.01562 90.4688 6.11328 90.2734 6.30859C90.0781 6.50391 89.9805 6.73828 89.9805 7.01172C89.9805 7.28516 89.8828 7.51953 89.6875 7.71484C89.4922 7.91016 89.2578 8.00781 88.9844 8.00781C88.7109 8.00781 88.4766 8.10547 88.2812 8.30078C88.0859 8.49609 87.9883 8.73047 87.9883 9.00391C87.9883 9.27734 87.8906 9.51823 87.6953 9.72656C87.5 9.90885 87.2656 10 86.9922 10C86.7057 10 86.4648 10.0977 86.2695 10.293C86.0742 10.5013 85.9766 10.7422 85.9766 11.0156C85.9766 11.2891 86.0742 11.5234 86.2695 11.7188C86.4648 11.9141 86.7057 12.0117 86.9922 12.0117C87.2656 12.0117 87.5 12.1094 87.6953 12.3047C87.8906 12.5 87.9883 12.7344 87.9883 13.0078C87.9883 13.2812 88.0859 13.5156 88.2812 13.7109C88.4766 13.9062 88.7109 14.0039 88.9844 14.0039C89.2578 14.0039 89.4922 14.1016 89.6875 14.2969C89.8828 14.4922 89.9805 14.7266 89.9805 15V17.0117C89.9805 17.2852 90.0781 17.5195 90.2734 17.7148C90.4688 17.9102 90.7031 18.0078 90.9766 18.0078C91.25 18.0078 91.4909 18.1055 91.6992 18.3008C91.8945 18.4961 91.9922 18.7305 91.9922 19.0039V23.0078C91.9922 23.2812 92.0833 23.5156 92.2656 23.7109C92.474 23.9062 92.7148 24.0039 92.9883 24.0039H94.9805C95.2539 24.0039 95.4883 24.1016 95.6836 24.2969C95.8789 24.4922 95.9766 24.7266 95.9766 25C95.9766 25.2865 95.8789 25.5273 95.6836 25.7227C95.4883 25.918 95.2539 26.0156 94.9805 26.0156C94.707 26.0156 94.4727 26.1133 94.2773 26.3086C94.082 26.5039 93.9844 26.7383 93.9844 27.0117C93.9844 27.2852 93.8867 27.5195 93.6914 27.7148C93.4961 27.9102 93.2617 28.0078 92.9883 28.0078C92.7148 28.0078 92.474 28.1055 92.2656 28.3008C92.0833 28.4961 91.9922 28.7305 91.9922 29.0039C91.9922 29.2773 91.8945 29.5182 91.6992 29.7266C91.4909 29.9089 91.25 30 90.9766 30C90.7031 30 90.4688 29.9089 90.2734 29.7266C90.0781 29.5182 89.9805 29.2773 89.9805 29.0039C89.9805 28.7305 89.8828 28.4961 89.6875 28.3008C89.4922 28.1055 89.2578 28.0078 88.9844 28.0078C88.7109 28.0078 88.4766 27.9102 88.2812 27.7148C88.0859 27.5195 87.9883 27.2852 87.9883 27.0117C87.9883 26.7383 87.8906 26.5039 87.6953 26.3086C87.5 26.1133 87.2656 26.0156 86.9922 26.0156C86.7057 26.0156 86.4648 25.918 86.2695 25.7227C86.0742 25.5273 85.9766 25.2865 85.9766 25V19.0039C85.9766 18.7305 85.8789 18.4961 85.6836 18.3008C85.4883 18.1055 85.2539 18.0078 84.9805 18.0078C84.707 18.0078 84.4727 17.9102 84.2773 17.7148C84.082 17.5195 83.9844 17.2852 83.9844 17.0117C83.9844 16.7383 83.8867 16.5039 83.6914 16.3086C83.4961 16.1133 83.2617 16.0156 82.9883 16.0156C82.7148 16.0156 82.474 15.918 82.2656 15.7227C82.0833 15.5273 81.9922 15.2865 81.9922 15C81.9922 14.7266 81.8945 14.4922 81.6992 14.2969C81.4909 14.1016 81.25 14.0039 80.9766 14.0039C80.7031 14.0039 80.4688 14.1016 80.2734 14.2969C80.0781 14.4922 79.9805 14.7266 79.9805 15C79.9805 15.2865 79.8828 15.5273 79.6875 15.7227C79.4922 15.918 79.2578 16.0156 78.9844 16.0156C78.7109 16.0156 78.4766 16.1133 78.2812 16.3086C78.0859 16.5039 77.9883 16.7383 77.9883 17.0117C77.9883 17.2852 77.8906 17.5195 77.6953 17.7148C77.5 17.9102 77.2656 18.0078 76.9922 18.0078C76.7057 18.0078 76.4648 18.1055 76.2695 18.3008C76.0742 18.4961 75.9766 18.7305 75.9766 19.0039C75.9766 19.2773 75.8789 19.5182 75.6836 19.7266C75.4883 19.9089 75.2539 20 74.9805 20C74.707 20 74.4727 20.0977 74.2773 20.293C74.082 20.5013 73.9844 20.7422 73.9844 21.0156C73.9844 21.2891 73.8867 21.5234 73.6914 21.7188C73.4961 21.9141 73.2617 22.0117 72.9883 22.0117C72.7148 22.0117 72.474 22.1094 72.2656 22.3047C72.0833 22.5 71.9922 22.7344 71.9922 23.0078C71.9922 23.2812 72.0833 23.5156 72.2656 23.7109C72.474 23.9062 72.7148 24.0039 72.9883 24.0039C73.2617 24.0039 73.4961 24.1016 73.6914 24.2969C73.8867 24.4922 73.9844 24.7266 73.9844 25C73.9844 25.2865 73.8867 25.5273 73.6914 25.7227C73.4961 25.918 73.2617 26.0156 72.9883 26.0156C72.7148 26.0156 72.474 26.1133 72.2656 26.3086C72.0833 26.5039 71.9922 26.7383 71.9922 27.0117V29.0039C71.9922 29.2773 71.8945 29.5182 71.6992 29.7266C71.4909 29.9089 71.25 30 70.9766 30ZM106.992 30C106.719 30 106.484 29.9089 106.289 29.7266C106.094 29.5182 105.996 29.2773 105.996 29.0039C105.996 28.7305 105.898 28.4961 105.703 28.3008C105.508 28.1055 105.273 28.0078 105 28.0078H103.008C102.721 28.0078 102.48 27.9102 102.285 27.7148C102.09 27.5195 101.992 27.2852 101.992 27.0117C101.992 26.7383 101.895 26.5039 101.699 26.3086C101.504 26.1133 101.27 26.0156 100.996 26.0156C100.723 26.0156 100.488 25.918 100.293 25.7227C100.098 25.5273 100 25.2865 100 25V21.0156C100 20.7422 99.9023 20.5013 99.707 20.293C99.5117 20.0977 99.2773 20 99.0039 20C98.7305 20 98.4896 19.9089 98.2812 19.7266C98.099 19.5182 98.0078 19.2773 98.0078 19.0039V11.0156C98.0078 10.7422 98.099 10.5078 98.2812 10.3125C98.4896 10.1042 98.7305 10 99.0039 10C99.2773 10 99.5117 9.90885 99.707 9.72656C99.9023 9.51823 100 9.27734 100 9.00391V7.01172C100 6.73828 100.098 6.50391 100.293 6.30859C100.488 6.11328 100.723 6.01562 100.996 6.01562C101.27 6.01562 101.504 5.91797 101.699 5.72266C101.895 5.52734 101.992 5.28646 101.992 5V5.01953C101.992 4.73307 102.09 4.49219 102.285 4.29688C102.48 4.10156 102.721 4.00391 103.008 4.00391C103.281 4.00391 103.516 3.90625 103.711 3.71094C103.906 3.51562 104.004 3.28125 104.004 3.00781C104.004 2.73438 104.102 2.5 104.297 2.30469C104.492 2.10938 104.727 2.01172 105 2.01172C105.273 2.01172 105.508 1.91406 105.703 1.71875C105.898 1.52344 105.996 1.28906 105.996 1.01562C105.996 0.742188 106.094 0.507812 106.289 0.3125C106.484 0.104167 106.719 0 106.992 0H110.996C111.27 0 111.504 0.0976562 111.699 0.292969C111.895 0.501302 111.992 0.742188 111.992 1.01562C111.992 1.28906 112.09 1.52344 112.285 1.71875C112.48 1.91406 112.721 2.01172 113.008 2.01172C113.281 2.01172 113.516 2.10938 113.711 2.30469C113.906 2.5 114.004 2.73438 114.004 3.00781C114.004 3.28125 114.102 3.51562 114.297 3.71094C114.492 3.90625 114.727 4.00391 115 4.00391C115.273 4.00391 115.508 3.90625 115.703 3.71094C115.898 3.51562 115.996 3.28125 115.996 3.00781C115.996 2.73438 116.094 2.5 116.289 2.30469C116.484 2.10938 116.719 2.01172 116.992 2.01172H119.004C119.277 2.01172 119.512 1.91406 119.707 1.71875C119.902 1.52344 120 1.28906 120 1.01562C120 0.742188 120.098 0.501302 120.293 0.292969C120.488 0.0976562 120.723 0 120.996 0C121.27 0 121.504 0.0976562 121.699 0.292969C121.895 0.501302 121.992 0.742188 121.992 1.01562V5C121.992 5.28646 121.895 5.52734 121.699 5.72266C121.504 5.91797 121.27 6.01562 120.996 6.01562C120.723 6.01562 120.488 6.11328 120.293 6.30859C120.098 6.50391 120 6.73828 120 7.01172C120 7.28516 119.902 7.51953 119.707 7.71484C119.512 7.91016 119.277 8.00781 119.004 8.00781H116.992C116.719 8.00781 116.484 7.91016 116.289 7.71484C116.094 7.51953 115.996 7.28516 115.996 7.01172C115.996 6.73828 115.898 6.50391 115.703 6.30859C115.508 6.11328 115.273 6.01562 115 6.01562C114.727 6.01562 114.492 5.91797 114.297 5.72266C114.102 5.52734 114.004 5.28646 114.004 5C114.004 4.72656 113.906 4.49219 113.711 4.29688C113.516 4.10156 113.281 4.00391 113.008 4.00391C112.721 4.00391 112.48 3.90625 112.285 3.71094C112.09 3.51562 111.992 3.28125 111.992 3.00781C111.992 2.73438 111.895 2.5 111.699 2.30469C111.504 2.10938 111.27 2.01172 110.996 2.01172H109.004C108.73 2.01172 108.49 2.10938 108.281 2.30469C108.099 2.5 108.008 2.73438 108.008 3.00781C108.008 3.28125 107.91 3.51562 107.715 3.71094C107.507 3.90625 107.266 4.00391 106.992 4.00391C106.719 4.00391 106.484 4.10156 106.289 4.29688C106.094 4.49219 105.996 4.72656 105.996 5V7.01172C105.996 7.28516 105.898 7.51953 105.703 7.71484C105.508 7.91016 105.273 8.00781 105 8.00781C104.727 8.00781 104.492 8.10547 104.297 8.30078C104.102 8.49609 104.004 8.73047 104.004 9.00391V15C104.004 15.2865 104.102 15.5273 104.297 15.7227C104.492 15.918 104.727 16.0156 105 16.0156C105.273 16.0156 105.508 15.918 105.703 15.7227C105.898 15.5273 105.996 15.2865 105.996 15V15.0195C105.996 14.7331 106.094 14.4922 106.289 14.2969C106.484 14.1016 106.719 14.0039 106.992 14.0039C107.266 14.0039 107.507 13.9062 107.715 13.7109C107.91 13.5156 108.008 13.2812 108.008 13.0078C108.008 12.7344 108.099 12.5 108.281 12.3047C108.49 12.1094 108.73 12.0117 109.004 12.0117C109.277 12.0117 109.512 11.9141 109.707 11.7188C109.902 11.5234 110 11.2891 110 11.0156C110 10.7422 110.098 10.5078 110.293 10.3125C110.488 10.1042 110.723 10 110.996 10H113.008C113.281 10 113.516 10.0977 113.711 10.293C113.906 10.5013 114.004 10.7422 114.004 11.0156C114.004 11.2891 114.102 11.5234 114.297 11.7188C114.492 11.9141 114.727 12.0117 115 12.0117H116.992C117.266 12.0117 117.507 12.1094 117.715 12.3047C117.91 12.5 118.008 12.7344 118.008 13.0078C118.008 13.2812 118.099 13.5156 118.281 13.7109C118.49 13.9062 118.73 14.0039 119.004 14.0039C119.277 14.0039 119.512 13.9062 119.707 13.7109C119.902 13.5156 120 13.2812 120 13.0078C120 12.7344 120.098 12.5 120.293 12.3047C120.488 12.1094 120.723 12.0117 120.996 12.0117C121.27 12.0117 121.504 12.1094 121.699 12.3047C121.895 12.5 121.992 12.7344 121.992 13.0078C121.992 13.2812 121.895 13.5156 121.699 13.7109C121.504 13.9062 121.27 14.0039 120.996 14.0039C120.723 14.0039 120.488 14.1016 120.293 14.2969C120.098 14.4922 120 14.7266 120 15C120 15.2865 119.902 15.5273 119.707 15.7227C119.512 15.918 119.277 16.0156 119.004 16.0156C118.73 16.0156 118.49 16.1133 118.281 16.3086C118.099 16.5039 118.008 16.7383 118.008 17.0117C118.008 17.2852 117.91 17.5195 117.715 17.7148C117.507 17.9102 117.266 18.0078 116.992 18.0078H113.008C112.721 18.0078 112.48 17.9102 112.285 17.7148C112.09 17.5195 111.992 17.2852 111.992 17.0117C111.992 16.7383 111.895 16.5039 111.699 16.3086C111.504 16.1133 111.27 16.0156 110.996 16.0156H108.008H106.934C106.686 16.0286 106.471 16.1263 106.289 16.3086C106.094 16.5039 105.996 16.7383 105.996 17.0117V23.0078C105.996 23.2812 106.094 23.5156 106.289 23.7109C106.484 23.9062 106.719 24.0039 106.992 24.0039C107.266 24.0039 107.507 24.1016 107.715 24.2969C107.91 24.4922 108.008 24.7266 108.008 25C108.008 25.2865 108.099 25.5273 108.281 25.7227C108.49 25.918 108.73 26.0156 109.004 26.0156C109.277 26.0156 109.512 26.1133 109.707 26.3086C109.902 26.5039 110 26.7383 110 27.0117C110 27.2852 110.098 27.5195 110.293 27.7148C110.488 27.9102 110.723 28.0078 110.996 28.0078H113.008C113.281 28.0078 113.516 27.9102 113.711 27.7148C113.906 27.5195 114.004 27.2852 114.004 27.0117C114.004 26.7383 114.102 26.5039 114.297 26.3086C114.492 26.1133 114.727 26.0156 115 26.0156H116.992C117.266 26.0156 117.507 25.918 117.715 25.7227C117.91 25.5273 118.008 25.2865 118.008 25V25.0195C118.008 24.7331 118.099 24.4922 118.281 24.2969C118.49 24.1016 118.73 24.0039 119.004 24.0039C119.277 24.0039 119.512 23.9062 119.707 23.7109C119.902 23.5156 120 23.2812 120 23.0078C120 22.7344 120.098 22.5 120.293 22.3047C120.488 22.1094 120.723 22.0117 120.996 22.0117C121.27 22.0117 121.504 21.9141 121.699 21.7188C121.895 21.5234 121.992 21.2891 121.992 21.0156C121.992 20.7422 122.09 20.5013 122.285 20.293C122.48 20.0977 122.721 20 123.008 20C123.281 20 123.516 20.0977 123.711 20.293C123.906 20.5013 124.004 20.7422 124.004 21.0156C124.004 21.2891 123.906 21.5234 123.711 21.7188C123.516 21.9141 123.281 22.0117 123.008 22.0117C122.721 22.0117 122.48 22.1094 122.285 22.3047C122.09 22.5 121.992 22.7344 121.992 23.0078V25C121.992 25.2865 121.895 25.5273 121.699 25.7227C121.504 25.918 121.27 26.0156 120.996 26.0156C120.723 26.0156 120.488 26.1133 120.293 26.3086C120.098 26.5039 120 26.7383 120 27.0117C120 27.2852 119.902 27.5195 119.707 27.7148C119.512 27.9102 119.277 28.0078 119.004 28.0078C118.73 28.0078 118.49 28.1055 118.281 28.3008C118.099 28.4961 118.008 28.7305 118.008 29.0039C118.008 29.2773 117.91 29.5182 117.715 29.7266C117.507 29.9089 117.266 30 116.992 30H106.992ZM147.012 30C146.738 30 146.497 29.9089 146.289 29.7266C146.107 29.5182 146.016 29.2773 146.016 29.0039C146.016 28.7305 145.918 28.4961 145.723 28.3008C145.514 28.1055 145.273 28.0078 145 28.0078H143.008C142.734 28.0078 142.5 27.9102 142.305 27.7148C142.109 27.5195 142.012 27.2852 142.012 27.0117C142.012 26.7383 141.914 26.5039 141.719 26.3086C141.523 26.1133 141.289 26.0156 141.016 26.0156C140.729 26.0156 140.488 25.918 140.293 25.7227C140.098 25.5273 140 25.2865 140 25C140 24.7266 139.902 24.4922 139.707 24.2969C139.512 24.1016 139.277 24.0039 139.004 24.0039C138.73 24.0039 138.496 23.9062 138.301 23.7109C138.105 23.5156 138.008 23.2812 138.008 23.0078C138.008 22.7344 137.91 22.5 137.715 22.3047C137.52 22.1094 137.285 22.0117 137.012 22.0117C136.738 22.0117 136.497 21.9141 136.289 21.7188C136.107 21.5234 136.016 21.2891 136.016 21.0156V9.00391C136.016 8.73047 136.107 8.49609 136.289 8.30078C136.497 8.10547 136.738 8.00781 137.012 8.00781C137.285 8.00781 137.52 7.91016 137.715 7.71484C137.91 7.51953 138.008 7.28516 138.008 7.01172C138.008 6.73828 138.105 6.50391 138.301 6.30859C138.496 6.11328 138.73 6.01562 139.004 6.01562C139.277 6.01562 139.512 5.91797 139.707 5.72266C139.902 5.52734 140 5.28646 140 5V5.01953C140 4.73307 140.098 4.49219 140.293 4.29688C140.488 4.10156 140.729 4.00391 141.016 4.00391C141.289 4.00391 141.523 3.90625 141.719 3.71094C141.914 3.51562 142.012 3.28125 142.012 3.00781C142.012 2.73438 142.109 2.5 142.305 2.30469C142.5 2.10938 142.734 2.01172 143.008 2.01172H145C145.273 2.01172 145.514 1.91406 145.723 1.71875C145.918 1.52344 146.016 1.28906 146.016 1.01562C146.016 0.742188 146.107 0.507812 146.289 0.3125C146.497 0.104167 146.738 0 147.012 0H155C155.273 0 155.514 0.0976562 155.723 0.292969C155.918 0.501302 156.016 0.742188 156.016 1.01562C156.016 1.28906 156.107 1.52344 156.289 1.71875C156.497 1.91406 156.738 2.01172 157.012 2.01172H159.004C159.277 2.01172 159.512 2.10938 159.707 2.30469C159.902 2.5 160 2.73438 160 3.00781C160 3.28125 160.098 3.51562 160.293 3.71094C160.488 3.90625 160.729 4.00391 161.016 4.00391C161.289 4.00391 161.523 4.10156 161.719 4.29688C161.914 4.49219 162.012 4.72656 162.012 5C162.012 5.28646 162.109 5.52734 162.305 5.72266C162.5 5.91797 162.734 6.01562 163.008 6.01562C163.281 6.01562 163.516 6.11328 163.711 6.30859C163.906 6.50391 164.004 6.73828 164.004 7.01172V11.0156C164.004 11.2891 163.906 11.5234 163.711 11.7188C163.516 11.9141 163.281 12.0117 163.008 12.0117C162.734 12.0117 162.5 12.1094 162.305 12.3047C162.109 12.5 162.012 12.7344 162.012 13.0078V15C162.012 15.2865 161.914 15.5273 161.719 15.7227C161.523 15.918 161.289 16.0156 161.016 16.0156C160.729 16.0156 160.488 16.1133 160.293 16.3086C160.098 16.5039 160 16.7383 160 17.0117C160 17.2852 159.902 17.5195 159.707 17.7148C159.512 17.9102 159.277 18.0078 159.004 18.0078H153.008C152.734 18.0078 152.5 17.9102 152.305 17.7148C152.109 17.5195 152.012 17.2852 152.012 17.0117C152.012 16.7383 151.914 16.5039 151.719 16.3086C151.523 16.1133 151.289 16.0156 151.016 16.0156H150H148.945C148.698 16.0286 148.483 16.1263 148.301 16.3086C148.105 16.5039 148.008 16.7383 148.008 17.0117V19.0039C148.008 19.2773 148.105 19.5182 148.301 19.7266C148.496 19.9089 148.73 20 149.004 20H151.016C151.289 20 151.523 20.0977 151.719 20.293C151.914 20.5013 152.012 20.7422 152.012 21.0156C152.012 21.2891 151.914 21.5234 151.719 21.7188C151.523 21.9141 151.289 22.0117 151.016 22.0117H149.004C148.73 22.0117 148.496 21.9141 148.301 21.7188C148.105 21.5234 148.008 21.2891 148.008 21.0156C148.008 20.7422 147.91 20.5013 147.715 20.293C147.52 20.0977 147.285 20 147.012 20C146.738 20 146.497 19.9089 146.289 19.7266C146.107 19.5182 146.016 19.2773 146.016 19.0039V17.0117C146.016 16.7383 146.107 16.5039 146.289 16.3086C146.497 16.1133 146.738 16.0156 147.012 16.0156C147.285 16.0156 147.52 15.918 147.715 15.7227C147.91 15.5273 148.008 15.2865 148.008 15V15.0195C148.008 14.7331 148.105 14.4922 148.301 14.2969C148.496 14.1016 148.73 14.0039 149.004 14.0039C149.277 14.0039 149.512 13.9062 149.707 13.7109C149.902 13.5156 150 13.2812 150 13.0078C150 12.7344 150.098 12.5 150.293 12.3047C150.488 12.1094 150.729 12.0117 151.016 12.0117H155C155.273 12.0117 155.514 12.1094 155.723 12.3047C155.918 12.5 156.016 12.7344 156.016 13.0078C156.016 13.2812 156.107 13.5156 156.289 13.7109C156.497 13.9062 156.738 14.0039 157.012 14.0039H159.004C159.277 14.0039 159.512 13.9062 159.707 13.7109C159.902 13.5156 160 13.2812 160 13.0078C160 12.7344 160.098 12.5 160.293 12.3047C160.488 12.1094 160.729 12.0117 161.016 12.0117C161.289 12.0117 161.523 11.9141 161.719 11.7188C161.914 11.5234 162.012 11.2891 162.012 11.0156V9.00391C162.012 8.73047 161.914 8.49609 161.719 8.30078C161.523 8.10547 161.289 8.00781 161.016 8.00781C160.729 8.00781 160.488 7.91016 160.293 7.71484C160.098 7.51953 160 7.28516 160 7.01172C160 6.73828 159.902 6.50391 159.707 6.30859C159.512 6.11328 159.277 6.01562 159.004 6.01562C158.73 6.01562 158.496 5.91797 158.301 5.72266C158.105 5.52734 158.008 5.28646 158.008 5C158.008 4.72656 157.91 4.49219 157.715 4.29688C157.52 4.10156 157.285 4.00391 157.012 4.00391H153.008C152.734 4.00391 152.5 3.90625 152.305 3.71094C152.109 3.51562 152.012 3.28125 152.012 3.00781C152.012 2.73438 151.914 2.5 151.719 2.30469C151.523 2.10938 151.289 2.01172 151.016 2.01172H148.008H146.934C146.686 2.02474 146.471 2.1224 146.289 2.30469C146.107 2.5 146.016 2.73438 146.016 3.00781C146.016 3.28125 145.918 3.51562 145.723 3.71094C145.514 3.90625 145.273 4.00391 145 4.00391C144.727 4.00391 144.492 4.10156 144.297 4.29688C144.102 4.49219 144.004 4.72656 144.004 5V7.01172C144.004 7.28516 143.906 7.51953 143.711 7.71484C143.516 7.91016 143.281 8.00781 143.008 8.00781C142.734 8.00781 142.5 8.10547 142.305 8.30078C142.109 8.49609 142.012 8.73047 142.012 9.00391V19.0039C142.012 19.2773 142.109 19.5182 142.305 19.7266C142.5 19.9089 142.734 20 143.008 20C143.281 20 143.516 20.0977 143.711 20.293C143.906 20.5013 144.004 20.7422 144.004 21.0156V23.0078C144.004 23.2812 144.102 23.5156 144.297 23.7109C144.492 23.9062 144.727 24.0039 145 24.0039C145.273 24.0039 145.514 24.1016 145.723 24.2969C145.918 24.4922 146.016 24.7266 146.016 25C146.016 25.2865 146.107 25.5273 146.289 25.7227C146.497 25.918 146.738 26.0156 147.012 26.0156C147.285 26.0156 147.52 26.1133 147.715 26.3086C147.91 26.5039 148.008 26.7383 148.008 27.0117C148.008 27.2852 148.105 27.5195 148.301 27.7148C148.496 27.9102 148.73 28.0078 149.004 28.0078H153.008C153.281 28.0078 153.516 27.9102 153.711 27.7148C153.906 27.5195 154.004 27.2852 154.004 27.0117C154.004 26.7383 154.102 26.5039 154.297 26.3086C154.492 26.1133 154.727 26.0156 155 26.0156H157.012C157.285 26.0156 157.52 25.918 157.715 25.7227C157.91 25.5273 158.008 25.2865 158.008 25V25.0195C158.008 24.7331 158.105 24.4922 158.301 24.2969C158.496 24.1016 158.73 24.0039 159.004 24.0039C159.277 24.0039 159.512 23.9062 159.707 23.7109C159.902 23.5156 160 23.2812 160 23.0078C160 22.7344 160.098 22.5 160.293 22.3047C160.488 22.1094 160.729 22.0117 161.016 22.0117C161.289 22.0117 161.523 21.9141 161.719 21.7188C161.914 21.5234 162.012 21.2891 162.012 21.0156C162.012 20.7422 162.109 20.5013 162.305 20.293C162.5 20.0977 162.734 20 163.008 20C163.281 20 163.516 20.0977 163.711 20.293C163.906 20.5013 164.004 20.7422 164.004 21.0156C164.004 21.2891 163.906 21.5234 163.711 21.7188C163.516 21.9141 163.281 22.0117 163.008 22.0117C162.734 22.0117 162.5 22.1094 162.305 22.3047C162.109 22.5 162.012 22.7344 162.012 23.0078V25C162.012 25.2865 161.914 25.5273 161.719 25.7227C161.523 25.918 161.289 26.0156 161.016 26.0156C160.729 26.0156 160.488 26.1133 160.293 26.3086C160.098 26.5039 160 26.7383 160 27.0117C160 27.2852 159.902 27.5195 159.707 27.7148C159.512 27.9102 159.277 28.0078 159.004 28.0078H156.016H154.941C154.694 28.0208 154.479 28.1185 154.297 28.3008C154.102 28.4961 154.004 28.7305 154.004 29.0039C154.004 29.2773 153.906 29.5182 153.711 29.7266C153.516 29.9089 153.281 30 153.008 30H147.012ZM183.008 12.0117C183.281 12.0117 183.516 11.9141 183.711 11.7188C183.906 11.5234 184.004 11.2891 184.004 11.0156V5C184.004 4.72656 183.906 4.49219 183.711 4.29688C183.529 4.1276 183.314 4.02995 183.066 4.00391H182.93C182.682 4.02995 182.474 4.1276 182.305 4.29688C182.109 4.49219 182.012 4.72656 182.012 5V11.0156C182.012 11.2891 182.109 11.5234 182.305 11.7188C182.5 11.9141 182.734 12.0117 183.008 12.0117ZM177.012 30C176.738 30 176.497 29.9089 176.289 29.7266C176.107 29.5182 176.016 29.2773 176.016 29.0039C176.016 28.7305 175.918 28.4961 175.723 28.3008C175.514 28.1055 175.273 28.0078 175 28.0078C174.727 28.0078 174.492 27.9102 174.297 27.7148C174.102 27.5195 174.004 27.2852 174.004 27.0117C174.004 26.7383 173.906 26.5039 173.711 26.3086C173.516 26.1133 173.281 26.0156 173.008 26.0156H171.016C170.729 26.0156 170.488 25.918 170.293 25.7227C170.098 25.5273 170 25.2865 170 25C170 24.7266 170.098 24.4922 170.293 24.2969C170.488 24.1016 170.729 24.0039 171.016 24.0039C171.289 24.0039 171.523 23.9062 171.719 23.7109C171.914 23.5156 172.012 23.2812 172.012 23.0078C172.012 22.7344 172.109 22.5 172.305 22.3047C172.5 22.1094 172.734 22.0117 173.008 22.0117C173.281 22.0117 173.516 21.9141 173.711 21.7188C173.906 21.5234 174.004 21.2891 174.004 21.0156C174.004 20.7422 174.102 20.5078 174.297 20.3125C174.492 20.1042 174.727 20 175 20C175.273 20 175.514 19.9089 175.723 19.7266C175.918 19.5182 176.016 19.2773 176.016 19.0039V9.00391C176.016 8.73047 176.107 8.49609 176.289 8.30078C176.497 8.10547 176.738 8.00781 177.012 8.00781C177.285 8.00781 177.52 7.91016 177.715 7.71484C177.91 7.51953 178.008 7.28516 178.008 7.01172V5C178.008 4.72656 177.91 4.49219 177.715 4.29688C177.52 4.10156 177.285 4.00391 177.012 4.00391H175C174.727 4.00391 174.492 3.90625 174.297 3.71094C174.102 3.51562 174.004 3.28125 174.004 3.00781C174.004 2.73438 173.906 2.5 173.711 2.30469C173.516 2.10938 173.281 2.01172 173.008 2.01172H172.012H170.938C170.69 2.02474 170.475 2.1224 170.293 2.30469C170.098 2.5 170 2.73438 170 3.00781C170 3.28125 169.902 3.51562 169.707 3.71094C169.512 3.90625 169.277 4.00391 169.004 4.00391C168.73 4.00391 168.496 4.10156 168.301 4.29688C168.105 4.49219 168.008 4.72656 168.008 5C168.008 5.28646 168.105 5.52734 168.301 5.72266C168.496 5.91797 168.73 6.01562 169.004 6.01562C169.277 6.01562 169.512 6.11328 169.707 6.30859C169.902 6.50391 170 6.73828 170 7.01172C170 7.28516 170.098 7.51953 170.293 7.71484C170.488 7.91016 170.729 8.00781 171.016 8.00781C171.289 8.00781 171.523 8.10547 171.719 8.30078C171.914 8.49609 172.012 8.73047 172.012 9.00391V11.0156C172.012 11.2891 172.109 11.5234 172.305 11.7188C172.5 11.9141 172.734 12.0117 173.008 12.0117C173.281 12.0117 173.516 12.1094 173.711 12.3047C173.906 12.5 174.004 12.7344 174.004 13.0078V17.0117C174.004 17.2852 173.906 17.5195 173.711 17.7148C173.516 17.9102 173.281 18.0078 173.008 18.0078C172.734 18.0078 172.5 18.1055 172.305 18.3008C172.109 18.4961 172.012 18.7305 172.012 19.0039C172.012 19.2773 171.914 19.5182 171.719 19.7266C171.523 19.9089 171.289 20 171.016 20H170V20.0195H168.945C168.698 20.0326 168.483 20.1237 168.301 20.293C168.105 20.5013 168.008 20.7422 168.008 21.0156C168.008 21.2891 167.91 21.5234 167.715 21.7188C167.52 21.9141 167.285 22.0117 167.012 22.0117C166.738 22.0117 166.497 21.9141 166.289 21.7188C166.107 21.5234 166.016 21.2891 166.016 21.0156C166.016 20.7422 166.107 20.5013 166.289 20.293C166.497 20.0977 166.738 20 167.012 20C167.285 20 167.52 19.9089 167.715 19.7266C167.91 19.5182 168.008 19.2773 168.008 19.0039C168.008 18.7305 168.105 18.4961 168.301 18.3008C168.496 18.1055 168.73 18.0078 169.004 18.0078C169.277 18.0078 169.512 17.9102 169.707 17.7148C169.902 17.5195 170 17.2852 170 17.0117C170 16.7383 169.902 16.5039 169.707 16.3086C169.512 16.1133 169.277 16.0156 169.004 16.0156C168.73 16.0156 168.496 15.918 168.301 15.7227C168.105 15.5273 168.008 15.2865 168.008 15V13.0078C168.008 12.7344 167.91 12.5 167.715 12.3047C167.52 12.1094 167.285 12.0117 167.012 12.0117C166.738 12.0117 166.497 11.9141 166.289 11.7188C166.107 11.5234 166.016 11.2891 166.016 11.0156V5.01953C166.016 4.73307 166.107 4.49219 166.289 4.29688C166.497 4.10156 166.738 4.00391 167.012 4.00391C167.285 4.00391 167.52 3.90625 167.715 3.71094C167.91 3.51562 168.008 3.28125 168.008 3.00781C168.008 2.73438 168.105 2.5 168.301 2.30469C168.496 2.10938 168.73 2.01172 169.004 2.01172C169.277 2.01172 169.512 1.91406 169.707 1.71875C169.902 1.52344 170 1.28906 170 1.01562C170 0.742188 170.098 0.507812 170.293 0.3125C170.488 0.104167 170.729 0 171.016 0H175C175.273 0 175.514 0.0976562 175.723 0.292969C175.918 0.501302 176.016 0.742188 176.016 1.01562C176.016 1.28906 176.107 1.52344 176.289 1.71875C176.497 1.91406 176.738 2.01172 177.012 2.01172H179.004C179.277 2.01172 179.512 2.10938 179.707 2.30469C179.902 2.5 180 2.73438 180 3.00781C180 3.28125 180.098 3.51562 180.293 3.71094C180.488 3.90625 180.729 4.00391 181.016 4.00391C181.289 4.00391 181.523 3.90625 181.719 3.71094C181.914 3.51562 182.012 3.28125 182.012 3.00781C182.012 2.73438 182.109 2.5 182.305 2.30469C182.5 2.10938 182.734 2.01172 183.008 2.01172H191.016C191.289 2.01172 191.523 1.91406 191.719 1.71875C191.914 1.52344 192.012 1.28906 192.012 1.01562C192.012 0.742188 192.109 0.501302 192.305 0.292969C192.5 0.0976562 192.734 0 193.008 0C193.281 0 193.516 0.0976562 193.711 0.292969C193.906 0.501302 194.004 0.742188 194.004 1.01562C194.004 1.28906 193.906 1.52344 193.711 1.71875C193.516 1.91406 193.281 2.01172 193.008 2.01172C192.734 2.01172 192.5 2.10938 192.305 2.30469C192.109 2.5 192.012 2.73438 192.012 3.00781C192.012 3.28125 191.914 3.51562 191.719 3.71094C191.523 3.90625 191.289 4.00391 191.016 4.00391C190.729 4.00391 190.488 4.10156 190.293 4.29688C190.098 4.49219 190 4.72656 190 5V21.0156C190 21.2891 190.098 21.5234 190.293 21.7188C190.488 21.9141 190.729 22.0117 191.016 22.0117C191.289 22.0117 191.523 22.1094 191.719 22.3047C191.914 22.5 192.012 22.7344 192.012 23.0078C192.012 23.2812 192.109 23.5156 192.305 23.7109C192.5 23.9062 192.734 24.0039 193.008 24.0039C193.281 24.0039 193.516 24.1016 193.711 24.2969C193.906 24.4922 194.004 24.7266 194.004 25C194.004 25.2865 193.906 25.5273 193.711 25.7227C193.516 25.918 193.281 26.0156 193.008 26.0156C192.734 26.0156 192.5 26.1133 192.305 26.3086C192.109 26.5039 192.012 26.7383 192.012 27.0117C192.012 27.2852 191.914 27.5195 191.719 27.7148C191.523 27.9102 191.289 28.0078 191.016 28.0078C190.729 28.0078 190.488 28.1055 190.293 28.3008C190.098 28.4961 190 28.7305 190 29.0039C190 29.2773 189.902 29.5182 189.707 29.7266C189.512 29.9089 189.277 30 189.004 30C188.73 30 188.496 29.9089 188.301 29.7266C188.105 29.5182 188.008 29.2773 188.008 29.0039V27.0117C188.008 26.7383 187.91 26.5039 187.715 26.3086C187.52 26.1133 187.285 26.0156 187.012 26.0156C186.738 26.0156 186.497 25.918 186.289 25.7227C186.107 25.5273 186.016 25.2865 186.016 25V23.0078C186.016 22.7344 185.918 22.5 185.723 22.3047C185.514 22.1094 185.273 22.0117 185 22.0117C184.727 22.0117 184.492 21.9141 184.297 21.7188C184.102 21.5234 184.004 21.2891 184.004 21.0156V15C184.004 14.7266 183.906 14.4922 183.711 14.2969C183.516 14.1016 183.281 14.0039 183.008 14.0039C182.734 14.0039 182.5 14.1016 182.305 14.2969C182.109 14.4922 182.012 14.7266 182.012 15V17.0117C182.012 17.2852 181.914 17.5195 181.719 17.7148C181.523 17.9102 181.289 18.0078 181.016 18.0078C180.729 18.0078 180.488 18.1055 180.293 18.3008C180.098 18.4961 180 18.7305 180 19.0039C180 19.2773 179.902 19.5182 179.707 19.7266C179.512 19.9089 179.277 20 179.004 20C178.73 20 178.496 20.0977 178.301 20.293C178.105 20.5013 178.008 20.7422 178.008 21.0156C178.008 21.2891 177.91 21.5234 177.715 21.7188C177.52 21.9141 177.285 22.0117 177.012 22.0117C176.738 22.0117 176.497 22.1094 176.289 22.3047C176.107 22.5 176.016 22.7344 176.016 23.0078C176.016 23.2812 176.107 23.5156 176.289 23.7109C176.497 23.9062 176.738 24.0039 177.012 24.0039H179.004C179.277 24.0039 179.512 24.1016 179.707 24.2969C179.902 24.4922 180 24.7266 180 25V27.0117C180 27.2852 179.902 27.5195 179.707 27.7148C179.512 27.9102 179.277 28.0078 179.004 28.0078C178.73 28.0078 178.496 28.1055 178.301 28.3008C178.105 28.4961 178.008 28.7305 178.008 29.0039C178.008 29.2773 177.91 29.5182 177.715 29.7266C177.52 29.9089 177.285 30 177.012 30ZM215 14.0039C215.273 14.0039 215.514 13.9062 215.723 13.7109C215.918 13.5156 216.016 13.2812 216.016 13.0078C216.016 12.7344 216.107 12.5 216.289 12.3047C216.497 12.1094 216.738 12.0117 217.012 12.0117H219.004C219.277 12.0117 219.512 11.9141 219.707 11.7188C219.902 11.5234 220 11.2891 220 11.0156C220 10.7422 219.902 10.5013 219.707 10.293C219.512 10.0977 219.277 10 219.004 10C218.73 10 218.496 9.90885 218.301 9.72656C218.105 9.51823 218.008 9.27734 218.008 9.00391V7.01172C218.008 6.73828 217.91 6.50391 217.715 6.30859C217.52 6.11328 217.285 6.01562 217.012 6.01562C216.738 6.01562 216.497 5.91797 216.289 5.72266C216.107 5.52734 216.016 5.28646 216.016 5V3.00781C216.016 2.73438 215.918 2.5 215.723 2.30469C215.54 2.1224 215.326 2.02474 215.078 2.01172H214.941C214.694 2.02474 214.479 2.1224 214.297 2.30469C214.102 2.5 214.004 2.73438 214.004 3.00781C214.004 3.28125 213.906 3.51562 213.711 3.71094C213.516 3.90625 213.281 4.00391 213.008 4.00391C212.734 4.00391 212.5 4.10156 212.305 4.29688C212.109 4.49219 212.012 4.72656 212.012 5C212.012 5.28646 212.109 5.52734 212.305 5.72266C212.5 5.91797 212.734 6.01562 213.008 6.01562C213.281 6.01562 213.516 6.11328 213.711 6.30859C213.906 6.50391 214.004 6.73828 214.004 7.01172V13.0078C214.004 13.2812 214.102 13.5156 214.297 13.7109C214.492 13.9062 214.727 14.0039 215 14.0039ZM197.012 30C196.738 30 196.497 29.9089 196.289 29.7266C196.107 29.5182 196.016 29.2773 196.016 29.0039C196.016 28.7305 196.107 28.4961 196.289 28.3008C196.497 28.1055 196.738 28.0078 197.012 28.0078C197.285 28.0078 197.52 27.9102 197.715 27.7148C197.91 27.5195 198.008 27.2852 198.008 27.0117V25.0195C198.008 24.7331 198.105 24.4922 198.301 24.2969C198.496 24.1016 198.73 24.0039 199.004 24.0039C199.277 24.0039 199.512 23.9062 199.707 23.7109C199.902 23.5156 200 23.2812 200 23.0078C200 22.7344 200.098 22.5 200.293 22.3047C200.488 22.1094 200.729 22.0117 201.016 22.0117H203.008C203.281 22.0117 203.516 22.1094 203.711 22.3047C203.906 22.5 204.004 22.7344 204.004 23.0078C204.004 23.2812 204.102 23.5156 204.297 23.7109C204.492 23.9062 204.727 24.0039 205 24.0039H207.012C207.285 24.0039 207.52 23.9062 207.715 23.7109C207.91 23.5156 208.008 23.2812 208.008 23.0078V7.01172C208.008 6.73828 207.91 6.50391 207.715 6.30859C207.52 6.11328 207.285 6.01562 207.012 6.01562C206.738 6.01562 206.497 5.91797 206.289 5.72266C206.107 5.52734 206.016 5.28646 206.016 5V3.00781C206.016 2.73438 205.918 2.5 205.723 2.30469C205.514 2.10938 205.273 2.01172 205 2.01172H202.012H200.938C200.69 2.02474 200.475 2.1224 200.293 2.30469C200.098 2.5 200 2.73438 200 3.00781V7.01172C200 7.28516 200.098 7.51953 200.293 7.71484C200.488 7.91016 200.729 8.00781 201.016 8.00781C201.289 8.00781 201.523 8.10547 201.719 8.30078C201.914 8.49609 202.012 8.73047 202.012 9.00391C202.012 9.27734 202.109 9.51823 202.305 9.72656C202.5 9.90885 202.734 10 203.008 10C203.281 10 203.516 10.0977 203.711 10.293C203.906 10.5013 204.004 10.7422 204.004 11.0156V17.0117C204.004 17.2852 203.906 17.5195 203.711 17.7148C203.516 17.9102 203.281 18.0078 203.008 18.0078C202.734 18.0078 202.5 18.1055 202.305 18.3008C202.109 18.4961 202.012 18.7305 202.012 19.0039C202.012 19.2773 201.914 19.5182 201.719 19.7266C201.523 19.9089 201.289 20 201.016 20C200.729 20 200.488 19.9089 200.293 19.7266C200.098 19.5182 200 19.2773 200 19.0039C200 18.7305 200.098 18.4961 200.293 18.3008C200.488 18.1055 200.729 18.0078 201.016 18.0078C201.289 18.0078 201.523 17.9102 201.719 17.7148C201.914 17.5195 202.012 17.2852 202.012 17.0117C202.012 16.7383 201.914 16.5039 201.719 16.3086C201.523 16.1133 201.289 16.0156 201.016 16.0156C200.729 16.0156 200.488 15.918 200.293 15.7227C200.098 15.5273 200 15.2865 200 15C200 14.7266 199.902 14.4922 199.707 14.2969C199.512 14.1016 199.277 14.0039 199.004 14.0039C198.73 14.0039 198.496 13.9062 198.301 13.7109C198.105 13.5156 198.008 13.2812 198.008 13.0078C198.008 12.7344 197.91 12.5 197.715 12.3047C197.52 12.1094 197.285 12.0117 197.012 12.0117C196.738 12.0117 196.497 11.9141 196.289 11.7188C196.107 11.5234 196.016 11.2891 196.016 11.0156V7.01172C196.016 6.73828 196.107 6.50391 196.289 6.30859C196.497 6.11328 196.738 6.01562 197.012 6.01562C197.285 6.01562 197.52 5.91797 197.715 5.72266C197.91 5.52734 198.008 5.28646 198.008 5V3.00781C198.008 2.73438 198.105 2.5 198.301 2.30469C198.496 2.10938 198.73 2.01172 199.004 2.01172C199.277 2.01172 199.512 1.91406 199.707 1.71875C199.902 1.52344 200 1.28906 200 1.01562C200 0.742188 200.098 0.507812 200.293 0.3125C200.488 0.104167 200.729 0 201.016 0H207.012C207.285 0 207.52 0.0976562 207.715 0.292969C207.91 0.501302 208.008 0.742188 208.008 1.01562C208.008 1.28906 208.105 1.52344 208.301 1.71875C208.496 1.91406 208.73 2.01172 209.004 2.01172C209.277 2.01172 209.512 2.10938 209.707 2.30469C209.902 2.5 210 2.73438 210 3.00781C210 3.28125 210.098 3.51562 210.293 3.71094C210.488 3.90625 210.729 4.00391 211.016 4.00391C211.289 4.00391 211.523 3.90625 211.719 3.71094C211.914 3.51562 212.012 3.28125 212.012 3.00781C212.012 2.73438 212.109 2.5 212.305 2.30469C212.5 2.10938 212.734 2.01172 213.008 2.01172C213.281 2.01172 213.516 1.91406 213.711 1.71875C213.906 1.52344 214.004 1.28906 214.004 1.01562C214.004 0.742188 214.102 0.507812 214.297 0.3125C214.492 0.104167 214.727 0 215 0H219.004C219.277 0 219.512 0.0976562 219.707 0.292969C219.902 0.501302 220 0.742188 220 1.01562C220 1.28906 220.098 1.52344 220.293 1.71875C220.488 1.91406 220.729 2.01172 221.016 2.01172C221.289 2.01172 221.523 2.10938 221.719 2.30469C221.914 2.5 222.012 2.73438 222.012 3.00781C222.012 3.28125 222.109 3.51562 222.305 3.71094C222.5 3.90625 222.734 4.00391 223.008 4.00391C223.281 4.00391 223.516 4.10156 223.711 4.29688C223.906 4.49219 224.004 4.72656 224.004 5V9.00391C224.004 9.27734 223.906 9.51823 223.711 9.72656C223.516 9.90885 223.281 10 223.008 10C222.734 10 222.5 10.0977 222.305 10.293C222.109 10.5013 222.012 10.7422 222.012 11.0156C222.012 11.2891 221.914 11.5234 221.719 11.7188C221.523 11.9141 221.289 12.0117 221.016 12.0117C220.729 12.0117 220.488 12.1094 220.293 12.3047C220.098 12.5 220 12.7344 220 13.0078C220 13.2812 220.098 13.5156 220.293 13.7109C220.488 13.9062 220.729 14.0039 221.016 14.0039C221.289 14.0039 221.523 14.1016 221.719 14.2969C221.914 14.4922 222.012 14.7266 222.012 15V21.0156C222.012 21.2891 222.109 21.5234 222.305 21.7188C222.5 21.9141 222.734 22.0117 223.008 22.0117C223.281 22.0117 223.516 22.1094 223.711 22.3047C223.906 22.5 224.004 22.7344 224.004 23.0078C224.004 23.2812 224.102 23.5156 224.297 23.7109C224.492 23.9062 224.727 24.0039 225 24.0039C225.273 24.0039 225.514 24.1016 225.723 24.2969C225.918 24.4922 226.016 24.7266 226.016 25C226.016 25.2865 225.918 25.5273 225.723 25.7227C225.514 25.918 225.273 26.0156 225 26.0156C224.727 26.0156 224.492 26.1133 224.297 26.3086C224.102 26.5039 224.004 26.7383 224.004 27.0117C224.004 27.2852 223.906 27.5195 223.711 27.7148C223.516 27.9102 223.281 28.0078 223.008 28.0078C222.734 28.0078 222.5 28.1055 222.305 28.3008C222.109 28.4961 222.012 28.7305 222.012 29.0039C222.012 29.2773 221.914 29.5182 221.719 29.7266C221.523 29.9089 221.289 30 221.016 30C220.729 30 220.488 29.9089 220.293 29.7266C220.098 29.5182 220 29.2773 220 29.0039C220 28.7305 219.902 28.4961 219.707 28.3008C219.512 28.1055 219.277 28.0078 219.004 28.0078C218.73 28.0078 218.496 27.9102 218.301 27.7148C218.105 27.5195 218.008 27.2852 218.008 27.0117V25C218.008 24.7266 217.91 24.4922 217.715 24.2969C217.52 24.1016 217.285 24.0039 217.012 24.0039C216.738 24.0039 216.497 23.9062 216.289 23.7109C216.107 23.5156 216.016 23.2812 216.016 23.0078V17.0117C216.016 16.7383 215.918 16.5039 215.723 16.3086C215.514 16.1133 215.273 16.0156 215 16.0156C214.727 16.0156 214.492 16.1133 214.297 16.3086C214.102 16.5039 214.004 16.7383 214.004 17.0117C214.004 17.2852 213.906 17.5195 213.711 17.7148C213.516 17.9102 213.281 18.0078 213.008 18.0078C212.734 18.0078 212.5 18.1055 212.305 18.3008C212.109 18.4961 212.012 18.7305 212.012 19.0039C212.012 19.2773 211.914 19.5182 211.719 19.7266C211.523 19.9089 211.289 20 211.016 20C210.729 20 210.488 20.0977 210.293 20.293C210.098 20.5013 210 20.7422 210 21.0156V23.0078C210 23.2812 209.902 23.5156 209.707 23.7109C209.512 23.9062 209.277 24.0039 209.004 24.0039C208.73 24.0039 208.496 24.1016 208.301 24.2969C208.105 24.4922 208.008 24.7266 208.008 25C208.008 25.2865 207.91 25.5273 207.715 25.7227C207.52 25.918 207.285 26.0156 207.012 26.0156C206.738 26.0156 206.497 26.1133 206.289 26.3086C206.107 26.5039 206.016 26.7383 206.016 27.0117V29.0039C206.016 29.2773 205.918 29.5182 205.723 29.7266C205.514 29.9089 205.273 30 205 30C204.727 30 204.492 29.9089 204.297 29.7266C204.102 29.5182 204.004 29.2773 204.004 29.0039C204.004 28.7305 203.906 28.4961 203.711 28.3008C203.516 28.1055 203.281 28.0078 203.008 28.0078H199.004C198.73 28.0078 198.496 28.1055 198.301 28.3008C198.105 28.4961 198.008 28.7305 198.008 29.0039C198.008 29.2773 197.91 29.5182 197.715 29.7266C197.52 29.9089 197.285 30 197.012 30ZM236.992 30C236.719 30 236.484 29.9089 236.289 29.7266C236.094 29.5182 235.996 29.2773 235.996 29.0039C235.996 28.7305 235.898 28.4961 235.703 28.3008C235.508 28.1055 235.273 28.0078 235 28.0078H233.008C232.721 28.0078 232.48 27.9102 232.285 27.7148C232.09 27.5195 231.992 27.2852 231.992 27.0117C231.992 26.7383 231.895 26.5039 231.699 26.3086C231.504 26.1133 231.27 26.0156 230.996 26.0156C230.723 26.0156 230.488 25.918 230.293 25.7227C230.098 25.5273 230 25.2865 230 25V21.0156C230 20.7422 229.902 20.5013 229.707 20.293C229.512 20.0977 229.277 20 229.004 20C228.73 20 228.49 19.9089 228.281 19.7266C228.099 19.5182 228.008 19.2773 228.008 19.0039V11.0156C228.008 10.7422 228.099 10.5078 228.281 10.3125C228.49 10.1042 228.73 10 229.004 10C229.277 10 229.512 9.90885 229.707 9.72656C229.902 9.51823 230 9.27734 230 9.00391V7.01172C230 6.73828 230.098 6.50391 230.293 6.30859C230.488 6.11328 230.723 6.01562 230.996 6.01562C231.27 6.01562 231.504 5.91797 231.699 5.72266C231.895 5.52734 231.992 5.28646 231.992 5V5.01953C231.992 4.73307 232.09 4.49219 232.285 4.29688C232.48 4.10156 232.721 4.00391 233.008 4.00391C233.281 4.00391 233.516 3.90625 233.711 3.71094C233.906 3.51562 234.004 3.28125 234.004 3.00781C234.004 2.73438 234.102 2.5 234.297 2.30469C234.492 2.10938 234.727 2.01172 235 2.01172C235.273 2.01172 235.508 1.91406 235.703 1.71875C235.898 1.52344 235.996 1.28906 235.996 1.01562C235.996 0.742188 236.094 0.507812 236.289 0.3125C236.484 0.104167 236.719 0 236.992 0H240.996C241.27 0 241.504 0.0976562 241.699 0.292969C241.895 0.501302 241.992 0.742188 241.992 1.01562C241.992 1.28906 242.09 1.52344 242.285 1.71875C242.48 1.91406 242.721 2.01172 243.008 2.01172C243.281 2.01172 243.516 2.10938 243.711 2.30469C243.906 2.5 244.004 2.73438 244.004 3.00781C244.004 3.28125 244.102 3.51562 244.297 3.71094C244.492 3.90625 244.727 4.00391 245 4.00391C245.273 4.00391 245.508 3.90625 245.703 3.71094C245.898 3.51562 245.996 3.28125 245.996 3.00781C245.996 2.73438 246.094 2.5 246.289 2.30469C246.484 2.10938 246.719 2.01172 246.992 2.01172H249.004C249.277 2.01172 249.512 1.91406 249.707 1.71875C249.902 1.52344 250 1.28906 250 1.01562C250 0.742188 250.098 0.501302 250.293 0.292969C250.488 0.0976562 250.723 0 250.996 0C251.27 0 251.504 0.0976562 251.699 0.292969C251.895 0.501302 251.992 0.742188 251.992 1.01562V5C251.992 5.28646 251.895 5.52734 251.699 5.72266C251.504 5.91797 251.27 6.01562 250.996 6.01562C250.723 6.01562 250.488 6.11328 250.293 6.30859C250.098 6.50391 250 6.73828 250 7.01172C250 7.28516 249.902 7.51953 249.707 7.71484C249.512 7.91016 249.277 8.00781 249.004 8.00781H246.992C246.719 8.00781 246.484 7.91016 246.289 7.71484C246.094 7.51953 245.996 7.28516 245.996 7.01172C245.996 6.73828 245.898 6.50391 245.703 6.30859C245.508 6.11328 245.273 6.01562 245 6.01562C244.727 6.01562 244.492 5.91797 244.297 5.72266C244.102 5.52734 244.004 5.28646 244.004 5C244.004 4.72656 243.906 4.49219 243.711 4.29688C243.516 4.10156 243.281 4.00391 243.008 4.00391C242.721 4.00391 242.48 3.90625 242.285 3.71094C242.09 3.51562 241.992 3.28125 241.992 3.00781C241.992 2.73438 241.895 2.5 241.699 2.30469C241.504 2.10938 241.27 2.01172 240.996 2.01172H239.004C238.73 2.01172 238.49 2.10938 238.281 2.30469C238.099 2.5 238.008 2.73438 238.008 3.00781C238.008 3.28125 237.91 3.51562 237.715 3.71094C237.507 3.90625 237.266 4.00391 236.992 4.00391C236.719 4.00391 236.484 4.10156 236.289 4.29688C236.094 4.49219 235.996 4.72656 235.996 5V7.01172C235.996 7.28516 235.898 7.51953 235.703 7.71484C235.508 7.91016 235.273 8.00781 235 8.00781C234.727 8.00781 234.492 8.10547 234.297 8.30078C234.102 8.49609 234.004 8.73047 234.004 9.00391V15C234.004 15.2865 234.102 15.5273 234.297 15.7227C234.492 15.918 234.727 16.0156 235 16.0156C235.273 16.0156 235.508 15.918 235.703 15.7227C235.898 15.5273 235.996 15.2865 235.996 15V15.0195C235.996 14.7331 236.094 14.4922 236.289 14.2969C236.484 14.1016 236.719 14.0039 236.992 14.0039C237.266 14.0039 237.507 13.9062 237.715 13.7109C237.91 13.5156 238.008 13.2812 238.008 13.0078C238.008 12.7344 238.099 12.5 238.281 12.3047C238.49 12.1094 238.73 12.0117 239.004 12.0117C239.277 12.0117 239.512 11.9141 239.707 11.7188C239.902 11.5234 240 11.2891 240 11.0156C240 10.7422 240.098 10.5078 240.293 10.3125C240.488 10.1042 240.723 10 240.996 10H243.008C243.281 10 243.516 10.0977 243.711 10.293C243.906 10.5013 244.004 10.7422 244.004 11.0156C244.004 11.2891 244.102 11.5234 244.297 11.7188C244.492 11.9141 244.727 12.0117 245 12.0117H246.992C247.266 12.0117 247.507 12.1094 247.715 12.3047C247.91 12.5 248.008 12.7344 248.008 13.0078C248.008 13.2812 248.099 13.5156 248.281 13.7109C248.49 13.9062 248.73 14.0039 249.004 14.0039C249.277 14.0039 249.512 13.9062 249.707 13.7109C249.902 13.5156 250 13.2812 250 13.0078C250 12.7344 250.098 12.5 250.293 12.3047C250.488 12.1094 250.723 12.0117 250.996 12.0117C251.27 12.0117 251.504 12.1094 251.699 12.3047C251.895 12.5 251.992 12.7344 251.992 13.0078C251.992 13.2812 251.895 13.5156 251.699 13.7109C251.504 13.9062 251.27 14.0039 250.996 14.0039C250.723 14.0039 250.488 14.1016 250.293 14.2969C250.098 14.4922 250 14.7266 250 15C250 15.2865 249.902 15.5273 249.707 15.7227C249.512 15.918 249.277 16.0156 249.004 16.0156C248.73 16.0156 248.49 16.1133 248.281 16.3086C248.099 16.5039 248.008 16.7383 248.008 17.0117C248.008 17.2852 247.91 17.5195 247.715 17.7148C247.507 17.9102 247.266 18.0078 246.992 18.0078H243.008C242.721 18.0078 242.48 17.9102 242.285 17.7148C242.09 17.5195 241.992 17.2852 241.992 17.0117C241.992 16.7383 241.895 16.5039 241.699 16.3086C241.504 16.1133 241.27 16.0156 240.996 16.0156H238.008H236.934C236.686 16.0286 236.471 16.1263 236.289 16.3086C236.094 16.5039 235.996 16.7383 235.996 17.0117V23.0078C235.996 23.2812 236.094 23.5156 236.289 23.7109C236.484 23.9062 236.719 24.0039 236.992 24.0039C237.266 24.0039 237.507 24.1016 237.715 24.2969C237.91 24.4922 238.008 24.7266 238.008 25C238.008 25.2865 238.099 25.5273 238.281 25.7227C238.49 25.918 238.73 26.0156 239.004 26.0156C239.277 26.0156 239.512 26.1133 239.707 26.3086C239.902 26.5039 240 26.7383 240 27.0117C240 27.2852 240.098 27.5195 240.293 27.7148C240.488 27.9102 240.723 28.0078 240.996 28.0078H243.008C243.281 28.0078 243.516 27.9102 243.711 27.7148C243.906 27.5195 244.004 27.2852 244.004 27.0117C244.004 26.7383 244.102 26.5039 244.297 26.3086C244.492 26.1133 244.727 26.0156 245 26.0156H246.992C247.266 26.0156 247.507 25.918 247.715 25.7227C247.91 25.5273 248.008 25.2865 248.008 25V25.0195C248.008 24.7331 248.099 24.4922 248.281 24.2969C248.49 24.1016 248.73 24.0039 249.004 24.0039C249.277 24.0039 249.512 23.9062 249.707 23.7109C249.902 23.5156 250 23.2812 250 23.0078C250 22.7344 250.098 22.5 250.293 22.3047C250.488 22.1094 250.723 22.0117 250.996 22.0117C251.27 22.0117 251.504 21.9141 251.699 21.7188C251.895 21.5234 251.992 21.2891 251.992 21.0156C251.992 20.7422 252.09 20.5013 252.285 20.293C252.48 20.0977 252.721 20 253.008 20C253.281 20 253.516 20.0977 253.711 20.293C253.906 20.5013 254.004 20.7422 254.004 21.0156C254.004 21.2891 253.906 21.5234 253.711 21.7188C253.516 21.9141 253.281 22.0117 253.008 22.0117C252.721 22.0117 252.48 22.1094 252.285 22.3047C252.09 22.5 251.992 22.7344 251.992 23.0078V25C251.992 25.2865 251.895 25.5273 251.699 25.7227C251.504 25.918 251.27 26.0156 250.996 26.0156C250.723 26.0156 250.488 26.1133 250.293 26.3086C250.098 26.5039 250 26.7383 250 27.0117C250 27.2852 249.902 27.5195 249.707 27.7148C249.512 27.9102 249.277 28.0078 249.004 28.0078C248.73 28.0078 248.49 28.1055 248.281 28.3008C248.099 28.4961 248.008 28.7305 248.008 29.0039C248.008 29.2773 247.91 29.5182 247.715 29.7266C247.507 29.9089 247.266 30 246.992 30H236.992Z" fill="#D3FF00"/>
</svg>
