<svg width="156" height="37" viewBox="0 0 156 37" fill="none" xmlns="http://www.w3.org/2000/svg">
<g filter="url(#filter0_d_449_83)">
<path d="M14.68 1.04C15.94 1.13 15.43 2.36 15.58 2.9C15.73 3.47 16.27 3.86 16.21 4.7C16.12 5.9 14.86 6.41 14.44 7.64C14.2 8.36 14.38 8.93 14.14 9.89C13.84 11.03 12.1 13.07 11.8 14.75C11.65 15.62 12.01 16.37 12.1 17.09C12.22 18.02 11.44 19.25 11.95 19.91C12.4 20.48 13.3 19.58 14.32 19.76C15.82 20.03 15.88 22.1 14.35 22.49C13.42 22.73 12.76 22.34 11.89 22.55C11.02 22.76 10.6 23.18 9.91 23.3C9.22 23.42 8.8 23.21 8.17 23.3C7.54 23.39 6.88 24.17 5.86 23.99C4.54 23.75 4.84 21.68 5.95 21.14C6.88 20.69 8.44 21.05 9.04 20.24C9.55 19.55 8.71 18.32 8.86 17.51C9.01 16.7 9.7 16.58 9.91 15.8C10.27 14.42 9.82 13.22 10.06 11.84C10.3 10.49 12.28 7.61 12.91 6.53C13.54 5.45 12.82 4.16 12.07 5.12C11.29 6.11 11.05 6.92 10.39 7.16C9.7 7.4 9.58 6.95 9.13 7.13C8.65 7.31 8.38 7.73 7.96 7.58C7.24 7.31 7.09 5.54 8.56 4.64C9.79 3.89 10.57 4.01 11.44 3.44C12.61 2.66 13.33 0.95 14.68 1.04ZM21.0566 7.46C21.1766 6.59 21.9266 6.44 22.5566 5.84C23.0366 5.39 23.0366 4.46 24.0266 4.55C25.0166 4.64 24.9266 5.69 25.1966 6.26C25.4666 6.83 26.0366 7.22 25.9766 8.24C25.9166 9.17 24.8666 9.74 23.9366 9.65C22.8866 9.56 22.6166 10.76 23.1566 11.36C23.5166 11.78 24.2066 11.42 24.5366 12.11C24.9266 12.95 23.8166 13.82 23.6666 14.66C23.4566 15.71 23.8466 16.16 23.7866 16.88C23.6966 18.08 22.0466 19.37 22.6166 20.36C23.0966 21.17 25.1666 20.63 25.1666 21.98C25.1666 23 24.0866 23.39 22.9766 23.27C21.9866 23.15 21.0566 22.7 20.2466 22.88C19.3166 23.12 19.2266 23.84 18.1166 23.96C17.1266 24.05 16.5566 22.94 17.1566 22.19C18.2666 20.78 19.5866 21.38 20.0966 20.33C20.6966 19.13 20.1566 17.87 20.3666 16.79C20.6066 15.59 21.4766 15.17 21.9566 14.36C22.3466 13.7 22.1966 12.92 21.5966 13.01C20.6966 13.16 20.2466 14.12 19.1666 14.12C17.9966 14.12 17.6066 12.74 18.3566 12.05C19.4066 11.06 21.3566 11.39 21.7466 9.8C22.0166 8.72 20.9066 8.45 21.0566 7.46ZM27.7956 18.17C28.4556 18.14 28.6656 19.04 29.5056 19.31C30.0756 19.49 30.6156 18.62 31.2456 18.98C31.8156 19.31 31.9356 20.3 32.2356 20.78C32.5956 21.35 33.4056 21.71 34.2156 21.32C35.2056 20.84 35.5656 19.64 35.1156 18.8C34.7256 18.05 33.6156 18.02 33.3456 17.24C33.0756 16.46 33.7956 15.86 33.1356 15.11C32.5956 14.51 31.3956 14.9 31.0656 13.88C30.6756 12.65 31.8156 11.96 32.3256 11.06C32.8956 10.04 32.4156 8.3 33.6756 8.03C34.9356 7.76 35.8056 9.35 36.7356 9.41C37.6356 9.47 38.0856 8.78 38.8056 8.63C39.5256 8.48 40.4856 8.81 41.0856 8.78C41.8656 8.75 41.9556 7.58 42.6756 7.22C43.3356 6.89 44.1456 7.28 44.8356 6.65C45.8256 5.75 45.7356 1.91 47.2956 1.46C48.4356 1.13 49.1256 2 49.1256 2.9C49.1256 3.8 48.0156 4.94 48.0156 5.69C48.0156 6.17 48.2556 6.56 48.7656 6.56C49.3056 6.56 50.0556 5.78 50.9556 5.78C51.8856 5.78 52.5156 6.17 52.5156 7.28C52.5156 8.15 51.7656 9.2 50.6556 9.38C49.6656 9.53 47.8656 9.14 46.9656 10.1C46.2456 10.88 47.0556 12.38 46.8456 13.64C46.6056 15.14 44.0856 18.05 45.1956 18.98C45.7656 19.46 46.3956 18.41 46.8756 18.23C47.4756 17.99 48.1356 18.2 48.8256 17.75C49.7556 17.15 49.6656 15.62 50.8356 14.81C52.2456 13.82 54.7056 14.24 54.9756 11.87C55.1556 10.31 55.7256 7.4 58.6056 7.4C60.0156 7.4 60.8256 8.57 60.9156 10.04C61.1556 13.82 54.6156 16.49 56.0556 18.35C57.2856 19.94 59.3556 15.95 61.3956 15.95C62.7156 15.95 63.8856 16.55 63.8856 18.11C63.8856 19.67 63.0456 20.06 62.2956 20.06C61.3956 20.06 61.3056 19.37 60.5856 19.46C59.5056 19.58 58.5156 22.31 56.1156 22.31C53.9856 22.31 53.4156 21.08 53.4156 19.85C53.4156 18.44 54.2556 17.96 54.2556 17.12C54.2556 16.31 53.8056 15.77 53.1156 16.01C51.8556 16.46 51.7956 18.8 50.6556 19.46C49.5156 20.12 48.8256 19.79 47.8056 20.3C46.7256 20.84 46.4856 22.91 45.0456 23.15C43.3656 23.42 42.3756 21.68 42.3756 20.3C42.3756 18.74 43.4256 17.93 43.6356 16.64C43.7856 15.77 43.3356 15.17 43.3356 14.09C43.3356 12.8 44.5656 11.54 44.7456 10.64C44.9556 9.65 43.9656 9.32 43.1256 9.92C42.2856 10.52 41.5056 11.69 39.7656 11.75C38.0856 11.81 37.1256 10.88 36.1956 10.79C35.0856 10.67 33.9456 12.02 34.3956 13.28C34.6056 13.85 35.3256 14.21 35.5956 14.69C35.8956 15.23 35.7156 15.83 36.1956 16.25C36.7056 16.7 37.3056 16.46 38.1456 17.15C39.0456 17.9 39.2256 19.49 38.3256 20.54C37.6956 21.29 36.9156 21.56 36.2256 22.31C35.7156 22.88 35.0856 24.56 33.7056 24.65C32.0256 24.77 31.3356 22.46 30.1656 22.07C29.2356 21.77 28.7856 22.55 27.9156 22.28C26.0856 21.71 26.1756 18.23 27.7956 18.17ZM58.3956 9.89C57.6756 9.41 56.4156 12.29 57.2256 12.65C58.0956 13.04 59.3256 10.49 58.3956 9.89ZM67.5763 13.07C67.1263 13.31 66.7963 13.76 66.2263 13.76C65.0863 13.76 64.6363 12.44 65.4163 11.75C65.8963 11.33 66.7663 11.21 67.4263 10.64C68.0863 10.07 67.9663 9.11 68.6563 8.42C69.5263 7.55 70.6363 7.91 70.7263 8.72C70.8163 9.59 69.9763 10.22 70.5463 10.55C71.2663 10.97 72.1663 8.12 73.7263 8.12C74.7463 8.12 74.8963 9.05 75.6163 9.59C76.2163 10.04 77.0263 9.68 77.5963 10.28C78.9163 11.66 75.8263 13.94 75.8263 15.23C75.8263 16.04 76.1263 16.49 76.1563 17.18C76.1863 17.87 75.8863 18.41 76.1263 18.86C76.3963 19.37 77.6263 19.07 77.6863 20.3C77.7463 21.77 75.7063 21.59 74.7463 21.89C73.5463 22.25 73.2463 23.06 72.1063 23.06C71.0563 23.06 70.8163 21.68 71.7463 20.75C72.8863 19.61 73.5763 19.91 73.7863 18.71C73.9963 17.51 73.3963 16.46 73.4563 15.38C73.5163 14.3 74.6263 13.22 74.3263 12.05C74.0263 10.88 72.4663 10.88 71.3863 12.44C70.6363 13.52 70.8763 14.42 70.4263 15.47C69.7663 16.97 69.0463 17.75 69.1363 18.83C69.2263 19.85 69.8863 20.03 70.3063 20.51C70.8163 21.08 70.7563 21.86 70.1863 22.25C69.5263 22.7 68.7763 22.58 68.0263 22.97C67.2463 23.36 66.6463 24.23 65.6863 24.23C64.1863 24.23 64.6663 22.43 65.6863 21.77C66.3763 21.32 67.0063 20.75 67.0663 19.94C67.1263 19.16 66.6763 18.14 67.0663 16.94C67.2763 16.31 68.2063 14.93 68.5063 13.97C68.8063 12.98 68.2363 12.71 67.5763 13.07ZM83.4883 7.46C83.6083 6.59 84.3583 6.44 84.9883 5.84C85.4683 5.39 85.4683 4.46 86.4583 4.55C87.4483 4.64 87.3583 5.69 87.6283 6.26C87.8983 6.83 88.4683 7.22 88.4083 8.24C88.3483 9.17 87.2983 9.74 86.3683 9.65C85.3183 9.56 85.0483 10.76 85.5883 11.36C85.9483 11.78 86.6383 11.42 86.9683 12.11C87.3583 12.95 86.2483 13.82 86.0983 14.66C85.8883 15.71 86.2783 16.16 86.2183 16.88C86.1283 18.08 84.4783 19.37 85.0483 20.36C85.5283 21.17 87.5983 20.63 87.5983 21.98C87.5983 23 86.5183 23.39 85.4083 23.27C84.4183 23.15 83.4883 22.7 82.6783 22.88C81.7483 23.12 81.6583 23.84 80.5483 23.96C79.5583 24.05 78.9883 22.94 79.5883 22.19C80.6983 20.78 82.0183 21.38 82.5283 20.33C83.1283 19.13 82.5883 17.87 82.7983 16.79C83.0383 15.59 83.9083 15.17 84.3883 14.36C84.7783 13.7 84.6283 12.92 84.0283 13.01C83.1283 13.16 82.6783 14.12 81.5983 14.12C80.4283 14.12 80.0383 12.74 80.7883 12.05C81.8383 11.06 83.7883 11.39 84.1783 9.8C84.4483 8.72 83.3383 8.45 83.4883 7.46ZM92.5373 13.07C92.0873 13.31 91.7573 13.76 91.1873 13.76C90.0473 13.76 89.5973 12.44 90.3773 11.75C90.8573 11.33 91.7273 11.21 92.3873 10.64C93.0473 10.07 92.9273 9.11 93.6173 8.42C94.4873 7.55 95.5973 7.91 95.6873 8.72C95.7773 9.59 94.9373 10.22 95.5073 10.55C96.2273 10.97 97.1273 8.12 98.6873 8.12C99.7073 8.12 99.8573 9.05 100.577 9.59C101.177 10.04 101.987 9.68 102.557 10.28C103.877 11.66 100.787 13.94 100.787 15.23C100.787 16.04 101.087 16.49 101.117 17.18C101.147 17.87 100.847 18.41 101.087 18.86C101.357 19.37 102.587 19.07 102.647 20.3C102.707 21.77 100.667 21.59 99.7073 21.89C98.5073 22.25 98.2073 23.06 97.0673 23.06C96.0173 23.06 95.7773 21.68 96.7073 20.75C97.8473 19.61 98.5373 19.91 98.7473 18.71C98.9573 17.51 98.3573 16.46 98.4173 15.38C98.4773 14.3 99.5873 13.22 99.2873 12.05C98.9873 10.88 97.4273 10.88 96.3473 12.44C95.5973 13.52 95.8373 14.42 95.3873 15.47C94.7273 16.97 94.0073 17.75 94.0973 18.83C94.1873 19.85 94.8473 20.03 95.2673 20.51C95.7773 21.08 95.7173 21.86 95.1473 22.25C94.4873 22.7 93.7373 22.58 92.9873 22.97C92.2073 23.36 91.6073 24.23 90.6473 24.23C89.1473 24.23 89.6273 22.43 90.6473 21.77C91.3373 21.32 91.9673 20.75 92.0273 19.94C92.0873 19.16 91.6373 18.14 92.0273 16.94C92.2373 16.31 93.1673 14.93 93.4673 13.97C93.7673 12.98 93.1973 12.71 92.5373 13.07ZM111.791 7.85C112.841 7.85 113.231 8.96 114.131 9.44C115.061 9.95 116.441 9.71 116.441 8.21C116.441 6.92 116.561 5.81 117.731 5.81C118.871 5.81 119.381 7.19 119.381 8.21C119.381 10.7 117.401 10.25 117.041 11.66C116.801 12.59 117.431 13.67 116.921 14.48C116.411 15.26 115.661 14.9 115.121 15.23C114.461 15.65 114.251 16.61 113.231 16.85C112.271 17.09 110.951 16.28 109.901 16.22C109.031 16.16 107.981 16.64 107.861 17.63C107.771 18.65 108.731 19.58 109.901 19.76C111.551 20 112.241 18.8 113.621 19.16C114.701 19.43 114.701 20.33 115.541 21.2C116.321 22.01 117.611 22.37 117.371 24.29C117.131 26.3 115.511 26.33 113.951 27.23C112.871 27.86 112.451 28.79 110.981 28.82C109.811 28.85 108.431 28.16 107.201 27.65C105.911 27.11 104.411 27.08 103.931 25.25C103.361 23.12 106.211 21.68 106.331 20.15C106.421 19.01 105.221 18.5 105.341 17.18C105.491 15.68 107.531 15.65 107.681 14.54C107.801 13.46 106.061 12.44 107.021 10.91C107.981 9.38 108.731 10.31 109.631 9.41C110.501 8.51 110.591 7.85 111.791 7.85ZM112.061 10.61C111.551 10.58 111.341 11.09 110.921 11.42C110.471 11.75 109.871 11.87 109.481 12.65C109.061 13.49 109.721 14.39 110.681 14.36C111.491 14.33 112.001 13.7 112.691 13.49C113.381 13.28 113.621 13.67 114.281 13.37C114.941 13.07 115.181 12.08 114.731 11.72C114.311 11.3 113.711 11.78 113.141 11.63C112.631 11.45 112.631 10.64 112.061 10.61ZM108.401 21.62C106.511 22.34 106.661 25.67 108.041 26.03C109.181 26.36 109.781 25.61 110.801 25.43C111.761 25.25 112.211 25.67 113.141 25.43C114.431 25.1 114.791 23.57 113.981 22.85C113.381 22.31 112.631 22.79 111.731 22.52C111.011 22.28 110.051 21.02 108.401 21.62ZM135.052 5.54C134.932 6.77 133.912 7.76 134.332 8.27C135.022 9.08 136.312 7.67 137.272 7.82C138.892 8.06 137.662 10.82 135.832 11.12C134.752 11.3 133.252 10.91 133.102 12.68C133.012 13.82 133.672 14.72 133.612 15.98C133.552 17.3 131.542 19.1 132.292 19.55C133.462 20.24 135.172 17.15 136.612 17.03C138.052 16.91 138.082 18.89 136.822 20.12C135.742 21.17 135.292 20.75 134.422 21.29C133.702 21.74 132.772 23.75 130.972 23.48C129.922 23.33 129.382 22.55 129.442 21.62C129.532 20.45 130.252 19.64 130.312 18.74C130.372 17.99 129.922 17.15 130.012 16.16C130.132 14.99 131.182 13.67 131.332 12.53C131.422 11.9 130.822 11.3 130.342 11.39C129.532 11.54 129.172 12.35 127.972 12.23C126.982 12.14 126.532 10.67 128.452 10.04C129.352 9.74 129.232 9.08 130.072 8.78C130.822 8.51 131.302 8.93 131.812 8.42C132.502 7.73 131.992 6.44 132.022 5.36C132.082 3.32 135.322 2.72 135.052 5.54ZM144.323 9.05C146.573 8.75 145.823 10.52 146.813 11.06C147.683 11.51 149.183 10.73 150.023 11.57C150.773 12.35 150.473 13.31 150.803 13.85C151.223 14.54 151.433 15.32 151.253 16.43C151.013 17.69 150.173 18.5 149.123 18.98C147.833 19.58 147.983 20.36 147.203 21.23C146.273 22.16 144.593 22.79 143.573 22.61C142.373 22.4 142.613 21.38 141.743 20.9C140.933 20.42 140.183 20.72 139.793 19.97C139.343 19.13 139.553 18.38 139.553 17.54C139.553 16.64 139.163 15.05 139.553 14.24C140.003 13.22 140.933 12.95 141.743 12.08C142.463 11.33 142.283 9.29 144.323 9.05ZM143.573 13.25C141.653 13.34 140.813 18.35 142.703 18.98C144.563 19.58 145.343 18.41 146.573 18.14C149.213 17.45 149.363 14.54 147.893 13.85C146.933 13.37 146.453 14.18 145.553 13.94C144.773 13.76 144.323 13.25 143.573 13.25Z" fill="#9FABDC"/>
</g>
<defs>
<filter id="filter0_d_449_83" x="0.540039" y="0.949951" width="154.893" height="35.9001" filterUnits="userSpaceOnUse" color-interpolation-filters="sRGB">
<feFlood flood-opacity="0" result="BackgroundImageFix"/>
<feColorMatrix in="SourceAlpha" type="matrix" values="0 0 0 0 0 0 0 0 0 0 0 0 0 0 0 0 0 0 127 0" result="hardAlpha"/>
<feOffset dy="4"/>
<feGaussianBlur stdDeviation="2"/>
<feComposite in2="hardAlpha" operator="out"/>
<feColorMatrix type="matrix" values="0 0 0 0 0 0 0 0 0 0 0 0 0 0 0 0 0 0 0.25 0"/>
<feBlend mode="normal" in2="BackgroundImageFix" result="effect1_dropShadow_449_83"/>
<feBlend mode="normal" in="SourceGraphic" in2="effect1_dropShadow_449_83" result="shape"/>
</filter>
</defs>
</svg>
