<svg width="1872" height="1204" viewBox="0 0 1872 1204" fill="none" xmlns="http://www.w3.org/2000/svg">
<rect y="398" width="79" height="79" fill="#A688D8"/>
<rect x="214" y="477" width="79" height="216" fill="#6A0EFF"/>
<rect x="1572" y="602" width="79" height="216" fill="#6A0EFF"/>
<rect x="79" y="1125" width="79" height="79" fill="#A688D8"/>
<rect x="1793" y="397" width="79" height="79" fill="#A688D8"/>
<path d="M1715 1125H1794V1204H1715V1125Z" fill="#A688D8"/>
<rect x="901" y="764" width="79" height="134" fill="#0E9AFF"/>
<rect x="79" width="79" height="134" fill="#0E9AFF"/>
<rect x="1714" width="79" height="134" fill="#0E9AFF"/>
<rect x="79" y="693" width="334" height="432" fill="#D9D9D9"/>
<rect x="1429" y="134" width="364" height="469" fill="#D9D9D9"/>
<rect x="79" y="134" width="443" height="343" fill="#D9D9D9"/>
<rect x="1400" y="819" width="393" height="306" fill="#D9D9D9"/>
<rect x="794" y="898" width="294" height="227" fill="#D9D9D9"/>
<rect x="654" y="331" width="574" height="435" fill="#D9D9D9"/>
</svg>
